<?xml version="1.0" encoding="UTF-8"?>
<svg id="_图层_1" data-name="图层 1" xmlns="http://www.w3.org/2000/svg" viewBox="0 0 360 480">
  <defs>
    <style>
      .cls-1 {
        fill: #f2efe7;
      }

      .cls-2 {
        fill: #d9983f;
      }

      .cls-3 {
        fill: #f5f2eb;
      }

      .cls-4 {
        fill: #efb89c;
      }

      .cls-5 {
        fill: #3e1b15;
      }

      .cls-6 {
        fill: #dcdbd8;
      }

      .cls-7 {
        fill: #8e4616;
      }

      .cls-8 {
        fill: #a89f9b;
      }

      .cls-9 {
        fill: #954d37;
      }

      .cls-10 {
        fill: #f4bfa4;
      }

      .cls-11 {
        fill: #eaae4b;
      }

      .cls-12 {
        fill: #f0ba9c;
      }

      .cls-13 {
        fill: #c1762c;
      }

      .cls-14 {
        fill: #bb6f28;
      }

      .cls-15 {
        fill: #c93b29;
      }

      .cls-16 {
        fill: #c4826d;
      }

      .cls-17 {
        fill: #c18268;
      }

      .cls-18 {
        fill: #f3efe6;
      }

      .cls-19 {
        fill: #f3c5a7;
      }

      .cls-20 {
        fill: #f7c8aa;
      }

      .cls-21 {
        fill: #9e5840;
      }

      .cls-22 {
        fill: #fcfcf3;
      }

      .cls-23 {
        fill: #f9cdad;
      }

      .cls-24 {
        fill: #cb8130;
      }

      .cls-25 {
        fill: #ebb295;
      }

      .cls-26 {
        fill: #ecbf6a;
      }

      .cls-27 {
        fill: #c4bcb9;
      }

      .cls-28 {
        fill: #d0c8c3;
      }

      .cls-29 {
        fill: #c58971;
      }

      .cls-30 {
        fill: #fddb80;
      }

      .cls-31 {
        fill: #9b928f;
      }

      .cls-32 {
        fill: #c28c43;
      }

      .cls-33 {
        fill: #e9e5de;
      }

      .cls-34 {
        fill: #f3efe7;
      }

      .cls-35 {
        fill: #e1ddd6;
      }

      .cls-36 {
        fill: #e3e0da;
      }

      .cls-37 {
        fill: #9d9592;
      }

      .cls-38 {
        fill: #a79f9c;
      }

      .cls-39 {
        fill: #eeb79b;
      }

      .cls-40 {
        fill: #af644f;
      }

      .cls-41 {
        fill: #b57d35;
      }

      .cls-42 {
        fill: #d69c81;
      }

      .cls-43 {
        fill: #fad879;
      }

      .cls-44 {
        fill: #f9ceaf;
      }

      .cls-45 {
        fill: #dea046;
      }

      .cls-46 {
        fill: #9f553f;
      }

      .cls-47 {
        fill: #fde79a;
      }

      .cls-48 {
        fill: #f6f2ec;
      }

      .cls-49 {
        fill: #eae6df;
      }

      .cls-50 {
        fill: #f7cc6e;
      }

      .cls-51 {
        fill: #cfc8c4;
      }

      .cls-52 {
        fill: #a96236;
      }

      .cls-53 {
        fill: #ba745c;
      }

      .cls-54 {
        fill: #dfb055;
      }

      .cls-55 {
        fill: #c6bfbb;
      }

      .cls-56 {
        fill: #c08066;
      }

      .cls-57 {
        fill: #b87b63;
      }

      .cls-58 {
        fill: #c1b9b4;
      }

      .cls-59 {
        fill: #d7d1cb;
      }

      .cls-60 {
        fill: #e2ded8;
      }

      .cls-61 {
        fill: #f1b853;
      }

      .cls-62 {
        fill: #9a8c86;
      }

      .cls-63 {
        fill: #cb9b51;
      }

      .cls-64 {
        fill: #c6865c;
      }

      .cls-65 {
        fill: #261e1b;
      }

      .cls-66 {
        fill: #fdfcf5;
      }

      .cls-67 {
        fill: #211c17;
      }

      .cls-68 {
        fill: #b47950;
      }

      .cls-69 {
        fill: #a29896;
      }

      .cls-70 {
        fill: #cf8d3c;
      }

      .cls-71 {
        fill: #ecbea1;
      }

      .cls-72 {
        fill: #f8d2bc;
      }

      .cls-73 {
        fill: #c6c1bc;
      }

      .cls-74 {
        fill: #21150f;
      }

      .cls-75 {
        fill: #f9cdb2;
      }

      .cls-76 {
        fill: #f8c9a9;
      }

      .cls-77 {
        fill: #231c18;
      }

      .cls-78 {
        fill: #f5c8a6;
      }

      .cls-79 {
        fill: #f6f3ec;
      }

      .cls-80 {
        fill: #edbfa2;
      }

      .cls-81 {
        fill: #c38739;
      }

      .cls-82 {
        fill: #fad4b7;
      }

      .cls-83 {
        fill: #c98873;
      }

      .cls-84 {
        fill: #fcfcf5;
      }

      .cls-85 {
        fill: #734d41;
      }

      .cls-86 {
        fill: #fdfcf7;
      }

      .cls-87 {
        fill: #f8d075;
      }

      .cls-88 {
        fill: #5a392d;
      }

      .cls-89 {
        fill: #f2eee6;
      }

      .cls-90 {
        fill: #bc7663;
      }

      .cls-91 {
        fill: #b47a31;
      }

      .cls-92 {
        fill: #d7d2cc;
      }

      .cls-93 {
        fill: #f9cfb6;
      }

      .cls-94 {
        fill: #a1604c;
      }

      .cls-95 {
        fill: #934d3d;
      }

      .cls-96 {
        fill: #fdd673;
      }

      .cls-97 {
        fill: #ad6850;
      }

      .cls-98 {
        fill: #fefefe;
      }

      .cls-99 {
        fill: #94503a;
      }

      .cls-100 {
        fill: #da9a3f;
      }

      .cls-101 {
        fill: #ebe8e1;
      }

      .cls-102 {
        fill: #fdfef8;
      }

      .cls-103 {
        fill: #fcdabc;
      }

      .cls-104 {
        fill: #aba29f;
      }

      .cls-105 {
        fill: #e0b567;
      }

      .cls-106 {
        fill: #e4e0d8;
      }

      .cls-107 {
        fill: #ebe7df;
      }

      .cls-108 {
        fill: #a45f49;
      }

      .cls-109 {
        fill: #fcdabd;
      }

      .cls-110 {
        fill: #bd7b5f;
      }

      .cls-111 {
        fill: #f6d275;
      }

      .cls-112 {
        fill: #f7cb6a;
      }

      .cls-113 {
        fill: #904d39;
      }

      .cls-114 {
        fill: #dfa287;
      }

      .cls-115 {
        fill: #d6ceca;
      }

      .cls-116 {
        fill: #914f32;
      }

      .cls-117 {
        fill: #d8d6d3;
      }
    </style>
  </defs>
  <path class="cls-98" d="M0,372V0h360v480h-6.89c-5.53-2.28-11.1-4.61-16.71-7-20.29-6.65-41.29-11.23-63-13.75-.22-.85-.11-1.73.31-2.62-.45-.41-1.12-1.04-.94-1.46,1.8-4.16,8.11-17.62,10.45-20.45.88-1.06,1.68-1.92,2.97-2.51-1.4-1.1-.84-2.2,1.69-3.28l-.41-1.6s12.24-10,36.71-30.01l2.02.28c-.6-.5-.73-.7.05-1l-.68-4.93c2.54-16.83,4.77-33.66,6.67-50.51-2.69-2.81-2-4.37.43-6.92,2.4-5.37,3.7-17.9,4.13-24.19.02-.23-3.02-2.34-3.8-2.64l-30.72-12.48c-1.94-.57-2.74-1.61-2.38-3.1-1.31-2.37-2.61-4.79-3.31-7.42-3.77-14.12-7.46-28.33-11.07-42.49-.67-2.64-.78-5.37-.84-8.08l-1.16-3.32c1.83-10.27,3.57-20.46,5.22-30.57-3.44-6.34-6.64-13.1-9.72-19.78-.25-.55-.27-1.21-.28-1.9s.08-1.4.2-2.1l-.37-1.61c11.23-8.35,22.14-16.99,32.73-25.92.79-2.49,2.05-3.79,3.77-3.9-1.41-1.84,1.46-6.05,3.62-5.95l-.1-3.42,3.85-7.2c3.23-11.84,4.63-28.82-4.73-38.1l.84-1.5-2.5-1.43c-2.69-5.9-6.23-11.12-10.63-15.67-7.12-5.14-14.51-9.67-22.17-13.61l-.7-1.62-2.71.51c-20.48-2.35-40.96-4.6-61.44-6.73l-2.48-1.23-3.99-1.54-27.47-17.89c-9.76-1.27-19.3-3.32-28.6-6.15-.22,1.94-.7,1.86-1.51.12l-9.4,3.78-45.16,12.54-37.27,23.62-5.75,10.16-1.82.15c.17.42-.13.68-.88.78-.29,1.47-.98,2.93-2.07,4.39l-28.27,29.96-6.17,26.68-14.69,19.77.06,11.33c3.37,3.91,3.31,6.77-.17,8.6.07.67-.34,1.31-1.23,1.92l1.47-.45,25.85,25.47,1.88,3.36c1.18-.49,1.47-.03.72,1.01,1.03,1,.69,1.82-.73,1.5.62.73.64,1.81.35,2.7l-17.55,36.17,1.2,6.52-3.81,91.69-9.24,26.68-1.71.35Z"/>
  <path class="cls-98" d="M6.02,432.12l25.42,41.83.48,2.15c-2.9,1.82-6.04,3.12-9.44,3.89H0v-90.75c3.82,5.65,9.17,11.51,11.79,18l-5.77,24.88Z"/>
  <path class="cls-117" d="M34.91,480h-12.43c1.66-2.46,9.81-4.5,8.95-6.04,1.19,1.96,2.75,3.81,3.47,6.04Z"/>
  <g>
    <g>
      <path class="cls-6" d="M353.11,480h-110.11c6.55-1.79,13.33-2.36,20.44-3.53l10.27-19.85c-.03.32-.13.84.07,1.12.24.33.79.36,1.51.45,17.52,2.19,34.42,5.3,51.38,10.03,6.16,1.72,23.01,7.43,26.44,11.77Z"/>
      <path class="cls-18" d="M272,161.33c2.42-.58,2.83,1.56,1.88,3.63,1.08,3.98,3.53,7.44,5.08,11.2,2.81,6.82,6.19,13.51,9.56,20.39,2.38,2.07,1.81,4.5,1.36,7.22-1.73,10.26-4.31,20.1-5.17,30.07.03,1.41-.06,2.61-.56,3.91-1.71,4.44-4.99,11.56-7.3,15.69l-2.41,1.63c-2.19.2-4.05-4.08-2.15-5.33l-1.46-.95c1.94-11.27,4.12-22.5,6.56-33.68l1.59-1.26c-1.41-4.38-2.08-9.01-2.02-13.91-2.19-9.76-5.19-19.23-9-28.42-1.41.3-2.13.38-2.3-1.36-2.13-2.51,3.33-10.66,6.36-8.83Z"/>
      <path class="cls-51" d="M284.69,233.83c5.83,19.11,10.63,38.56,15.22,57.99-3.57-.33-6.67-2.53-10.14-3.6-2.06,2.27-5.45-.92-6.87-3.01-.64-.69-1.25-1.39-1.78-2.16s-1-1.51-1.28-2.33c-2.8-8.06-5.96-17.3-5.42-25.67,3.39-7.1,6.11-14.64,10.27-21.23Z"/>
      <path class="cls-85" d="M289.83,305.15c-3.36,1.35-2.21-5.57-4.08-6.65.04-.99-.36-2.35.55-3l3.53,9.65Z"/>
      <g>
        <path class="cls-55" d="M286.19,432.21l-12.48,24.42.83,1.67c-3.23,6.58-6.69,13.04-10.38,19.37-7.01,1.03-14.06,1.81-21.15,2.34h-75.77v-1.65s25.81-12.04,25.81-12.04c-2.21.32-4.04-.11-5.49-1.28-.21-.77-.4-1.54-.47-2.32s-.13-1.51.04-2.2c2.41-9.58,5.74-19.33,9.23-28.57.25-.66.71-1.24,1.2-1.84s1.07-1.14,1.67-1.66c1.12-7.81,3.4-15.55,6.83-23.21l1.71-.32c1.45.42,2.04,1.78,1.77,4.08l-.15,49.82c25.15-9.14,50.38-18.43,75.7-27.87l1.12,1.26Z"/>
        <path class="cls-59" d="M264.87,362.87c.12-.65.36-.66.71-.06l1.96-.61c18.79,10.78,37.6,21.57,56.42,32.37.98.88,1.73,1.88,2.25,3.02l-38.32,31.33c-1.86,1.83-4.35,2.82-7.47,2.96-3.13,1.19-5.41,1.12-6.86-.22l-4.04-3.85-43.91-66.12c-.97-1.27-1.59-2.5-.51-3.88l.87-1.4c12.57,1.6,25.15,3.19,37.73,4.79l1.18,1.66Z"/>
        <path class="cls-31" d="M273.55,431.67l14.33-2.74c-.31,1.22-1.14,2.19-1.69,3.28-1.32.27-2.61.58-4.24,1.2l-74.09,28.08.17-51.96c0-1.79-.36-3.24-.27-4.61l-.04-2.84c3.66-13.87,8.14-27.44,13.44-40.72l1.86-2.18c1.88-.35,2.03,1.62,2.06,3.14l-3.91,29.75,18.32,22.24,30.51,14.07,3.56,3.3Z"/>
        <path class="cls-101" d="M299.91,291.83c1.62,1.12,3.77,2.18,5.96,3.06l27.31,10.96c1.64.66,4.31,2.4,5.04,3.95-.68,7.42-1.94,14.34-2.97,21.61-.31,2.17-1.34,4.17-2.89,5.49-1.69,1.44,1.49,2.85,1.16,3.73,1.5-3.96-7.44,59.39-7.26,55.96-2.9-2.63-4.87-6.12-5.91-10.47l-19.54-52.13.92-1.8-1.68-.42c-2.51-8.64-5.01-17.29-7.52-25.94l1.14-1.47c-3.55-3.7-5.4-11.23-3.89-16.13.79-1.79,7.72,1.05,8.91,1.88l1.23,1.72Z"/>
        <path class="cls-106" d="M326.26,396.59l-.05,1-60.62-34.78-.44-1.59c11.64-9.86,23.29-19.73,34.94-29.6l1.65.57,13.76,36.37c3.63,9.6,6.69,19.02,10.77,28.04Z"/>
        <path class="cls-101" d="M199.22,428.45c-4.36,12.01-8.77,24.14-11.66,36.59l-50.72,3.95,13.09-19.04c-.37-.68-.55-1.49-.28-2.24l31.58-45.85c4.25-6.83,8-13.93,11.24-21.31l2.57-1.89c-1.52-2.54,2.94-8.56,5.69-8.74l1.47.75-1.98,50.68c-.67,2.43-1.01,4.79-1.02,7.08Z"/>
        <path class="cls-84" d="M224.26,329.84c.25,9.58.17,19.18-.24,28.82l-1,.5c-5.58,15.08-9.79,30.69-15.25,45.75l-8.54,23.53c-.54.52-.57-.26-.73-.95l2.25-57.57c-.58-.03-1.47-.22-1.47-.58,0-3.29.85-26.01,1.51-27.2l29.19-28.17,1.68.47c.35.17.65.36.8.64.46.83-3.01,7.64-3.8,9.08-.82,2.73-2.29,4.63-4.39,5.69Z"/>
        <path class="cls-102" d="M293.66,304.36l8.07,27.83-36.15,30.63c-.23,0-.48.09-.71.06l-1.59-.72c-4.19-13.68-7.82-27.48-10.89-41.38l1.77-1.3c.5-.61,1.02-1.2,1.6-1.71,3.05-2.65,18.25-8.15,23.34-9.93,1.43-.5,2.96-.5,4.45-.4,1.15-2.6,3.24-3.18,6.28-1.76-.05-2.39,2.46-3.43,3.83-1.3Z"/>
        <path class="cls-58" d="M227.82,329.27c1.37.12,1.82,1.1,1.36,2.94-1.3,8.1-2.25,16.23-2.84,24.38l-1.25,1.23c1.44,2.98,3.55,5.46,5.57,8.51l31.13,46.89c4.2,6.33,8.17,12.17,11.76,18.44l-35-16.23-19.11-23.1,4.08-29.32c.22-1.56-.33-2.87-.51-3.85l-.04-27.62c0-1.01.75-1.43,1.28-1.7,1.58-2.25,2.77-2.44,3.57-.57Z"/>
        <path class="cls-35" d="M254.16,319.47c-.66.93-.55,2-.18,3.36l10.89,40.04-39.78-5.05c-1.42-2.95,2.92-23.21,2.73-28.55.14-2.1,5.26-4.87,6.86-2.99,5.16-3.83,13.09-6.77,19.48-6.82Z"/>
        <path class="cls-3" d="M289.77,288.23c.99,5.27,2.38,10.91,3.89,16.13-1.41.02-2.57.87-3.83,1.3-.68.01-.65-.16,0-.51-2.25-1.57-3.33-6.77-3.53-9.65-3.11-2.04-4.64-6.75-3.4-10.28,2.42.61,4.52,2.28,6.87,3.01Z"/>
        <path class="cls-8" d="M233.19,312.8c.18,1.67.04,2.74-1.54,1.64l-29.55,28.23-1.36,27.26c-1.67,2.91-4.24,5.74-5.69,8.74-.85-.57-1.87-.8-2.89-.75.64-.72.76-2.38.71-3.64l-1.35-36.63c.76-1.53,2.35-2.48,4.75-2.84,2.09-1.44,3.93-1.79,5.53-1.06l3.17-3.94c8.75-7.54,17.44-15.01,26.06-22.42l1.63.89c2.86-1.48,3.14,3.79.54,4.53Z"/>
        <path class="cls-62" d="M234.68,326.29c-2.27.62-4.39,2.63-6.86,2.99-1.19.17-2.4.26-3.57.57l7.39-15.41c.54-.52,1.41-.76,1.54-1.64l1.78.71c.37,3.86.65,7.7.84,11.53l-1.12,1.24Z"/>
        <g>
          <path class="cls-38" d="M149.93,449.95l.85,1.41-10.87,15.81,46.63-3.56,1.02,1.42c4.86-.38,9.71-.63,14.91-1.45l-35.23,16.42h-88.29c-.57-.15-1.41-.46-1.39-.88.11-1.97,2.04-17,2.57-17.72.39-.53,1.01-.76,1.64-.86l1.08-2.92c6.05-2.5,12-5.26,17.85-8.29,7.43-3.04,14.92-4.7,22.46-4.99,3.84-1.61,19.02-4.94,22.25-3.65,2.86,1.14,5.22,6.38,4.52,9.26Z"/>
          <path class="cls-27" d="M8.26,431.64l4.57-.4c23.27,5.82,46.51,11.63,69.72,17.44l.52,1.68c1.65,2.84.36,7.42-1.3,10.18l-2.82,19.47h-44.04c-2.47-.6-4.71-3.95-3.47-6.04l-1.65.18-24.59-40.46.81-1.55c.41-.85,1.67-.28,2.24-.49Z"/>
          <path class="cls-115" d="M90.81,413.18l2.18-.55,41.81,21.88c2.28.8,3.08,1.94,2.39,3.42-.73.61-1.47,1.19-2.28,1.68s-1.58.94-2.42,1.18c-15.24,4.33-31.11,7.18-46.63,9.95l-2.8-.39-74.8-18.72c.77-.8,1.95-1.21,3.49-1.54l70.23-15.05c2.43-.52,4.42-.87,6.31-1.77.09-.83.93-.86,2.53-.1Z"/>
          <path class="cls-66" d="M86.37,311.9c-.76,2.65-2,5.36-3.71,8.13-15.24,22.42-30.45,44.78-45.61,67.09l-1.76-.08c-.39-.5-1.11-.75-1.35-1.78l-9.15-38.64c4.52-2.36,7.93-5.68,11.98-7.63l8.63-4.17,37.11-22.02c1.67-1.66,2.96-2.15,3.85-1.46.67.06.65.25,0,.57Z"/>
          <path class="cls-28" d="M64.78,371.39c.28.54.48,1.08.4,1.56-.65,4.12-4.18,13.26-6.08,17.24-.44.92-1.34,1.53-2.17,2.07-6.49-.4-12.82-2.45-19.56-3.49-1.23-.19-1.62-1.14-2.1-1.75l51.08-75.14c1.52-1.79,2.07-.67,2,1.49l-21.86,57.69-1.73.32Z"/>
          <path class="cls-89" d="M191.51,337.65c.59.04,1.49.22,1.52.63,1.01,12.97,1.08,26.42.89,39.38l-1.78.25c.4.44.93,1.21.66,1.51-17.53,20.25-35.74,40.15-54.13,59.53l-1.5-1.03c-1.05-1.06-2.43-1.75-4.02-2.59l-42.35-22.16c-4.71-1-8.59-4.28-12.1-7.45-2.74-1.68-5.42-3.74-8.17-5.41-1.66-1.97-3.93-3.4-6.83-4.27-2.5-.64-4.84-2.11-6.78-3.79,1.94-7.19,5.22-13.96,7.84-20.88,3.37-1.97,3.03,3,2.01,5.48l1.47,10.98c2.9.03,4.3,2.39,4.18,7.08l5.2,1.07c3.12-1.21,5.45-1.02,6.98.56,1.51,3.93,3.97,6.02,7.4,6.27l.95,1.49c1.08,1.33,1.1,3.24.08,5.73,27.25-19.47,53.83-39.73,79.73-60.76,5.67-6.78,11.05-13.81,16.14-21.08l2.42-.47c1.74,1.74,2.34,8.46.16,9.91Z"/>
          <path class="cls-49" d="M90.81,413.18l-2.53.1c-4.07-1.39-7.11-4.06-9.57-7.55l12.1,7.45Z"/>
          <path class="cls-49" d="M70.55,400.33c-2.29-1.39-4.92-2.35-6.83-4.27,2.93.75,7.05.91,6.83,4.27Z"/>
          <path class="cls-69" d="M195.05,378.66c-4.07,8.43-7.82,17.16-13.38,25.24l-31.73,46.05c-1.69-1.69-1.89-4.31-3.29-6.45-2.35-3.58-7-.19-13.96-.31-4.05-.07-7.81,3.26-11.73,2.74-2.26-.3-3.2-.31-5.33.44-6.27,2.21-13.1,3.03-18.9,6.54-8.52,5.17-10.58,3.13-14.96,7.62-.17-3.41.25-6.93,1.3-10.18,18.04-4.17,36.39-7.32,54.12-12.43,1.12-.32,1.65-.75,2.61-1.81l25.03-27.56,27.33-30.65c1.39-2.23,2.57-1.75,2.89.75Z"/>
          <path class="cls-79" d="M139.53,267.69c.27-.63.51-.6.72.07.64.17.62.41-.01.73l1.02,1.41-12.7,28.72-1.74,7.27c-.47,1.14-1.37.91-2.36.16-1.01-.82-1.47-1.68-1.39-2.57-11.05,1.98-22.01,4.25-32.87,6.8-1.38,1.28-2.66,1.64-3.84,1.06-.97.83-2.77.82-3.85,1.46,1.6-.9,2.08-3.52,3.67-4.59,7.36-4.99,14.5-10.24,18.75-17.87,2.31-2.03,4.62-4.41,6.92-7.14l1.48-.42c.29-.22.53-.5.71-.82l.47-1.59c2.53-2.68,12.53-13.2,14.86-14.61,2.62-1.57,8.6-.79,10.17,1.94Z"/>
          <path class="cls-49" d="M124.46,306.04l1.27.96c-10.34,32.3-20.69,64.6-31.04,96.92l-1.71.42c-7.28.34-7.87-4.93-9.82-7.21-1.84-2.16-2.5,1.84-8.95-.24-1.2-.39-2.47-.3-3.06-1.12-1.36-1.89-.18-4.87-.78-5.98-.3-.57-.88.32-4.01-1.02-1.28-.55.95-1.47.75-2.07-.71-2.11-.51-4.17-.88-6.09-.4-2.09-1.63-3.4-.38-5.86.55-1.08.1-3.18-1.06-3.34l22.21-58.61c.26-.77.03-1.37-.63-.88v-.57c1.74-1.84,3.55-2.89,6.34-3.44l32.6-6.39c-.4,2.28-.5,3.46-.84,4.53Z"/>
          <path class="cls-22" d="M182.99,282.25c.59.29.91.83.94,1.61l-12.68,30.89c7.24,2.65,14.56,5.06,21.97,7.21,1.3.77,1.24,1.68.25,2.79,1.88,1.44-.12,4.21-2.11,2.99-7,7.55-11.52,17.75-19.73,24.64-25.63,21.51-52.77,40.09-80.25,60.52-.08-3.18.77-5.99,1.6-8.58l31.48-98.29c2.33-.84.17-2.3,3.12-8.97l12.66-28.58c.65-.22,1.31-.42,1.99-.52s1.3-.18,1.86-.03c12.4,3.22,24.38,6.53,36.24,11.47.54.22.98.69,1.44,1.18s.85,1.07,1.22,1.66Z"/>
          <path class="cls-1" d="M190.66,293.99l4.41,26.28c.36,2.15,0,3.41-1.61,4.48.24-.72-.36-1.32-1.31-1.61-7.85-2.4-15.57-4.48-23.01-7.67l13.85-33.22.74-.12c.81,0,1.64.12,2.28.65,1.52,1.23,5.66,9.06,4.64,11.21Z"/>
        </g>
      </g>
    </g>
    <g>
      <path class="cls-74" d="M153.88,162.02c3.83-1.25,5.74-.51,5.73,2.21,2.05,1.33.78,4.36-1.49,4.48-.8,2.15-3.53,1.66-3.68-.6-.17.56-.47,1.37-.9,1.37-2.35-.02-8.99-.83-9.49-3.11-1.81.08-3.6.15-5.39.2-.29,1.93-.95,3.61-1.98,5.04,1.56,1.05,2.7,2.88,3.42,5.49l3.37,4.72-.35,1.88c1.78,1.86.32,4.6-2.18,3.74-2.42.1-4.45-1.43-6.07-4.59l-3.77-6.54.64-2.14c-.39.04-.76.04-1.05-.11-.86-.44-3.45-8.94-1.16-9.58,2.68-.96,5.29-2.69,7.8-3.97.57-.29,1.51-.61,2.12-.74,4.24-1.22,8.66-1.03,13.26.57l1.16,1.66Z"/>
      <path class="cls-100" d="M220.49,293.29l1.07,1.24-16.84,35.75-2.93,3.46c-3.14,1.83-6.69,3.42-10.28,3.91-.12-3.3-.81-6.63-.16-9.91.81-.87,1.63-1.92,2.11-2.99-.09-1.21-.03-2.43.21-3.68l-4.31-25.77,1.3-1.32c-.89-1.87-.44-2.01,1.18-.68l1.56-1.32c6.85,3.01,13.6,3.73,20.26,2.17,5.09-3.67,7.36-3.96,6.83-.87Z"/>
      <path class="cls-112" d="M232.9,279.61l.5,24.93c.03,1.48-.35,2.73-.75,3.73-3.19,1.3-5.2,4.11-7.88,6.44l-9.65,8.42c-4.39,3.83-8.56,7.82-13.33,10.61,2.45-6.77,5.89-13.16,9.09-19.97l9.61-20.48c.03-5.73,4.28-13.22,9.04-16.41,1.69-1.23,2.81-.32,3.37,2.73Z"/>
      <path class="cls-116" d="M193.53,289.47c1.69,1.41.43,3.84-1.69,3.84-.43-.03-.84.49-1.18.68-2.29-3.84-4.25-8.27-6.93-11.85.03-.78-.4-1.8-.01-2.48l2.97-5.21c1.94-1.82,4.83-4.49,7.32-2.7.41.11.81.25,1.15.47,1.89,1.23-.79,14.54-1.63,17.26Z"/>
      <path class="cls-13" d="M232.9,279.61c-1.2-.83-2-2.13-3.37-2.73l-1.96-.35c-4.53-5.8-9.27-11.45-14.23-16.93l-.33-2.28-.73-1.5c1.67-2.75,1.27-6.19.29-9.14l1.09-1.34c-2.23-1.98,3.03-6.34,4.62-3.86,4.32,13.86,10.94,18.87,13.7,26.67,1.21,3.43.85,7.98.92,11.46Z"/>
      <path class="cls-9" d="M218.28,241.48c-1.94.68-3.67,2.02-4.62,3.86l-.15,1.66-9.5,5.15c-3.34,1.52-5.29,1.24-5.85-.85.66-1.01,1.34-2.83,1.68-3.99l1.79-2.28c3.02-.75,5.66-2.02,7.9-3.82.55-3.98,1.19-7.63,1.91-10.94-.78-1.56.49-2.81,3.79-3.74,1.93,4.68,1.56,10.2,3.05,14.95Z"/>
      <path class="cls-56" d="M144.06,166.37l10.38,1.74,1.34.55c-.95,4.34-2.34,8.69-4.16,13.06l-1.62.6c-1.47,1.36-2.6.46-3.4-2.71-1.23-.39-4.19,5.83-3.47,4.09-3.07-3.4-5.93-7.51-6.44-12.09,1.11-3.47,3.38-6.58,7.37-5.24Z"/>
      <g>
        <path class="cls-2" d="M243.73,79.53l2.87-1.17c23.39,2.77,46.78,5.62,70.15,8.54l1.83,1.64c1.8,3.18,5.92,6.53,6.46,10.69,1.01,7.84,1.56,16.32.48,24.23-.75,5.5-4.93,10.38-6.8,15.31l-1.51-.82-15.06-24.43c-3.11-.32-6.63-.53-10.55-.62l-1.93-1.82c-.8,1.36-2.44,1.51-4.91.47l-31.5-1.99-1.26-1.58-1.02,1.43c-3.53-.48-7-.33-10.42.44l-28.06,13.3c-1.69,1.67-3.2,2.11-4.51,1.33l-.8-1.45,27.74-37.8,4.31-4.17c-1.65-1.14-1.23-1.65.74-1.51.53-2.09,3-2.1,3.74-.04Z"/>
        <path class="cls-70" d="M289.66,111.1c4.83,2.25,2.97,5.82-1.73,6.76,2.84,3.23.42,4.92-3.04,5.76,2.4,2.63,1.97,4.72-1.56,5.88,1.36,1.45,2.71,2.93,1.23,4.85,1.91,1.33,2.62,2.59,2.15,3.77,5.47.11,22.68,2.56,26.57,5.12.65.43,1.23.94,1.8,1.48-1.34,2.08-2.17,5.17-4.44,6.93l-31.69,24.5c-2.08.39-6.15-8.27-6.09-9.4.04-.72.53-1.31,1.01-1.8l-.18-2.41,12.77-18.74-24.67-13.31c-4.04-6.84-7.36-14.32-9.79-21.75-.65-.21-.65-.46,0-.75l32.98,2.09,4.68,1.01Z"/>
        <path class="cls-30" d="M318.57,88.55l-74.84-9.02c-.12-2.07,1.1-3.75,3.65-5.05,10.62-6.19,21.37-12.07,32.26-17.66l2.94-.59c1.09.21,2.4.12,3.59,1.06,6.55,5.14,14.8,7.82,20.94,13.65,5.1,4.85,8.17,11.77,11.46,17.6Z"/>
        <path class="cls-47" d="M215.95,48.77c22.25,2.08,44.71,3.2,66.63,7.46-1.13,1.51-2.96,2.34-4.86,3.35l-23.52,12.47c-4.04,2.14-7.38,4.43-10.47,7.49-1.21-.15-2.52.31-3.74.04l-1.61.27-37.5-29.69-.69-1.61c-1.73-1.09-1.12-1.78.88-2.15.56-.1,10.15.57,11.28.76,1.2.2,2.61.89,3.61,1.62Z"/>
        <path class="cls-67" d="M318.71,138.78c-.82,2.15-2.39,4.03-3.62,5.95-9.47-2.44-19.1-4.01-29.14-5.55-.21-2.29-1.56-3.39-3.89-3.72.13-1.3,1.43-1.68,1.88-2.92l-3.05-3.62c1.57-.94,3.09-.95,4.38-2.23l-2.77-3.83c1.92-.85,3.65-.91,5.6-2.3l-2.85-3.8c1.92-.63,4.01-.64,6-1.82l-1.57-3.85c4.13.89,8.54.24,13.28.89l14.07,22.48c.93,1.48,1.89,2.77,1.7,4.31Z"/>
        <path class="cls-87" d="M144.57,134.21c1.15,1.69.34,2.15-1.35.98-1.37,1.12-2.93,2.03-4.68,2.72l-50.01,12.54c-1.36.25-2.21-.79-1.41-1.95.28-.4.54-.96.64-1.44,1.23-2.26,2.78-4.26,4.64-5.99.16-.32.5-.66.76-.91.24-1.78,1.14-3.15,2.93-3.65.17-.26.46-.44.65-.69,5.85-7.63,13.07-14.37,17.87-22.4l-.34-2,5.64-4.05-.44-1.64c6.36-6.18,12.17-12.82,17.44-19.92l1.91-.34c1.27-1.01,2.28-2.42,3.03-4.23l1.49.19c.59-.5,1.47-.62,2.09-1.07l.98,3.27c.26,16.79.05,33.26-.65,49.42l-1.17,1.15Z"/>
        <path class="cls-96" d="M200.19,48.54c1.22.01,2.17.6,3.3,1.49l34.22,27.11c1.04.82,1.8,1.55,2.29,2.43-.07.58-.56.99-.74,1.51l-3.99,3.95c-29.76,16.7-59.48,33.38-89.15,50.03l-1.53-.86c-1.17-2.65-.07-5.92,0-9.09l.41-18.33c.2-8.99.41-17.73.43-26.41,15.54-11.1,33.08-19.38,49.96-29.03,1.63-.93,3.03-1.58,4.14-2.67.22-.02.44-.14.66-.14Z"/>
        <path class="cls-61" d="M239.25,81.08c-.68,1.95-2.02,3.57-3.43,5.5l-27.83,37.92c.62,1.39-.46,2.54-3.24,3.45-3.85,2.34-16.09,9.59-19.65,10.58-1.14.32-2.49.54-3.6.23-.93,2.79-6.32,5.55-9.04,4.75.51,2.52-3.53,4.55-5.33,2.77l-2.94,2.89c-7.49,4.19-16.54,8.52-24.73,10.61-.02,2.07-.81,2.34-2.12.74-.71.55-1.5.68-1.89,0-.89-1.52,5.96-21.45,7.72-24.51-.64-.28-.61-.56.06-.82.5-.13.9-.73,1.35-.98l94.67-53.13Z"/>
        <path class="cls-81" d="M252,108v.75c.99,3.25,2.24,6.51,3.72,9.75l-.79.68.07,1.58-63.7,24.88c-1.54-.85-3.2-2.03-4.99-3.56-2.12-.47-3.49-1.36-4.11-2.68-1.04,1.01-1.45.61-.7-.66l26.48-14.26c1.09-.59,2.55-2.05,3.81-2.65l27.83-13.22c3.43-1.42,8.84-.85,12.37-.63Z"/>
        <path class="cls-14" d="M273.87,164.96c-.34-1.25-1.4-2.41-1.88-3.63-.57.14-1.41.31-1.64-.07-2.02-3.32-3.34-8.93-3.4-12.79l-1.58.1c-3.83-9.33-7.66-18.66-11.49-27.99l1.05-1.39c-1.02-2.48-1.07-5.57-3.2-8.11-.59-.7-.37-2.08.26-2.32,3.36,6.91,6.69,13.79,10.79,20.68,8.85,4.33,16.98,8.7,25.82,13.9l-14.74,21.62Z"/>
        <path class="cls-63" d="M272,161.33c-3.06,1.9-5.07,5.5-6.36,8.83-.23-.17-.8.18-1.08.09-1.96.3-2.2-.78-1.28-2.38l-.87-1.38c1.28-5.61,2.21-11.31,2.8-17.08l1.75-.94,5.04,12.86Z"/>
        <path class="cls-50" d="M119.18,197.12c.57-.15,1.44-.29,1.64.09,1.97,3.74,6.55,15.42,7.47,19.38l.48,5.41c1.56,1.06,2.47,5.66.67,6.7,4.06,11.06,7.7,22.32,10.91,33.76.53,1.71.19,3.81-.83,5.22-2.66-.26-5.19-1.01-8.33-1.65l-13.95,13.96c-1.03,1.03-1.93,1.94-3.22,1.96-.25-1.21-.76-2.39-1.38-3.85l-21.24-49.38,2.27-51.73c.25-.65.53-.64.83.02,1.19-.93,2.67-.37,4.46,1.7l17.65,14.39,2.57,4.03Z"/>
        <path class="cls-26" d="M143.23,135.19l-.06.82-1.77,3.31-43.73,34.55-3.9,2.18c-.53-.76-1.12-1.66-1.42-2.85l-5.89-23.3c-.19-.77.46-1.09.67-1.39-.28.77.4.65,1.09.48l55.01-13.8Z"/>
        <path class="cls-11" d="M137.34,160.52c-.1,2.68-5.63,5.75-7.8,3.97-.63.97-1.35,1.93-2.39,2.48-3.33,1.76-9.16,4.29-12.73,5.53-1.11.39-2.3.29-3.43.11l-.35,1.6c-5.42,1.27-10.8,2.2-16.14,2.79l-.83-.02.08-.94c.07-.81.52-1.41,1.41-2.12l48-37.92c-.53,7.89-4.49,15.22-6.3,23.33-.25.64-.36,1.3.47,1.18Z"/>
        <path class="cls-79" d="M92.4,141.07c-1.14,2.2-2.58,4.58-4.64,5.99.51-2.43,2.1-5.47,4.64-5.99Z"/>
        <path class="cls-79" d="M96.08,136.51c-.88,1.29-1.8,2.56-2.93,3.65-.16-.91-.37-2.05.18-2.87.59-.88,1.83-.75,2.75-.78Z"/>
        <path class="cls-41" d="M167.13,146.28c.88,4.22-2.1,9.04-5.21,11.94.64.06.61.27,0,.59-1.54,2.54-5.1,3.32-8.03,3.21-4.86-.51-9.53-2.46-14.42-2.24,9.09-4.57,18.15-9.58,27.67-13.5Z"/>
        <path class="cls-43" d="M254.94,119.19l12.02,29.28c-1.16,4.2-1.68,17.42-3.68,19.4.43,2.19-.85,2.54-2.26.88-3.4-1.42-6.09-7.94-4.44-11.29-2.52-1.55-4.68-6.09-3.08-8.9l-1.67-.28c-1.34-6.26-3.22-7.89-5.62-4.9l-1.66-.64c.29,2.02-.47,2.5-2.3,1.8-1.76.1-3.08-1.33-3.94-4.3l-1.02-1.38c-1.5.79-2.82,1-3.95.63-.61,2.03-1.38,2.8-2.31,2.3l-.63,2.74c.62,2.26.33,3.85-.88,4.77-.34.55-.72,1.13-1.33,1.4-.24.11-4.54,1.48-4.96,1.59-.63.17-1.29.07-1.92-.06-1.04,5.83-1.34,11.82-.91,17.97l-1.52.92c.51,2.12-1.13,2.63-2.18.67.08,2.17-1.67,1.98-2.11-.06-2.48,1.57-4.27,1.82-5.37.75-.8,2-4.11.4-5.38-.74-.56,2.12-2.96,1.39-2.9-.77-.95.08-1.72-.19-1.62-1.09.31-5.22.64-10.38,1.02-15.47-1.19.49-2.49,0-3.9-1.45-1.7-.32-2.68-1.06-2.95-2.23-1.01,1.02-1.61.71-1.4-.7-2.54.36-1.83-3-.76-4.38-.01-.57.15-1.1.72-1.9l62.92-24.57Z"/>
        <path class="cls-15" d="M119.16,188.26c.85-1.8,5.7-1.53,7.7-1.25,2.58.37,3.6.6,5.81,2.01,1.42.91,5.16,4.26,4.39,5.89-1.43,3.22-3.95,6.01-5.18,9.57-2,5.8-1.72,11.9-3.11,17.51l-9.59-24.88c-2.97-3-3.7-5.43-2.19-7.31-.52-2.72.54-4.06,2.17-1.55Z"/>
        <path class="cls-24" d="M110.99,172.61c3.75,3.98,6.86,11.82,5.99,17.2l2.19,7.31-24.67-20.12c.26-.78,1.03-1.34,2.12-1.56l14.37-2.83Z"/>
        <path class="cls-91" d="M129.54,164.49l2.21,9.69c.33.86.35,1.53.08,1.99l-12.68,12.09c-.95-.21-2.23.55-2.17,1.55-1.73-5.77-4.17-11.41-5.99-17.2,5.91-3.24,12.22-5.85,18.55-8.12Z"/>
        <path class="cls-111" d="M140.96,187.44c-.01,2.85-2.83,5.09-3.9,7.48-2.68-1.4-4.28-4.81-7.41-5.87-3.49-1.18-7.23-.09-10.49-.79-.42-.78-.29-1.76.53-2.55l12.06-11.54c2.31,4.94,5.05,9.7,9.21,13.26Z"/>
        <path class="cls-105" d="M161.91,158.81c-.49,1.98-1.06,3.92-2.3,5.43-1.44-1.14-3.77-2.01-5.73-2.21,2.19-.62,6.73-4.31,8.03-3.21Z"/>
      </g>
      <path class="cls-88" d="M144.06,166.37c-3.67-.17-3.87,3.72-7.37,5.24-.25-2.25-.22-4.63,1.24-6.74,2.39.46,4.43.54,6.13,1.5Z"/>
      <path class="cls-45" d="M229.53,276.89c-3.18,5.25-6.42,10.83-9.04,16.41-.16-.41-.13-1.02-.5-1.03-2.39.72-4.7,3.54-7.04,3.53-2.55,0-5.82,1.43-8.09,1-4.54-.86-8.58-3.11-13.02-3.48.58-1.22.91-2.71,1.69-3.84.04-1.75.65-3.3,1.39-4.86,3.62-7.67,9.2-16.21,14.19-22.88-1.54-1.7,1.92-5.51,3.9-4.41,3.45,2.84,6.24,6.51,9.13,10.27,2.53,3.29,5.54,5.9,7.39,9.29Z"/>
      <path class="cls-54" d="M213.66,245.35c1.61,3.83,1.93,9.06-.65,11.98l-3.9,4.41c-3.29,3.96-7.42,7.18-12.41,9.66l-1.72-.68c-2.22,1.5-2.26-.32-2.22-2.38.74-4.24,1.81-8.4,3.22-12.5.81-1.49,1.23-3.08,2.18-4.53,5.21,1.46,10.85-4.38,15.5-5.96Z"/>
      <path class="cls-90" d="M199.84,247.31c1.54-5.29,4.84-10.01,5.54-15.46l.87-.92c.06.21.21.76.49,1.04l4.71-1.7c2.04-2.15-.21,12.78-.94,12.28-2.96,2.62-7.38,3.16-10.66,4.75Z"/>
      <path class="cls-7" d="M209.11,261.73c-.18,1.21-.64,2.48-1.42,3.77-4.94,8.09-8.94,16.42-14.16,23.97-1.62-3.06,1.83-13.49.48-17.73.4-.19.6-.79.97-1.03l14.13-8.98Z"/>
      <g>
        <path class="cls-25" d="M278.96,213.85c-1.81-1.33-2.34-3.66-3.48-5.49-4.16-8.25-7.7-16.8-10.64-25.64-1.69,1.1-2.05.4-.84-1.22l.63-10.5c-.67-.07-.67-.33-.08-.75-.01-1.47.58-1.52,1.08-.09.97.73,1.23-.57,3.17-.67l7.42,20.45c2.7,7.45,2.84,16.19,2.74,23.9Z"/>
        <path class="cls-5" d="M209.05,223.93c1.47-1.67,4.35-.4,4.6,1.65l1.56.23c-.02.21-.06.53.02.72.12,2.89-2.24,1.84-3.79,3.74,1.04,2.59-7.02,4.52-5.19.66-2.26-.73-1.27-7.06,1.03-7.35.81-1.44,1.56-1.3,1.77.34Z"/>
        <g>
          <path class="cls-19" d="M227.79,222.12c3.62,3.11,6.34,7.16,8.15,12.13l3.93,3.35c2.84,6.97,4.03,13,3.22,20.53,1.62,3.72,3.25,2.47,5.7.41,7.36-3.4,14.69-6.57,22.02-9.49l1.47.68c.52,1.65,1.76,3.61,2.15,5.33,2.28,10.19,5.14,20.3,8.48,30.16,1.14,3.37,2.12,6.78,3.4,10.28.23,1.47.04,2.47-.55,3,.8,3.11.94,7.16-2.2,8.92-9.52,4.56-19.56,8.12-29.39,12.05l-1.63-.3-13.56-53.17-20.18-39.51.93-1.48c.25-2.44,6.22-4.29,8.06-2.88Z"/>
          <path class="cls-80" d="M275.48,208.36c1.88.34,3.04,2.17,3.48,5.49-.08,5.9-6.54,27.98-6.69,35.89-2.05,2.16-5.24,2.1-7.92,3.4-4.91,2.39-9.5,4.56-14.47,6.55-1.99.8-3.03,3.4-5.67,2-4.73-2.53-1.91-8-2.37-12.25-.4-3.76-2.44-7.16-3.12-11-3.8-2.07-5.8-5.22-6.66-9.23-.52-2.43-5.08-4.02-4.27-7.08-.23-.55-.47-1.44-.11-1.65,12.71-7.47,26.83-14.95,39.94-21.75l1.63.2c.49-.04.97-.03,1.39.13,1.21.47,4.41,7.41,4.85,9.3Z"/>
          <path class="cls-17" d="M289.83,305.15c.05.14-.04.35,0,.51-1.96.68-4.4.86-6.28,1.76.48-3.05,2.06-5.82,2.2-8.92l.72-.42c.66,2.94,1.78,5.3,3.37,7.07Z"/>
          <path class="cls-29" d="M219.72,225l20.65,40.48,13.78,53.99c-6.39,2.55-12.88,5.03-19.48,6.82-1.7-3.68.33-8.18-1.49-13.48-.45-1.31,1.08-3.45-.54-4.53-.89-.97-1.14-2.22-.75-3.74l-.48-23.8,1.48-1.13-1.5-2.79c.2-2.98-.14-5.87-1.01-8.67-4.84-7.81-9.15-15.93-12.92-24.35l.82-2.33c-.71-.1-1.32-.38-1.8-.9-.41-.44-2.15-11.18-2.03-11.77.96-.54,1.07-1.32.79-2.29-.72-.09-.7-.34-.02-.72-1.96-2.26-.27-7.1,2.45-8.31,2.36.42,3.98,5.97,2.07,7.5Z"/>
          <path class="cls-44" d="M244.69,155.88c1.57.28,2.5,1.93,2.77,4.95l.83-2.61c1.58-2.36,7.03-4.49,8.29-.75,1.04,4,2.71,7.69,4.44,11.29.44-.12.84-.18,1.08,0,.82.55,1.26,6.55,1.3,8.11,0,.3-.08.6-.2.9,1.52-.45,1.17,2.44.8,3.75.12.48.65.79.84,1.22,2.01,5.13,3.76,10.29,5.24,15.47l-.83.75c-.53,1.28-1.93,1.73-3.32,2.48l-38.14,20.71c-2.35,1.28-5.54,2.03-8.06,2.88-.63-2.27-1.57-5.19-2.07-7.5l-1.61-.34c-1.65-8.08-2.9-16.23-3.74-24.47-.36.02-.72.02-1.03-.1-.85-.32-.86-16.03-.48-17.89-.75-1.28.51-2.27,3.79-2.96l2.11.06,1.69.39c2.37,8.08,4.84,16.11,7.44,24.09l.74-1.26c-1.74-7.35-3.16-15.04-3.97-22.59-.02-.17.34-.39.82-.62-.5-2.1-.17-3.54,1.02-4.34,3.22-1.14,6.08-1.24,8.59-.31,1.55-.17,2.45,1.32,2.7,4.46l-2.24-12.25,1.32-1.15c.55-1.22,1.79-1.84,3.7-1.88,2.79-1.53,4.85-1.68,6.19-.46Z"/>
          <path class="cls-53" d="M275.48,208.36c-1.98-3.2-3.82-6.53-6.23-9.43l-4.41-16.21,10.36,22.85c.47,1.03.9,2.13.28,2.79Z"/>
          <path class="cls-52" d="M263.28,167.86c.63.67,1.1,1.48,1.28,2.38.05.24.06.5.08.75-.21,2.37-.36,4.78-.44,7.23l-.99-.48c-1.75-2.55-1.01-6.57-2.18-9,.6-.46,1.72-.36,2.26-.88Z"/>
          <path class="cls-53" d="M264,181.5c-.29-1.14-.1-2.73-.8-3.75,1.72.66-.04-7.15,1.43-6.75.01.22.66,12.04-.63,10.5Z"/>
          <path class="cls-57" d="M217.66,217.5c-1.07,6.45-1.86.27-2.45,8.31-.23,1.98-1.35,1.79-1.56-.23-.87-.29-1.4-.76-1.6-1.43l-.75-11.6c-.98-.28-1.61-.84-1.91-1.68-1.21-1.57.15-2.72,2.07-2.31-.12-4.98-.33-9.98-.61-15.01l1.46-.87,5.35,24.81Z"/>
          <path class="cls-10" d="M229.51,149.3c.6.04,1.5.11,1.64.55.92,2.94,2.13,9.39,2.46,12.51.94,2.28.75,3.87-.59,4.79-2.94.87-6.03,1.39-9.3,1.94-.47.77-.22,2.08-.3,2.71l-1.7-1.25c-1.78-6.23-1.92-12.35-.41-18.34,1.61-2.47,5.64-3.34,8.21-2.92Z"/>
          <path class="cls-108" d="M231.02,141.79h1c1.48,4.97,2.81,9.99,4,15.06l-1.23,1.37,6.01,32.92c.45,2.45,1.27,4.81.2,6.96l-7.99-30.95-3.51-17.85c-.5-2.57-1.35-6.48,1.51-7.51Z"/>
          <path class="cls-4" d="M242.34,147.14c2.69-.56,3.98,7.24,2.35,8.74-3.34.81-6.42,2.75-9.9,2.34l-3.78-16.43c.48-.83,1.67-1.59,2.31-2.3,1,.91,1.5,2.39,1.5,4.45l2.07,3.42c2.46-1.16,4.27-1.23,5.44-.22Z"/>
          <path class="cls-97" d="M245.18,145.49l1.92,4.58c1.65,2.88,2.05,5.59,1.19,8.14,2.24,11.94,6.25,23.43,7.3,36.13l-10.89-38.47c-.82-2.89-.74-6.12-2.35-8.74-2.23-.62-2.11-1.78-.1-2.6.39-1,1.45-1.31,2.3-1.8,2.12-.64,2.56,1.79.63,2.75Z"/>
          <path class="cls-113" d="M226.57,195.01c1.08,4.85,2.2,9.66,2.73,15.1-3.48-7.91-5.77-15.99-8.35-24.41l-4.26-13.92c.77.02,1.45-.53,2.18-.67.52-2.03,2.04-1.57,3.45-.47,1.04,8.2,2.46,16.33,4.25,24.36Z"/>
          <path class="cls-68" d="M223.42,171.81l3.15,23.2c-.87-.87-1.37-2.23-1.63-3.74l-3.4-19.75c-1.04-.1-1.92-.55-2.66-.4l.09-4.67c.09-4.82-.23-10.28,2.34-14.22-.94,6.59,1.24,13.15,2.11,19.58Z"/>
          <path class="cls-75" d="M242.25,144.54c.24.75-.23,1.91.1,2.6l-5.57,2.13c-2.88-2.3-4.58-6.35-3.44-9.77,1.05-1.15,3.59-3.13,5.11-1.58,1.87,1.91,2.25,4.8,3.8,6.63Z"/>
          <path class="cls-39" d="M253.5,148.56c1.01,2.95,2.3,5.87,3.08,8.9-2.52-1.91-4.83.95-8.29.75-1.88-3.95-2.13-8.49-3.11-12.73,1.54-.42,2.85.65,3.93,3.2,1.76-.92,3.22-.96,4.38-.13Z"/>
          <path class="cls-93" d="M253.5,148.56c-1.55.71-3.19,1.67-5.1,1.75l-3.21-4.83-.63-2.75c1.21-.71,3.35-3.37,5.04-2.37,2.31,1.96,3.03,5.61,3.9,8.19Z"/>
        </g>
        <path class="cls-64" d="M214.59,171.73l-3.79,2.96c-.14.51-.22.82-.82.65-.09-.87-1.05-1.85-.77-2.85,1.7-.42,3.61-.8,5.37-.75Z"/>
        <path class="cls-94" d="M212.31,192.69c-.89,5.3,2,12.67.34,17.15-.54.82-3.21-.72-3.26,1.04l1.48.87c.14,1.14-.05,10.68-.3,11.18-.27.54-.94.79-1.53,1-.55-.26-1.17-.35-1.77-.34l1.73-23.19c.62-8.35,1.28-16.66.98-25.05l.82-.65c-.33,1.53,1.37,17.35,1.51,17.99Z"/>
        <path class="cls-32" d="M194.98,270.71c1.4,1.41.84,1.89-.97,1.03-2.36,1.11-4.74,2.23-7.32,2.7,3.35-5.86,5.96-12.5,9.29-18.6,1.21.56-3.57,15.96-1,14.88Z"/>
        <path class="cls-78" d="M213.65,225.58c-1.62-.24-3.12-.96-4.6-1.65l.35-13.05c.99-.02,2.02-.29,3.31.06l.94,14.64Z"/>
        <g>
          <path class="cls-42" d="M183.72,279.65c1.95.49,1.78,1.67.01,2.48-.11.68-.36.71-.74.12-13.44-6.32-28.31-9.99-42.75-13.76.09-.2-.07-.52.01-.73-.39-3.17.59-7.19,3.99-8.06l3.51.2c5.93,2.56,32.95,14.82,35.11,18.04.35.52.62,1.11.86,1.71Z"/>
          <path class="cls-110" d="M130.78,230.42l2.48.85c4.85,8.15,8.72,16.78,11.59,25.89l-.61,2.55c-1.35,2.68-2.82,5.29-3.99,8.06l-.72-.07c.16-3.08-.98-6.04-1.96-9.24-2.43-7.91-4.56-15.71-7.44-23.47-.86-2.32-.28-4.58-.67-6.27,1.63-1.44,2.61.07,1.33,1.71Z"/>
          <path class="cls-21" d="M181.5,138.76l.7.66c1.06,3-1.28,8.63-4.12,10.5,1.42,1.96.23,8.5-2.41,8.94l.77,2.53-3.43,16.1-1.98,1.79c.53.3,1.32.78,1.23,1.22-.66,3.2-5.69,25.36-6.86,26.04-1.68.98-2.75,1.32-3.17-.75,2.35-17.42,5.63-34.53,9.86-51.32.39-.77,1.05-1.33,1.88-1.54-1.03-.93-1.02-2.54.02-4.82-1.23-1.71-1.74-3.24-1.53-4.59,2.77-2.12,6.1-3.17,9.04-4.75Z"/>
          <path class="cls-16" d="M173.97,152.92c-2.59,2.81-8.26,5.7-12.05,5.31,1.8-3.96,3.2-8.08,5.21-11.94,1.44-.59,4.08-1.81,5.33-2.77,1.16,1.36,2.72,2.52,2.96,3.92.39,2.3-1.07,3.78-1.45,5.49Z"/>
          <path class="cls-83" d="M191.3,145.66c.55,1.28-.38,3.22.76,4.38-.73,1.78-1.49,2-3.01.78-1.28-.32-1.64-1.56-1.1-3.73l-7.78,3.67-2.1-.83c1.55-3.38,2.1-7.29,4.12-10.5,4.13.25,7.44,2.39,9.1,6.24Z"/>
          <path class="cls-76" d="M146.33,197.31c.54.2,1.33.63,1.23.99-2.23,8.55-6.76,18.17-11.09,25.85,1.74,1.98-3.62,8.68-5.7,6.26l-1.33-1.71c-.59-2.57-1.33-4.03-.67-6.7-1.08-6.88.03-14.09,2.75-20.47.92-2.15,3.25-6.61,5.53-6.62-1.42-2.32,1.86-6.17,3.9-7.48,1.13-.85,1.64-2.44,2.18-3.74-1.58-1.98,1.65-6.42,3.47-4.09,2.83,4.9,1.24,12.34-.27,17.7Z"/>
          <path class="cls-71" d="M205.37,231.85l1.24,1.65c-1.12,5.46-3.38,10.06-6.78,13.81,1.92,1.63.74,3.95-1.68,3.99,1.55,1.47.04,5.07-2.18,4.53l-2.44,8.11c-1.35,4.54-3.63,8.03-6.85,10.49,1.85,1.43-.85,5.88-2.97,5.21-12.25-7.75-26.99-12.97-39.48-19.95-4.03-9.96-7.02-20.96-13.46-29.29,2.62-1.2,3.94-4.02,5.7-6.26,1.7-3.4,3.62-6.65,5.75-9.75,1.37-2.62,2.94-3.81,4.71-3.57l1.16-1.18s18.98,6.82,56.93,20.47l.34,1.72Z"/>
          <path class="cls-23" d="M173.97,152.92l-6.67,30.01c-1.79,8.07-3.37,15.77-3.62,24.28l7.36-27.93c1.84-1.46,4.41-1.58,7.73-.35,2.9.24,4.48,1.33,4.73,3.26l1.44.65-.63,5.73,1.53-.32c2.29-.44,8.96.14,10.9,1.04.87.4,1.13.77,1.12,1.96.84,3.14.68,6.59-.49,10.35l1.39-1.5c1.23-3.15,4.46-3.62,9.69-1.39l.58,1.69c.92.06,1.27.35,1.42,1.19.28,1.64-.34,7.82-1.5,8.69-.31,4.28-.56,8.57-.73,12.88l-.91.43-1.03,7.35c.37,1.52.08,1.82-.87.92l-58.44-21.01-1.33-.86c2.22-8.36,4.32-16.74,6.32-25.13l1.67-.5-.97-2.16,3.69-12.02,1.81-1.46c.21-1.3,1.37-3.14,1.49-4.48-1.34-1.58.32-5.02,2.3-5.43.04-.18-.07-.42,0-.59,3.67-2.27,7.71-3.91,11.86-5.73.19.05.25.26.2.42Z"/>
          <path class="cls-95" d="M158.12,168.71c-.87,5.36-3.21,10.39-4.53,15.64-2.09,1.11-2.93,0-3.59-2.03.78-5.63,5.44-11.87,4.44-14.21,1.22.2,2.43.55,3.68.6Z"/>
          <path class="cls-103" d="M186.91,162.75c.57.17,1.4.51,1.36.93-.46,4.88-1.89,12.94-3.12,17.69l-1.67.82c-3.77-1.99-8.24-2.39-12.45-2.91,1.76-6.69,2.36-13.8,4.64-20.42.54-2.01,8.99-.51,10.2.26,1.15.35,1.5,1.56,1.03,3.63Z"/>
          <path class="cls-20" d="M189.06,150.81c2.42,1.37.58,8.57-.43,10.96l-1.72.97c.99-3.54-8.3-2.75-11.24-3.9,1.02-2.95,1.08-6.03,2.41-8.94,3.93-1.31,7.49-3.46,11.64-5.34.55,2.54-.68,4.27-.67,6.23Z"/>
          <path class="cls-82" d="M209.21,172.49c1.99.33,2.29,1.35.77,2.85.21.59.39,1.19.44,1.79.42,4.63,1.33,18.31-.29,21.55-.31.61-.7,1.17-1.13,1.72-2.6-.55-8.74-2.91-10.27-.29l-.72-1.83c.82-8.58,2.3-16.95,4.43-25.11l1.39-1.42c1.74-1.12,3.69.24,5.38.74Z"/>
          <path class="cls-99" d="M192.07,150.03c.51.07.96.47,1.4.7,1.03,1.5-.04,7.52-2.24,7.5,1.07,4.83.11,10.36-2.94,14.33,1.63,4.4.14,11.82-2.48,15.69l-4.98,21.12,2.64-27.18,3.43-19.44c.67-3.83,2.18-7.92,2.15-11.94.85-.65,1.94-.93,3.01-.78Z"/>
          <path class="cls-12" d="M200.93,170.98c-.09.64-.32.62-.67.02l-1.12,1.53c-3.17-.14-6.27.2-9.29,1.02l-1.56-.99c.79-4.81,1.85-9.6,2.94-14.33l4.45,1.79c1.17-2.81,2.71-4.69,4.63-5.62,2.58-1.65-.1,14.74.61,16.57Z"/>
          <path class="cls-46" d="M203.83,171.75c-2.41,9.31-3.56,18.89-5.1,28.35-.8,4.91-2.89,9.82-4.21,15.22.47-8.15,2.33-16.01,3.31-24.07l-1.13-2.9,1.91-14.75,1.65-2.6c.21,0,.46-.08.67-.02l2.9.77Z"/>
          <path class="cls-72" d="M200.32,154.41c-.86,2.58-2.35,4.82-3.79,7.3-2.51-.42-5.23-1.05-5.3-3.47.58-2.53.56-5.34,2.24-7.5,2.7-.11,5.24,1.57,6.85,3.68Z"/>
          <path class="cls-40" d="M153.59,184.35l-6.66,26.49-10.45,13.31,9.86-26.84,2.35-9.78c-.37-2.65.07-4.39,1.32-5.22,1.2.64,2.64.93,3.59,2.03Z"/>
          <path class="cls-114" d="M150,182.32c-.23,1.68,2.2,4.93-3.67,15l.27-17.7c1.44.45,2.12,2.03,3.4,2.71Z"/>
          <path class="cls-109" d="M200.26,171c-.25,6.8-1.61,13.51-2.43,20.25-2.37-1.35-13.05-1.32-12.01-3,.4-5.28,1.62-10.46,2.48-15.69,3.64-1.67,7.98-1.44,11.96-1.56Z"/>
        </g>
      </g>
    </g>
    <g>
      <g>
        <path class="cls-65" d="M146.23,69.75c-.59,3.99-1.84,7.79-2.9,11.69-1.58,1.32-4.8,6.83-4.52,4.04l-.88-1.62c17.68-33.68-30.16-44.37-44.46-17.3l-1.99.94,1.02,1.55c-9.98,14.73,4.08,46.95,23.55,38.25l1.77.6c-.36-2.19,1.06-2.31,2.09-.52-.64,2.8-3.91,3.73-5.3,6.05-17.25,6.49-28.77-18.02-29.56-31.82-2.78-.71-7.59,2.67-6.52-.98.45-1.55,5.13-1.04,7.21-2.62,1.51-8.08,4.55-15.41,10.18-21.23-1.28-1.18-2.54-1.67-2.93-2.43,1.38-3.3,3.96.85,5.1.34,7.1-3.13,13.93-6.49,21.85-6.64,1.56-1.46,1.49-3.58,3.87-4.26.71,1.52-.42,2.58-.42,3.96,11.69,2.39,24.9,8.22,22.85,22.02Z"/>
        <path class="cls-86" d="M138.81,85.48c-2.87,5.78-18.96,22.11-18.91,21.9l-2.09.52-1.69-1.35c-1.87-7.7-3.69-15.4-5.48-23.11l1.33-1.6c.27-.56.69-1.05,1.33-1.1,7.14-.55,2.55-8.46-.51-2.08l-1.68.69-1.89.78c-5.71-3.63-11.43-7.22-17.16-10.77l-.58-1.88c3.17-8.69,10.59-14.3,20.18-16.72s20.1-.67,27.33,6.78c7.24,7.46,3.74,20.06-.17,27.93Z"/>
        <path class="cls-48" d="M111.11,79.35c2.03-.41,2.73,1.38.86,2.49.59,7.31,4.94,17.82,5.84,26.06-5.25,3.98-12.9,3.32-18.38-1.16-6.73-5.49-10.39-14.13-11.82-22.55-1.14-6.68,1.98-11.51,3.87-16.69,6.2,2.38,13.31,9.2,19.64,11.86Z"/>
        <path class="cls-77" d="M111.97,81.84c-.07-.82-.86-1.7-.86-2.49.17-1.32.83-2.8,1.78-3.57,1.07-.87,2.78-1.64,4.14-.7,2.15,1.48,1.74,4.04.35,5.83-1.27,1.63-3.41,1.85-5.41.94Z"/>
      </g>
      <g>
        <path class="cls-60" d="M36.76,338.99l-.52,1.97-9.3,6.19c2.34,12.84,5.28,25.6,8.82,38.29l-.47,1.61c6.42,1.05,13.01,2.24,19.78,3.56l1.88,1.67c1.98-.92,6.4,1.68,6.78,3.79,2.91.88,5.19,2.3,6.83,4.27,3.23-.69,7.37,2.25,8.17,5.41l4.47,3.72c2.12,1.11,3.82,2.38,5.1,3.83.04,1.67-1.19,2.59-3.68,2.74l-71.64,15.35-4.7.26c-.28,1.9-1.11,1.73-2.24.49l-1.26-1.19,5.6-23.51-3.2-5.65c-3.37-3.85-5.76-8.03-7.16-12.52v-17.25l9.48-27.27,3.78-91.62c.1-2.48-2.01-5.3-.86-7.65l18.35-37.57c.44-.67,1.02-.93,1.35-.4,3.09,4.92,4.49,10.54,5,16.31.09,37.52.4,75.1.94,112.73l-1.29,2.46Z"/>
        <path class="cls-89" d="M32.87,206.35l1.48.65c7,9.02,14.4,17.89,22.18,26.61.55,1.53,1.24,2.91,2.1,4.14,1.85-1.33,3.9,1.41,2.36,2.95,15.26,14.55,29.75,30.06,43.45,46.53l.47,3.1c.29.76.58,1.62.31,2.41-1.95,5.56-13.26,13.23-18.33,16.44-1.2,1.52-2.67,2.72-4.4,3.62.25.54.52,1.42.17,1.65-14.22,9.12-29.4,17.6-44.32,25.44l-1.59-.9c-.6-5.89-.53-11.61-.57-18.08l-.59-97.04c-.01-2.38-2.86-15.85-4.85-15.97.24-.5.37-1.06.73-1.5.35-1.33.96-1.35,1.39-.04Z"/>
        <path class="cls-79" d="M154.38,23.31l.36,1.54-20.84,13.1c4.05,3.26,7.35,6.89,9.9,10.87,3.73,2.35,12.56,10.05,13.74,14.21,1.66,5.87-5.65,3.57-9,2.04.42,3.93-.35,5.49-2.32,4.67l-1.34-1.49c.8-12.16-12.29-17.83-22.45-19.74.13-1.21-.27-1.13-1.2.23-6.47.1-12.36,1.75-18.15,4.53-2.03.97-4.86,2.35-6,3.51-5.88,5.99-8.84,14.38-10.63,22.4-1.64.79-1.8,1.32-.45,1.59,1.22,13.43,10.39,35.24,26.92,31.63l1.68,1.02c.13.51.23,1.03.23,1.54,0,2.6-12.57,16.97-15.44,19.91l-2.66.95c-2.4-.91-4.84-.03-7.31,2.67-2.41,3.07-5.26,4.27-8.56,3.6-.18,2.03-.93,3.17-2.26,3.43l-1.59-.02c-7.53-22.29-14.89-44.61-22.09-66.96l.05-4.97,6.53-11.35,37.76-23.97c18.52-5.31,36.61-10.77,55.11-14.94Z"/>
        <path class="cls-22" d="M155.89,23.2l6.85,2.46,25.94,15.73c3.35,1.71,6.81,3.14,10.37,4.28,1.57,1.09,2.26,1.68.47,3.01l.29,1.73c-16.82,9.09-33.51,18.69-50.07,28.78l-4.33,1.18c-.27,2.08-.97,2.43-2.09,1.07-.88-2.23.22-7.51,1.16-9.99.3-.8,1.02-1.31,1.75-1.7,1.54.3.08-4.55,1.37-5.74,1.72-1.58,5.45,2.65,9.27,1.03-2.01-4.31-5.5-8.32-9.17-11.1-1.61-1.22-2.28-3.67-4.83-4.05-1.93-5.56-12.11-10.02-10.42-13.02l21.94-13.55c.44-.1,1.06-.17,1.51-.12Z"/>
        <path class="cls-34" d="M215.95,48.77c-4.8-.45-9.77.24-14.93-.9-.64.03-1.23.07-.84.67-.03.66-.25.69-.66.14-.05-1.42-1.25-1.8-2.66-2.22-6.61-2.01-12.27-5.55-18.13-9.16l-22.84-14.09c9.65,1.2,19.17,2.79,29.09,4.75l28.74,18.63c1.04.68,1.88,1.25,2.23,2.19Z"/>
        <path class="cls-102" d="M96.73,135.83c.25.67.04.9-.65.69-1.88.91-2.39,1.62-2.93,3.65,1.1.96.63,1.45-.76.91-1.84,1.75-3.38,3.75-4.64,5.99,1.58.69,1.03,1.58-.64,1.44,2.62,8.16,4.97,16.61,7.05,25.35l-.41,2.19c.96-.04.73.39-.08.94.66.29,1.13.87,1.43,1.74l-2.24,49.77,21.76,50.42c.65,1.35,1.01,2.23-.59,3.03,1.11,1.04.69,1.5-.71.82-.42.42-1.15.98-1.48.73-17.47-13.36-34.68-28.03-50.84-42.79-.84-.94-1.41-2.07-2.36-2.95l-.17-.8,29.6-57.36c.38-.73.92-1.18.51-1.75-.17-.23-.43-.51-.72-.77,1.63-1.97-5.39-20.08-6.61-22.81-1.3-2.92-1.71-5.95-2.64-8.74.56-1.51.08-3.38.95-4.96,1.84-.19,4.59.96,5.96-.51,2.62-2.81,10.6-9.34,11.21-4.22Z"/>
        <path class="cls-104" d="M113.32,282.77c1.72.25-8.06,10.5-8.4,7.56-4.03-5.53-8.81-10.33-13.6-15.69l-30.33-33.94c1.61.59,2.8,1.8,4.37,3.08l47.95,38.99Z"/>
        <g>
          <path class="cls-107" d="M78.61,145.52c1.88.91,2.99,3.04,3.33,6.38,3.65,7.9,6.19,16.09,7.63,24.54l-1.71.63-.83,1.35c-20.3-4.46-40.6-8.92-60.9-13.39l-.57-1.66c-4.75.12-4.92-2.26-.51-7.15,9.22-27.39,18.91-54.68,29.06-81.87.25-.26.7-.48.88-.78l3.64,11.88,19.99,60.06Z"/>
          <path class="cls-36" d="M25.56,163.37c-.36-.08-1.12.03-1.48.16l-.38,1.79c-6.89,4.31-13.81,8.56-20.78,12.75l-1.36-1.05c-.59-1.86-.07-4.25.14-6.77,1.18.94.19,2.19.82,3.6,1.17-.72,1.98-2.19,1.21-3.5-.73-1.23-2.26-2.28-2.26-3.89,0-4-.21-7.77.04-11.73l14.72-19.92,6.25-26.81,31.63-33.64c.24-.11.52-.22.65.01-1.59,6.32-3.79,11.84-5.97,18.11l-22.37,64.33c-.68,1.96-3.12,2.82-3.16,5.11.6.67,1.64.97,2.3,1.45Z"/>
          <path class="cls-92" d="M24.08,163.52l6.69,41.86c-3.73-2.08-28.66-26.65-29.21-28.37,5.52-2.18,17.72-11.74,22.52-13.49Z"/>
          <path class="cls-33" d="M58.47,236.95l.17.8c-9.39-8.7-16.61-19.66-25.46-29.48-.55-.61-.21-1.54-.3-1.92,1.24-.21,2.55.06,4.04.43l26.2,6.59-5.11,20.94c-.29,1.17-.65,2.19.48,2.64Z"/>
          <g>
            <path class="cls-73" d="M25.56,163.37l62.31,13.7c1.82-1.42,2.65.33,2.04,2.31l-29.68,57.46-1.75.12c-.97-.38-1.65-1.24-2.03-2.59l4.83-19.79-27.08-6.79-1.31-1.43c-.44.07-.95.21-1.39.04-.36-.14-.66-.63-.72-1.01l-2.01-3.05c-2.03-12.56-4.02-25.13-5.98-37.7l1.3-1.11c-.24-.63.25-.68,1.48-.16Z"/>
            <path class="cls-37" d="M71.11,191.81c-10.08,4.16-19.83,6.62-29.96,9.96,13.78-7.42,27.44-13.96,42.23-20.43-3.92,3.58-7.45,8.48-12.27,10.47Z"/>
          </g>
        </g>
      </g>
    </g>
  </g>
</svg>