<?xml version="1.0" encoding="UTF-8"?>
<svg id="_图层_1" data-name="图层 1" xmlns="http://www.w3.org/2000/svg" viewBox="0 0 360 480">
  <defs>
    <style>
      .cls-1 {
        fill: #b1898a;
      }

      .cls-2 {
        fill: #fcf8e0;
      }

      .cls-3 {
        fill: #373b4d;
      }

      .cls-4 {
        fill: #b8ad95;
      }

      .cls-5 {
        fill: #141725;
      }

      .cls-6 {
        fill: #caa595;
      }

      .cls-7 {
        fill: #c4c3cc;
      }

      .cls-8 {
        fill: #d4a697;
      }

      .cls-9 {
        fill: #bda573;
      }

      .cls-10 {
        fill: #fdfdfb;
      }

      .cls-11 {
        fill: #404650;
      }

      .cls-12 {
        fill: #281f24;
      }

      .cls-13 {
        fill: #9b7a80;
      }

      .cls-14 {
        fill: #1b1e2a;
      }

      .cls-15 {
        fill: #686c78;
      }

      .cls-16 {
        fill: #ae7c73;
      }

      .cls-17 {
        fill: #665282;
      }

      .cls-18 {
        fill: #1b1f2b;
      }

      .cls-19 {
        fill: #782427;
      }

      .cls-20 {
        fill: #171118;
      }

      .cls-21 {
        fill: #3b404c;
      }

      .cls-22 {
        fill: #5c626f;
      }

      .cls-23 {
        fill: #c18a81;
      }

      .cls-24 {
        fill: #5f677b;
      }

      .cls-25 {
        fill: #493c6a;
      }

      .cls-26 {
        fill: #596073;
      }

      .cls-27 {
        fill: #bbb197;
      }

      .cls-28 {
        fill: #0b0d19;
      }

      .cls-29 {
        fill: #e36459;
      }

      .cls-30 {
        fill: #4e416f;
      }

      .cls-31 {
        fill: #726e6a;
      }

      .cls-32 {
        fill: #75809a;
      }

      .cls-33 {
        fill: #f4e4a7;
      }

      .cls-34 {
        fill: #bd887f;
      }

      .cls-35 {
        fill: #a7aab6;
      }

      .cls-36 {
        fill: #8a5457;
      }

      .cls-37 {
        fill: #ca5550;
      }

      .cls-38 {
        fill: #f6d5be;
      }

      .cls-39 {
        fill: #545a67;
      }

      .cls-40 {
        fill: #14131b;
      }

      .cls-41 {
        fill: #101221;
      }

      .cls-42 {
        fill: #cea796;
      }

      .cls-43 {
        fill: #6180ba;
      }

      .cls-44 {
        fill: #4e5567;
      }

      .cls-45 {
        fill: #3f4456;
      }

      .cls-46 {
        fill: #c3c6cf;
      }

      .cls-47 {
        fill: #3d1f25;
      }

      .cls-48 {
        fill: #d5cfb4;
      }

      .cls-49 {
        fill: #435b9b;
      }

      .cls-50 {
        fill: #fcfce9;
      }

      .cls-51 {
        fill: #e3dcbc;
      }

      .cls-52 {
        fill: #2e407a;
      }

      .cls-53 {
        fill: #4a4e5e;
      }

      .cls-54 {
        fill: #353a44;
      }

      .cls-55 {
        fill: #fce7cf;
      }

      .cls-56 {
        fill: #343b6f;
      }

      .cls-57 {
        fill: #5a5d66;
      }

      .cls-58 {
        fill: #222531;
      }

      .cls-59 {
        fill: #ca4d43;
      }

      .cls-60 {
        fill: #627ebb;
      }

      .cls-61 {
        fill: #263368;
      }

      .cls-62 {
        fill: #2b3a71;
      }

      .cls-63 {
        fill: #a79464;
      }

      .cls-64 {
        fill: #7c9cd3;
      }

      .cls-65 {
        fill: #111420;
      }

      .cls-66 {
        fill: #3e424d;
      }

      .cls-67 {
        fill: #a68db6;
      }

      .cls-68 {
        fill: #314079;
      }

      .cls-69 {
        fill: #607cb8;
      }

      .cls-70 {
        fill: #c18f87;
      }

      .cls-71 {
        fill: #ecc8b0;
      }

      .cls-72 {
        fill: #f3d3bc;
      }

      .cls-73 {
        fill: #2b2f3b;
      }

      .cls-74 {
        fill: #3e3f49;
      }

      .cls-75 {
        fill: #b68382;
      }

      .cls-76 {
        fill: #faddc3;
      }

      .cls-77 {
        fill: #a19781;
      }

      .cls-78 {
        fill: #676c78;
      }

      .cls-79 {
        fill: #3c1e24;
      }

      .cls-80 {
        fill: #cfafa9;
      }

      .cls-81 {
        fill: #3e4150;
      }

      .cls-82 {
        fill: #1c2031;
      }

      .cls-83 {
        fill: #f3efe4;
      }

      .cls-84 {
        fill: #4a4f61;
      }

      .cls-85 {
        fill: #533f67;
      }

      .cls-86 {
        fill: #485f9d;
      }

      .cls-87 {
        fill: #44373f;
      }

      .cls-88 {
        fill: #161925;
      }

      .cls-89 {
        fill: #858dbb;
      }

      .cls-90 {
        fill: #444859;
      }

      .cls-91 {
        fill: #5b5f69;
      }

      .cls-92 {
        fill: #4c3862;
      }

      .cls-93 {
        fill: #5b4a77;
      }

      .cls-94 {
        fill: #5b4b6d;
      }

      .cls-95 {
        fill: #f1eae9;
      }

      .cls-96 {
        fill: #616572;
      }

      .cls-97 {
        fill: #81a1d7;
      }

      .cls-98 {
        fill: #67557d;
      }

      .cls-99 {
        fill: #f7f2d4;
      }

      .cls-100 {
        fill: #3f5595;
      }

      .cls-101 {
        fill: #6c748c;
      }

      .cls-102 {
        fill: #8d7b5b;
      }

      .cls-103 {
        fill: #383e48;
      }

      .cls-104 {
        fill: #fde9d2;
      }

      .cls-105 {
        fill: #373c4d;
      }

      .cls-106 {
        fill: #405594;
      }

      .cls-107 {
        fill: #8973a0;
      }

      .cls-108 {
        fill: #7c494d;
      }

      .cls-109 {
        fill: #3e3e5f;
      }

      .cls-110 {
        fill: #46485d;
      }

      .cls-111 {
        fill: #503f6c;
      }

      .cls-112 {
        fill: #6a5887;
      }

      .cls-113 {
        fill: #343643;
      }

      .cls-114 {
        fill: #8387b6;
      }

      .cls-115 {
        fill: #282b3b;
      }

      .cls-116 {
        fill: #181a26;
      }

      .cls-117 {
        fill: #f3c9b4;
      }

      .cls-118 {
        fill: #362b4f;
      }

      .cls-119 {
        fill: #e3c2b0;
      }

      .cls-120 {
        fill: #fcfcfa;
      }

      .cls-121 {
        fill: #1a161e;
      }

      .cls-122 {
        fill: #212431;
      }

      .cls-123 {
        fill: #181c27;
      }

      .cls-124 {
        fill: #292e40;
      }

      .cls-125 {
        fill: #131521;
      }

      .cls-126 {
        fill: #15141c;
      }

      .cls-127 {
        fill: #81a0d6;
      }

      .cls-128 {
        fill: #82a1d7;
      }

      .cls-129 {
        fill: #3f3f46;
      }

      .cls-130 {
        fill: #454958;
      }

      .cls-131 {
        fill: #33437e;
      }

      .cls-132 {
        fill: #e8c8b2;
      }

      .cls-133 {
        fill: #585b68;
      }

      .cls-134 {
        fill: #202639;
      }

      .cls-135 {
        fill: #0b0d17;
      }

      .cls-136 {
        fill: #141824;
      }

      .cls-137 {
        fill: #424655;
      }

      .cls-138 {
        fill: #685a50;
      }

      .cls-139 {
        fill: #fadec6;
      }

      .cls-140 {
        fill: #1a1d28;
      }

      .cls-141 {
        fill: #c19a8b;
      }

      .cls-142 {
        fill: #a0787b;
      }

      .cls-143 {
        fill: #3d4777;
      }

      .cls-144 {
        fill: #313541;
      }

      .cls-145 {
        fill: #3e528e;
      }

      .cls-146 {
        fill: #2f303c;
      }

      .cls-147 {
        fill: #393d48;
      }

      .cls-148 {
        fill: #2c3040;
      }

      .cls-149 {
        fill: #b1a279;
      }

      .cls-150 {
        fill: #7e668f;
      }

      .cls-151 {
        fill: #b1827c;
      }

      .cls-152 {
        fill: #2a2442;
      }

      .cls-153 {
        fill: #343741;
      }

      .cls-154 {
        fill: #2c3243;
      }

      .cls-155 {
        fill: #fefefe;
      }

      .cls-156 {
        fill: #8d7c6a;
      }

      .cls-157 {
        fill: #455c9a;
      }

      .cls-158 {
        fill: #262939;
      }

      .cls-159 {
        fill: #161923;
      }

      .cls-160 {
        fill: #1e222f;
      }

      .cls-161 {
        fill: #11121a;
      }

      .cls-162 {
        fill: #5f636e;
      }

      .cls-163 {
        fill: #0c0d1a;
      }

      .cls-164 {
        fill: #c29487;
      }

      .cls-165 {
        fill: #696779;
      }

      .cls-166 {
        fill: #bb4c47;
      }

      .cls-167 {
        fill: #5f353a;
      }

      .cls-168 {
        fill: #2b2e38;
      }

      .cls-169 {
        fill: #c8accc;
      }

      .cls-170 {
        fill: #4f5565;
      }

      .cls-171 {
        fill: #11131f;
      }

      .cls-172 {
        fill: #070710;
      }

      .cls-173 {
        fill: #535969;
      }

      .cls-174 {
        fill: #1c1f2c;
      }

      .cls-175 {
        fill: #4b525f;
      }

      .cls-176 {
        fill: #652b2f;
      }

      .cls-177 {
        fill: #40345e;
      }

      .cls-178 {
        fill: #0b0b11;
      }

      .cls-179 {
        fill: #c39f96;
      }

      .cls-180 {
        fill: #3d404c;
      }

      .cls-181 {
        fill: #fce2c9;
      }
    </style>
  </defs>
  <path class="cls-155" d="M207,0l.38,1.97c-3.87,11.41-7.94,22.81-12.2,34.2l-2.39,2.88c1.8,2.02-.89,6.02-2.98,7.11-.05.59-.23,1.49-.65,1.52-15.03,1.04-31.27,1.27-46.24.1l-.42.97,2.38,1.76c1.65,2.89,7.59,15.65,7.15,17.83-.11.53-.31,1.04-.54,1.54l.22,1.87-35.7,34.33c-1.24,1.32-2.84,2.17-4.8,2.54.25,3.03-.3,6.05-1.64,9.05-.7,2.85-1.99,4.37-3.86,4.58,0,1.96-.45,4-1.37,6.11l-15.97,32.29c7.49,16.34,15.06,32.65,22.71,48.93l14.58,13.97,19.4-6.16,2.87.64.21-1.64c11.37-3.54,22.74-7.09,34.12-10.64l1.29,1.17c1.96,0,1.92.51.28,1.52l-.45,3.43c-8.02,8.2-12.66,16.92-17.39,27.72-8.53,19.52-14.69,39.21-19.2,60.23l-2.79,5.26-1.47,2.84c-7.01,5.78-13.92,11.6-20.72,17.47l-1.73.22c1.04,1.85-1.75,4.81-3.8,4.52-2.32,8.1-5.11,16.98-8.36,24.81-4.38,10.56-14.98,24.87-22,34.21l-1.86.04c.84,1.34.07,2.93-2.3,4.76-2.27,7.34-4.16,14.88-5.67,22.64-11.33,15.18-22.15,30.71-32.45,46.58l-3.78,3.43c.4.43.95,1.11.72,1.47-1.35,2.09-5.29,6.65-7.15,8.49-1.29,1.82-2.58,2.97-4.85,3.43H0V0h207Z"/>
  <g>
    <g>
      <path class="cls-43" d="M315.75,59.3l1.29-1.03c14.16,6.99,28.27,14.07,42.34,21.24l.62,1.86v25.15l-1.16,1.17c-15.41-5.56-30.83-11.13-46.25-16.7l-1.98-2.31-1.47.76c-17.98-13.76-35.79-27.65-53.41-41.67l.09-1.85,2.92-.84c16.05,2.31,31.96,5.27,47.72,8.88,4.26.76,7.36,2.54,9.29,5.33Z"/>
      <path class="cls-69" d="M324,0c.32.66.62,1.33.81,2.03.65,2.39-3.03,30.63-4.42,31.39l-3.2-.3-.77,1.38c-24.76-4.47-49.53-8.94-74.3-13.41l-.62-1.64c-.35-3.59.44-7.35,2.38-11.28.46-3.4,1.66-6.12,3.62-8.18h76.5Z"/>
      <path class="cls-145" d="M324,0h36v57.71c-.35.48-.99,1.14-1.35.94-12.97-7.1-26.79-15.42-39.35-23.23l-.51-1.58c-1.42,1.53-1.97,1.32-1.59-.72.1-.09,1.94.17,2.01-.36,1.57-11.13,3.83-21.87,4.8-32.76Z"/>
      <path class="cls-49" d="M360,106.52v41.5l-2.12.83c-5.05-2.37-10.21-4.4-15.49-6.1l-1.31-1.8c-1.71,1.37-2.7-.22-3.59-1.86-.63-2.06-1.52-3.95-2.66-5.68l-13.32-8.5-.44-1.82-1.76-.64c-3.29-10.82-6.58-21.65-9.88-32.48l1.17-1.29,49.4,17.83Z"/>
      <path class="cls-128" d="M247.5,0c-1.23,6.64-3.64,13.12-6.01,19.45l-.5,1.79c-15.59,6.31-31.19,12.6-46.8,18.87l-1.4-1.06c3.62-13.32,9.8-25.91,14.21-39.06h40.5Z"/>
      <path class="cls-134" d="M360,57.71v23.66l-44.25-22.06c-1.55-1.19-1.96-3.06-1.22-5.63l2.7-18.44,1.55-1.4c1.09-.02,2,.66,3.13,1.33l38.09,22.54Z"/>
      <path class="cls-97" d="M163.5,83.19l2.2.11c14.25,6.42,28.1,13.56,41.52,21.41l1.2,1.84c-.82,2.47-7.79,5.23-9.6,2.97-.77,2.35-5.51,2.04-6.07-.18-27.26.09-54.45-.15-81.55-.72l40.29-38.74,1.78.51c2.28,3.91,4.31,7.94,6.07,12.09,1.8-.57,3.19-.34,4.16.71Z"/>
      <path class="cls-52" d="M183.55,206.92l-35.62,11.11-2.94-.18c-5.62-3.8-11.24-7.6-16.87-11.4l.11-1.74c0-1.17.63-2.12,1.87-2.86l31.2-24.3,1.63.63c.28-.7.58-1.39.96-2.02,1.78-2.92,17.53-15.12,20.74-15.95.72-.19,1.47-.27,2.22-.32-1.56,10.56-4.17,21.03-5.22,32.1-.49,5.15,2.09,10.12,1.93,14.93Z"/>
      <path class="cls-82" d="M101.33,156.74c1,1.21,1.51,2.92,1.54,5.12l6.36,15.1-.41,2.29,2.06.55c2.84,6.94,6.8,13.03,11.88,18.28,2.84,1.97,4.66,4.17,5.47,6.62l19.71,13.32-22.52,7.37-15.56-14.98-23.23-49.62,19.08-38.54c1.85-1.85,2.13-.1,2.25,1.84l-4.83,30.97-1.78,1.68Z"/>
      <path class="cls-143" d="M212.87,64.3l-.12,1.65-45.51,17.42c-1.18.31-2.42.25-3.74-.17-1.58.61-2.88.67-5.29.96-1.13-5.52-5.23-9.58-6.72-14.27-2.31-7.27-6.05-14.01-8.99-21.13-.2-.26-.34-.52-.33-.77.04-.54,9.36.53,10.64.76l59.53,13.9.53,1.66Z"/>
      <path class="cls-127" d="M253.51,45.72c.61-1.96,1.22-1.74,1.54.24,1.23,1.55,1.1,1.76-.83,1.29.31.77-.01,1.44-.96,2.02-12.99,5.35-25.99,10.71-38.99,16.06l-1.4-1.04-36.9-8.42-32.68-7.9c-.48.03-.98.44-.78.77-1.55-.37-.63-2.23.65-1.22l46.66-1.36.51-1.07c16.53-.64,33.21-.9,50.05-.77l.7,1.06c4.21-.19,8.35-.08,12.43.35Z"/>
      <path class="cls-157" d="M192.75,109.34c-1.81,2.82-5.5,1.98-8.03.44l-.52,1.5-68.99-.29,31.93,26.02-.25,1.73c.15.57.31,1.44-.07,1.64-1.26.68-12.7,5.48-13.42,5.4-.65-.07-1.16-.5-1.57-.99l-2.2,2.48c-8.97,3.52-17.94,7.03-26.91,10.56l-1.38-1.07,5.15-32.97c.12-.8-.16-1.65-.78-1.52,1.61-3.25,3.4-6.31,3.9-10.4.17-1.35.84-2.5,1.6-3.24l80.67.17c.61,0,1,.17.88.56Z"/>
      <path class="cls-105" d="M241.49,19.45c.4.62.77,1.25,1.04,1.93s.52,1.31.52,1.94c-.06,6.72-.18,13.45-.71,20.13l10.48.11c1.24.15,1.31,1.04.69,2.17l-63.7.44c.06-2.65,2.35-4.79,2.98-7.11l48.7-19.6Z"/>
      <path class="cls-64" d="M310.6,88.69l10.47,34.41-1.46,1.47c-9.95,1.18-15.83-2.22-23.6-7.67h-13.77s-1.04-1.5-1.04-1.5c-3,.72-4.28.26-3.83-1.37-2.59-1.81-4.88-3.99-6.88-6.53-1.29,2.39-2.89,3.57-4.81,3.54l-.11,1.72-8.98,4.33-1.6-.89-2.49-.23c-10.35-11.01-11.3-10.69-2.86.97l.09,2.79c-.49.64-1.07,1.33-1.88,1.5-2.11.46-14.59-1.7-17.47-2.42l-1.68-1.65c-1.4,2.83-6.69-1.28-5.75-3.88l-.94-1.48c10.56-21.66,21.3-43.18,32.23-64.54.23-.46.51-.89.83-1.29.18-.68.44-.68.77-.04l15.68,12.51,39.1,30.24Z"/>
      <path class="cls-154" d="M317.19,33.12c.52.09.97.73,1.59.72-.05,7.47-3.31,18-3.03,25.47-18.02-8.99-40.19-8.38-59.93-13.37-.24-.06-.53.05-.77.04-.51-.04-1.03-.25-1.54-.24,0-.57-.69-.73-1.46-.73l-11.21-.05c.45-8.78.87-17.1.66-25.49l75.69,13.67Z"/>
      <path class="cls-100" d="M190.31,140.23c-.31,6.65-2.5,13.11-3.47,19.66-8.26,5.63-16,12.12-23.92,18.29-3.1.05-4.02-2.53-2.77-7.75l-1.87-.71c-6.39,2.5-9.53-3.31-5.97-8.62l-.08-2.13c-.21-.55-.47-1.35-.12-1.64,1.98-1.66,13.65-7.82,16.4-8.93l1.68.79c-.18-.56-.36-1.44,0-1.64,3.9-2.19,10.17-4.78,14.41-6.43,2.37-1.61,4.26-1.91,5.69-.9Z"/>
      <path class="cls-61" d="M192.75,109.34c1.96-.14,4.2.46,6.07.18.54.24,1.33.68,1.23,1.09-.51,2.3-5.58,19.37-6.23,20.21-.38.48-1.12.55-1.76.61-.89,2.88-1.62,5.65-1.76,8.81l-20.1,8.97c-1.61.44-2.71-.47-3.31-2.71l-1.85-5.12c-4.83-1.65-6.94-3.87-6.33-6.68l7.09-3.48v-1.65s19.94-9.2,19.94-9.2c4.44-2.12,3.92-5.11-1.56-8.96l.52-1.62c2.61.01,5.42-.25,8.03-.44Z"/>
      <path class="cls-60" d="M254.22,47.26c.33.22.89.99.47,1.84l-31.76,64.18c-3.22-2.33-5.62-5.59-8.54-8.62-2.31.07-4.05,1.48-5.97,1.88-13.93-8.08-30.74-15.14-44.92-23.36l49.37-18.89,41.35-17.03Z"/>
      <path class="cls-86" d="M152.24,158.98c.68,1.24,2.2.96,3.77,1.08-2.76,1.21-4.65,4.41-3.21,7.45.71,1.5,2.77,1.67,4.3.95,1.84-.87,5.48.84,4.76,2.99-.95,2.83-1.25,4.79,1.06,6.72l-31.88,24.83c-1.02.79-1.63,1.83-2.83,1.7-3.87-2.61-7.51-6.4-10.64-10.08-3.97-4.67-5.78-10.55-8.76-15.37.72-1.08,1.5-2.23,2.65-2.9,5.84-3.39,14.98-8.34,21.14-10.56,1.25-.45,2.62-.3,3.91-.1-.16-.56-.35-1.42.02-1.64,2.28-1.35,7.15-3.22,9.81-4.19,2.48-1.65,4.44-1.94,5.9-.89Z"/>
      <path class="cls-68" d="M131.82,144.78c1.24.68,1.29,1.86.16,3.54,1.72,2.68,3.62,5.29,5.69,7.85l-.12,1.69c-2,1.39-2.05,3.43-.16,6.12l-.88,1.73c-9.35,3.99-18.31,9.29-27.7,13.56-3.03-4.91-4.56-10.69-7.06-16.17-1.17-2.55-.77-4.12-.43-6.35l30.5-11.96Z"/>
      <path class="cls-131" d="M184.72,109.78c1.68,1.88,4.34,3.37,5.41,6.03,1.13,2.81-1.62,4.93-3.95,6.01l-20.37,9.39c-5.25,2.93-10.67,5.61-16.26,8.04l-2.68-.52-36.02-29.26,73.86.31Z"/>
      <path class="cls-62" d="M165.81,131.2c-.63,2.23-5.16,1.49-5.99,4.25-.96,3.2,5.88,2.44,6.98,6.06.87,2.89,1.66,5.54,3.41,7.68l-17.97,9.78-15.73,6.72c-.79-2.06-2.52-4.47-1.84-6.9.21-.75,1.64-1.1,1.69-1.81.12-1.52-6.79-6.64-5.75-9.22l1.21-3,15.05-6.06c6.29-2.53,12.41-5.74,18.94-7.52Z"/>
      <path class="cls-106" d="M254.97,116.2c-1,.56-1.81,2-2.92,2.49l-2.34,1.04c-3.78-5.53-7.51-11.1-10.57-17.86,6.29,4.37,10.61,9.75,15.83,14.32Z"/>
    </g>
    <g>
      <g>
        <path class="cls-24" d="M131.04,407.27l.99,1.33c-3.6,14.99-5.53,30.37-5.79,46.15l-1.57.79,1.27,2.93c-.55,6.85-1.1,13.71-1.65,20.57l-1.58.96H55.9l-.69-1.5,25.79-30,4.51-3.72.28-2.12c3.76-3.66,7.19-7.64,10.29-11.91l2.17-.22,2.43-4.98c5.41-6.07,10.82-12.13,16.22-18.2l1.7.34c3.39-2.13,9.54-3.41,12.44-.43Z"/>
        <path class="cls-14" d="M360,384.65l-.61.92c-2.35-.38-4.72-1.12-7.12-2.21l-15.41,42.91c.79,5.33.54,10.52-.76,15.55,2.1,1.52-1.66,8.37-4.05,6.55-2.39.38-4.82.8-7.3,1.28l-15.75,5.86c-2.3.71-3.41.7-4.16-1.87-.48-1.65,2.75-18.72,4.83-20.74-.57.17-1.47.32-1.65-.05-3.83-7.91-7.57-17.37-10.8-25.63-2.02-3.61-3.07-7.37-3.13-11.28l-1.92-.76c-1.2-3.96-2.76-7.76-4.7-11.38l.46-1.96c-4.34.37-3.17-6.98.71-6.54-.48-1.36.04-1.54.96-.37-.31-1.42.26-1.54.91-.2,1.38-.25,2.64.46,3.8,2.12l14.33,11.98,49.98-19.12,1.38,1.08v13.85Z"/>
        <path class="cls-116" d="M162.09,354c.14.86.25,1.72.26,2.58.04,6.21-6.6,22.77-9.35,29.53-.3.73-.81,1.39-1.34,2.04s-1.18,1.27-1.83,1.85c.24,4.84,1.98,9.34,4.06,13.86,2.83,6.16,5.82,12.16,9.25,18.01,1.14-1.05,4.48-2.3,5.42-.36.21-1.46.77-1.42,1.03.04l1.94-.2c2.78,2.93,5.7,5.66,8.75,8.2l.56,1.68c3.49-1.28,10.19-3.22,13.88-3.38l1.56,1.26c1.77.52,1.49,1.55.51,2.86-11.52,15.37-22.83,30.99-33.95,46.86l-2.36,1.16h-4.12l-.07-2.75c6.11-12.12,12.21-23.92,18.29-35.41l-6.13-7.77c-13.16-11.89-23.09-25.52-26.59-43.38-.79,1.26-1.82,1.83-3.09,1.73-2.86,3.3-6.31,6.1-10.35,8.4-3.01,2.94-6.29,5.23-9.84,6.88l-20.36,22.83c-.56-.16-1.18-.42-1.34-.96-.29-.98,3.37-17.86,4-20.13l1.69-.79-1-2.54,8.19-38.85c.37-1.71,1.21-2.46,2.67-1.24l.29-1.63c16.15-4.33,32.33-8.51,48.55-12.54,1.01-.18,1.28.53.8,2.14Z"/>
        <path class="cls-159" d="M294.03,421.47c-.01.74-.05,1.48-.2,2.2-.72,3.58-11.86,19.18-15.02,20.96-.64.36-1.33.62-2.03.86-1.07.29-2.15.36-3.26.19l-22.29,33c-.69.64-1.59,1.08-2.7,1.32h-15.22l-1.74-.61-5.59-19.08c-1.41.56-2.53.36-3.35-.59.12.65-.06.67-.51.12l-1.53-1.15-6.57-20.94c-.54-1.35-.11-2.77,1.31-4.27-1.73-1.65-.21-3.41,2.04-3l2.22-2.95c.29-3.09,8.04.41,8.41,2.98l1.35-1.11c8.8,6.09,16.44,3.11,24.88-1.76-3.08-.15-4.83-1.14-5.24-2.98-1.99-1.56,4.9-5.53,5.98-5.35,1.83.31,4.86,4.81,5.86,6.55.36-.75.69-.45,1,.9.9-1.16,2.7-.97,5.39.57,5.9-1.1,11.03-4.22,15.4-9.34l1.62.49c2.12-4.38,3.17-3.81,6.81-1.71,1.37.79,4.31,3.2,2.98,4.7Z"/>
        <path class="cls-103" d="M360,348.75v22.05l-51.88,19.84-14.79-12.66c-1.2-1.03-2.15-2.09-2.81-3.25l.91-2.14c1.82-1.45,12.8-8.81,13.79-8.67.44.06.87.21,1.29.39l-.15-1.65c15.4-8.95,30.8-17.91,46.21-26.87l1.54.84c.68-.4,1.68-.78,2.46-1.01l3.43,13.12Z"/>
        <path class="cls-175" d="M360,395.16v84.84h-45.35c-.68-2.03-.2-4.06,1.42-6.11,4.81-7.87,9.37-15.88,13.68-24.01l2.3-1.51c2.1-1.64,2.89-4.29,4.05-6.55l1.24-5.71c6.98-13.63,13.95-27.24,20.92-40.83l1.75-.12Z"/>
        <path class="cls-47" d="M206.25,432.04l1.79-.28c2.35,1.31,4.77,1.88,7.27,1.72-.49,1.93.08,3.86.76,5.96l5.1,15.88c.52,1.63,1.08,3.05.93,4.52l-.13,1.65c-15.15,5.65-30.33,11.31-45.56,16.98l-8.42,1.54h-7.51c2.37-4.53,5.52-8.62,8.78-13.07l25.27-34.47c.93-1.27,1.72-1.95,1.74-3.34-2.16-.48-1.55-6.61-1.29-8.85l.88-.94c-1.12-1.59-.43-2.41,2.08-2.44-.47-1.09-.03-1.44,1.01-.82.41-.09.82-.15,1.23-.11,1.27.13,6.58,12.86,6.49,13.89-.47.83-.62,1.56-.43,2.19Z"/>
        <path class="cls-58" d="M332.05,448.36c-4.27,10.27-12.67,21.32-17.4,31.64h-16.09c-3.4-2.82-6.71-9.11-6.73-13.54-2.74-3.06-4.64-6.38-5.7-9.97,5.04-7.39,10.91-14.14,17.6-20.26,1.92-2.57,3.9-3.68,5.94-3.34l-3.46,21.63c8.51-1.11,21.03-10.08,25.84-6.16Z"/>
        <path class="cls-167" d="M291.83,466.46c2.6,4.31,5.05,8.79,6.73,13.54h-44.37c3.54-10.03,10.64-19.69,17.15-28.3.6-.8,1.37-1.47,2.17-2.14s1.69-1.26,2.59-1.82l2.09-.15c5.01,5.92,9.56,12.21,13.64,18.88Z"/>
        <path class="cls-108" d="M222.62,459.72c.59-.07,1.48-.09,1.62.31.66,1.99,4.57,17.63,4.41,18.57-.1.61-.68,1.05-1.21,1.41h-59.44l54.11-20.17c.16-.06.34-.08.51-.12Z"/>
        <path class="cls-32" d="M85.5,444.78c.49,0,.25.48-.06.84l-29.55,34.37h-14.82c-.55-.19-1.36-.51-1.34-.94.09-1.97,1.21-6.9,1.8-8.99.3-2.31.81-4.09,2.67-5.68l-.02-1.65c13.28-6.31,26.57-12.61,39.86-18.92l1.46.97Z"/>
        <path class="cls-147" d="M360,384.65v10.51l-23.9,46.66-.7-15.79,16.02-44.74c3.7.93,5.64,3.01,8.58,3.36Z"/>
        <path class="cls-160" d="M147.83,480h-25.12l1.96-24.47,15.15,16.6c2.64,2.89,5.8,4.99,8.01,7.86Z"/>
        <path class="cls-146" d="M276.78,445.49c1.91,1.01,1.58,2.51-.67,2.25-7.76,10.41-14.97,21.29-21.91,32.26h-5.67l24.38-36.09c1.91-.27,2.91.68,3.87,1.58Z"/>
        <path class="cls-44" d="M41.07,480h-12.48l11.27-13.39c1.8-2.39,3.25-3.14,4.34-2.23l-3.13,15.61Z"/>
        <path class="cls-113" d="M233.3,480h-5.86l-4.82-20.28c1.41-.36,2.67-1.15,4.35-1.35l6.34,21.63Z"/>
        <path class="cls-11" d="M102.59,408.66l-4.35,21.87c-4.14,4.65-7.66,10.56-12.74,14.25l-41.3,19.61c-1.49.71-2.77,1.85-4.34,2.23,10.22-17.66,22.91-33.73,34.91-50.67l4.47-20.15c.67-3.04,3.48-4.67,4.82-6.59.53-.29,1.35-.71,1.69-.4,4.09,3.76,11.74,11.38,14.88,15.63,1.46,1.17,1.92,2.36,1.95,4.22Z"/>
        <path class="cls-36" d="M186.1,223.5l-.15,8.63-7.11,49.03-1.86,2.39c.97.98.56,1.33-.7.68-9.43,7.62-20.29,15.48-30.58,21.53l-1.7-.67c3.53-14.97,7.18-29.92,12.07-44.92,3.97-12.18,9.59-23.51,15.14-34.91,3.18-6.53,9.22-10.88,12.61-16.81,1.33,4.91,1.5,10.06,2.27,15.06Z"/>
        <path class="cls-39" d="M113.9,356.81c.62,1,.17,2.23-1.33,3.69.59,2.3.55,4.14-.12,5.53-.64.17-1.02.68-1.22,1.61l-8.65,41.02-18.52-19.46,17.41-25c7.12-10.23,8.2-23.59,14.81-34.05,1.82.39,2.44,1.99,1.86,4.8-2.3,6.86-3.35,13.62-3.13,20.27l-1.11,1.61Z"/>
        <path class="cls-26" d="M154.35,313.48c.46.36,1.12.96.95,1.32-3.73,8.13-11.04,17.57-17.18,24.12l.48,1.51c-7.7,5.68-15.39,11.37-23.09,17.06l-1.6-.68c-3.28-10.14,4.71-18.41,2.38-26.67,1.36-2.16,1.91-2.82,3.8-4.52,5.62-1.3,11.11-3.67,16.46-7.09.65-1.64,1.82-2.56,3.22-3.5.43-.29,7.44-3.45,7.87-3.54.98-.23,6.57.51,6.72,2Z"/>
        <path class="cls-173" d="M176.29,284.22c.43.41,1.02,1.11.79,1.45-6.25,9.1-14,19.44-20.99,28l-1.73-.19c-2.07.33-4.1-.05-6.38-.64-3.06,3.05-8.77,1.86-10.33,7.05-3.14-.21-15.17,10.58-17.56,5.73,7.77-7.01,15.2-14.74,23.93-20.54l9.84-6.53c7.55-5.01,14.9-9.96,22.44-14.33Z"/>
        <path class="cls-101" d="M131.04,407.27c-4.16-.34-8.29.16-12.44.43,5.56-6.23,12.85-11.18,20.18-15.28-1.93,5.2-4.92,10.05-7.74,14.85Z"/>
        <path class="cls-79" d="M309.67,432.9c-3.25,2.52-14.56,13.73-16.67,17-1.49,2.31-5.33,4.56-5.53,7.46l4.35,9.11c-6.31-5.04-9.94-13.97-15.73-18.73.45-.6.37-1.58.67-2.25,6.35-7.42,12.09-15.69,17.25-24.02,3.5-.83,3.87-1.09,3.06-5.27s-2.55-9.43-6.78-4.92l-1.5-.93c-1.72-1.14-.56-3.98,1.43-3.86.46-3.23,1.17-6.4,2.14-9.53l1.71-1.01,15.58,36.96Z"/>
        <path class="cls-129" d="M177.49,312.73c.49.32,1.19.86,1.05,1.26-.83,2.44-3.46,7.54-4.85,9.89-.68,2.54-1.86,3.81-3.53,3.8l-8.06,26.31c-.09-.61-.62-.82-1.46-.61l-48.18,12.63c-.78-1.83-2.05-4.2-1.13-6.5.4-.99,2.02-2,2.58-2.71l24.21-17.88,5.59-5.81,30.43-24.05c3.14-.68,4.25.74,3.36,3.67Z"/>
        <path class="cls-178" d="M196.28,429.11c-5.14.77-10.31,2.87-15.44,2.12.79-2.66,13.12-11,15.03-11.91,1.05-1.46.42,9.38.41,9.79Z"/>
        <g>
          <path class="cls-66" d="M156.37,480h-8.53c-3.27-1.24-6.13-3.34-8.59-6.29l-13.79-15.1-.78-3.08c.8-9.91,2.1-41,6.37-48.26-.05-5.15,4.3-10.93,7.74-14.85.63-1.69,2.56-3.13,3.43-5.06,1.83-4.06,5.48-6.47,9.39-7.69.02,3.27-10.37,3.04-7.97,12.2,2.15,8.22,5.29,16.04,9.78,23.28,5.75,9.26,16.95,16.34,22.55,26.58l-12.86,25.75c-2.22,4.45-4.2,8.6-6.73,12.53Z"/>
          <circle class="cls-136" cx="148.19" cy="469.12" r="4.01"/>
          <path class="cls-88" d="M164.51,449.13c-2.48.74-4.16-1.47-4.69-2.77-.8-1.97-.16-4.77,2.26-5.39,2.32-.6,4.02,1.31,4.62,3.16.44,1.36.1,4.32-2.19,5Z"/>
        </g>
        <path class="cls-54" d="M236.99,359.38l-1.44,1.89-9.69,2.48,18.68,12.17c1.84.08,2.84.78,3,2.1-.24,1-1.07,1.6-2.48,1.8-1.79,4.16-2.99,8.4-3.62,12.71.32.26.56.59.72.97.77,1.73-9.57,31.92-11.31,36.11-.06,1.26-1.01,1.57-2.85.9-2.41-.77-4.68-2.02-7.31-3.18l-3.32,3.15c-.93-.96-.85-2.42.25-4.4-2.78-1.59-4.01-3.29-3.7-5.11l-1.87-.16c-3.67-5.29-6.78-10.88-9.32-16.79,0-3.2-.31-5.62-.96-7.26-2.22-1.23-1.78-5.21.73-5.79,3.38-12.85,10.28-23.75,19.39-33.13-1.43-.44-1.16-1.33.8-2.69,0-.69.23-.75.7-.23.57-2.04,1.46-4.24,2.68-6.6l1.97.45,1.7-.53,4.11,3.8c3.37,1.72,8.45,4.75,3.15,7.34Z"/>
        <path class="cls-18" d="M251.28,404.44c2.15-.04,1.46,7.78.99,9.25-1.77,2.89-3.47,5.8-5.1,8.72.5.59,1.11,1.34,1.83,2.24,2.09.85,4.74,1.29,6.93,1.76,3.02,3.09-14.42,8.18-15.89,8.24-4.25.18-8.39-3-12.03-4.15,1.13.19,1.28-.97,1.65-2.09l11.79-35.89c4.97,2.73,2.77,8.33,5.26,11.91.93,1.34,3.43.19,4.58.01Z"/>
        <path class="cls-19" d="M294.03,421.47c-1.99-1.71-3.88-4.23-6.86-4.95-1.01-.24-2.34,1.34-2.92,1.96.32-.81.56-1.67.58-2.55-.8-2.15,1.39-7.63,3.98-5.59,1.94-.71,4.14-3.62,6.21-1.94s5.94,11.24,2.47,13.66c-.82.58-2.5.24-3.46-.6Z"/>
        <path class="cls-59" d="M217.36,430.47c-.62,1.04-1.56,1.86-2.04,3-.23.54-1.22,1.21-1.84,1.9-2.11-.88-5.81-1.29-7.22-3.34-1.73-3,2.54-5.99,5.22-6.05-1.64-1.56.28-5.16,2.44-5.03,1.22,1.99,4.87,2.79,5.58,5.63-.84,1.18-1.46,2.77-2.12,3.88Z"/>
        <path class="cls-176" d="M211.47,425.99c-1.38,2.8-5.46,3.72-5.22,6.05-2.37-3.11-4.56-13.25-7.29-15.97l2.02-5.93c.57-2.87,1.7-1.82,3.31-.07,2.82,5.24,5.21,10.55,7.17,15.93Z"/>
        <path class="cls-122" d="M178.55,283.33c1.01,3.7,5.05,5.45,4.91,9.82-.08,2.42-1.41,5.09.3,6.85.65.26.62.54-.03.82.05.39.07.77-.04,1.11-.69,2.22-2.69,8.4-3.94,9.67-.61.63-1.41.95-2.26,1.12-.18-.58-1.49-3.31-2.68-2.36l-30.18,23.92c-2.26,1.79-4.22,3.52-6.52,4.64,3.8-5.96,7.96-11.8,11.75-18.06l4.48-7.39,21.94-29.26c.16-.22.44-.59.7-.68.55-1.91.69-2.09,1.57-.21Z"/>
        <path class="cls-74" d="M178.55,283.33c-.51.12-1.07.05-1.57.21l7.49-51.65c.45-3.07,1.64-5.66,1.63-8.39l7.45,48.16-15,11.67Z"/>
        <path class="cls-168" d="M251.24,336.02l13.5,12.05c-6.31-.31-12.79,3.08-15.71,8.97-2.62,2.83-8.51,3.82-12.04,2.34.44-.77.97-1.69.73-2.63-.28-1.11-1.48-1.7-2.67-2.24-2.96-1.34-4.73-3.93-7.03-5.75-1.43-2.36.74-3.8,3.1-2.41.17.1-3.2,1.51-1.75-1.35.85-1.44,2.54-2.23,5.06-2.39,2.21-2.4,4.29-3.32,6.25-2.77,3.37-1.62,7-2.79,10.56-3.83Z"/>
        <path class="cls-140" d="M249.03,357.04c-2.06,4.17-.26,9.52,1.74,12.94,1.77,3.01,3.96,5.63,7.03,7.6-2.61,1.2-7.86,1.31-10.27.44-.84-.3-2.84-.22-3.71-.79l-21.78-14.17c5.52-1.7,10.19-2.49,14.94-3.67,3.95-.99,8.04-1.56,12.04-2.34Z"/>
        <path class="cls-20" d="M213.91,420.96c-.57,1.79-1.61,3.36-2.44,5.03-2.86.99-7.94-19.39-10.48-15.85l.76-13.39c.78-.24,1.3.1,1.32.52l.14,2.44c.33,5.93,8.7,17.98,10.7,21.26Z"/>
      </g>
      <g>
        <g>
          <path class="cls-102" d="M287.94,381.84c3.11,4.1,4.17,9.39,6.16,14.1-.64,3.68-1.67,7.5-3.85,10.54-1.81-.02-2.58-1.9-2.29-5.65l-3.97-16.84,1.21-1.4c.02-2.42,1.31-2.71,2.74-.75Z"/>
          <path class="cls-126" d="M289.61,374.93l-.96.37-1.47,1.11-4.91-.55c-2.46.82-4.79,1.25-7,1.3-.45,1.96-1.12,1.89-1.63-.05-1.51.24-1.85-.56-.98-1.79l5.35-4.62c-.8-1.24-.83-2.89-.08-4.94-.49-2.81-.1-4.82,1.18-6.03,3.39,5.05,7.47,9.79,10.51,15.19Z"/>
          <path class="cls-63" d="M288.65,375.3l-1.76,2.74c-.69,1.07.32,2.84,1.05,3.8-.97-.24-1.9.57-2.74.75-1.03,1.85-1.94,1.23-2.34-.57-1.06.57-2.14.3-3.24-.81-3.08-.94-4.53-2.28-4.36-4.04,3.71-3.25,8.79-3.44,13.39-1.85Z"/>
          <path class="cls-29" d="M269.78,378.67c.5,1.5-.34,2.98-2.52,4.41l-.2,16.48-1.52,1.56c2.21.35,2.03,1.44-.04,2.25l1.07,2.12c-.1,4.03-.85,10.7-3.34,13.65,2.05,1.06.47,6.84-1.39,7.62-.41-.09-.62-.73-1-.9-2.1-2.89-3.54-6.26-4.33-10.09-1.15-4.36-2.89-8.14-5.24-11.32l-.49,1.52c-4.73,1.57-7.32-1.59-7.77-9.49-1.19-1.35-1.72-2.67-1.59-3.95-3.52-1.93,1.79-9.89,2.43-14.29,1.06-.52,2.79-.2,3.67-.22,2.06-1.81,7.38-1.12,10.27-.44-.22-3.78,9.07-1.42,11.43-.49l.55,1.58Z"/>
          <path class="cls-35" d="M274.27,412.59c1.54.02,10.2.94,10.38,1.44.24.64.42,1.22.18,1.91,1.03.08.83.93-.58,2.55-3.37,3.54-10.79,10.14-16.11,10.38-2.89.13-4.36-1.66-6.3-2.1-.23-2.65.9-5.1,1.39-7.62.91-2.5,2.66-3.48,4.92-4.66,2.38-2.09,4.42-2.72,6.13-1.89Z"/>
          <path class="cls-9" d="M260.84,425.85c-2.34-1.04-4.06-2.99-6.07-5.33l-5.78,4.13c-.99-.4-2.41.84-3.03-.59-1.73-4.03,4.72-8.14,4.86-10.87l.45-8.75c.49-.07,1.49-1.25,2.19-.77,2.89,7.34,6,14.64,7.37,22.19Z"/>
          <path class="cls-161" d="M258.72,333.81c4.44,3.49,7.99,7.61,10.07,13.32.23.63.98,1.2.07,1.6-.34.15-.81-.04-1.11-.03-.87-.35-2.07-.59-3.01-.63l-3.3-.93c-3.46-3.09-6.93-6.19-10.41-9.29l.2-1.83c2.49-.72,4.94-1.64,7.48-2.21Z"/>
          <path class="cls-149" d="M285.2,382.58l4.23,17.96c.5,2.1-.14,4.27.82,5.93-.14,1.39-.83,2.62-1.43,3.86-2.39.87-1.93,4.31-3.98,5.59-1.57-1.98-9.94-.25-10.56-3.34l-1.13-1.89,2.09-9.75-3.76,1.95c-2.38,1.55-4.36,1.7-5.96.47.16-.65.03-1.57.04-2.25l.65-1.92c4.94-1.35,8.76-3.58,11.47-6.67l3.33-9.87,1.87-.65c.8-.39,1.72.51,2.34.57Z"/>
          <path class="cls-33" d="M275.26,377.16c2.48,1.81,5.73,2.35,7.59,4.85-6.49,16.16-.29,11.62-17.31,19.11l.23-18.91c1.77-1.14,2.75-2.54,4.01-3.53-.61-2.32,2.41-2.84,3.85-1.56l1.63.05Z"/>
          <path class="cls-40" d="M202.48,390.96c1.3-5.21,1.18-11.53,3.89-16.47,2.37-4.32,6.05-7.61,8.65-11.78,1.41-2.26,5.33-2.79,6.85-4.88-.15,1.33-.85,2.68-1.94,3.94-7.41,8.61-12.63,18.35-16.7,29.07-.1.72-.78.94-.75.12Z"/>
          <path class="cls-83" d="M274.27,412.59l-11.05,6.55c1-5.22.99-10.62,2.28-15.77,4.23-.97,8.05-3.02,11.82-5.48-.51,5.5-2.13,10-3.06,14.7Z"/>
          <g>
            <path class="cls-132" d="M358.56,273.12c1.95,2.38-4.09,26.4-4.09,33.85v18.48c.02,3.88-.36,7.62-.36,11.19l-47.6,27.68-1.57.52-23.7-25.33-4.96,13.32-1.78.49c-2.08,1.14-6.62-2.4-6.74-4.61.78-1.41.73-1.82.24-.56-1.65-3.46-3.73-6.65-6.24-9.57-2.03-1.37-3.04-2.96-3.03-4.76-2.73.51-5.16-3-3.53-5.23.07-.35.16-.68.35-.94.75-1.04,23.6,5.98,24.44,6.95-.15.13-.17.53-.16.51,15.39-17.68,32.03-35.52,49.25-50.81l1.6.89c2.42-1.15,5.67,2.31,5.14,4.9,2.41.9,4.54,2.69,6.4,5.35l-4.15-8.35.84-4.4c-1.7-2.57,1.85-8.87,4.68-9.54.35-.67.76-1.41,1.45-1.67,1.12-.42,10.25-.11,11.95.18l1.58,1.47Z"/>
            <path class="cls-181" d="M309.8,265.52c.92.56,1.73,1.83,2.9,2.08,1.51.56,5.3,2.69,3.99,4.74l4.47,5.26c3.6,5.94-3.21,10.9-7.91,7.31-6.86-3.17-13.68-6.37-20.47-9.59-2.06.82-5.56-.59-5.55-3.03-2.35-.42-4.81-.67-7.39-.76-.53-.98-.57-1.8-.13-2.48-.42-.54-.99-1.44-.68-1.79,3.05-3.46,9.7-7.82,13.88-9.83l1.84.64c1.38-1.63,3.09-1.7,5.12-.2l9.47,5.6.47,2.06Z"/>
            <path class="cls-38" d="M358.56,273.12c-5,.2-10-.71-14.98.02-1.83,1.43-5.34-4.37-3.7-5.99-2.21,1.03-4.97-5.04-3.55-6.43l.34-2.71c.15-5.05,1.99-10.3,7.64-11.69-.24.4,16.42,29.47,14.25,26.81Z"/>
            <path class="cls-179" d="M306.51,364.32c-5.38,3.13-10.24,7.73-15.99,10.42-.27.13-.62.09-.91.2l-2.46-1.21c-3.58-4.34-6.26-9-8.05-13.99-2.19.64-5.19-4.54-4.61-6.43l6.19-16.62,25.82,27.63Z"/>
            <path class="cls-104" d="M323.14,277.16l1.67-.41c1.92,1.52,6.79,6.23,5.85,8.43-2.75,1.13-4.46,3.5-6.79,5.8-14.95,14.71-29.38,29.34-43.49,45.31l-25.19-7.7c-2.71-.26-3.17-3.85-1.05-5.33l-.46-2.07c-2.26-1.12.27-5.18,2.76-4.67-1.06-2.39,2.55-4.4,4.4-2.46l1.71-1.06c7.85,3.23,7.82,2.72-.1-1.55l-1.39-2.41c-2.21.87-3.85-1.91-1.67-3.13-3.11-1.43-1.03-5.89,1.02-7.95,1.26-1.27,4.37-3.86,5.87-2.59.54-2.06,2.66-2.32,3.08-.02,1.85-.96,3.99-.67,6.4.88-2.81-.84-4.87-2.29-6.18-4.36-2.55-1.05-2.33-5.04.5-5.36-1.59-3.2,5.41-8.8,8.13-6.79.39-2.98,8.44-.71,8.15,1.93,1.81-1.79,4.02.28,5.46,1.86,1.2-1.88,3.48-.61,3.81,1.26,1.79-1.44,5.31.78,6.48,2.51.99-.46,1.31-.93.97-1.42l-6.12-6.01c-2.71.09-4.49-1.83-4.19-4.52,2.77-2.76,11.47,5.14,20.83,8.12.98.31,1.53,1.77,2.66,1.57.56-.1,4.67-2.14,4.77-3.46.22-2.84-3.52-4.89-4.35-9.21,1.79,1.72,4.75,3.01,6.45,4.82Z"/>
            <path class="cls-34" d="M335.8,290.07c.36-2.69,2.21-4.89,3.09-7.39-1.09,4.21,6.46,12.75,7.09,19.01-3.74-3.83-7.34-7.42-10.18-11.62Z"/>
            <path class="cls-165" d="M292.78,275.31c1.43,1.43,2.86,2.98,4.19,4.52l.07.62c.95,1.53.73,4.02-1.4,4.3-1.29.28-2.69-1.02-3.81-1.26l-4.25-3.11.09-1.95c-2.17.78-3.19-4.59-1.12-5.39-.29-.72-.06-.97.69-.76,1.62.95,4.15,1.63,5.55,3.03Z"/>
            <path class="cls-119" d="M287.23,272.28c-.26.22-.49.48-.69.76.69,2.04-5.35,1.4-6.33.98-.77-.33-1.22-.65-1.29-1.61.27-1.03.2-2.11.03-3.15.31-.17.39-.63.75-.21-.18,4.08,6.69-.53,7.53,3.24Z"/>
            <path class="cls-151" d="M286.54,273.04l1.12,5.39c1.51,1.9,1.21,3.2-1.3,3.21-.52-.23-6.82-2.52-8.15-1.93.25-2.44.1-4.93.72-7.31l7.62.64Z"/>
            <path class="cls-16" d="M260.83,314.05c-.7-1.34-1.28-4.09.22-5.02,4.91,2.44,9.86,5.61,14.35,9.56-5.46-.61-9.95-3.3-14.57-4.54Z"/>
            <path class="cls-164" d="M269.36,295.34c-.01-1.15.32-2.33.21-3.48,6.38,2.36,12.34,5.86,18.05,9.94-6.87-1.42-12.37-4.42-18.26-6.46Z"/>
            <path class="cls-12" d="M302.11,287.27c-2.24-.54-4.71-1.04-6.48-2.51.34-1.51.08-3.28,1.4-4.3,1.33.3,6.79,5.63,6.8,6.45,0,.72-.92.82-1.72.36Z"/>
            <path class="cls-141" d="M302.11,287.27c2.48.31-4.81-5.76-5.08-6.81l-.07-.62c.97.46,2.22.95,3.25,1.94l6.18,5.93c-1.77,1.14-3.04-.14-4.28-.44Z"/>
            <path class="cls-87" d="M291.82,283.49c-1.94-.42-3.63-1.05-5.46-1.86.49-1.05,1.15-2.04,1.3-3.21,1.51,1.54,3.98,2.9,4.17,5.06Z"/>
          </g>
          <g>
            <path class="cls-50" d="M204.81,287.17l-14.43,4.57c2.67-11.49,11.03-20.56,20.16-27.89,1.49-1.2,3.85-1.71,5.45-2.81,1.1-1.26,2.09-.12,1.85,1.51-3.95,7.31-7.51,14.79-10.67,22.44l-2.36,2.19Z"/>
            <path class="cls-31" d="M253.5,322.5c.23-.21.44.04.64.75.36,1.81.11,3.64,1.05,5.33s1.94,3.98,3.53,5.23c-1.2,2.66-5.02,3.63-7.48,2.21-1.81,2.86-7.31,4.74-10.56,3.83l-1.83.07c-2.05-2.75-3.62-5.73-4.71-8.93-1.22.79-1.67.37-.96-.88-.15-.56-.33-1.39.05-1.64,1.77-1.19,18.68-7.19,19.61-6.74.28.13.48.43.65.78Z"/>
            <path class="cls-99" d="M226.51,259.35c.63-2.34,4.93-1.61,6.66-.47,2.07-1.43,7.13-.67,8.53,1.46.5-.72.92-.95,1.69-1,.89-.06,9.72,3.27,10.1,4.06.15.31.16.7.13,1.1l1.31,1.32c.37.21.67.43.73.7.23,1.12-11.52,17.06-13.11,18.54l-1.73-.18-2.14,1.32c-5.62-.79-11.25-1.2-16.91-1.26l-2.06-1.37c-5.06.45-10.04,2.06-14.88,3.6,2.84-8.64,7.3-16.69,11.62-24.99.28-.54-.2-.98-.45-1.15.38-.71.61-1.49.72-2.28,2.79,0,5.62-.26,8.51-.74l1.29,1.34Z"/>
            <path class="cls-2" d="M231.72,240.76l.6,2.21c-1.87,4.82-3.2,9.8-3.98,14.95l-1.83,1.43c-2.99.31-8.77,2.16-9.8-.6-1.61-3.32-1.21-6.27-.21-9.89s1.53-7.68,5.44-9.08c3.48-1.25,6.86-1.24,9.79.98Z"/>
            <path class="cls-75" d="M256.44,316.51c-1.88,1.87-2.79,4.27-2.3,6.74-.21-.22-.52-.46-.64-.75l-2.22-.41c-6.74,2.37-13.59,4.32-20.56,5.87l-4.28-.5c-.31.75-.6,1.32-.82,1.3-2.48-.29-6.86-1.94-8.17-4.04-2.54,1.13-2.05-1.21.05-.8l1-1.76,27.88-6.24,1.19,1.27c-1.31-2.28,8.23-2.98,8.89-2.65,1.22.62,1.17,1.14-.02,1.98Z"/>
            <path class="cls-8" d="M259.39,305.91c.03,1.07,1.17,2.26,1.67,3.13.7,1.46,1.33,4.02-.22,5.02-1.48.42-3.24,1.31-4.4,2.46,2.63-1.62-9.73.86-8.87.67-2.08.55-3.3-8.5-3.1-9.48l1.31-1.28c.06-2.61,7.07-2.71,8.41-1.06.9-1.98,4.11-1.18,5.2.55Z"/>
            <path class="cls-77" d="M270.07,286.5c-.9,1.67-.67,3.53-.5,5.36,2.05,1.17,1.91,2.53-.21,3.48-.91-.32-2.14.26-3.08.02-2.78-1.13-4.73-6.52-3.82-9.55l-2.04-1.63c-1.81-5.35-3.56-10.66-5.23-15.93l1.43-1.12c8.29,5.53,8.74,12.85,13.47,19.36Z"/>
            <path class="cls-27" d="M266.28,295.36c-5.03,4.53-7.07,3.12-6.89,10.54-1.66.36-3.74-.17-5.2-.55l-1.13-1.45,7.57-17.84,1.82-.26c.96,3.22,3.18,6.17,3.82,9.55Z"/>
            <path class="cls-138" d="M253.5,322.5c-1.81-.38-3.48.64-5.35,1.41l-14.96,6.19c-2.37-.52-4.42-1.99-6.74-2.65l25.22-5.99c.73-.17,1.48-.85,1.8-.2.2.41-.08.92.04,1.23Z"/>
            <path class="cls-51" d="M256.6,267.14c.01,2.05.85,4.04,1.74,6.15,1.8,4.25,2.89,8.44,4.11,12.53-2.56,4.89-6.77,14.34-8.27,19.54-2.64,1.02-5.7.29-8.41,1.06-.14.64-.33,1.35-.86,1.74-.6.43-10.35,1.18-10.82-.7l-.71-1.47,8.58-10.13.08-1.95c-.76-2.1-.95-4.03-.56-5.8-.36-.92.06-2.35-.68-3.22l14.12-19.06c.5.5,1.09.92,1.68,1.32Z"/>
            <g>
              <path class="cls-10" d="M243.79,240.91l1.15,1.65c-1.22,2.11-.91,2.8.94,2.07,1.33-1.17,2.6-1.49,3.81-.98,1.49.51,2.67,1.1,3.71,2.36l.98,2.03c-3.49,4.2-7.13,8.28-10.92,12.24l-1.75.07c-2.89-.06-5.82-.43-8.53-1.46-1.79.16-2.46-2.55-2.77-4.2-.6-3.17.95-11.53,4.94-10.88,2.11-2.03,5.78-2.71,8.45-2.9Z"/>
              <path class="cls-46" d="M253.61,264.5l-11.92-4.16c.95-2.74,12.62-12.37,11.69-14.34,1.37,1.66,3.25,3.14,4.46,5.28,3.06,5.4-1.78,9.83-4.23,13.22Z"/>
              <path class="cls-166" d="M246.05,240.69c1.74.19,2.75,1.84,3.63,2.94-2,2-4.6,3.87-7.35,1.79.41-1.83,1.31-3.11,1.46-4.52.72-.05,1.55-.29,2.27-.21Z"/>
            </g>
            <path class="cls-48" d="M235.33,243.8c-1.86,1.79-3.24,5.54-3.62,8.08-.41,2.82,1.32,4.78,1.45,6.99-2,1.33-4.44.24-6.66.47,1.36-6.35,2.2-12.8,5.21-18.59,1.27.97,2.27,2.18,3.61,3.04Z"/>
            <path class="cls-72" d="M247.57,317.18l-30.06,6.73c.84,1.31.53-16.39-.8-13.38.53-1.85,2.16-2.8,4.89-2.84l10.73-1.42,1.77,1.18c3.7-.81,7.93.03,11.68-1.03l1.79,10.76Z"/>
            <path class="cls-4" d="M234.1,307.45c-5.75,1.26-11.94.99-17.39,3.08-2.96,1.14-6.18,2.72-8.9,4.34-3.27-1.63.99-6.72,3.25-8.04,7.3-4.25,15.79-7.72,23.79-10.57,1.55.57,8.11-6.56,4.41-6.08.92-.15,1.93-1.31,2.23-2.08,1.38,2.4,3.29,7.11,1.17,9.54l-8.56,9.81Z"/>
            <g>
              <path class="cls-139" d="M190.5,377.84c-.44,2.27-.91,4.58-1.97,6.65-5.12,10-10.42,20.04-15.76,29.93-1.1,2.05-2.69,3.78-4.29,5.45-.67-.24-1.32-.51-1.92-.87s-1.14-.71-1.5-1.2c-3.63-4.92-14.59-20.87-15.2-25.7-.09-.69-.07-1.4-.03-2.1,4.87-11.8,8.53-23.82,12.26-36l-1.18-1.27c2.5-8.14,4.99-16.29,7.49-24.43l1.75-.61c1.3,1.6,2.58,3.26,3.35,5.19,5.22,13.01,10.5,25.92,15.84,38.88.79,1.92.98,4.03,1.15,6.09Z"/>
              <path class="cls-80" d="M190.51,413.24l-2.11,2.4c-4.23,2.02-11.15,4.66-15.65,6.07-1.03.32-2.14.08-3.16-.16-.32.05-.71-.12-1.03-.04-2.02-.4-2.04-.99-.07-1.64,6.75-14.31,14.33-28.21,22.02-42.03-.47-1.94.21-2.04,1.3-.38.41.67.79,1.36,1.07,2.08s.52,1.4.54,2.1c.22,6.48.41,24.72-1.74,29.57-.31.71-.72,1.37-1.16,2.02Z"/>
              <path class="cls-13" d="M197.95,416.88c-.74.6-1.17,2-2.08,2.44.25.62.16,1.32-.24,1.86-.46.63-11.22,8.45-12.5,9.23l-2.29.83c-1.09-.16-1.99-.61-2.98-1.58l-8.27-8.1c6.72-3.34,13.92-5.62,20.92-8.31,2.09-4.85,13.03-1.79,6.71,3.04l.73.61Z"/>
              <path class="cls-142" d="M168.48,419.87c-.21.45.16,1.16.07,1.64-1.82.45-3.6,1.11-6.05,1.52-5.73-8.31-9.88-17.56-13.28-27.02-1.04-2.91-.25-3.92.61-6.01,5.7,10.22,11.51,20.65,18.65,29.87Z"/>
              <path class="cls-1" d="M221.88,357.83c-5.04,5.14-9.65,10.72-13.83,16.75-1.98,5.45-3.83,10.91-5.57,16.38-.48,1.92-.62,3.8-.73,5.79.33.07.6.15.62.26.21,1.43.67,11.38.18,12.15-.35.55-.95.82-1.56.98,2.21.55.22,6.25-2.02,5.93l-1.01.82c-.28.15-1.08.54-1.49-.14.36-1.45,1.96-1.83,2.09-3.29-2.78-1.64-5.65-1.14-8.05-.22.91-11.89,1.74-23.87,1.29-35.78l-.35-1.69c9.12-8.27,18.97-15.46,29.55-21.58l1.68.96c-.23.89-.7,1.76-.8,2.69Z"/>
              <path class="cls-76" d="M219.69,283.57c2.45.2,3.54,7.67,1.42,8.81l-.35,1.7-21.73,7.14c-1.26,2.47-2.8,4.8-4.62,6.98l-1.79.08c-7.11,9.64-14.94,3.71-8.91-6.46l.02-1.01.03-.82,6.63-8.27c.11-2.01,12.29-5.91,12.98-5.68.62.21,1.11.53,1.45,1.11.67-.95,1.28-1.73,2.29-2.3,2.49-1.4,10.39-3.38,12.59-1.3Z"/>
              <path class="cls-23" d="M239.25,290.18c3.2-1.28,2.68,1.14,1.35,3.49-.97,1.71-4.59,5.24-5.76,2.6-10.06,3.38-20.17,6.58-30.35,9.6-1.29,5.53-3.86,11.59-7.95,15.68-4.72,2.79-9.72,5.09-15.89,6.05,4.28-6.62,8.48-12.73,11.97-19.29,1.44-2.7,3.99-4.93,5.46-8.13l23.03-7.78c.59-1.83,2.25-2.7,4.98-2.62l11.48-.86,1.68,1.28Z"/>
              <path class="cls-117" d="M240.8,284.88c2.49-.46,2.74,2.22.68,3.22.66,2.64.26,3.42-2.23,2.08-5.99.96-12.39.26-18.14,2.2l-1.42-8.81c7-.63,14.11.79,21.11,1.31Z"/>
              <path class="cls-71" d="M217.5,323.91c-5.81-.9,11.18,4.18,8.94,3.55,3.79-.51,6.03.37,6.74,2.65.34.14.65.65.96.88,1.93,2.68,2.91,11.95-1.36,11.8-2.99-.11-10.99-3.29-12.4-6.08l-2.78-11.91-5.36,2.95c-.63.29-.86,0-.75-.75,1.94-.94,3.73-2.58,6-3.09Z"/>
              <path class="cls-70" d="M240.69,339.85c1.02-.49-7.57,6.17-11.31,5.16.74.2-10.22-2.28-8.93-.78-3.8.07-7.86.28-11.77,1.53-.73,1.46-2.34.61-.98-.4l12.7-8.66c4.45,1.76,8.89,3.66,13.71,4.92l.05-10.65c2.99,2.21,4.2,5.99,6.54,8.86Z"/>
              <path class="cls-156" d="M234.84,296.26c-6.63,4.22-13.96,7.32-21.33,10.89-3.28,1.58-5.59,4.26-5.71,7.72l-11.27,6.67c1.94-5.61,4.97-9.6,7.01-16.69,10.58-3.51,20.66-7.43,31.3-8.59Z"/>
              <g>
                <path class="cls-55" d="M192.62,308.29l-.24,3.53-8.36,13.54,4.96-1.66c2.69-1.81,5.21-2.53,7.56-2.16,2.46-3.19,5.66-5.66,9.61-7.43l1.66.76c1.39-3.03,5.89-6.03,8.9-4.34.43-.51,1.54-.24,2.16.16.51.33.86,11.66.5,12.18l-1.86,1.04c-1.9,1.68-3.9,2.71-6,3.09-2.02,1.49-1.72,1.71.75.75,1.16-1.76,5.42-4.51,7.11-1.8.82,1.32,3.02,9.88,1.04,10.76l.14,1.72-6.66,4.54c2.99-.63,5.18-.21,6.58,1.26,5.98.42,5.14,6.65,2.93,10.68l-.7.23c-6.7,2.2-24.9,17-30.88,22.31l-1.3.38c-7.6-16.36-14.68-33.05-20.34-50.15l7.33-14.95c1.94-3.95,4.49-7.85,6.23-11.9,2.14-.04-4.37,9.02,1.36,10.78,3.79,1.16,3.79-3.08,7.53-3.32Z"/>
                <path class="cls-121" d="M229.38,345.01l1.75,1.35c-2.02.03-2.25,1.94-3.1,2.41-4.23,2.28-3.16,8.29-4.65,6.15-.06-1.53.19-3.09.59-4.85-.43-2.43-1.66-4.56-3.52-5.83-1.82-3.32,8.84-1.99,8.93.78Z"/>
                <path class="cls-42" d="M212.25,327.75c-6.17,3.39-12.36,6.8-18.69,10.54-1.05.62-2.32,1.16-3.04.35,7.23-4.25,13.93-8.22,20.99-11.64.28.22.53.47.75.75Z"/>
                <path class="cls-6" d="M204.63,348.16c-2.92,2.76-6.52,4.65-10.46,6.69,2.67-3.26,6.12-5.11,10.46-6.69Z"/>
              </g>
            </g>
          </g>
          <g>
            <path class="cls-120" d="M264.74,348.07c.83-2.18,2.59-1.68,3.01.63,2.63,1.07,4.57,2.95,6.74,4.61s3.03,4.08,4.61,6.43c.47,3.82.82,7.59-1.1,10.96-7.26,7.77-19.74,5.53-27.23-.73-1.63.33-2.71-.83-3.22-3.47-1.83-4.53-1.34-7.68,1.48-9.47-1.89-2.84,3.11-6.52,5.58-7.97,3.16-1.85,6.9-3.28,10.13-1Z"/>
            <path class="cls-7" d="M278,370.7c-1.13,1.98-1.88,4.22-4.3,5.62-.33.25-.61.73-.07.78-.9,1.14-2.84.77-3.85,1.56-3.82-.35-8.25-2.8-11.98-1.09-3.51.47-8.38-4.33-7.03-7.6,13.7,4.11,12.48,6.85,27.23.73Z"/>
            <g>
              <path class="cls-37" d="M264.56,372.51c-1.71-.46-2.2-2.22-2.24-3.14-.05-1.31,1.26-1.96,1.83-3.38.78-1.96-1.59-6.41-3.67-6.01l-3.36.65c-.81.16-2.65-1.9-2-2.46,3.55-2.77,15.79-5.6,18.22-1.91.59.89,1.47,2.44.49,3.9-2.82,4.19-6.24,8.32-9.28,12.35Z"/>
              <path class="cls-95" d="M267.67,361.96c-1.51-.42-2.07-1.55-2.72-3.16,2.35-.72,4.7-1.73,7.52-1.29-1.29,2.15-3.01,2.77-4.8,4.45Z"/>
            </g>
          </g>
        </g>
        <g>
          <path class="cls-125" d="M360,177.67v171.08l-1.61-.25-2.88-11.03-1.39-.83-1.46-2.21.38-29.04c1.78-10.37,3.23-20.74,4.37-31.13l1.16-1.14-1.22-.09c-4.46-7.71-9.09-16-13.9-24.86-3.62,1.5-4.99,5.35-5.22,9.02l-1.54.81-.5,4.12c-2.26-.48-4.51-1.63-6.76-3.45l-9.53,5.13-1.96-.56c.72,2.12-1.91,3.03-3.67,2.14-.23,1.72-.75,2.45-1.56,2.21-1.27,2.16-3.9.01-2.9-2.08l-1.48-1.64c4.19-10.97,8.58-21.88,13.18-32.71l1.73-.26-.85-.57c1.39-5.33,3.08-9.9,5.09-13.71l-1.23.09c-1.68,1.91-3.37.56-1.65-1.36l-.76-1.56,10.35-15.35c.67-2.54,1.02-5.14,1.04-7.81l1.56-.8,1.22-1.68c7.15-2.34,13.86-6.09,20.11-11.23l1.88.71Z"/>
          <path class="cls-30" d="M360,155.54v22.13c-8.3,4.08-12.66,11.09-23.21,12.19-2.53-3.31-1.24-10.16.31-14.04l.29-1.67c-.6-.26-1.08-.78-.81-1.17,1.98-2.86,3.59-5.33,5.46-8.23,1.44-2.23,10.21-15.62,11.76-15.79,1.96-.21,5.83,4.65,6.2,6.59Z"/>
          <path class="cls-28" d="M360,148.02v7.52c-2.3-.97-3.51-3.22-6.07-5.44l-16.54,24.04c.01,2.26-1.14,5.64-3.71,4.29-2.65-.04-2.69-2.69.12-2.91-1.41-1.32-.55-3.38,1.47-3.12.71-2.55,2.72-6.92,5.27-7.32.02-2.93-.49-5.52-1.53-7.78-.21-1.9-.21-15.42.16-16.18.25-.5,1.2-.39,1.9-.16,6.67,1.14,12.52,4.89,18.92,7.07Z"/>
          <path class="cls-174" d="M218.16,131.34c.96,1.54.36,3.14-1.81,4.79l-8.43,7.66-1.71-.46-1.59,3.48-10.37,9.27c5.13,37.05,10.63,72.58,16.51,106.6l-.21,1.18-.55,2.39c-7.73,6.43-14.72,14.24-17.68,24.03l-1.92,1.48c2,1.02-4.28,8.15-4.82,8.41s-1.22.05-1.81-.15c-2.24.49-2.47-1.04-2.34-3.01,1.17-4.21-.07-8.11-3.7-11.7l.84-1.97-.22-1.69,13.56-10.87-5.99-38.82.2-8.45-1.75-1.69c-1.02-4.64-1.2-9.1-.52-13.37-.12-.46-.3-1.05-.28-1.52l-1.51-1.09c-3.88-12.52-.34-30.17,2.8-42.86l2.01-3.09-1.15-2.23,2.98-15.59,1.64-1.84c-2.36-1.86-1.08-7.95,1.76-8.81,6.79-2.17,14.09-3.83,21.92-4.97,2.86.33,6.28,1.95,4.17,4.89Z"/>
          <path class="cls-25" d="M323.23,230.91l-12.44,30.26c-.64,1.56-1.36,2.87-.99,4.34-2.58-1.56-13.04-8.72-15.06-7.46-.05-.85-1.18-1.63-3.41-2.33-3.25-1.47-4.12-2.95-2.61-4.44l-.23-1.81c10.1-6.13,20.07-12.47,29.9-19.03.82-1.33,1.61-1.88,2.39-1.64,1.6-.46,2.43.55,2.45,2.11Z"/>
          <path class="cls-150" d="M336.79,189.85c-.22,2.72-.24,6.63-1.27,9.27l-10.93,16.24c-4.05.68-2.7-15.77-1.94-18.1-.49-1.74,1.98-4.94,3.45-3.88,4.73-3.63,7.27-8.97,7.58-14.95,1.47-1.21,2.64-2.73,3.71-4.29.35.32.75,1,.58,1.75-1.1,4.81-.82,9.44-1.19,13.97Z"/>
          <path class="cls-21" d="M336.67,258c-.04,1.36.01,3.19.78,4.62l2.43,4.53.44,1.67c-5.14,3.12-10.35,6.12-15.64,8.98l-1.53-.64c-1.59.7-3.16-.09-4.72-2.38l-1.73-2.44c-1.44-1.38-2.63-3.28-3.99-4.74,0-1.09.99-1.51,1.56-2.21,3.24,3.74,6.04,2.59,3.67-2.14,3.49-2.08,7.16-4.75,11.34-6.03,2.55-.03,4.25,3.17,6.49,3.85.51-1.19.02-2.5.92-3.06Z"/>
          <path class="cls-98" d="M323.23,230.91c-1.22-.09-2.25-.87-2.45-2.11-.7-.17-.65-.4.06-.69,1.69-3.87,3.17-7.8,5.4-11.4,1.86-3.02,3.4-6.17,6-8.94l-9.01,23.13Z"/>
          <path class="cls-57" d="M317.92,263.25c1.95-.03,2.64,1.56,2.39,3.37-.24,1.69-1.54,2.76-3.27,2.49-1.92-.3-3.36-1.74-2.79-3.72.98-1.21,2.47-1.43,3.67-2.14Z"/>
          <path class="cls-112" d="M335.53,156.16l1.4,2.11c.32,4.04-.18,10.46-1.66,14.13-.44.94-.59,2.42-1.47,3.12-1.11-.05-22.25.17-20.5-2.14l.45-19.76,1.58-1.46-.95-13.41c.12-2.84-.72-5.56.06-9.05l21.1,26.46Z"/>
          <path class="cls-111" d="M340.54,165.07c-.74,2.77-3.07,5.51-5.27,7.32-.56-5.39.04-10.83.26-16.24.88,1.11,3.52,1.29,3.98,2.99.53,1.98-.09,4.49,1.04,5.92Z"/>
          <path class="cls-172" d="M204,174c.25,1.28.76,2.05,1.52,2.31l4.92,25.05c-1.83,4.73-2.72,9.4-2.69,14.01,1.47.09,2.28.53,2.42,1.31,1.05.67,1.49,1.86,1.33,3.58,2.78,5.08,5.75,10.13,8.9,15.14l-.4,1.84c2.27-.2,2.94.42,1.93,2.53.12,1.17-.56,2.35-2.03,3.52-2.33,4.65-3.07,9.31-2.2,13.98l-.99,1.47c1.62,1.93,1.38,2.69-.72,2.28-.19,2.1-3.73,4.52-5.45,2.81-.09.15-.73.05-.8-.33l-9.06-51.73c-3.31-18.88-5.56-37.26-7.78-56.07,4.55-4.73,9.03-8.42,13.31-12.4,1.49.15,1.89,1.54,1.2,4.16-.81.78-.87,1.69-.2,2.72-.02,8.27-1.09,16.2-3.22,23.79Z"/>
          <path class="cls-135" d="M222.93,113.29c1.64,1.19,3.28,3.71,5.75,3.88.61.27,1.37.76,1.25,1.23-.53,2.05-3.45,7.42-5.67,6.96,1.4,2.07-4.13,8.36-6.1,5.98-.77-2.32-2.32-3.86-5.22-3.27l-20.23,4.12c-.59.12-.96-.44-.63-.77l6.75-21.9c3.3-.5,6.34-2.29,9.6-2.97-.42-2.23,4.92-3.81,6.53-3.15.73.3,6.8,6.62,7.77,7.82l.21,2.07Z"/>
          <path class="cls-85" d="M230.75,139.27c.1,2.08-2.25,3.15-4.12,2.52l-1.57,1c-2.68-.78-6.18-1.32-8.86-.39-.43.15-6.02,6.15-5.98,6.6,4.45-4.59,6.61-5.91,8.48,1.3,1.42,1.37,2.02,2.72,1.81,4.04-.99,1.75-2.81,2.13-5.47,1.15l-8.64,17.52-1.58.98c-.23.66-.5.65-.8,0l2.21-30.67,3.56-3.31c3.06-2.85,6.52-5.21,8.39-8.68,2.67-1.18,4.09-3.97,6.1-5.98.45-.51.98-1.02,1.7-1.09s5.47,12.31,5.84,13.63l-1.05,1.38Z"/>
          <path class="cls-123" d="M343.58,273.14c-1.44,3.26-3.5,6.17-4.68,9.54-.12,2.41-.61,4.71-1.47,6.88l-1.63.51c-1.25-1.85-3.6-3.25-5.14-4.9l-7.53-8.02c3.31-3.3,13.53-6.5,16.74-10.01l3.7,5.99Z"/>
          <path class="cls-5" d="M320.84,228.12c-.07.17-.09.5-.06.69-2.53,4.74-20.62,15.42-26.18,18.44-2.19,1.19-4.38,2.59-5.88,4.03l-1.79,2.34-23.31,10.5c.99,3.48,2.35,6.75,4.08,9.81l9.6-5.47,1.65.79c1.95,1.64,1.93,2.69-.03,3.15,1.83,1.32,1.58,6.6-.72,7.31-3.27,1.46-6.42,3.61-8.13,6.79l-1.91-.13c-3.42-6.74-7.04-13.17-11.56-19.23-1.44.79-2.12.27-1.68-1.32-1.69,1.28-2.34.45-1.31-1.32-.48-.48-.91-1.18-.6-1.7,3.98-3.77,5.08-7.49,3.29-11.17-2.05-1.81-3.02-3.69-2.92-5.63-1.72,1.06-3.55-.39-3.71-2.36-1.69,1.19-3.51-1.28-3.63-2.94-2.5-1.4-.78-2.41,1.53-2.97,1.98-2.31,5.96-5.03,7.48-1.6l3.44,11.49c1.28,4.29,2.79,8.32,5.16,12,1.62-3.53-1.97-10.01.29-12.92,1.27-1.68,4.26-4.13,6.22-3.91l32.11-8.81c.02-.71.33-.74.88-.2l1.6-1.87c2.87-1.16,8.75-2.59,11.55-1.87-.17-1.33.66-1.97,2.5-1.93.67.07,1.35.07,2.03,0Z"/>
          <path class="cls-107" d="M268.47,148.5l-.52,2c-.26,1.02.74.77,1.39,1.01,2.02-1.81,5.75-1.02,7.95.35,1.85-.18,4.04.86,5.47-.92,1.19-1.45,2.33-1.31,2.98.55,3.97.14,7.96-.71,11.96-2.58.89-.02,1.7.29,2.2,1.07l9.78,24.05-13.44-.75c-1.94,2.15-6.03,1.92-7.6-.49l-23.95-2.57c-.58-.16-1.46-.43-1.49-.88-.32-4.91-.2-13.16.25-18.07l1.51-1.05c-2.48-2.15,2.23-4.33,3.49-1.73Z"/>
          <path class="cls-17" d="M249,139.43l4.6.24c2.22,2.89,4.8,5.35,7.75,7.39,1.86.65,3.07,1.71,3.62,3.17l-.28,20-15.63-.83c-1.29.37-2.27.18-2.93-.58l-1.38-1.06,2.58-20.44-3.58,4.56-1.87.37c-.42.43-.93.86-1.51.82-1.63-.13-4.58-3.83-5.55-5.32-1.26,1.49-1.62,1.08-1.41-.79-2.19-1.49-4.45-2.85-6.79-4.08v-1.1c1.19-1.11,2.46-2.27,4.12-2.52,1.81.04,3.57-.08,5.29-.37l.99-15.26c1.21-1.55,1.73-2.14,3.36-.86.87.69,8.71,12.92,8.89,13.93.17.94.12,1.84-.28,2.72Z"/>
          <path class="cls-122" d="M234.92,213.56c.33-2.09,6.7-1.55,8.6-1.18l1.15,1.34c-.3,1.39-1.15,4.16-.4,5.73.99,2.08,2.67,2.97,4.91,3.25,2.35-.2,4.85.77,3.11,3.26,1.19,2.49,1.92,7.31,2.78,10.16-2.99-.77-5.39,1.1-6.96,3.4-.24.36-1.56-.2-1.8,0-.28.22-.35.76-.25,1.18-.23,2.07-1.32,2.03-2.27.21-.33.64-.76,1.31-1.41,1.65-.97.51-6.21,1.98-7.04,1.24-1.85,1.5-4.51-.97-3.61-3.04-1.28.59-2.88.49-4.8-.3-2.22.52-3.89.29-4.99-.68-.83-.68-1.21-1.77-1.93-2.53.27-1.78.71-3.36,1.32-4.75-1.46-1.27-2.53-3.95-.72-5.26-1.09-2.77,2.52-3.61,4.77-3.17,1.11-1.27,2.23-1.73,3.35-1.38.03-1.69,1.16-3.38,3.4-5.09.12-1.28.31-2.48.56-3.62.12-2.04,1.01-2.04,2.23-.42Z"/>
          <path class="cls-180" d="M244.31,191.23l.81,20.96c1.15.57.49.97-.45,1.52-3.09.64-6.63-.38-9.75-.16-1.05-.61-1.61-1.83-1.69-3.64l-1.56,3.74c-.66,2-1.22,2.05-2.17.18-2.85.28-5.24-2.59-3.76-5.17-1.27-1.74.13-6.56,2.26-6.93v-1.78c1.91-1.78,3.01-4.19,3.3-7.22,2.44-.62,4.76-.8,6.95-.54.97-.08,1.77-.56,2.39-1.45,2.16-1.1,3.38-.94,3.67.48Z"/>
          <path class="cls-137" d="M246.14,168.83c1.11-.21,1.93.52,2.93.58-.55.31-1.58-.18-1.72.95,2.58.54,4.15.62,6.33.25,1.87-.31,1.53,1.81,1.29,2.89-.18.8-.39,1.94-1.8,2.09-3.38.36-4.04-5.06-7.29-6.06-1.22-.38-1.56,2.56-.53,2.81,2.4.59,3.85,2.18,5.16,3.64,2.81,3.12,1.49,5.34.1,7.78-3.48,4.34-11.2,12.53-12.88,2.8-.66-3.82.19-9.14,3.9-10.95l-.7-.86-1.31-1.07c.39-1.45.5-2.87.33-4.27.75-2.32,4.92-2.53,6.2-.57Z"/>
          <path class="cls-15" d="M250.6,183.76c-1.61,2.83-3.7,5.23-6.29,7.48-4.53-.57-3.04,4.79-6.06.97-3.13-.71-2.84-7.51-2.37-10.35.45-2.66,1.84-8.07,5.03-7.11l5.93-1.44c-.56.86-2.11.77-2.49,2.05-.15.48.67,1,.61,1.39-.06.44-.63.9-.83,1.33-.47,1.02-1.46,1.15-2.03.57-.27-.27.04-.95-.8-1.91-4.48.76-4.88,14.53,1.05,13.09-1.72-2.3-3.17-4.41-1.89-7.37.58.51,1.27.97,2.07.95.61-.01,1.17-1.83,1.85-1.68,1.41.32.53,2.38,0,3.01s-2.15.7-2.64,1.5c-.8,1.31,1.34,2.47,2.46,2.65,2.6.41,4.81-6.01,6.38-5.12Z"/>
          <path class="cls-177" d="M288.72,251.28c.78,3.62,10.63,4.74,6.02,6.77-3.42,2.13-13.85,7.81-15.04,10.98.25,1.18-.23,1.28-.75.21l-11.41,6.5c-2.88-1.73-3.93-8.42-6.04-12.73,9.68-3.05,18.08-8.22,27.22-11.74Z"/>
          <path class="cls-93" d="M277.37,114.03l3.83,1.37c-.55.05-2.13-.11-2.29.65l3.08,6.9.17,1.77c-4.45,1.3-8.94,2.45-13.47,3.44l14.14-2.08,1.3,1.32,7.48,11.95c-3.68-.02-6.91-1.06-9.54-3.53-3.69,1.52-7.2,3.29-10.41,5.35l.94,1.06c.13.15-2.92,5.71-4.13,6.26-.96.44-3.47.05-3.49,1.73-3.6-.52-9.58-5.31-11.71-8.99-1-1.08-3.51-.25-4.27-1.81.48-.87,1.21-1.51,2.22-1.94l-.62-17.66,1.46-1.13c-.97-1.85,1.14-3.83,2.92-2.49l10.7-5.16c3.43-1.73,9.06.15,11.7,2.99Z"/>
          <path class="cls-41" d="M249.72,119.73c-.51-2.12.97-2.69,2.34-1.04l.73,20.58c-1.67.44-2.69.17-3.78.15-2.8-5.76-6.82-10.9-10.4-16.75l-1.13,17.37c-1.61,1.3-5.62,1.11-6.71-.78-.53-1.22-5.72-14.08-5.55-13.92-.19-.17-.63-.08-.94,0,0,0,5.03-8.1,4.42-8.19,7.07.48,13.98,2.79,21.03,2.57Z"/>
          <path class="cls-56" d="M277.37,114.03c-3.71-1.33-7.87-1.79-11.7-2.99l4.86-5.97c2.63,3.06,5.24,5.73,6.84,8.96Z"/>
          <path class="cls-152" d="M284.13,127.41l-20.74,3.06c1.06-5.43,16.64-4.95,18.6-7.51l2.15,4.45Z"/>
          <path class="cls-92" d="M299.91,149.99c-1.92.26-13.65,3.64-14.16,1.51,3.93-.17,8.5-1.21,9.83-5.15,2.15,1.5,3.25.98,4.33,3.64Z"/>
          <g>
            <path class="cls-5" d="M321.07,123.09c4.23,1.59,7.57,5.46,11.95,7.37,6.33,2.77,3.56,7.39,8.06,10.49-.75.35-.61,1.26-.61,2.27l.07,21.85c-1.89.28-2.71-1.56-2.46-5.52-1.6-.78-2.45-1.91-2.55-3.4l-1.49.54-18.23-22.87c.45,2.68-.02,4.32-1.43,4.92.65,4.92.78,9.73.39,14.42l-1.02.45c.58.08,1.46.29,1.48.71.28,4.91.09,13.09-.41,17.99l-1.52,1.06c-1.17,1-2.38.73-3.61.66l-1.99-.91c-5.85-14.38-8.77-21.57-8.77-21.57l.98-1.57c-1.81-.22-4.85-1.45-4.33-3.64-1.63.64-3.52-.04-5.68-2.04-2.87-2.29-4.23-1.4-4.08,2.66-.22,2.56-1.24,3.89-3.04,3.99,1.7,2.95-4.84,3.71-5.47.92-2.17-.25-3.38-.82-4.15-2.96-1.01,1.84-2.28,2.71-3.81,2.62-2.32,3.05-4.5-2.04-.87-3.02-.3-1.75.49-3.74,2.37-5.96-.36-1.49-.28-2,.89-3.13,1.46-1.41,8.53-4.83,10.45-4.91,1.96,1.51,4.1,2.46,6.41,2.86l-5.17-8.26.72-1.68c-2.22.3-3.91-2.9-2.15-4.45l-1.71-.14c-1.97-2.77-4.69-9.67.92-7.41l15.21.08c14.53,7.72,5.25,7.26,24.67,7.61Z"/>
            <path class="cls-114" d="M295.58,146.35c3.16,4.02-6.79,5.98-9.83,5.15-1-.14-2.18.28-2.98-.55,1.51-2.9,2.18-6.16,2.14-10.05,4.7.82,7.61,3.31,10.67,5.45Z"/>
            <path class="cls-118" d="M313.75,153.62l.63-14.87,2.75,14.89c-1.42.23-2.36-.05-3.38-.02Z"/>
            <path class="cls-94" d="M277.3,151.87c-2.66.25-5.36.6-7.95-.35l4.15-6.06c.83,3,1.97,4.9,3.81,6.4Z"/>
            <path class="cls-109" d="M283.64,144.5c.77,1.23-.89,1.72-1.42,1.76-.64.05-2.09-.1-1.79-1.62.19-.97,2.49-1.29,3.22-.14Z"/>
          </g>
          <path class="cls-73" d="M228.74,222.69c-1.17,1.14-1.77,3.42-4.56,2.79-1.78-.4-2.57,1.35-3.56,1.76-1.52,1.81-.93,3.49.72,5.26.42,1.01.74,2.04.63,3.35-.08.92-.8,1.57-1.95,1.39-2.89-3.09-4.08-7.52-6.85-11.02-2.38-3-4.02-5.73-2.99-9.55.48-.3.95-.54,1.43-.54,5.09-.07,9.89,1.51,14.64,3.15,1.3.45,3.32,1.89,2.49,3.4Z"/>
          <path class="cls-171" d="M231.67,213.66c.49-1.46,1.09-1.24,1.03.32.73.83,1.59,2,1.18,3.32-.88,2.83-3.46,3.75-5.14,5.39l-3.11-2.04c-5.11-1.81-10.26-3.19-15.46-3.97-.85-.13-1.59-1.09-2.42-1.31,7.25.15,14.62-.23,21.75-1.52.7-.13,1.46,0,2.17-.18Z"/>
          <path class="cls-67" d="M241.89,152.26c.55,4.23-2.15,9.79-4.14,13.79-.65,1.93-1.54,3.45-3.6,4.07-1.9.24-3.61,1.55-5.98,1.95l-22.91,3.85c-.52-.17-.45-1.51-.45-1.93-.08-1.56.71-2.94,1.5-4.52l7.91-15.88c2.43,1.09,4.35.85,6.29.75.41-2.18,2.14-2.63,3.19-.57l1.45-1.47c3.32.2,6.46-.24,9.42-1.31-1.15-1.52-1.06-2.6.27-3.24l7.06,4.5Z"/>
          <path class="cls-163" d="M226.63,141.79c2.59,1.14,5.34,2.84,6.79,5.18-1.4,1.38-3.38,1.12-5.92-.79.05,4.1-1.22,6.63-3.81,7.6-.95-.03-2.17.52-3.19.57-2.76-1.76-4.06-4.39-4.53-8.21-2.01,1.33-3.95,2.66-4.41,5-1.47-.39-3.02-1.25-4.33-2.32,7.42-4.31,5.29-7.51,9.91-8.19,3.01-.44,6.71-.05,9.49,1.17Z"/>
          <path class="cls-124" d="M316.32,230.04c-4.18,1.85-8.68,2.81-13.15,3.73.84-1.74.72-4.52,2.81-5.76,3.28-1.95,8.52-1.14,10.34,2.02Z"/>
          <path class="cls-169" d="M246.14,168.83c-2.05.4-4.14.31-6.2.57l-5.79.72c3-5.74,5.04-11.96,7.74-17.86,1.64-3.58,4.86-6.38,7.54-9.55l-3.29,26.12Z"/>
          <path class="cls-89" d="M233.42,146.97c.54.04.99.52,1.41.79.12,1.48,1.61,2.42,1.35,4.52-4.17,1.46-8.44,1.63-12.49,1.5,1.83-2.89,2.24-6.2,2.43-9.73,3.1.92,4.84,2.73,7.3,2.93Z"/>
          <path class="cls-78" d="M234.92,213.56c-.73.05-1.45.6-2.23.42-.3-.07-.73-.39-1.03-.32-.87-1.63-1.26-5.52,1.59-5.24,2.18.21,1.93,3.76,1.66,5.14Z"/>
          <path class="cls-96" d="M220.61,227.24c-.32,1.78.03,3.6.72,5.26-1.34-.42-2.14-1.56-2.37-2.63-.46-2.18.27-2.07,1.65-2.63Z"/>
          <path class="cls-148" d="M287.4,218.26c-.56.84-1.22,1.9-1.64,2.96-1.61,4.07-5.31,4.62-9.06,3.98-3.08-.53-5.13-1.68-5.96-4.73.39-1.2,1.48-1.58,2.84-1.64.77-.03,1.62.65,2.54,1.52,3.39-3.11,7.42-2.17,11.27-2.09Z"/>
          <g>
            <path class="cls-158" d="M249.06,169.41c.1-.58.32-1.43.75-1.46,2.31-.19,7.95.21,10.4.55,2.42-.35,3.91.23,4.48,1.74.13-.57.39-1.4.83-1.42,4.32-.18,17.76,1.42,22.19,2.38l.93,1.61c1.27,1,2.57,2,3.9,3.01l1.17-.49c.52-1.36,1.36-2.04,2.53-2.03.11-.57.31-1.41.75-1.46,1.58-.2,5.77.17,7.6.42,2.37-.34,4.07.26,5.1,1.79.63-1.89,2.25-1.82,3.61-.66l1.24-.45c6.06.89,12.18,1.25,18.33,1.08l.92,1.51c-1.27,1.01-.07,1.94-.12,2.91,2.52,1.84.47,6.51-.79,9.02s-3.78,6.96-6.79,5.93c-1.02-.2-2.17.56-3.47,2.29-4.31-1.94-5.12-2.01-2.42-.2,1.22.2,2.03.8,2.43,1.8l1.27,1.14c-.86,5.68-1,11.44.67,16.96.21.77.86,1.28,1.65,1.36.23,3.58-2.09,9.72-5.4,11.4-.79,1.3-1.79,1.71-2.03,0l-1.53-.13c-5.65-8.46-13.42-1.08-15,5.99l-.09,1.58c-10.25,2.81-20.51,5.62-30.76,8.44l-1.25-1.21c-1.21-1.81-2.55-2.8-4.01-2.95,1.5,2.8.43,5.35-2.21,6.86.56.28.82.73.95,1.31.38,1.67.79,10.81-.19,11.72s-1.38.95-2.55.07c-.94-.71-4.39-9.92-5.2-12.09-1.01-2.73-2.59-7.4-3.04-10.14l1.13-1.45-1.68-.44-2.18-8.45,1.08-1.28c.11-2.21-.66-3.18-3.11-3.26-4.72,3.82-9.85-6.78-4.5-8.98,2.35-2.63,6.49-4.2,9.39-1.38,1.23-.86,2.18-.54,3.06.73,2.08.68,2.42,2.8,1.02,6.38l11.48-.44,1.13,1.46c.08,2.97,1.65,3.86,3.99,5.09,1.46.77,4.89,2.48,5.55.88,3.9-1.2,6.59-4.12,7.11-8.17l4.18-1.45c-11.17-1.05-22.31-1.82-33.4-2.32l-1.05-1.43-1.8-.24c-1.87-3.35-4.29-5.23-6.94-1.51-1.2,1.01-2.29,1.31-3.26.88-.59-.05-1.46-.19-1.52-.62-.49-3.16-1.17-16.34-.74-19.19l1.46-1.15-.04-1.3c2.39-1.71,4.5-3.77,6.33-6.18-.78-1.02-.76-2.35.06-3.97-.2-1.56-1-2.9-2.41-4.02-1.45-.78-1.94-1.66-1.46-2.64-6.67-.22-3.28-5.22,2.28-3.72Z"/>
            <g>
              <path class="cls-65" d="M287.4,218.26c-1.69,1.28-3.99,1.78-6.89,1.5l-4.44,1.85c-1.57-1.07-3.34-1.45-5.32-1.14l-14.97.57c.75-2.63,2.45-5.51,1.34-7.97,5.25-.71,42.42,3.57,51.79,3.02l9.89,1.15c-10.47.67-20.92,1.24-31.4,1.03Z"/>
              <path class="cls-3" d="M326.1,193.38c-1.4,1.07-1.64,3.29-3.45,3.88-2.7.89-7.3-2.77-7.48-6.36-.13-2.64,1.73-3.9,3.38-5.95,2.68-3.32,5.89-7.04,10.71-5.6.43,1.41-1.42,2.11-2.35,3.06-.82.83-1.7-.43-2.75-.29-3.74.5-4.38,4.5-4.79,7.58-.95-.38-.76-.99-.85-1.59-.04-.28-.13-.72-.68-.3s-1.85,2.59-.59,4.45c.48.71,1.62.11,2.56.43,1.31.44,2.18,2.54,3.84.95-1.45-1.33-2.08-4.63-.08-5.52.87-.27,2.18.87,2.93-.09s1.26-1.68,2.82-2.78c-.27,2.9-5.96,6-3.2,8.12Z"/>
              <path class="cls-90" d="M298.58,206.54c1.43,1.76.64,3.74-.7,4.68-1.86,1.3-3-.7-4.74-1.54-.73-.36-2.42,1.35-3.26,1.06-1.22-.43-2.31-1.21-2.49-2.62-.12-.97,5.15-6.41,3.73-5.25,2.12-1.72,5.89,1.75,7.46,3.68Z"/>
              <path class="cls-45" d="M318.81,228.11c-.01.52-.21,1.04-.43,1.36-.54.77-1.49.31-2.07.57l-1.93-.07c-3.25-2.53-8.8-2.18-9.34,2.73l-1.88,1.08c-.29.06-.59.12-.88.2-2.8-.72,4.59-11.26,8.87-11.69,1.78-.18,7.92,4.12,7.66,5.82Z"/>
              <path class="cls-130" d="M261.22,200.14c1.68.35,1.68,3.37,1.48,4.84-.16,1.2-1.42,2.95-3.18,3.01-2.62.1-4.97-.69-5.29-2.88s.27-4.82,3.07-5.02c1.01-.07,2.55-.23,3.92.05Z"/>
              <path class="cls-133" d="M257.12,213.06c-.91.12-2.2.44-3.37.65-3.06-2.73-6-.65-9.08,0,.09-.39.04-1.33.45-1.52,1.93-.93,3.08-3.89,5.55-4.41,2.91-.61,5.42,3,6.45,5.29Z"/>
              <path class="cls-84" d="M270.75,220.47l1.65.23c3.02,4.88,11.4,4.42,12.83-1.78l2.18-.66c1.43,3.49-2.82,6.51-5.64,8.66-.97,1.2-1.82,2.01-3.14,2.13-1.21.11-1.65-2.01-2.78-2.3-3.33-.83-5.8-3.05-5.09-6.29Z"/>
              <path class="cls-81" d="M270.17,242.78c-1.14,2.4-3.65,3.6-6.22,3.91-.47-2.31,3.21-3.09.26-7.09.02-1.33,2.91-1.69,4.23-.81,1.24.82,2.36,2.35,1.73,4Z"/>
              <path class="cls-110" d="M296.25,173.29c-.4,1.74-1.39,4.12-3.77,4s-3.73-2.58-3.83-4.49c2.45.26,5.12.35,7.6.49Z"/>
              <path class="cls-170" d="M252.28,225.96c-.5-1.03-1.84-3.1-3.11-3.26,1.89-1.37,2.85,1.07,5.38-1.74-.57,2.19-.51,4.43-2.27,5Z"/>
              <g>
                <path class="cls-53" d="M287.51,191.34c-1.69,7.32-12.91,11.93-14.28,9.4-2.93-5.42-5.56-3.4-5.12-8.54.13-1.48,10.56-12.12,14.22-11.45,1.95.36,6.13,6.47,6.2,6.71.38,1.36-.7,2.51-1.01,3.88Z"/>
                <path class="cls-115" d="M277,193.4c.63-1.64,8.31.13,7.04-3.25-1-2.64-2.76.41-7.19,1.2-1.3.23-1.08,2.93-.62,4.3.32.95,2.01,1.07,2.72,2.8-2.99.17-5.08-2.37-5.67-4.19-1-3.05-.54-6.47,1.97-8.23,3.43-2.42,7.92-.41,9.65,3.36,1.39,3.02-.39,7.81-4.54,8.91-1.23-1.55-2.25-3-3.36-4.91Z"/>
              </g>
            </g>
          </g>
          <g>
            <path class="cls-144" d="M239.94,169.4c.42,0,.93-.04,1.54.34.15,1.93-.25,3.46-.56,5-4.49,4.5-4.38,11.45-2.67,17.46-1.74,1.38-3.42,2.3-6.22,1.31.6,4.27-1.38,6.69-4.02,8.24-.76-1.97-3.89,5.15-2.26,6.93,1.15,1.61,1.93,4.18,3.76,5.17-5.87,4.22-14.8,2.89-21.75,1.52-.4-.11-1.33.06-1.88-.39.35-4.66,1.6-9.2,3.11-13.75l-4.71-23.04c-.29-1.44-.36-3.01-.27-4.19h.8c1.32.18,1.96,1.5.86.34l22.62-3.81c2.42-1.31,4.37-1.45,5.87-.4,1.37-1.83,4.56-3.21,5.79-.72Z"/>
            <path class="cls-162" d="M228,201.75c-1.93,1.37-2.15,4.88-2.26,6.93-3.33.98.89-8.16,1.92-8.47.62.67.3,1.18.34,1.54Z"/>
            <path class="cls-22" d="M212.66,211.93c-1.02-2.73,2.13-3.88.71-5.97-.65-.23-1.59.06-1.75-.33-.2-.5.08-1.6,1.08-2.35,1.49,2.41,3.04,6.04-.05,8.66Z"/>
            <g>
              <path class="cls-91" d="M222.69,196.56q-1.22-.77,0,0l-3.63,5.98-2.83-3.14c-2.52-2.8-3.45-4.91-2.83-8.37s1.26-7.36,4.85-9.49c10.17,7.79,3.3,7.75,5.73,12.17.61,1.12-.6,2.39-1.29,2.86Z"/>
              <path class="cls-153" d="M222.69,196.56c-2.23,1.17-3.1,2.09-4.19,3.92-.12-2.53-2.44-2.85-3.19-4.11-1.87-3.15-.9-8.19,1.34-10.76,5.19,1.28,6.5,6.55,6.03,10.95Z"/>
              <path class="cls-91" d="M219,197.21c-1.23-.43-2.65-2.87-2.11-4.32.5-1.36,2.38-2,3.58-2.86,2.06,1.97.8,6.11-1.47,7.18Z"/>
            </g>
          </g>
        </g>
      </g>
    </g>
  </g>
</svg>