<?xml version="1.0" encoding="UTF-8"?>
<svg id="_图层_1" data-name="图层 1" xmlns="http://www.w3.org/2000/svg" xmlns:xlink="http://www.w3.org/1999/xlink" viewBox="0 0 360 480">
  <defs>
    <style>
      .cls-1 {
        fill: #8f341e;
      }

      .cls-2 {
        fill: #443a3a;
      }

      .cls-3 {
        fill: #5f514e;
      }

      .cls-4 {
        fill: #cd652d;
      }

      .cls-5 {
        fill: #cf804e;
      }

      .cls-6 {
        fill: #292120;
      }

      .cls-7 {
        fill: #b59884;
      }

      .cls-8 {
        fill: #f49d71;
      }

      .cls-9 {
        fill: #b7aca9;
      }

      .cls-10 {
        fill: #b0a39e;
      }

      .cls-11 {
        fill: #f2e1c8;
      }

      .cls-12 {
        fill: #645955;
      }

      .cls-13 {
        fill: #ded8d5;
      }

      .cls-14 {
        fill: #d3935e;
      }

      .cls-15 {
        fill: #483e3c;
      }

      .cls-16 {
        fill: #db9761;
      }

      .cls-17 {
        fill: #504645;
      }

      .cls-18 {
        fill: #786a69;
      }

      .cls-19 {
        fill: #c4b5ad;
      }

      .cls-20 {
        fill: #fdfdfb;
      }

      .cls-21 {
        fill: #b69379;
      }

      .cls-22 {
        fill: #f2a561;
      }

      .cls-23 {
        fill: #9b897c;
      }

      .cls-24 {
        fill: #e3ccbd;
      }

      .cls-25 {
        fill: #684e40;
      }

      .cls-26 {
        fill: #7d6e68;
      }

      .cls-27 {
        fill: #cdb29e;
      }

      .cls-28 {
        fill: #f2eeeb;
      }

      .cls-29 {
        fill: #b2aaa7;
      }

      .cls-30 {
        fill: #9a3d27;
      }

      .cls-31 {
        fill: #e1c8c0;
      }

      .cls-32 {
        fill: #b39284;
      }

      .cls-33 {
        fill: #d4b398;
      }

      .cls-34 {
        fill: #4f93b4;
      }

      .cls-35 {
        fill: #3b322f;
      }

      .cls-36 {
        fill: #9e948f;
      }

      .cls-37 {
        fill: #877875;
      }

      .cls-38 {
        fill: #794f3a;
      }

      .cls-39 {
        fill: #a17a5f;
      }

      .cls-40 {
        fill: #7a6f6d;
      }

      .cls-41 {
        fill: #c0a89e;
      }

      .cls-42 {
        fill: #ddc3aa;
      }

      .cls-43 {
        fill: #d28754;
      }

      .cls-44 {
        fill: #a88a7d;
      }

      .cls-45 {
        fill: #e8d7cb;
      }

      .cls-46 {
        fill: #7e6961;
      }

      .cls-47 {
        fill: #c5b5a7;
      }

      .cls-48 {
        fill: #cabfb8;
      }

      .cls-49 {
        fill: #baa297;
      }

      .cls-50 {
        fill: #fdd63b;
      }

      .cls-51 {
        fill: #28201d;
      }

      .cls-52 {
        fill: #f8f6f4;
      }

      .cls-53 {
        fill: #655b5c;
      }

      .cls-54 {
        fill: #b5a7a1;
      }

      .cls-55 {
        fill: #938684;
      }

      .cls-56 {
        fill: #cac2be;
      }

      .cls-57 {
        fill: #481f15;
      }

      .cls-58 {
        fill: #cea38d;
      }

      .cls-59 {
        fill: #bdb4af;
      }

      .cls-60 {
        fill: #b95725;
      }

      .cls-61 {
        fill: #935340;
      }

      .cls-62 {
        fill: #a2908a;
      }

      .cls-63 {
        fill: #b3a7a2;
      }

      .cls-64 {
        fill: #e3dfdd;
      }

      .cls-65 {
        fill: #b1704c;
      }

      .cls-66 {
        fill: #e08569;
      }

      .cls-67 {
        fill: #d2a990;
      }

      .cls-68 {
        fill: #fbb538;
      }

      .cls-69 {
        fill: #beb6b5;
      }

      .cls-70 {
        fill: #c2bbb7;
      }

      .cls-71 {
        fill: #cabdb7;
      }

      .cls-72 {
        fill: #ebe7e3;
      }

      .cls-73 {
        fill: #a48066;
      }

      .cls-74 {
        fill: #d9bba2;
      }

      .cls-75 {
        fill: #342a27;
      }

      .cls-76 {
        fill: #cabeb8;
      }

      .cls-77 {
        fill: #8a7b75;
      }

      .cls-78 {
        fill: #efd8b5;
      }

      .cls-79 {
        fill: #5e4c45;
      }

      .cls-80 {
        fill: #ab9f99;
      }

      .cls-81 {
        fill: #8e7870;
      }

      .cls-82 {
        fill: #5a504f;
      }

      .cls-83 {
        fill: #cab4ac;
      }

      .cls-84 {
        fill: #8f594d;
      }

      .cls-85 {
        fill: #dcc0a5;
      }

      .cls-86 {
        fill: #e3dedc;
      }

      .cls-87 {
        fill: #867c7b;
      }

      .cls-88 {
        fill: #a68a7f;
      }

      .cls-89 {
        fill: #988d8c;
      }

      .cls-90 {
        fill: #645049;
      }

      .cls-91 {
        fill: #958683;
      }

      .cls-92 {
        fill: #8c8283;
      }

      .cls-93 {
        fill: #bfb6b1;
      }

      .cls-94 {
        fill: #885c45;
      }

      .cls-95 {
        fill: #836e67;
      }

      .cls-96 {
        fill: #e57833;
      }

      .cls-97 {
        fill: #4f3833;
      }

      .cls-98 {
        fill: #fccb9e;
      }

      .cls-99 {
        fill: #f9f7f4;
      }

      .cls-100 {
        fill: #ceb7aa;
      }

      .cls-101 {
        fill: #d8cec7;
      }

      .cls-102 {
        fill: #d0713b;
      }

      .cls-103 {
        fill: #faf6f0;
      }

      .cls-104 {
        fill: #fcd544;
      }

      .cls-105 {
        fill: #f5e9db;
      }

      .cls-106 {
        fill: #fb9e33;
      }

      .cls-107 {
        fill: #cdcdce;
      }

      .cls-108 {
        fill: #c58254;
      }

      .cls-109 {
        fill: #877a79;
      }

      .cls-110 {
        fill: #fbfbfa;
      }

      .cls-111 {
        fill: #3a312f;
      }

      .cls-112 {
        fill: #615554;
      }

      .cls-113 {
        fill: #4b403e;
      }

      .cls-114 {
        fill: #40312e;
      }

      .cls-115 {
        fill: #d9d4d2;
      }

      .cls-116 {
        fill: #fbe4c5;
      }

      .cls-117 {
        fill: #c6b4a6;
      }

      .cls-118 {
        fill: #fdfcfb;
      }

      .cls-119 {
        fill: #654537;
      }

      .cls-120 {
        fill: #ebe4e0;
      }

      .cls-121 {
        fill: #dec7b9;
      }

      .cls-122 {
        fill: #9a9795;
      }

      .cls-123 {
        fill: #271f1b;
      }

      .cls-124 {
        fill: #382d2a;
      }

      .cls-125 {
        fill: #9c4c2c;
      }

      .cls-126 {
        fill: #3c2019;
      }

      .cls-127 {
        fill: #b3adab;
      }

      .cls-128 {
        fill: #a99a95;
      }

      .cls-129 {
        fill: #90584b;
      }

      .cls-130 {
        fill: #79a5cc;
      }

      .cls-131 {
        fill: #f0ece8;
      }

      .cls-132 {
        fill: #362725;
      }

      .cls-133 {
        fill: #988378;
      }

      .cls-134 {
        fill: #2b2220;
      }

      .cls-135 {
        fill: #9e9089;
      }

      .cls-136 {
        fill: #d2905f;
      }

      .cls-137 {
        fill: #f2ebe2;
      }

      .cls-138 {
        fill: #c86a52;
      }

      .cls-139 {
        fill: #fdb934;
      }

      .cls-140 {
        fill: #bfab9e;
      }

      .cls-141 {
        fill: #c4b9b4;
      }

      .cls-142 {
        fill: #e9ddd3;
      }

      .cls-143 {
        fill: #9a4a36;
      }

      .cls-144 {
        fill: #fefefd;
      }

      .cls-145 {
        fill: #69554d;
      }

      .cls-146 {
        fill: #fdf490;
      }

      .cls-147 {
        fill: #fbf8f2;
      }

      .cls-148 {
        fill: #625757;
      }

      .cls-149 {
        fill: #e4dcd5;
      }

      .cls-150 {
        fill: #e5ddd6;
      }

      .cls-151 {
        fill: #582818;
      }

      .cls-152 {
        fill: #8c4c41;
      }

      .cls-153 {
        fill: #f99920;
      }

      .cls-154 {
        fill: #f4aa7b;
      }

      .cls-155 {
        fill: #b15f38;
      }

      .cls-156 {
        fill: #e3d5cd;
      }

      .cls-157 {
        fill: #f5f0e8;
      }

      .cls-158 {
        fill: #c69f82;
      }

      .cls-159 {
        fill: #a38d85;
      }

      .cls-160 {
        fill: #fddf4d;
      }

      .cls-161 {
        fill: #d6cfc9;
      }

      .cls-162 {
        fill: #8b7c79;
      }

      .cls-163 {
        fill: #974a27;
      }

      .cls-164 {
        fill: #766866;
      }

      .cls-165 {
        fill: #ccc4be;
      }

      .cls-166 {
        fill: #58483f;
      }

      .cls-167 {
        fill: #dadad8;
      }

      .cls-168 {
        fill: #382e2a;
      }

      .cls-169 {
        fill: #a99d99;
      }

      .cls-170 {
        fill: #4c3f3a;
      }

      .cls-171 {
        fill: #c5bcb8;
      }

      .cls-172 {
        fill: #726966;
      }

      .cls-173 {
        fill: #bcb2af;
      }

      .cls-174 {
        fill: #e8d6c8;
      }

      .cls-175 {
        fill: #8ac7df;
      }

      .cls-176 {
        fill: #e8dbd0;
      }

      .cls-177 {
        fill: #9d817a;
      }

      .cls-178 {
        fill: #d2c4bb;
      }

      .cls-179 {
        fill: #918887;
      }

      .cls-180 {
        fill: #908685;
      }

      .cls-181 {
        fill: #f7bc84;
      }

      .cls-182 {
        fill: #ecd0ae;
      }

      .cls-183 {
        fill: #827b79;
      }

      .cls-184 {
        fill: #e3cfc1;
      }

      .cls-185 {
        fill: #f5d4b1;
      }

      .cls-186 {
        fill: #564c4b;
      }

      .cls-187 {
        fill: #b9b1ac;
      }

      .cls-188 {
        fill: #b5724a;
      }

      .cls-189 {
        fill: #a0978e;
      }

      .cls-190 {
        fill: #bfb3b0;
      }

      .cls-191 {
        fill: #bfb8b6;
      }

      .cls-192 {
        fill: #9b8278;
      }

      .cls-193 {
        fill: #c2b8b6;
      }

      .cls-194 {
        fill: #ad6c44;
      }

      .cls-195 {
        fill: #b08e76;
      }

      .cls-196 {
        fill: #29201d;
      }

      .cls-197 {
        fill: #796f6f;
      }

      .cls-198 {
        fill: #d68040;
      }

      .cls-199 {
        fill: #c8c5c0;
      }

      .cls-200 {
        fill: #fdad2c;
      }

      .cls-201 {
        fill: #978986;
      }

      .cls-202 {
        fill: #d6cec8;
      }

      .cls-203 {
        fill: #eedfd2;
      }

      .cls-204 {
        fill: #d0cbca;
      }

      .cls-205 {
        fill: #443937;
      }

      .cls-206 {
        fill: #bab4ae;
      }

      .cls-207 {
        fill: #e28861;
      }

      .cls-208 {
        fill: #c2bbb5;
      }

      .cls-209 {
        fill: #938988;
      }

      .cls-210 {
        fill: #c0a89b;
      }

      .cls-211 {
        fill: #913d30;
      }

      .cls-212 {
        fill: #a69a98;
      }

      .cls-213 {
        fill: #dacdc4;
      }

      .cls-214 {
        fill: #a05742;
      }

      .cls-215 {
        fill: #f8ead9;
      }

      .cls-216 {
        fill: #cec3bc;
      }

      .cls-217 {
        fill: #9e6748;
      }

      .cls-218 {
        fill: #cac2c0;
      }

      .cls-219 {
        fill: #ac502d;
      }

      .cls-220 {
        fill: #423939;
      }

      .cls-221 {
        fill: #aea7a4;
      }

      .cls-222 {
        fill: #804227;
      }

      .cls-223 {
        fill: #75665f;
      }

      .cls-224 {
        fill: #fbfaf5;
      }

      .cls-225 {
        fill: #b15438;
      }

      .cls-226 {
        fill: #625653;
      }

      .cls-227 {
        fill: #f79128;
      }

      .cls-228 {
        fill: #342824;
      }

      .cls-229 {
        fill: #fefefe;
      }

      .cls-230 {
        fill: #e1dedc;
      }

      .cls-231 {
        fill: #bb8059;
      }

      .cls-232 {
        fill: #d9c9bc;
      }

      .cls-233 {
        fill: #c09e84;
      }

      .cls-234 {
        fill: #f7f6f4;
      }

      .cls-235 {
        fill: #fcf4dc;
      }

      .cls-236 {
        fill: #fafafa;
      }

      .cls-237 {
        fill: #cac1bc;
      }

      .cls-238 {
        fill: #9c6951;
      }

      .cls-239 {
        fill: #746560;
      }

      .cls-240 {
        fill: #a1694b;
      }

      .cls-241 {
        fill: #733e31;
      }

      .cls-242 {
        fill: #b45134;
      }

      .cls-243 {
        fill: #966952;
      }

      .cls-244 {
        fill: #f1d8bc;
      }

      .cls-245 {
        fill: #b5998c;
      }

      .cls-246 {
        fill: #312928;
      }

      .cls-247 {
        fill: #d6c7bb;
      }

      .cls-248 {
        fill: #8b7a77;
      }

      .cls-249 {
        fill: #bb5839;
      }

      .cls-250 {
        fill: #bddce6;
      }

      .cls-251 {
        fill: #9c9495;
      }

      .cls-252 {
        fill: #e9e7e5;
      }

      .cls-253 {
        fill: #f7f2eb;
      }

      .cls-254 {
        fill: #925d44;
      }

      .cls-255 {
        fill: #f1f0ee;
      }

      .cls-256 {
        fill: #605350;
      }

      .cls-257 {
        fill: #dfc9ba;
      }

      .cls-258 {
        fill: #d0cbc9;
      }

      .cls-259 {
        fill: #fdfdfd;
      }

      .cls-260 {
        fill: #756863;
      }

      .cls-261 {
        fill: #a29995;
      }

      .cls-262 {
        fill: #5c2b23;
      }

      .cls-263 {
        fill: #d3b69c;
      }

      .cls-264 {
        fill: #6d564b;
      }

      .cls-265 {
        fill: url(#_未命名的渐变_2);
      }

      .cls-266 {
        fill: #aa8f82;
      }

      .cls-267 {
        fill: #a25532;
      }
    </style>
    <linearGradient id="_未命名的渐变_2" data-name="未命名的渐变 2" x1="-318.89" y1="1075.85" x2="-332.8" y2="1153.61" gradientTransform="translate(585 -585) scale(.75)" gradientUnits="userSpaceOnUse">
      <stop offset="0" stop-color="#b1795d"/>
      <stop offset=".61" stop-color="#ba8265"/>
      <stop offset=".7" stop-color="#d27948"/>
      <stop offset="1" stop-color="#d47647"/>
    </linearGradient>
  </defs>
  <path class="cls-229" d="M0,358.5V0h360v204.24l-2.18.85c-12.29-5.47-23.85-5.05-36.86-3.41l-2.75-1.3-.07,1.73-15.8,8.16c-8.25,8.16-17.7,15.04-27.74,20.81l-3.13,9.13-1.9,1.21c1.86,1.72,1.02,4.82-1,5.99,1.92,2.75-4.7,6.25-4.56,2.25l-.7-1.66c1.59-7.06,2.46-13.97,2.59-20.73l-1.59-3.21c1.31-6.06-.1-10.71-4.24-13.97-.53-1.21.04-10.56,2.35-10.54-1.97-1.37-1.56-3.23.77-3.74-.23-3.03.1-6.05,3.58-3.84l1.19-1.91c2.94-.71,13.92-5.48,14.24-7.78.19-1.34-6.8-4.02-8.68-3.93-4.19.19-7.78,2.61-11.12,4.97l-1.83-.55-.18-.68c-.15-2.57.7-5.15,2.54-7.74l-2.07,1.09c-1.36.32-2.57-.47-3.63-2.36-3.06-.91-4.41-2.3-4.03-4.17l-.79-.35c.8-5.51,1.67-11.03,2.6-16.54-.09-.41-.3-.99-.61-1.75-.48.52-.79.43-.92-.26-.3,1.21-.56,1.44-.78.7l-2.86,14.64-.81.35c-.67,1.62-.39,2.68.83,3.17-1.35,2.93-5.99,2.2-4.07-.85l-.86-.61c.75-1.89.11-1.19-1.94,2.11-.6.47-1.2.57-1.82.19l-.32-7.95h-1.03c-.43.92-.83.76-1.2-.49-1.27.29-1.14-4.45-1.12-4.22.33,3.86.65,7.73.94,11.6l-1,.78c-.3,1.44-.9,1.41-1.3-.02l-1.93-1.6c-.66-5-1.46-9.91-2.38-14.71-1.28,1.06-2.34,1.67-3.77.47.09,1.34-.48,1.35-.89.06-.57,2.13-1.97,1.63-1.32-.52-1.88-1.49-.86-7.88.01-10.15.77-1.99,2.27-5.36,4.31-5.7-1.58-2.99-3.87-5.97-7.31-5.98.52,1.13.23,1.19-.87.17.03.69-.24,1.18-.85,1.43-2.64-1.99-5.09-2.76-7.35-2.32,2.16.57-2.44,8.9-2.92,9.27s-1.18.31-1.8.25c-.84,1.57-1.79,1.25-2.47-.32l-3.94-12.34c-.6-.2-1.25,0-1.96.62-.75-.31-1.44-.49-2.08-.56.32,2.32-3.08,3.66-4.34,1.62-.56-.25-1-.49-.99-.7.1-1.76,1.31-5.61,3.14-5.62,5.08-.83,9.87-2.45,14.37-4.86,2.06-1.92,4.12-2.8,6.16-2.64l-.08-1.9c2.67-1.97,4.9-4.32,6.71-7.05l1.87-.34-.96-1.48c1.62-3.48,3.44-7.53,1.68-11.28l.88-1.5c-.87.05-1.6-.37-2.25-.89-4.41-3.48-6.11-4.77-12.37-4.94-10.37-.28-19.74,7.03-25.41,15.21l-2.07.4-1.91-.19c-2.31-5.87-5.65-8.48-10.02-7.82l-1.35-1.08c-6.29,10.76-5.24,23.54-2.14,35.25.17,6.23-.79,12.17-2.88,17.81l-1.77-.69c-.97.99-2.52,1.39-4.65,1.2-1.81,1.02-3.46,1.36-4.94,1.02.05,1.93-.59,2.58-2.42,1.56-5.56,6.78-6.8,14.49-2.33,22.27-1.71,19.34-3.81,38.66-6.3,57.97-.63,1.04-1.48.77-2.55-.8l-2.45-.59-7.92-11.19c-.3,3.17-1.57,4.84-3.79,5l-25.19-10.59,2.15,5.22c5,7.56,10.47,14.78,16.41,21.66l.69,2.04c-2.02,2.73-4.47,5.1-7.35,7.13-6.02,5.73-8.33,3.79-6.92-5.83-1.94,1.1-4,2-6.19,2.68-2.06-2.56-3.61-5.34-4.66-8.35l-5.19,18.09,9.36,16.85c.63,2.95,1.24,7.45-.87,9.68.7,2.32-5.23,4.28-6.76,3.02-.26.64-.51.59-.75-.08-4.53,2.87-11.92,8.21-12.24,13.74-.17,2.93.66,6.3,2.38,8.68l-.72,1.53c2.4.76,4.91,3.87,3.07,6.03l.75,2.45c-27.82,14.99-55.82,29.73-84.01,44.23l-1.51-.9Z"/>
  <g>
    <path class="cls-157" d="M265.61,366.73c.05,1.23-.79,2.74-1.13,3.88l-2.38,3.55-16.67,11.95,2.29,19.83c-.05,1.22-.43,2.23-1.13,3.03.15,1.05-.13,2.23-.86,3.54l-16.65,21.49c-2.08,3.4-4.71,5.98-7.9,7.74l-.63,2.44c-8.34,11.02-16.8,22-25.39,32.93l-3.88,2.9h-48.37l-.74-1.4,95.44-101.24-.49-1.66c4.16-4.38,8.31-8.76,12.47-13.15l1.83.25c4.31-.8,11.04.87,14.19,3.93Z"/>
    <path class="cls-59" d="M270.74,416.2l1.8-.12c2.65,4.93,6.31,7.04,10.96,6.31,6.19-4.45,12.07-9.36,17.64-14.74.85-.8,1.77-.41,2.64.38l1.34.86c-5.71,23.52-11.42,47.04-17.13,70.57l-1.67.53h-38.02c-.56-.24-1.4-.65-1.35-1.1,1.11-10.58,3.11-22.92,4.97-33.46l1.16-1.37-.47-4,4.12-27.93c.17-1.89.85-3.04,2.03-3.45l-1.23-1.67,2.11-6.63c-.7-3.55-.05-5.02,1.95-4.4,1.52,6.78-3.38,4.12,9.15,20.2Z"/>
    <path class="cls-262" d="M332.72,397.37c2.57.09,5.05,5.51,4.08,7.75,1.25-.19,2.01.43,2.28,1.87l10.47,14.92,9.87,2.73.58,1.74v12.73l-2,.51c-7.62-3.6-13.6-9.54-18.39-16.31l-3.83,55.89-1.56.8h-28.49c-.57-.13-1.42-.5-1.34-.85,6.11-27.59,12.88-55.66,19.95-83.22l1.93-2.11c.42-4.65,6.53.78,6.44,3.55Z"/>
    <path class="cls-229" d="M324.7,390.04c2.91-2.56,4.54,2.36,1.57,3.79-.99,5.66-2.56,11.03-4,17.08l-16.53,69.1h-19.43l17.47-71.96c-1.25-2.47,2.64-6.79,5.24-6.22-.37-2.97,2.36-5.54,4.47-7.44,1.84-1.66,6.83-4.97,8.95-3.75-.16-2.21,1.1-2.43,2.26-.6Z"/>
    <path class="cls-199" d="M253.07,444.08c.42,1.04.47,2.03.24,3.49l-5.02,32.43h-44.84l-.42-.49s13.76-18.11,41.29-54.33l1.04.15c1.89-.68,2.89,1.13,2.98,5.41,2.66,4.44,4.24,8.89,4.73,13.34Z"/>
    <path class="cls-152" d="M360,439.11v40.89h-25.77l4.09-60.71,7.62,9.54c3.63,4.55,9.32,7.19,14.06,10.28Z"/>
    <path class="cls-208" d="M230.97,441.04l.61.74-28.36,37.49-1.34.73h-10.59c9.15-13.33,20.02-25.52,29.9-38.27,3.22-3.41,6.82-4.37,10.78-2.88l-1,2.19Z"/>
    <path class="cls-34" d="M360,293.05v23.59c-1.31,2.12-5.72-.06-5.29-2.35-.61.02-1.51.03-1.69-.4-1.92-4.5-6.01-17.32-6.75-21.97l1.11-1.49.95-1.33,10.93,2.27.73,1.68Z"/>
    <path class="cls-134" d="M17.19,421.48c-5.12-3.34-11.08-5.92-17.19-6.73v-9.75c7.42-.47,22.52,5.66,18.83,15.2-.32.83-.88,1.45-1.64,1.28Z"/>
    <path class="cls-175" d="M360,293.05l-12.62-2.62c-1.88-1.07-1.09-3.43,1.13-3.25,2.73-6.46,5.94-12.67,9.64-18.61l1.85-.14v24.63Z"/>
    <path class="cls-12" d="M245.36,425.33l-41.91,54.67h-1.58l29.09-38.96c-.03-.59-.03-1.17.06-1.74.29-1.73,10.2-14.52,12.39-17.08.7-.82,1.78-1.21,2.77-1.56,1.43-4.46,4.16-8.31,8.17-11.55l2.04-.07c.59.24,1.08.63.96,1.09-1,3.5-7.46,12.19-10.15,15.24l-1.84-.02Z"/>
    <polygon class="cls-250" points="360 268.42 348.52 287.17 360 253.5 360 268.42"/>
    <path class="cls-45" d="M360,316.64v5.79c-.24,1.86-.79,2.66-1.67,2.4-1.44,1.37-3.01.38-4.71-2.95l-1.09-.81c-1.44-2.25-.26-5.76,2.19-6.79,1.77.77,3.41,1.87,5.29,2.35Z"/>
    <path class="cls-211" d="M360,330.78c-1.32-.09-2.18-1.09-3.17-1.82-1.39-1.44-.2-3.41,1.5-4.13.53-.82,1.02-1.67,1.67-2.4v8.34Z"/>
    <path class="cls-127" d="M270.03,247.41c2.49-.94,3.95,1.19,2.15,3.2l.15,1.65c-12.86,7.49-25.83,14.79-38.91,21.89l-.86-.46c-.12,1.4-1.22,1.45-1.55-.02-5.84,2.79-11.6,5.41-17.26,7.84l-.64-.95c-1.91-.15-2.62-2.01-.83-3.15l-1.47-2.32c-4.72-2.43-6.74-5.39-6.05-8.85-2.09-1.19-.88-9.3,2.04-7.69l1.25-1.19c6.76,2.7,13.62,4.19,20.57,4.46l.93,1.54-.42,1.71c2.07.45,4.42,1.56,7.05,3.33.65-1.67,2.06-3.87,3.86-2.34l1.34-2.56,15.41-9.34c1.39-1.59,2.78-2.33,4.18-2.23,1.31.66,1.95-1.09,3.02-2.28,1.7,1.4,3.35-.96,4.56-2.25.45-2.02.69-1.98,1.48,0Z"/>
    <path class="cls-98" d="M312.72,315.13c-2.6,3.15-6.74,4.61-9.72,7.38-1.38,1.28-2.84,3.09-3.99,4.55-5.28,2.97-11.16,5.54-17.64,7.7l-1.55-1.01c.2.57.28,1.42-.12,1.57-3.27,1.22-7.84,2.54-11.13,2.94-1.71-1.58-1.83-3.62-1.49-6.03v-1.72c2.43-2.03,10.43-6.25,13.31-5.75-.52-2,2.95-4.16,4.63-3.05-.2-1.23.8-1.69,2.99-1.38.09-.44.14-.78.08-.81-2.81-1.05-8.34-2.94-10.39-1.25-2.47.6-4.03.07-4.69-1.6-.11-1.28.51-2.4,1.64-3.01-.31-1.55.56-2.5,2.6-2.86,3.41-1.1,6.73-1.41,9.96-.93l1.49-1.25c1.87-.24,12.62.44,14.63.72,2.88.4,9.31,2.72,9.4,5.79Z"/>
    <path class="cls-141" d="M261.47,390.88c-1.54,3.95-3.94,7.54-7.2,10.78-1.81,3.3-4.12,5.74-6.91,7.32-.3,1.54-.52,1.59-.77-.01l-2.92-23.43,20.81-14.93-2.26,7.71c-1.22,4.15-.36,8.51-.75,12.56Z"/>
    <path class="cls-209" d="M270.79,359.17c-2.57,2.07-9.39.13-12.4-1.19l-1.14-1.81c-2.31-.29-2.83-2.5-1.57-4.29-.59-1.09-.94-2.38-2.65-2.89-5.07-1.5-9.37-4.3-13.89-6.31-1.74-1.73-4.77-5.46-.68-5.17,3.89,4.02,8.89,5.94,14.25,7.73,3.92,1.31,7.05,4.17,11.15,5.13s8.28,1.31,12.62,2.59l-5.7,6.2Z"/>
    <path class="cls-77" d="M261.59,396c-1.49,1.09.05,3.54-.62,5.2-1.1,2.7-1.84,4.95-2.21,7.5-.56,2.02-1.28,2.15-2.36.33-3.1,3.74-7.67,7.44-10.21,11.62-2.62-1.41-.73-8.79.62-11.25.1-.19.32-.32.56-.43,3.94-6.48,9-12.47,14.11-18.1-.15,1.53-.22,3.62.12,5.12Z"/>
    <path class="cls-8" d="M299,327.06l-11.14,14.05c-1.1,1.39-2.15,2.66-3.63,3.04-1.25-.63-1.62-1.95-2.32-3-.89-.96-.91-1.28-.07-.97-2.67-2.32-3.35-4.46-2.03-6.44l18.75-7.24c.31-.12.39.38.44.56Z"/>
    <path class="cls-173" d="M270.79,359.17c-2.07,2.25-3.34,5.13-5.18,7.56-4.79-1.09-9.6-2.18-14.19-3.93.25-3.36,2.53-5.94,5.83-6.62,4.52.99,8.91,2.73,13.54,3Z"/>
    <g>
      <path class="cls-11" d="M360,345.56v55.21c-.07.35-.16.68-.34.95-.73,1.11-23.97-4.16-25.89-4.96l-.56-1.65-1.23-1.1,9.83-32.32-8.05,3.13-4.69,15.96c-.44,1.29-1.63,1.35-3.57.18-.22.54-.62,1.33-1.04,1.27-4.27-.6-11.25-2.7-14.51-5.49-.08,1.46-.65,1.37-.86-.13-.53.62-1.47.89-1.66.37-.94-2.57-.99-10.24-.61-13.09l1.52-.92-1.37-2,1.38-21.5-5.99,13.53-2.41,1.7.23,3.08-26.64,57.99c-.7,1.57-1.61,1.74-2.79.42l-2.19-.38c-3.2-3.66-5.7-7.66-7.5-12l.54-7.82c-2.13-.3-2.17-2.01-.12-5.12-2.28-1.84-1.59-7.96-1.13-11.02.51-3.42,1.74-6.73,4.15-9.25-1.71-1.4-.92-3.45,1.13-3.88-1.09-2.68,2.21-7.45,5.18-7.56l-.7-.72c.71-1.57,1.88-3.14,3.49-4.69l-11.33-2.29c-7.36-3.28-14.64-6.71-21.86-10.31-1.11-1.15-1.76-2.36-1.93-3.65-.52.26-1.32.6-1.6.3-1.53-1.63-7.13-9.15-3.61-10.15.73-2.38,4.87-1.68,5.25.68.11,1.21-.71,1.53-1.62,1.86,3.88,6.78,9.44,9.94,16.7,12.23,7.62,4.6,15.44,6.43,24.21,7.65,1.6-1.84,3.19-3.78,4.76-5.79l1.69-.13c-.18-1.16.42-2.21,1.79-3.15l9.16-11.54c1.14-1.22,2.41-2.02,3.82-2.4-1.45-1.91,1.91-5.81,3.99-4.55.98-.43,2.02-.23,3.13.58l53.13,20.58.75,1.9Z"/>
      <path class="cls-235" d="M333.21,320.34c3.58-1.09,5.77-.61,6.55,1.44l1.3-1.09c3.47,1.46,7.04,2.54,10.72,3.24,1.58,1.28,3.31,2.37,5.2,3.28l-.15,1.73c1.59-1.6,2.8.07,3.17,1.82v14.78l-54.44-21.09c-1.27-.49-2.22-.99-2.56-1.97-.11-.38-.21-.76-.23-1.14-.04-.73,6.83-5.76,8.14-6.48l1.81.24c1.06-5.97,18.11.94,19.67,2.92.53.68.82,1.42.83,2.29Z"/>
      <path class="cls-74" d="M360,403.15v23.23l-11.37-3.36c-3.8-5.07-7.33-10.01-10.85-15.27-.59-.88-.54-2.03-.99-2.63.02-.59.12-1.47.54-1.55,2.42-.49,21.2-2.05,22.08-1.37.28.21.44.56.58.95Z"/>
      <path class="cls-21" d="M360,400.77v2.37l-23.2,1.97c-1.76-2.34-2.73-5.16-4.08-7.75-1.44-1.07-1.3-1.95.5-2.26l26.79,5.67Z"/>
      <path class="cls-42" d="M308.33,362.98c.04-.56-.47,15,.76,13.63.79,3.79.95,7.92.45,12.39.3,4.36.12,8.63-.52,12.81-1.78,2.04-3.78,3.94-5.24,6.22-1.85.44-3.16,2.07-4.8,3.5-4.44,3.87-8.73,8.28-13.66,11.74-1.63,1.14-6.43,1.02-8.11-.06-2.68-1.71-4.68-4.73-6.46-7.02,1.34.04,1.45-1.28,2.04-2.55l27.15-58.93c1.42.13,2.67,1.3,3.73,3.51,2.62,1.18,4.18,2.77,4.66,4.76Z"/>
      <path class="cls-233" d="M333.21,395.11c-.22.74-.47,1.48-.5,2.26-2.8-.93-4.53-5.74-6.44-3.55.13-.76.03-1.7-.04-2.59-.05-.63-.47-1.52-1.53-1.2-.52-1.01-.29-2.19.68-3.53.53-1.88.57-3.73.12-5.55.56.02,1.94.16,2.22-.8l4.83-16.6,11.67-4.66-11.01,36.21Z"/>
      <path class="cls-73" d="M309.95,376.74c4.76,3.62,9.14,7.71,13.15,12.27l-.65,1.62c-2.5,1.94-5.88,2.87-8.37,5.24-1.95,1.85-3.43,4.08-5.05,5.94-1.51,2.77-1.14-27.23.06-25.2l.86.13Z"/>
      <path class="cls-263" d="M308.33,362.98c-4.81-3.07-6.47-3.02-8.4-8.27,3.35-7.27,6.06-14.88,10.36-22.41l-1.96,30.68Z"/>
      <path class="cls-195" d="M325.5,380.95c.72.2,1.5,1.07,1.91,1.54.03.03.21,5.68-2.71,7.54-.6.39-1.65.13-2.26.6-2.84-4.04-10.67-9.54-12.5-13.89l15.55,4.21Z"/>
    </g>
    <path class="cls-10" d="M233.25,327.66c.2.61-.14,1.8.43,2.65l4.79,7.2c-1.9.72,1.37,3.44.68,5.17-1.71-.76-4.17-2.2-5.96-2.79-2.92-1.38-3.67-2.69-4.4-5.7-.55-2.26-1.14-6.4,1.48-7.06.75.19,2.23.59,2.98.52Z"/>
    <path class="cls-187" d="M246.19,420.65c-4.41,7.26-10.12,13.56-15.22,20.39,1.38-4.7-10.96,1.65-8.74,1.15-.33.07-1.01.24-1.04-.46l25.41-32.77c.2.46.53.41.77.01l-1.18,11.68Z"/>
    <path class="cls-36" d="M258.75,408.7l-5.2,35.27c-.05.38-.24.35-.48.11-1.82-4.53-4.79-8.58-6.41-13.64-.58-1.82.31-4.14-1.3-5.11l9.49-12.93c.83-1.13,1.33-2.28,1.54-3.37.77-.19,1.56-.3,2.36-.33Z"/>
    <g>
      <path class="cls-178" d="M85.5,323.42l-.98,2.22-26.12,13.92c-1.92,1.31-2.61,2.37-2.07,3.21l2.99.68c8.75,4.53,17.48,9.1,26.19,13.71l2.22,2.19c-.2,5.6-7.84.41-7.98,4.4-.07,2.04,3.18,1.06,4.15,1.69,2.76,1.8,1.49,5.69.11,8.07-2.73,4.73-2.68,9.99-4.42,14.98-1.42,4.08-.47,8.28-.46,12.62,0,3.7-1.67,8.39.76,11.76s12.25,4.39,8.72,11.56l-1.34.96c-13.55-7.7-27.1-15.4-40.65-23.1l-.04-1.75c-1.1-2.03,3.29-6.39,5.13-4.55.72-6.77.64-14.09.05-20.99l-1.56-.12s-7.53,4.81-22.59,14.44l-2.22.62c-8.1-4.66-16.25-9.21-24.45-13.65l-.93-2.03v-15.75l83.19-43.42c1.27-.66,1.73-1.25,1.59-2.37,1.63-.64,3.24,1.14,3.75,2.6.71,2.03-1.15,6.86-3.03,8.1Z"/>
      <path class="cls-48" d="M23.28,398.33l1.49-.48c20.2,12.02,40.41,24.08,60.65,36.16l.06,1.69.41,1.89-8,6.76c2.66.85,4.25,2.19,4.77,4.02,1.12-.83,1.57-.48.8.75,2.04,2.95,5.68,4.22,8.04,6.88.29.63,0,.86-.75.75l-1.58.37c-7.66-5.55-19.27-13.76-29.09-12.05-1.78.98-3.3,1.07-4.57.28-1.66.66-2.98.89-3.95.69l-2.15.38c-1.28-.44-11.17-7.36-11.52-8.23-.12-.31-.02-.7.13-1.11-1.61-1-2.28-.98-2.03.07,2.87,1.32,7.3,8.36,8.43,11.43l-.76,1.66c.33.36.59.71.57,1.06-.18,4.43-6.84-.36-8.2-2.04-7.68-13.42-21.23-23.87-36.04-28.5v-6c2.66-1.36,5.84-1.01,9.52,1.03,4,1.05,6.55,2.96,7.66,5.7l1.69-.69,6.37,4.15c2.35-9.91-1.22-15.81-10.05-20.44-.33-.38-.6-.76-.67-1.18-.3-1.79,7.21-7.71,8.75-4.99Z"/>
      <path class="cls-70" d="M142.91,480h-4.4l-.61-1.54c13.03-13.78,26.06-27.57,39.1-41.36h2.05c-.38-.45-.87-1.23-.59-1.53,16.72-17.88,34.57-36.12,52.07-53.5l2.79-.99c-1.45-1.96,2.46-5.03,4.28-3.73-.68,1.71-2.06,2.99-3.5,4.55l-36.35,39.39-54.84,58.71Z"/>
      <path class="cls-216" d="M18.74,395.93c-1.52,2.43-4.4,4.06-6.71,6.24-4.29-1.36-8.14-1.18-12.03-1.67v-15c.35-.48.92-1.15,1.32-.98,4.88,1.98,12.48,6.8,17.11,9.73.48.3.45,1.05.31,1.68Z"/>
      <path class="cls-171" d="M233.18,339.9c1.63-2.41,5.07.63,5.96,2.79l2.15-.66c4.15,2.3,8.45,4.24,12.91,5.82,1.7.99,3.33,2.53,1.48,4.03l-.05,2.24c-7.88,8.32-15.77,16.64-23.66,24.96l-1.71-.38.57,1.55c-10.62,10.64-21.24,21.29-31.87,31.94l-1.7-.42c.02-.38.1-.79-.08-1.01-.43-.51-1.52-.33-2.02-.4-4.17-.52-5.49,1.64-7.08,4.47-1.28,2.28-4.46,3.35-5.3,6.53-8.05,4.19-2.14,2.27-8.1,6.79-1.55,1.18-2.62,1.98-4.65,1.61-1.21-.22-5.77-4.24-4.83-6.83.51-1.41,1.75-1.49,4.19-1.14l-1.99-9.87c-.39-1.94-5.18-2.24-7-1.75l-.56-.88c.79-1.7,1.82-3.36,3.09-4.97l-1.09-1.55c1.82-2.54,1.99-4.73.49-6.58-1.43-.89-2.29-2.01-2.57-3.35-2.57.4-3.31-5.76-1.31-6.73-.53-.46-.11-.73,1.25-.81l-.27-.55c9.44-7.33,18.34-14.71,26.69-22.13,1.14.13,2.22-.94,3.23-3.21.34.16.64.26.78.15.74-.55,1.47-1.11,2.19-1.68,5.49-4.34,10.9-8.95,16.11-13.58-4.82-2.68-9.89-5.05-15.23-7.11l-.37-1.79-.19-1.71c.94-.9,8.27-6.33,8.81-6.33.65,0,1.22.16,1.73.61l3.66.09c15.69,6.27,23.53,9.41,23.53,9.41l2.8,2.39Z"/>
      <path class="cls-87" d="M233.33,381.08c-3.53,4.36-7.56,8.12-11.73,12.39l-42.55,43.64c-1.28-.76-2.88-.92-3.99-1.94l22.21-23.4,32.99-33.07c1.76-.54,2.56.89,3.07,2.38Z"/>
      <g>
        <path class="cls-237" d="M151.48,390.07c.51.06.92.12.92.22.28,3.97.57,9.73.06,13.63-.29,2.28-3.24,1.4-1.78-.32l-1.4-1.27-.28-7.33c-1.18,1.39-2.35,2.75-3.53,4.07.82,2.11.64,3.12-.53,3.01,1.89,7.7,6.75,8.38,13.75,6.97l1.71,1.13c8.61-5.81,10.34,6.07,9.84,12.29-3.93.64-5.11.85-1.86,4.26,1.93,2.03,2.63,2.1,4.93.59,2.43-2.85,5.23-5.14,8.38-6.87,2.56-3.8,5.45-7.37,8.68-10.71,2.43-1.4,9.64-1.75,6.91,2.03l.74,1.4c-7.06,7.48-14.16,14.93-21.3,22.36l-1.66-.36.71,1.42-41.16,42.26-3.21,1.15h-37.65l-1.59-1.46c.19-6.82.47-13.58.84-20.29-.94,1.27-1.77-1.08-1.5-2.25-.28.07-.53.1-.68,0-2.19-1.54-5.89-4.2-7.75-5.94-.09-.08.11-.47.38-.94,5.37-4.98,11.04-9.69,16.99-14.11-1.09-2.08-2.97-3.59-5.64-4.54l-5.93-4.13-.27-1.92-1.07-1.28c.5-3.27-1.86-5.85-7.07-7.74-3.43-3.34-4.38-7.88-2.86-13.61-.6-8.3.46-16.46,3.17-24.47,2.43-3.9,3.3-7.37,2.59-10.42-8.8-1.06-5.29-7.55,2.11-6.31l2.25-1.24c.21-.6.6-1.08,1.01-.89,3.63,1.68,7.36,3.42,10.7,5.62.38-.24.72-.41.93-.31,16.91,8.24,34.26,16.86,51,25.34.16.08.16.48.11.97Z"/>
        <g>
          <path class="cls-179" d="M179.05,437.11l-40.54,42.89h-7.12l43.66-44.83c1.57-1.39,4.16-.3,3.99,1.94Z"/>
          <g>
            <path class="cls-124" d="M153.59,407.21l1.08-1.27c1.65.18,3.31.12,4.96-.2-.09-2.07,1.88-2.96,3.31-1.41,1.25,2.3-.88,3.93-2.53,5.85-3.69,1-10.87,1.86-13.88-1.51-1.91-2.15-1.98-4.28-1.58-6.59l1.11-.25c1.66,1.82,3.53,2.84,5.61,3.06.99.22,1.63.99,1.92,2.31Z"/>
            <path class="cls-180" d="M153.77,398.22c2.4.86,1.64,7.71-.18,8.99-3.3-.96-6.11-2.82-8.64-5.12l.53-3.01c1.78-.17,4.69,2.79,5.2,4.53-.28.44.16.75.83.57l-.03-14.09.82-1.43c.24-.63.5-.63.78-.01,2.69,1.6,2.95,7.51.69,9.58Z"/>
            <path class="cls-120" d="M150.68,403.6c-2.39-.43-4.33-2.27-5.2-4.53-.3-3.09,1.88-5.64,5.24-6.31l-.03,10.83Z"/>
          </g>
          <path class="cls-168" d="M100.44,435.01c-4.97,5.35-11,9.89-16.99,14.11-.16-.23-.58-.57-.8-.75l16.9-13.66c.48-.39,1.03-.26.88.3Z"/>
          <g>
            <path class="cls-131" d="M137.44,426.1c-.03,2.32-1.26,4.15-3.14,2.14-2.07-.84-2.14-1.98-.15-3.01-1.5-.16-2.03-1.73-1.6-4.71-3.54-2.89-7.71-5.66-12.51-8.31l-1.45-2.61c.46-1.01,2.68-3.77,4.27-2.83,5.05,2.96,10.54,5.75,14.52,10.06,2.03,2.19.85,6.99.06,9.28Z"/>
            <path class="cls-92" d="M134.15,425.22c.22,1.48-.15,2.12-1.12,1.92-4.7-2.52-9.37-5.13-13.99-7.81l-.58-1.5c-1.47-2.74-1.33-6.05.13-8.24,5.15,3.09,10.41,6.06,15.44,9.89l.13,5.74Z"/>
            <path class="cls-258" d="M134.15,425.22c.02,1,.13,2.01.15,3.01.58,2.39-.24,2.33-2.3,1.44-.27,1.53-2.79,1.55-4.28,1.52-4.3-.08-11.23-2.98-9.92-8.11-1.68-.16-1.41-1.16-.37-2.29.18-1.51.38-2.37,1.03-2.94,2.84-.76,15.63,10.41,15.69,7.38Z"/>
            <path class="cls-35" d="M132,429.67c1.53-.81,3.03-.49,2.62,1.27-.79,3.38-11.21,3.05-13.88,1.86-2.57-.25-3.25-2-4.33-3.22-1.03-2.17-1.77-7.19,1.4-6.5,2.04,5.8,8.94,7.38,14.2,6.59Z"/>
            <path class="cls-82" d="M120.74,432.79c2.17-1.9,5.85,1.95,12.76-2.18-.26-.92-1.06-.91-1.5-.94.88-.13,1.51-1.23,2.3-1.44,1.3-.34,2.44-.91,3.14-2.14.95,1.96-.05,3.96-1.51,5.45-3.99,4.1-10.87,4.68-15.19,1.24Z"/>
            <path class="cls-226" d="M117.43,420.78c.13.75.12,1.57.37,2.29-1.77.58-.29,4.74-1.4,6.5-1.51-1.69-2.87-2.75-2-5.07.47-1.26,1.47-3.03,3.02-3.71Z"/>
          </g>
        </g>
      </g>
      <path class="cls-40" d="M257.25,356.17c-1.84,2.29-3.8,4.49-5.83,6.62l-13.81,14.56c-1.28,1.35-3.05,2.22-4.28,3.73-1.63.35-2.43-1.08-3.07-2.38l25.42-26.82c.73,1.35,1.19,2.77,1.57,4.29Z"/>
      <path class="cls-223" d="M38.02,437.07c-.42-.27-1.78-.26-2.03.07-.21-.36-1.16-.43-1-.87.18-.5.75-.89.86-1.38,1.06-4.85-.59-9.07-1.99-13.42,4.53,4.37,4.18,10.28,4.17,15.59Z"/>
    </g>
    <path class="cls-137" d="M294,291.06c5.52-.09,11.1-.22,16.98.34,12.01,1.15,23.36,6.07,32.25,13.99,2.68,2.39,3,5.74,1.4,8.58-.96,1.72-2.55,2.58-3.61,3.82-1.51,2.08-4.58,2.61-7.81,2.56-4.66-3.14-10.27-5.04-15.97-6.47-1.59-.05-3.08,1.52-4.52,1.26-12.49-7.73-12.71-2.75-25.52-5.25-2.66.17-5.1-.96-7.32-3.4-2.41-1.68-3.11-3.33-2.11-4.94-1.06-5.98,1.77-8.74,7.39-10.68,2.33-.8,7.82-2.38,8.84.19Z"/>
    <path class="cls-138" d="M358.33,324.83c.13,1.54-.55,2.95-1.5,4.13-3.61-2.66-6.25-2.48-5.05-5.01.39-.81.42-2.03.74-2.87,1.79-2.33,3.48,2.89,5.8,3.76Z"/>
    <path class="cls-221" d="M341.02,317.78l-1.26,4.01c-2.02-.82-4.56-.11-6.55-1.44-1.18-.27,9.88-4.08,7.81-2.56Z"/>
    <g>
      <path class="cls-186" d="M51.75,375l-1.55,2.38c-6.82,3.72-13.35,7.91-19.58,12.57.82.51,1.56,1.12,2.23,1.83,2.31.06,5.76,1.74,6.02,4.15.91,2.26,2.12,9.88-1.59,9.09l-11.92-6.9c-.33.93-1.13.64-2.09.21-2.29.77-5.42,2.82-7.69,4.8,12.38,7.54,12.54,9.72,11.03,24.5l-9.43-6.14c3.56-9.79-7.87-14.26-15.76-14.99l-1.43-1.49v-4.5l1.44-1.35c3.61,0,7.06.56,10.32,1.67,1.61-1.67,3.36-3.35,5.24-5.04l1.73.15c-.32-1.94.49-2.5,2.19-1.5.06-1.38,1.09-2.47,3.09-3.26,1.12-1.52,2.32-2.15,3.59-1.86.72-1.35,2.02-2.54,3.56-3.51l18.42-11.52c.92-.58,1.98.13,2.16.71Z"/>
      <path class="cls-112" d="M27.61,389.31c-1.32,2.48-4.08,4.32-6.69,5.13-.55.08-1.09.13-1.61.05-1.69-.24-15.31-8.4-17.85-10.13l-1.46-2.61v-7.5c8.36,3.36,19.15,11.28,27.61,15.06Z"/>
      <path class="cls-51" d="M20.92,394.44c-.48.63-1.41,1.29-2.19,1.5l-18.74-10.43v-3.75c6.98,4.23,14.43,7.78,20.92,12.69Z"/>
      <path class="cls-82" d="M88.6,424.43c3.44,1.95,6.56,5.05,10.59,6.67,1.76.71,2.2,2.89,1.25,3.91-5.58,4.46-11.26,8.95-17.04,13.47l-.74-.11c-2.4-.9-4.83-2.41-7.35-3.68,3.24-3.59,7.54-5.35,10.17-8.98l-.34-1.87c-15.28-8.97-30.35-18.23-45.21-27.79l.48-1.8c.33-2.48,4.05-5.35,6.16-3.7l42.03,23.89Z"/>
      <path class="cls-2" d="M51.75,375c.64,6.93.59,14.13-.05,20.99-1.61.63-3.67,3.67-5.13,4.55l-6.16,3.7c-.49-.09-.87-.19-.88-.33-.38-3.54.13-8.83.65-12.42.04-.25-.04,4.74-1.29,4.43-1.33-1.01-1.76-2.67-1.26-4.96-1.93,1.55-3.52,1.82-4.76.81-1.45.97-3.56-.22-4.08-2.33,7.24-5.02,14.82-10.85,22.97-14.45Z"/>
      <path class="cls-237" d="M51.7,395.99l.05-20.99c1.87,6.11.05,12.79.9,19.54.1.79-.61,1.32-.95,1.45Z"/>
      <path class="cls-123" d="M40.41,404.24c1.93,4.25,47.57,27.22,46.99,30.06-.2,1-1.55.89-1.92,1.4l-60.68-36.03c-.81-.48-1.25-.83-1.52-1.35.63-.43,1.33-2.31,2.9-1.41l12.43,7.13c1.04-2.83-.18-5.64.27-8.12.2-1.12,1.29-2.7,1.29-4.43l.24,12.75Z"/>
      <path class="cls-101" d="M38.88,395.93c-2.14-1.16-4.89-1.89-6.02-4.15l5.98-3.14c.72,2.75,0,5,.04,7.3Z"/>
    </g>
    <path class="cls-37" d="M177.67,235.5c.63.27.59.52-.07.75l-1.1,2.02-7.22,3.56c5.35,1.94,10.7,3.84,16.04,5.68.33-.51.84-1.26,1.28-1.16,4.36,1.02,11.95,3.5,16.07,5.23l.56,1.76c2.92-.47,2.74,3.62.05,3.91l-33.84-10.59c-2.27.62-4.7.31-7.28-.92-1.88.23-3.22-.14-4.05-1.12l.22-4.47c1-.86,2.52-1.37,4.55-1.51l9.31-4.42,2.46.45c.24-2.56,3.25-1.5,3,.84Z"/>
    <path class="cls-230" d="M168.85,231.79c1.2-2.34,6.39.46,5.81,2.86l-10.1,4.87c-2.17,1.05-4.18,1.54-6.22.61.31-6.13,1.75-5.63-3.65-11.47,4.9-.55,9.19,2.98,14.16,3.13Z"/>
    <path class="cls-218" d="M169.45,246.65c-3.39,2.64-7.73,3.66-11.72,5.73-.59-2.02,0-3.13-.24-4.32s.58-2.35.63-3.45c4.1-1.5,7.09.72,11.33,2.05Z"/>
    <g>
      <path class="cls-265" d="M360,253.5c-1.28,11.89-6.25,23.03-11.48,33.67l-1.65.54-12.88-11.6-15.78-8.04-.28-1.83,1.16-2.15,13.91-6.08,2.31.19c-.97-1.74.36-2.99,2.18-2.41l2.05-5.89c6.24-9.57,12.48-19.13,18.71-28.67l1.75.07v32.2Z"/>
      <path class="cls-244" d="M360,204.24v12.29c-1.28,2.53-5.12,3.37-7.43,1.78l-10.02.85c-1.37-.08-2.12-.28-3.4-.7-1.37-.46-21.34-15.05-21.8-16.33-.22-.6.31-1.26.86-1.74,23.1-1.4,19.79-3.59,41.8,3.86Z"/>
      <path class="cls-158" d="M360,216.53v4.77l-22.51,34.5c-.35-.39-.68-.79-.92-1.24-1.11-2.07,4.02-25.44,5.15-29.78l1.76-2.16c-.78-.52-.56-1.11.64-1.76-.13-3.14,5.85-2.98,8.44-2.55,2.43-.74,4.96-1.22,7.43-1.78Z"/>
      <path class="cls-116" d="M352.57,218.3l-8.44,2.55c-1.68,1.15-3.47,2.23-5.37,3.22-11.87,3.66-23.72,7.32-35.57,10.97l-1.76-1.03c.18.55.34,1.43,0,1.58-7.8,3.5-18.9,6.7-27.24,7.62-1.63,1.51-4.87.6-4.64-1.8,1.05-3.77,2.09-7.62,3.98-11.35,10.16-6.09,19.48-12.64,27.89-20.99l16.78-8.71c-.06.91.78,1.2,1.56,1.79l18.42,13.93c5.59,4.23,7.34-1.92,14.39,2.2Z"/>
      <path class="cls-181" d="M274.2,243.23c1.05.12.99.17.06.63.1,2.15-2.09,4.18-4.23,3.56-.37-.25-1.06.06-1.48,0,.22-2.01.46-4.03,1-5.99l4.64,1.8Z"/>
      <path class="cls-185" d="M343.49,222.62c-1.13,11.01-5.41,22.49-6,33.18-.73,1.12-1,1.63-2.18,2.41l-2.85.34-14.91-6.87-.35-1.81c-1.15-.61-1.68-1.28-1.58-2.03,2.3-4.09,26.53-28.42,27.9-26.21.14.23.08.59-.04.99Z"/>
      <path class="cls-65" d="M306.58,245.76c1.57-2.27,8.15.83,10.15,2.22l.48,1.88,18.1,8.34c-5.3,3.46-11.57,5.4-17.38,8.04-7.2-3.68-4.54-.64-9.6-14.15-.43-.93-.74-1.14-.93-.63-7.54-3.5-14.29-3.17-21.92-.35l-1.28-1.34c.14-2.51,2.21-3.91,6.19-4.2,4.62-1.86,11.65-1.87,16.19.19Z"/>
      <path class="cls-85" d="M343.49,222.62c.03-.66-.52-.5-.98-.08-9.15,8.21-17.64,16.68-25.6,25.93-.36.42.29,1.21.31,1.4-3.3-1.52-7.06-3.51-10.63-4.1l-1.76-.45c-1.74-3.77-2.87-7.53-3.39-11.29l42.69-13.17c.09.64-.59,1.19-.64,1.76Z"/>
      <path class="cls-33" d="M301.44,234.02c1.09.02,1.27,1.04,1.66,2.11l3.48,9.64c-5.38.27-10.79.32-16.19-.19-1.28.76-2.76,1.34-3.14-.45-3.85.03-7.7.07-11.56.12l-1.43-1.39c-.45-.16-.44-.37-.06-.63l27.24-9.21Z"/>
    </g>
    <path class="cls-259" d="M260.98,251.94c-.93,1.74-2.28,2.86-4.18,4.01l-16.74,10.12c-2.54-1.4-1.2-8.9,2.28-8.03,5.95-3.44,11.33-6.72,12.67-14.34l5.41-30.77c5.11,3.02,1.31,9.67,2.81,12.17,1.15,1.93,2.01,3.48,1.58,5.86l-3.82,20.97Z"/>
    <path class="cls-259" d="M201.64,153.64c-.6,1.49-1.21,3.26-2.03,4.69,1.72,1.75.04,3.75-2.26,2.82-2.55,1.8-8.71.17-10.57-2.24-1.07-1.14-.71-2.7-.13-4.5,2.67-8.29,4.02-17.79,7.64-25.33l.39,3.25,6.95,21.3Z"/>
    <path class="cls-15" d="M273.65,254.24c-5.41,2.36-10.41,5.69-15.63,8.32l-1.17,2.24c-5.27,2.22-10.36,4.78-15.27,7.68l-2.49-.1c-.01,2.16-1.22,2.78-2.96,1.5-.8,2.11-1.75,3.38-3.59,1.51-1.23-.64-1.22-1.2.02-1.69l39.62-23.08c.05-.67.27-.65.63-.02,2.15-.04,2.05,2.42.83,3.65Z"/>
    <path class="cls-75" d="M232.56,273.7c.68.38.25,1.15-.02,1.69l.17,1.63-13.08,7.46c-1.46,1.78-2.59,3.83-3.39,6.14l-1.87.3c-.2.41-.42.78-.75.98-.56.36-4.41-3.27-5.16-4.01-.63-.09-.59-.27.05-.52.07-2.11,1.49-3.73,4.26-4.86,6-3.18,12.08-6.12,18.24-8.83.4.22,1.11-.17,1.55.02Z"/>
    <path class="cls-182" d="M231.01,273.68c-6.28,4.72-16.32,8.41-22.5,13.69-1.58,2.24-4.48-.15-2.95-2.45l7.55-4.35c3.64.08,14.78-8.55,17.9-6.89Z"/>
    <path class="cls-110" d="M236.19,268.41c-.44-.01-1.09.52-1.81.25-4.33-1.61-8.51-2.5-12.52-4.49,3.14-.13,5.38.07,7.7-.8,2.16-.81,4.52-1.17,6.61-2.24,1.48,2.26-.3,4.82.01,7.28Z"/>
    <path class="cls-219" d="M287.25,245.12c.05,1.34-1.06,1.87-3.31,1.59l-9.51,4.75-1.62-.87c-.17.09-.43-.02-.63.02-.33-1.26-1.04-2.47-2.15-3.2,1.04-1.27,2.67-2.92,4.23-3.56,4.28-.51,8.81.58,12.99,1.27Z"/>
    <path class="cls-103" d="M218.27,321.88c1.17,5.31,5.12,3.55,12,5.27-.91,4.69-.1,9.03,2.92,12.75-10.27-2.9-20.5-7.28-29.99-11.9,7.71-5.53,3.79-7.2,15.07-6.12Z"/>
    <path class="cls-207" d="M279.82,333.74l2.62,6.32c.22.54-.1,1.04-.52,1.08-3.78-5.62-5.66,4.24-13.35-2.89-1.79-1.33,11.53-4.62,11.25-4.51Z"/>
    <path class="cls-63" d="M277.77,301.54c2.03,3.82,5.94,5.92,9.44,8.34-4.27,2.38-7.8.78-12.56,3.78-2.36-1.86-5.16-4.83-5.03-8.28.16-4.25,4.08-6.99,7.58-8.29.4,1.73-.09,3.18.58,4.44Z"/>
    <path class="cls-189" d="M260.89,264.73c5.19,8.53,9.54,17.59,14.3,26.4-2.73,3.26-7.22,4.3-11.34,7.06-4.48-4.73-9.38-7.58-15.47-9.58-2.02-4.52-4.1-8.84-5.51-13.31l-.86-2.12c-.06-.96,15.47-8.79,16.8-9.08.87-.19,1.47-.18,2.09.62Z"/>
    <path class="cls-154" d="M308.32,252.09c-18.4,6.48-7.1,4.18-23.1,1.19-1.58-.3-2.39-2.7-4.03-2.03-.94-2.18,1.59-3.45,3-1.47,3.95-.36,7.78-2.68,12.04-2.57.67.02,16.02,2.26,12.08,4.9Z"/>
    <g>
      <path class="cls-144" d="M281.2,251.25l2.72-.5c3.88,1.49,7.9,2.82,12.07,4.01l10.49-3.6,1.85.94,1.87.72,3.48,9.37c2.6,1.17,4.02,2.52,4.26,4.07l16.91,8.65,13.67,12.28c-.56.91-.58,2.33-1.13,3.25l7.33,23.86c-.53,2.32-1.33,4.57-2.19,6.79,2.03.85,1.41,2.83-.74,2.87.17,3.1-10.92-1.71-12.02-2.16-2.24-.87-.75-3.77,1.26-4.01l-.34-1.8c4.65-3.61,4.57-7.5-.16-10.94-13.79-10.03-26.77-13.69-43.95-12.53l-2.58-1.46c-1.24-1.72-.21-2.26,3.1-1.63.73-1.97,1.18-2.03,2.24-.14l1.21-2.81,11.39-10.17c.13-2.9.94-4.48,2.41-4.75-.04-1.26-.82-2.49-2.33-3.69-4.04,3.81-8.35,7.17-12.94,10.1l-31.13-9.36c1.09,1.24,1.1,2.27.02,3.1,2.6,2.07,6.46,7.18,5.14,10.3,2.89.81,6.28,7.84,4.32,9.93-1.05,1.12-2.01.69-2.25-.81-.65-.39-1.27-.8-1.83-1.3-2.75-2.43-9.61-16.4-11.73-20.92-.61-1.3-.71-2.77-.74-4.19-1.63.94-2.5-.75-2.88-2.18,1.77-3.4,7.03-5.9,10.68-7.59,1.6-1.05,3.12-1.6,4.95-.73.17-2.56,5.57-4.36,7.56-2.99Z"/>
      <path class="cls-56" d="M299.91,281.92c2.31,2,1.11,5.24-.57,7.37-.69-.11-1.57.35-2.24.14-7.96-2.54-15.84-5.54-23.98-7.41-1.7-3.48-4.04-6.57-5.14-10.3l1.11-1.22c10.14,3.24,20.28,6.47,30.42,9.71l.4,1.7Z"/>
      <path class="cls-72" d="M314.36,271.56c-2.53,0-.55-.78-.57-.66-.19,1.12-10.41,10.21-12.07,11.42l-1.8-.41-31.93-10.2c-.51-1.72-2.97-3.18-2.75-5.51l34.03,10.4,11.9-9.86c1.23-1.02,2.5.65,3.17,1.32,1.21,1.22.56,2.34.04,3.48Z"/>
      <path class="cls-167" d="M314.36,271.56c-.73,1.61.05,4.52-1.57,6.03-4.47,4.17-8.74,8.27-13.44,11.7-.03-2.47.31-4.92.57-7.37l13.64-12.14c.96.26.73,1.18.81,1.78Z"/>
    </g>
    <path class="cls-206" d="M258.02,262.56c2.04.15,2.09.89,2.88,2.18l-16.48,8.32c-1.06.53-1.59,1.29-1.55,2.26-.26-.83-1.3-1.6-2.29-2.69-1.04.91-.43,1.85-.54,2.63-.22.66-.48.65-.78,0-2.13-.31-1.75-1.95-.16-2.87,5.74-4.21,12.63-6.65,18.93-9.82Z"/>
    <path class="cls-57" d="M287.25,245.12c1.03-.19,2.13.36,3.14.45-1.5,2.14-4.41,2.39-6.19,4.2-1.22.11-2.02.94-3,1.47-2.38,1.3-5.13,1.94-7.56,2.99-.96-.94-.66-2.41-.83-3.65l10.23-5.13c1.33-.67,3.02-.12,4.2-.34Z"/>
    <path class="cls-202" d="M198.11,267.76c-.74,1.77-2.91,1.58-4.61,1.43l-.31.98c-2.38.72-3.8,2.13-4.28,4.25.19,4.14-1.07,5.42-3.79,3.84-6.99-1.04-13.89-2.84-20.94-3.12l-4.69-13.87c-.38-1.14-.92-2.12-1.85-2.44.04-.64-.41-1.35.14-2.56l33.53,11.18c2.35.78,4.74.07,6.8.32Z"/>
    <path class="cls-144" d="M205.48,243.57c2.01.4,1.91,1.1.04,1.89-.77,2.65-.09,6.03-2.28,7.87l-17.92-5.83c-4.29-.42-7.08-2.15-8.37-5.18-1.03-2.68-.81-4.71.64-6.08-.05-.24.09-.5.07-.75,9.47,1.78,18.52,5.45,27.81,8.08Z"/>
    <path class="cls-204" d="M177.6,236.24c.52,2.77.1,6.56,2.62,8.78,1.27,1.04,3.69,2.02,5.11,2.48-6.68-.59-13.23-2.85-19.63-5.5,4.39-2.45,7.99-4.35,11.9-5.76Z"/>
    <path class="cls-191" d="M236.13,273.88l1.31,1.43c-.73,3.05-1.18,6.12-1.35,9.23l-1.42,1.22c.67.14.69.39.08.75-3.06.14-6.44.4-8.62,3.3-1.2,1.59-.89,3.86-.38,5.52,1.07,1.89,1.06,2.96-.03,3.2.24,2.81-7.15,3.01-6.65.02.5.21-6.02-5.48-4.69-7.61s2.17-5.88,4.4-7.65l13.77-7.87c1.08-.62,2.71-.76,3.59-1.51Z"/>
    <path class="cls-162" d="M239.09,272.38c.48.92.13,1.91.16,2.87,2.02,4.5,2.06,13.15-4.58,10.5-.44-3.93.97-7.92,1.47-11.87.89-.76,2.12-1.01,2.96-1.5Z"/>
    <path class="cls-253" d="M221.23,312.82c-.66.77-1.26,1.43-1.65,2.41-.81,2.76-7.65,2.08-7.29-.93.65-2.49,3.13-4.04,3.43-6.66.86-.59,1.39-1.62,2.49-2.47,2.76,2.1,4.58,4.48,6.62,6.62-2.09.16-2.88.2-3.59,1.02Z"/>
    <g>
      <path class="cls-126" d="M280.38,324.75l-13.31,7.47-28.57-3.88c-1.41-.19-3.95-.82-5.25-.68-.27,2.37-2.75,1.74-2.98-.52-.83,1.68-6.5.81-8.13.25-2.77-.96-6.55-2.67-3.87-5.51-1.08-1.13-.59-1.58.8-1.88,1.47-1.47,3.44-1.95,5.9-1.44l53.39,3.47c1.98.1,3.39.89,2.03,2.73Z"/>
      <path class="cls-267" d="M231,312.79c3.52-1.68,10.58-1.32,13.53,1.29l2-1.31c3.75.37,7.49.74,11.23,1.11.57,1.08,1.93,1.71,4.08,1.91l11.16.88c1.33.1,2.69.36,4.6.11,2.51-.33,11.89,2.3,11.91,2.34.19.35-.04.89-.35,1.13-.23.18-.86-.08-1.16.08-2.21-.11-3.21.35-2.99,1.38-1.24,1.52-2.98,2.13-4.63,3.05-.23-.47-.71-1.13-1.62-1.2l-47.67-3.18c-4.29-.29-8.17-.44-12.02-.38-.23,0-.46-.01-.68,0-2.02-1.2-1.14-4.52,1.2-4.77-1.7-1.62-.63-2.92,1.65-2.41,1.94-.09,3.17-.61,3.69-1.54,2.58-.65,4.61-.15,6.07,1.51Z"/>
      <path class="cls-151" d="M288,320.33c-.55,1.05-2.2.93-2.99,1.38-1.61-2.18-4.46-2.13-6.83-3.56,3.6.1,7.02.77,9.82,2.19Z"/>
      <path class="cls-251" d="M212.29,314.3c2.2,1.13,4.86,1.24,7.29.93-.62,1.54-.68,3.2-1.2,4.77-4.43.49-8.67-.32-13.83-.49,2.33-2.67,4.73-4.62,7.74-5.22Z"/>
    </g>
    <g>
      <path class="cls-257" d="M248.06,308.97c2.1,1.4-1.26,5.16-3.53,5.12-4.53-.45-9.05-.48-13.53-1.29-6.04-10.57-3.24-5.26-5.29-14.28-.22-.98.35-2.14.03-3.2,4.53,7.4,14.23,11.61,22.31,13.65Z"/>
      <g>
        <path class="cls-147" d="M242.87,275.31l2.17,1.71,4.33,10.58c5.63,1.32,10.57,4.75,14.75,8.66,3.31-1.52,6.42-3.33,9.31-5.42l1.76.3c3.82,1.46-1.12-7.18-2.07-9.11.58-.26,1.16-.48,1.77-.61,2.72-.56,16.19,4.08,19.7,5.62,1.08.47,1.83,1.47,2.51,2.4-1.18.22-2.51.49-3.1,1.63-7.55.12-15.72,2.31-16.23,10.48-1.63-.02-1.87-.75-2.04-2.13-5.68,2.89-5.99,8.26-1.19,12.2l.11,2.05c.07.66.33,1.33.28,2-.05.84-1.26.81-1.93,1-.12.57-.33,1.39-.76,1.44-1.39.17-5.1-.28-6.65-.52-2.12.26-3.37-.34-3.74-1.8-1.39-.48-2.85-.72-4.39-.73-.24-1.3.32-2.66,1.67-4.1l-4.38.4c-3.43.4-5.66-.4-6.69-2.4-.52.5-1.1,1.04-1.8,1.07-4.53.23-20.88-8.47-20.51-14.72-2.78.13-2.12-3.55-1.27-5.68,1.16-2.91,8.1-6.33,10.28-3.14,1.83-.08,3.15-.57,3.95-1.44,1.55.37,2.79.33,3.73-.13-1.75-3.19-2.56-6.42-2.4-9.68-1.75-4.27,3.85-5.01,2.83.06Z"/>
        <path class="cls-78" d="M263.48,304.57c-4.6,10.89-39.22-3.77-36.17-12.22.44-1.23,2.19-2.95,4.2-3.32,16.83-3.13,34.91,8.58,31.97,15.54Z"/>
        <path class="cls-150" d="M261.84,315.79l-17.31-1.71,3.53-5.12c4.58,1.16,9.46,1.38,14.18-.45-.77,2.65-2.54,4.26-4.14,6.32,1.48.36,3.16-.22,3.75.96Z"/>
        <path class="cls-261" d="M234.75,286.5l-.08-.75c1.09-.02,2.14.15,3.57-.11.32-3.7,1.11-7.01,1.01-10.4h.78l5.06,12.15c-3.75-.65-6.98-1.05-10.34-.9Z"/>
      </g>
    </g>
    <g>
      <path class="cls-19" d="M107.3,339.74c-2.52,1.57-4.83,3.32-6.95,5.24l-.42,10-.94.44c-2.33.33-3.95-1.77-6.04-2.45l-1.41-1.45c.47-7.47.95-14.94,1.42-22.4l1.58-1.26c.4-.07.92-1.08,1.67-.37,4.25,4.03,8.86,6.9,13.95,10.13-1.14.67-1.93,1.73-2.88,2.11Z"/>
      <path class="cls-55" d="M112.57,354.72c1.68,1.48,1.51,7.28-1.42,6.79-.76-.59-3.01.03-3.06-1.68l-.12-4.39.29-4.26c1.44,1.07,3.03,2.36,4.31,3.54Z"/>
      <path class="cls-197" d="M164.09,352.68c1.12.87.92,1.41-.52,1.29.48.99.06,2.02-1.26,3.09l11.35,4.17,1.12,1.76c-1.52,1.83-3.52,2.81-5.35,4.25-7.62,2.3-16.23,2.17-24.34,2.02-8.33-.15-16.3-.72-24.22-2.62-3.28-1.59-6.84-2.87-9.73-5.14,1.55-1.93.14-4.67,1.42-6.79,17.14,7.79,35.55,9.29,51.52-2.04Z"/>
      <path class="cls-193" d="M169.44,367.24l-15.64,12.34c-1.49,1.17-2.83,1.67-4.68.77l-28.24-13.71c.07-.38.69-.84,1.48-.72,15.2,2.28,30.29,2.33,45.6.89.75-.07,1.22.08,1.48.43Z"/>
      <path class="cls-93" d="M179.08,355.5c-.63.78-1.15,2.55-.84,3.6-.26.53-.71,1.29-1.13,1.2-1.31-.29-12.56-4.05-13.02-4.56s-.53-1.14-.52-1.77c.23-.33.21-1.03.52-1.29,2.44-1.7,1.46-4.89,1.65-7.59,1.97,0,3.9-1.41,6.29-1.13,1.99.23,5.92,1.53,6.96,3.4,1.44,2.58-.64,5.73.08,8.13Z"/>
      <path class="cls-89" d="M178.25,359.1c.74,2.53-2.3,2.5-3.45,3.89-5.19-.87-9.79-3.69-15.27-5.26,1.22-2.03,2.64-2.78,4.06-3.77l14.67,5.13Z"/>
      <g>
        <path class="cls-196" d="M102.77,317.21l3.57,1.83c6.31,7.28,12.62,14.56,18.93,21.85l-.55,1.66c-1.67,2.66-6.08.46-7.64-1.78-.21,1.9-3.5,4.4-5.17,2.89-.12,1.3-.82,2.6-2.1,3.9-.01,1.75-.54,2.96-1.56,3.61,1.24,1.58,2.39,3.65-.29,4.26-.48,2.03-.47,3.99.02,5.88-1.54.78-2.49,1.57-2.84,2.37l47.01,23.21.14,1.74c.71.97.45,2.05-.82,1.43l-63.76-30.73c-10.65-5.13-21.29-10.63-31.4-16.57-.87-1.71-.29-2.74,1.63-2.7l39.85,19.84c.59.43.95,1.17,1.08,2.21.85-.34,1.07-.19.65.45l.99-18.07,6.79-4.75.18-2.05-12.93-9.83-.61,1.61-8.86,5.12-1.72-.77c-2.78,3.98-9.5,7.15-14.34,7.31-1.84,2.68-3.69.1-2.32-3.04l17.26-9.89c-.26-2.1.25-3.7,1.54-4.8.18-2.18.32-4.6,2.17-6.19-.47-2.04-2.12-3.06-2.89-4.51-1.05-1.97-1.8-4.16-3.07-6.03-.04-.71.53-1.75.89-1.57,2.17,1.09,19.74,10.05,20.14,11.13.11.29.09.62.04.96Z"/>
        <path class="cls-3" d="M69.02,341.15l2.66-.12,14,6.77,1.36,2.34c1.84-1.52,5.74.57,5.92,2.84,1.29-2.08,5.1.71,6.04,2.45,1.45,1.45,1.25,5.16-.12,6.68l-42.21-21.01c-.6.26-.4,1.18-.34,1.66-1.73-1.02-.15-3.72,1.42-4.56l27.76-14.8c-.14,1.75.28,3.55-.21,5.73l-17.18,9.71c-.76.43-.84,1.19-.44,1.82.21.34.91.18,1.35.47Z"/>
        <path class="cls-17" d="M111.15,361.51c2.78-.52,9.03,2.31,9.73,5.14,2.06.05,4.17.52,6.32,1.4l23.67,11.28c5.16-3.34,10.14-7.04,14.94-11.09,1.22-.59,2.43-.93,3.64-1-.78-2.63,3.04-4.16,5.35-4.25-.19-1.66.96-2.96,3.45-3.89-2.4-.96-1.81-4.27.84-3.6,1.5.1,1.97,1.33,1.4,3.7,3.05,1.1,4.7,2.64,4.94,4.62l-26.31,21.22c.03-.85.23-.75.6.28-.4.32-.43,1.1-1.25.81l-1.21,1.19c-1.59-.64-2.98-.2-4.19,1.32-.23-.05-.57.12-.78.01l-50.52-24.94c8.41-6.4,3.54.25,6.19-8.27,1.44-.05,1.97,1.25,1.61,3.89,1.11.39,1.64,1.12,1.58,2.18Z"/>
        <path class="cls-212" d="M162.72,345.73c-.05-2.21,1.9-2.53,3.02-.64,2.79,1.35,1.96,8.9-1.65,7.59-4.58,5.03-9.31,7.24-16.01,8.69-10.21,2.21-24.81.4-34.12-4.4l-1.4-2.25c-2.48,1.12-3.97-1.26-4.31-3.54-.78-3.52.43-6.02,3.66-7.52.83,4.71,3.35,8.27,7.97,10.48,10.65,5.1,30.78,6.01,40.25-2.7,1.71-1.57,2.84-3.63,2.58-5.71Z"/>
        <path class="cls-109" d="M94.55,327.87l-1.59,25.11c-2.14-.7-3.97-1.85-5.92-2.84-1.92-4.82-3.53-9.76-4.81-14.84l1.13-1.46c2.95-1.47,8.05-5.45,11.19-5.96Z"/>
        <path class="cls-71" d="M87.04,350.14c-5.98-3.04-12.42-5.32-18.02-8.99,4.63-2.73,9.57-4.93,14.34-7.31l4.56,15.56c-.19.5-.58.97-.88.75Z"/>
        <path class="cls-205" d="M107.3,339.74c-.77,2.27-4.33,2.97-5.73,4.74-1.39.59.32,24.69-2.69,17.64.11-2.33.04-4.44.12-6.68l.43-11.12c2.53-1.66,5.16-3.48,7.87-4.56Z"/>
        <path class="cls-113" d="M208.45,344.33c-6.36,3.73-12.06,10.14-19.14,14.77-3.35-4.65,1.03-9.56.3-14.1,2.13-1.58,2.5.9,2.48,2.85,1.66-1.99,3.36-2.93,5.12-2.84,6.18-1.9-6.19-4.71-8.33-6.95,1.22-1.4,2.74-1.74,3.97-2.62l13.92,6.01c1.39.6,1.99,1.6,1.68,2.9Z"/>
        <path class="cls-86" d="M158.47,386.13c.67,2.2.4,4.58,1.31,6.73,1.18,1.61,1.05,4.59-1.01,5.4-.99,1.88-4.07,1.9-5-.05-.15-3.2-.14-6.43-.69-9.58-.15-.86.13-1.8.13-3,1.97-.32,3.67-.08,5.27.5Z"/>
        <path class="cls-99" d="M162.94,404.34c-1.05.59-2.13,1.13-3.31,1.41-2.82,2.3-3.58-7.03-.86-7.48.09-1.85-.13-3.88,1.01-5.4,2.28.62,4.24,2.48,4.94,4.42.95,2.62-1.35,4.87-1.78,7.05Z"/>
        <path class="cls-69" d="M158.77,398.26c0,.06-.27,8.99.86,7.48-.82,2.46-3.87,2.09-6.05,1.46-.57-2.98.32-6.02.18-8.99,1.66-.22,3.35-.27,5,.05Z"/>
        <path class="cls-9" d="M197.21,345c-1.74,2.23-4.28,4.3-7.12,5.98.04-3.13,1.31-4.7-.48-5.98-2.35-1.68-5.15-2.23-8.01-3.95,2.09-3.59,12.6,2.97,15.61,3.95Z"/>
      </g>
      <g>
        <path class="cls-202" d="M154.47,246.75c1.3.79,1.36,1.63-.08,2.19l-.46,7.56c.88.57,1.63,1.71,2.27,3.42-.27,1.45,2,4.4-.21,5.51l-7.26-5.38c-.68-3.72-1.66-7.05-1.56-10.43.61-2.62,5.74-5.61,7.31-2.87Z"/>
        <path class="cls-91" d="M156.74,248.07c.19,4,.42,7.97-.54,11.85-.44.18-1.73.56-2.01.11-.32-1.33-.23-2.48-.26-3.54l.46-7.56c.04-.73-.02-1.46.08-2.19-.65-.16-.6-.36.08-.59.82.52,1.57,1.16,2.19,1.91Z"/>
        <g>
          <path class="cls-200" d="M141.73,227.99c.6.76,1.02,1.14,1.97.38,3.11,1.03,5.25,2.61,6.42,4.73.88-2.32,2.2-3.84,3.95-4.57.24-.63.44-.57.62.12,3.53.79,5.39,3.28,5.55,6.82.08,1.7.02,4.61-1.9,4.65,2.31.28,1.87,3.92-.22,4.47,2.18.6,1.29,3-.63,3.45-.2.66-.45.65-.75.02-1.23.72-1.96.09-2.19-1.91-1.48,0-3.03-.73-4.65-2.22-.46,2.35-1.37,4.24-2.73,5.68l1.51,1.2,1.3,8.53c2.53,1.27,4.61,2.94,6.23,4.99l-.21,1.09c.64-.81,1.15-.54,1.53.82.59.13,1.47.33,1.54.78.28,1.71.86,12.74.16,13.54-.23.26-.59.42-.97.54l-1.45.8-37.17-27.3-1.69,1.15c.81,10.22-.39,22.1-2.15,32.29l-1.59.71c-1.25-.63-2.23-.47-2.94.49l-1.58-.68c-.26.29-.52.53-.83.6-.85.21-8.21-6.34-9.26-7.53l.21-1.82c-.82-2.89.79-6.91-.84-9.82l-9.25-16.48,6.34-22.21c3.2,3.81,3.17,7.54,5.4,11.07l7.53-4.66-.49,11.53c4.38-3.29,8.22-6.34,11.94-9.95l-14.1-17.6c-3.2-3.99-4.68-8.97-6.76-13.87l29.04,12.2c1.21-2.85,1.18-4.99,2.42-7.09,4.03,5.21,6.74,10.57,10.7,15.06Z"/>
          <path class="cls-146" d="M158.24,281.1c1.88-1.64,6.47,2.49,6.26,4.51-5.66,9.31-11.55,18.45-17.67,27.42-1.15.83-12.54.02-13.4-2.51-1.96-.16-2.65-2.47-.99-3.66l-1.75-.67c-4.08-14.34-8.16-28.72-12.21-43.13l-.54-7.31c.14-1.22-.51-2.6.45-3.92l39.86,29.27Z"/>
          <path class="cls-139" d="M132.44,306.86c.08.61-.05,1.48-.47,1.5-3.68.2-8.81.43-11.98-.92-2.81,1.2-8.06-4.03-7.55-6.88-.35-3.47-.3-7.07.15-10.81l1.6-1.01,3.74-33,14.51,51.11Z"/>
          <path class="cls-227" d="M114.19,288.75c-.44,3.91-.05,8.15-1.75,11.81-1.53,1.53-2.66.27-1.61-1.53-.33-2.55,1.2-8.4-1.16-10.48.86-.5,1.53-1.63,2.87-1.82s1.55,1.23,1.64,2.02Z"/>
          <path class="cls-47" d="M154.55,246.16l-.08.59c-2.67.09-4.86,1.9-7.31,2.87.07-2.71.78-5.37,1.7-7.86,2.6,1.22,4.62,2.31,5.68,4.4Z"/>
          <path class="cls-106" d="M132.44,306.86c.34,1.2,1.14,2.32.99,3.66-3.03-.33-6.63,1.29-9.64,1.6.96,3.28,2.24,4.99,2.26,7.38-1.63-.12-3.3.28-5.15-.17-.33-.21-.09-1.05-.06-1.32.32-2.63-.7-7.7-.84-10.56,1.71-.92,3.78-.55,6.03-.56l6.42-.02Z"/>
        </g>
        <path class="cls-47" d="M153.93,256.5c-.07-2.52-.86-5.36.46-7.56-.13,2.51.83,5.35-.46,7.56Z"/>
        <g>
          <path class="cls-104" d="M164.18,275.14c2.11-.24,3.57,7.07,3.37,8.55s-7.02,13.93-8.3,15.98l-1.84.26.81,1.58c-2.71,3.55-6.7,9.4,1.01,5.4,1.78-.6,3.02-.56,3.48,1.44,5.74-2,7.36.98,8.33,6.4,1.7,2.68,2.15,4.96,1.35,6.83.02.45.02.8-.02.81-9.49.86-19.47,1.04-29.12.99-.25.55-.61,1.37-1.07,1.35-1.32-.05-12.61-1.68-13.13-2.1s-.71-1.03-.8-1.65l-2.21-1.5c-1.85,0-4-6.67-3.23-7.97.54-.92,10.66-4.19,10.62-1,4.03.44,8.16,1.27,12.71,1.33,5.83-8.9,10.82-17.7,17.86-26.28l-5.76-4.47-.72-14.85c-.49-2.16-1.1-5.41.12-7.42.36-.58,1.07-1.1,1.44-.76,1.87,1.71,5.47,12.55,6.18,15.6l-1.09,1.47Z"/>
          <path class="cls-246" d="M156,347.16c.57-.33,1.23-.66,1.53-1.26.8-2.48,4.09-2.33,5.19-.17,2.84,1.57.39,5.06-1.57,6.81-10.13,9.08-37.38,9.37-46.84-.58-1.83-1.93-4.86-6.33-2.4-8.31,1.71-.79,3.07-2.87,5.17-2.89l1.68,1.11c8.13,11.05,25.49,8.1,37.23,5.28Z"/>
          <path class="cls-130" d="M124.72,342.55c.04.3.17.58.19.88,5.76,3.34,13.92,3.97,20.39,3.03,1.81,0,9.97-.81,10.69.69-10.17,5.93-23.52,5.37-34.24.01-2.72-1.36-4.24-3.92-4.67-6.4,2.68-.03,4.9,2.05,7.64,1.78Z"/>
          <path class="cls-153" d="M108.63,317.15c-2.01-.67-4.71-.07-5.8-2.06.35-4.14,2.21-7.98,2.22-12.16v-4.49c2.46,2.09,3.82,5.24,4.06,9.46,1.25,3.68,1.09,6.76-.48,9.25Z"/>
          <path class="cls-50" d="M110.83,299.03l1.61,1.53c2.43,2.32,4.71,5.06,7.55,6.88l1.55.64c.63,2.07,1.71,9.29-.71,9.92-.16,1.72-12.09-.82-12.2-.85-.16-6.41-1.59-12.74-3.58-18.71,0-.91-.33-2.01.35-2.78,2.16,1.01,3.61,2.79,5.44,3.37Z"/>
          <path class="cls-66" d="M145.31,346.47c-.1,3.56-20.12.9-20.39-3.03,7.63,2.22,13.55,1.56,20.39,3.03Z"/>
          <path class="cls-68" d="M204.75,284.9l.81.02c.56,1.22,1.64,2.14,2.95,2.45.04.18,0,.35-.05.52-.08.28-.1.57-.09.85,1.16,1.81-.51,2.86-2.23,2.11-1.49,2.25-7.09-1.5-6.71-3.73-.4-2.21.99-2.34,2.93-2.12.8.04,1.6-.12,2.39-.1Z"/>
          <path class="cls-160" d="M199.43,287.13c2.38,1,4.19,2.98,6.71,3.73l.8,1.86c-4.52,8.24-9.35,16.31-14.49,24.2l-2.73,1.73c-2.54,1.38-5.38,1.87-8.25,1.62l4.26-11.27,8.78-18.25c1.14-2.37,2.62-3.34,4.93-3.63Z"/>
          <g>
            <path class="cls-163" d="M105.04,302.93c1.22.89,1.07,3.07.92,4.61-.2,2.13-1.18,6.87-3.14,7.55-1.81.64-7.97-2.56-9.34-4.03-.21-.23-.15-.71,0-1.27-4.94-3.94-9.5-9.52-12.5-15.05-1.1-.16-.88-.64-.45-1.54,1.35-2.85,8.81-8.72,11.76-10.46.25-.01.5.08.75.08l1.64-.02,8.83,19.17,1.54.95Z"/>
            <path class="cls-119" d="M109.68,288.55c2.1-1.12,2.5.92,2.76,2.9.28,2.1.25,6.63-1.6,7.58-1.37.96-2.98.55-4.82-1.22l-.97.63c.61,1.91.61,3.41,0,4.49-1.19.23-.7,1.72-1.41,2.92l-10.6-23.02c1.97-1.58,4.59-1.8,6.76-3.02l9.88,8.75Z"/>
            <path class="cls-58" d="M92.28,282.74l-9.73,8.96c-1.01.93-1.65,1.83-1.57,3.04,1.36,2.58,2.46,5.29,3.3,8.14,3.19,2.13,6.25,4.43,9.2,6.9,2.75,2.27,6.08,3.89,9.35,5.3,1.73-.54,5.71-.17,5.8,2.06l1.14-1.29c2.46-.1,8.75,1.2,11.07,2.15,2.48-.39,4.21.11,5.21,1.5,1.05-1.93,3.01-.48,2.21,1.5-8.6.92-17.55-.33-25.48-3.79l-16.03-8.71c-1.74-.94-3.27-2.23-5.04-1.81-2.29-3.36-3.57-8.59-2.23-12.85.91-2.9,4.63-4.57,6.34-6.96s3.85-4.01,6.47-4.13Z"/>
            <path class="cls-118" d="M238.5,328.34c.08-.58.34-1.44.71-1.42,6.94.49,15.85,1.83,22.73,3.09,2.9-.13,4.61.61,5.14,2.21,1.8.78,1.89,4.2,1.49,6.03,1.57-.23,3.41.18,5.52,1.21,4.89-2.39,7.5-1.83,7.83,1.68,2.05-.53,2.99,1.21,2.32,3-1.05,2.79-3.65,4.59-6.05,7.24-6.62-.95-13.87-1.52-19.7-4.81-13.58-7.66-14.2-2.5-24.07-17.33,1.42-1.5,2.82-.46,4.08-.91Z"/>
            <path class="cls-220" d="M128.25,321l15,2.39c13.95-.15,27.72-.73,41.3-1.75l.55.98.34,1.62-27.81,20.45-.1,1.2c1.17,1.98.18,2.77-1.53,1.26l-9.67.77-1.02-1.46c-6.37,1.01-14.65.28-20.39-3.03-.68-.09-.73-.39-.19-.88l-21.96-25.34c8.52,1.28,17.02,2.44,25.48,3.79Z"/>
            <path class="cls-4" d="M93.47,309.79c-10.93-4.94-11.87-5.13-12.5-15.05,3.57,2.01,10.17,11.35,12.5,15.05Z"/>
            <path class="cls-6" d="M215.72,307.65c2.6,1.44-1,6.33-3.43,6.66-.69,1.52-2.13,2.82-4.31,3.91l8.86.42,1.55,1.38c.13-.52.36-.5.68,0-.07.7-.26,1.4-.8,1.88l-1.26,1.39c-4.59-1-8.39.59-11.41,4.79l-2.4-.06-10.34,7.43c.68,1.45-.09,1.91-1.31,2.54l6.42,2.91c3.45,2.61,2.82,6.19-.75,4.12-.61.6-1.26.88-1.93.83l-5.81-2.71.14,1.88.5,1.75s-.1,3.38-.29,10.15l16.29-12.87,2.34.31c-.15.62-.31,1.32-1.01,1.9l-17.94,15.06-.46,2.95c-.1.63-2.32-.55-2.91-.07l-26.41,21.15c-.46-.08-1.07.31-1.33-.46l26.38-21.45-5.1-3.02c-1.36-.8-.18-3.54-.59-4.89-1.75-.45-2.1-2.52-1.07-6.22-.73-2.25-2.78-3.53-6.13-3.82-2.88.95-4.92.83-6.14-.36-1.03,0-2.04.58-3.02.64-1.63.09-3.62-.31-5.19.17-.94-.16-1.94-.24-2.77-.67l30.35-22.61c.24-.73.69-1.2,1.4-1.4,13.05-3.82,17.1-6.01,27.78-13.85.54-.39.91-.39,1.44.28Z"/>
            <path class="cls-155" d="M185.12,278.26c.53.08.85.15.74.76l1.26,1.9c.2,5.62.15,21.29-1.64,25.8-.31.79-.73,1.33-1.66,1.5-.33.51-.82,1.26-1.27,1.17-1.7-.34-12.27-3.64-12.78-4.58-.17-.31-.19-.69-.17-1.1-4.31.5-9.05.55-12.95-2.05l.76-1.75,8.71-16.4-1.95-8.39c.7-.64,1.5-1.24,2.47-1.35,2.85-.31,13.19,1.71,16.4,2.62l2.08,1.85Z"/>
            <path class="cls-198" d="M169.6,303.72l14.21,4.51c1.14-1.78,1.99-1.25,1.91.77.51.27,1.25.7,1.18,1.13-.4,2.4-3.02,9.72-5.44,10.13-.05,2.57-7.58,2.55-9.08,1.32-1.73-3.8-3.71-7.49-4.05-11.96-2.49-.19-3.99-.66-5.63-1.28.17-3.54,3.27-5.64,6.9-4.64Z"/>
            <path class="cls-210" d="M214.38,290.92c.51.14.95.4,1.3.8,1.2,1.39,4.52,5.49,3.38,6.81-.21.67-.15,1.26.18,1.77,3.21,1.08,5.01.65,5.39-1.29l1.09-.5c1.79.82,2.69,2.97,2.69,6.46l3.34,6.08-.74,1.73c-3.07-.56-6.64.31-9.77.03.51-2.15-.47-4.03-2.95-5.65-.64,1.05-1.42,1.09-2.57.47l-9.94,6.82c-5.96,4.09-13.53,7.83-20.67,8.15l-20.44.93c-7.27.33-14.66.91-21.41-.16,7.13-.21,16.48-1.22,24.03-1.57l5.11-.23c3.02-.14,6.35.19,9.08-1.32,1.41-1.79,6.25-2.74,8.25-1.62l2.72-2.06c7.57-1.88,17.35-6.71,22.08-13.05,2.33-3.13-2.9-11.56-6.22-12.96l.09-1.84c-.66-.36-.62-.65.09-.85,2.64.01,2.28,3.18,5.91,3.03Z"/>
            <path class="cls-188" d="M169.6,303.72c-4.1-.11-3.81,3.29-6.9,4.64-2.44-.92-4.57.73-6.95,1.71-1.12.46-3.02-2.09-2.65-3.11,1.01-2.8,3.09-4.75,4.3-7.03-1.17,1.81,7.33,2.25,12.19,3.79Z"/>
            <path class="cls-60" d="M202.36,285c-.73.64-1.86,1.99-2.93,2.12-.7,1.23-1.8,2.47-3.28,3.71l-8.6,17.84-1.82.33c-.69-.1-1.26-.57-1.91-.77,2.64-9.33.59-20.03,2.04-29.2l16.5,5.98Z"/>
            <path class="cls-96" d="M189.72,318.66c4.26-7.66,13.07-20.14,16.43-27.8.39-.89,1.53-1.52,2.23-2.11,5.33,4.15,9.22,7.93,7.42,15.5-6.85,7.89-16.16,12.84-26.08,14.41Z"/>
          </g>
        </g>
      </g>
    </g>
    <path class="cls-164" d="M219.06,298.53c2.09.89,4.53.52,6.65-.02-.36.93.51,2.6-.2,3.46-2.46.33-5.43.56-7.51-.59-.64-.36-.13-1.83-.22-2.46-.08-.53.53-.55,1.28-.39Z"/>
    <g>
      <path class="cls-13" d="M152.91,148.55l.93,1.65c-2.46,5.68-2.51,11.71,1.41,16.74l-.66,3.38,1.05,1.5c-1.59,19.53-2.88,39.11-3.86,58.75l-1.66,2.55c-1.83-.43-4.15-2.14-6.08-2.76-1.7-.54-1.64-1.6-2.31-2.36.44-.03.75.89.98.65.18-.19.35-1.01.41-1.52l5.77-52.04c.25-2.26.83-3.26-.42-5.55-4.04-7.41-2.43-16.63,4.45-20.97Z"/>
      <path class="cls-247" d="M155.33,146.99c4.28-1.39,7.75,4.21,9.64,7.52.94,1.65,2.6,5.59.83,6.78-.5,1.12-1.64,1.8-3.4,2.02l-4.28,3.9c-.88,2.17-2.05,3.2-3.53,3.1.24-1.62-.86-2.98-1.77-4.43-3.5-5.58-2.37-11.76.09-17.32.71-.45,1.41-1.56,2.42-1.56Z"/>
      <path class="cls-117" d="M164.92,144.77c2.26.84,3.55,3.82,5.92,4.56s1.76,9.85,1.69,11.78c1.39,1.49.85,1.96-.91.95-1.15,2.01-5.44,1.6-5.81-.77-2.71-8.16-3.17-10.05-10.47-14.29,2.22-2.32,6.34-3.44,9.59-2.22Z"/>
      <path class="cls-29" d="M203.29,257.24c2.19-.16,1.07,4.75.56,6.16-.81,2.26-3.45,6.89-5.74,4.36-2.43.69-5.02,1.01-7.75.95l-31.22-10.46-1.5.58c-.14,2.46-.24,4.95-.12,7.42-.69.07-1.06-.48-1.53-.82-1.28-2.57-1.21-4.4.21-5.51-1.09-.86-.77-10.59-.43-11.05.24-.33.59-.57.96-.8l.75-.02c.91.33,1.6.94,2.07,1.81,3.26-1.8,6.56-2.87,9.89-3.22l.92-1.25c10.84,3.37,21.68,6.75,32.52,10.15l.39,1.7Z"/>
      <path class="cls-229" d="M184.6,150.06c-.25,2.74-.96,5.85-2.33,8.12-.61,2.01-5.04,2.88-5.96.87-.27.15-1.32-.06-1.28-.85l1.43-26.87c.21-4,.76-7.73,1.98-11.17l2,.6c.53,5.12,2.8,8.32,6.82,9.58-.5,6.64-1.39,13.22-2.66,19.72Z"/>
      <path class="cls-64" d="M187.46,121.46c.78.32,1.29,1.42,2.23,1.58l1.36.92c-1.1,6.25-2.54,12.43-4.3,18.54-.35,2.57-1.28,5.2-2.15,7.56l1.73-18.92c-7.06-1-5.13-6.52-7.88-10.99.35-.97.86-2.11.87-3.15-.88-1.79,0-5.34,2.1-5.31.77,4.02,2.13,8.16,6.05,9.77Z"/>
      <path class="cls-18" d="M186.78,158.92c3.59.35,7.04,1.51,10.57,2.24,2.04.85,1.4,3.08-.77,3.07.94,1.2.37,1.6-.95.75,1.58-1.12-10.46-2.97-10.91-2.93,0-.72.03-1.48.23-2.09.31-.91,1-1.12,1.83-1.04Z"/>
      <path class="cls-260" d="M182.27,158.19c-.14.51.22,1.36.12,1.91-.35,1.88-4.92.8-3.94,1.99-1.16.19-1.98-.22-2.94-.77-.31-.62-.98-.73-1.66-1.11l2.47-1.15c1.99-.3,3.93-.91,5.96-.87Z"/>
      <path class="cls-248" d="M236.22,257.36c.22.04,1-.25,1.28.04.52,1.6-.65,2.66-1.33,3.73.26,2.55-5.13,4.11-6.61,2.24l-8-.32-14.75-4.49c-.78-1.2.2-2.4.33-3.6l2.23-.99,11.97,3.83c4.64,1.7,9.2,1.15,13.68-1.65l1.21,1.2Z"/>
      <path class="cls-28" d="M226.29,167.9c-1.44-.31-2.96-.49-4.16-1.41.62-3.17,2.32-6.26,2.35-9.54,1.34-1.49,2.13,9.79,1.81,10.94Z"/>
      <path class="cls-52" d="M228.71,183.81l.69,8.7c-1.79,1.72-5.72.85-5.57-1.86l1.81-11.9c.63.26,1.65-.07,1.99.57.56,1.06.2,5.52,1.08,4.49Z"/>
      <path class="cls-234" d="M160.66,179.03c.47,2.12-1.04,2.54-2.34.93-.47,0-1.08.12-1.54.01-.81-2.57.56-4.61.77-6.66,1.45,1.56,3.33,3.51,3.1,5.72Z"/>
      <path class="cls-79" d="M160.66,179.03c1.65.51,2.17,2.24,2.68,3.75l-6.68-1.19c.11-.93.85-1.32,1.65-1.64l2.34-.93Z"/>
      <path class="cls-144" d="M210.07,245.27l1.69-1.08c8.25,2.35,16.49,4.71,24.75,7.06l.64,1.74c.58.56,1.09,1.53.71,2.27-.29.57-.95,1.91-1.63,2.09-3.28.85-6.57,3.63-10.45,2.99-6.63-1.09-12.48-4.02-18.63-5.39l.72-6.65c-.62-2.61-.73-5.12,2.21-3.04Z"/>
      <g>
        <path class="cls-115" d="M170.84,149.33c-1.85,2.25-5.93-2.19-5.92-4.56,1.94,1.52,3.49-15.86,3.12-17.3-2.85-11.06-4.02-21.93,1.07-32.55.7-1.46,1.38-2,2.6-2.54-.87,6.09-3.66,12.13-3.22,18.61s3.27,12.82,3.02,19.58l-.67,18.74Z"/>
        <g>
          <path class="cls-14" d="M184.98,101.49c1.45,1.68.83,2.7-1.31,2.06-.27-.28-.48-.5-.49-.47-1.2,2.86-4.08,9.78-4.2,12.61l.35,1.31c2.25.8,1.47,3.06-.87,3.15-.45,13.01-1.16,25.98-2.14,38.9.7.81.43,1.56-.81,2.27-.91,1.74-2.43,1.83-2.98-.21l-1.47-.78c.35-3.26.12-6.44-.68-9.53l.46-1.47c-.74-.63-1.3-1.5-1.41-2.49.61-7.69.59-15.4-.06-23.11-3.18-10.56-3.34-21.66,2.34-31.34,7.63-3.34,10.65,5.29,13.27,9.1Z"/>
          <path class="cls-194" d="M183.66,103.55c-.87,2.75-2.04,5.31-2.25,8.14-.57,1.6-2.07,3.38-2.1,5.31-3.58-1.21,3-12.56,3.85-15.64.36-.09,1.29.53,1.2.85-.11.38-.71.99-.7,1.33Z"/>
        </g>
        <g>
          <path class="cls-215" d="M175.5,161.32c1.45-1.36,2.3-1.05,2.94.77.79-.13,2.5-.52,2.97.72.31.82-1.08.81-1.51.69-.79,1.64-1.73,2.63-2.84,2.97l.92,1.9c-.84,3.76-2.08,7.36-3.73,10.81,2.15.73,1.13,5.22-1.12,5.26,1.44,1.79,1.94,3.25-.56,4.54l1.44.93c-.7,3.02-.92,6-.67,8.94,1.18,3.37,2.47,6.67,3.88,9.87.54,8.94-4.27,19.76-14.53,13.94-2.57-2.33-5.72-3.71-6.37-6.78-.89-4.18.23-7.27,2.59-10.46,5.03-6.78,7.48-1.21,8.08-16.97-1.92-2.53-1.86-4.1.18-4.72-.56-.23-1.39-.59-1.37-1.05.07-2.21,1.89-15.61,2.58-17.03l1.68-.51c.46-1.04.97-2.07,1.52-3.07.2-.36.75-.54.91-.95.9.07,2.15-.26,2.98.21Z"/>
          <path class="cls-217" d="M180.56,190.61c.75.18.68,1.11.04,1.54l-1.15,1.16c-.13,3.12-.93,5.87-2.37,8.25l1.17,1.29c-.71,1.71-.64,3.6.2,5.65-2.24,6.76.7,6.35-4.07,15.07-.58,1.06.17,1.77-1.24,2.09-5.75-.32-5.46,1.48-10.41-3.01,3.35.56,6.72.82,9.73-1.69,2.03-1.69,3.59-4.55,3.99-7.93.58-4.94-2.17-8.43-4.09-12.59-1.67-3.61.13-7.94.25-11.48.73-2.7,7.69-.69,7.96,1.64Z"/>
          <path class="cls-174" d="M174.09,211.11c.08,5.3-3.39,9.36-8.5,9.2.85-7,1.23-13.66,3.74-20.73,2.88,3.5,4.69,7.08,4.76,11.53Z"/>
          <path class="cls-76" d="M180.62,168.18c.53,1.72-.16,3.78-2.14,3.57-1.11,2.59-1.92,5.72-4.21,7.43.9-4.23,1.22-8.67,2.81-12.7.53,1.41,2.28,1.23,3.54,1.7Z"/>
          <path class="cls-23" d="M173.48,167.6c-1.21-.25-1.4-1.74-1.45-2.28-.05-.59,1-1.67,2.05-1.15,1.37.68.54,3.66-.59,3.43Z"/>
        </g>
      </g>
      <g>
        <path class="cls-32" d="M237.45,169.42c1.99,0,2.4,2.38,1.09,3.66-.46,1.69-.31,3.04.45,4.06.78-.38,1.58-.45,2.41-.19-.06.48-.54,1.66.29,2.06,8.2,4.01,7.6,8.99,10.36,14.5,1.28.86-.05,3.01-1.51,3h-.81s-1-.24-1-.24c.08-2.21-.53-4.08-1.8-5.63l-.98.19c-1.63-2.53-3.51-4.94-5.66-7.24-1.3.42-1.65-.13-1.71-1.39l-1.78.81c-1.65-.16-4.45-1.27-4.98-2.97-1.12.81-1.67,1.64-1.64,2.47l-1.47,1.31c-1.46,1.27-2.28.12-2.44-3.45l-.63-1.61c-1.08.88-2.5,1-4.27.36l-1.47.89c.76,1.21.3,3.94-1.15,3.96-.08.66-.28.64-.58,0-2.11-2.96-1.23-8.46,1.7-10.68l2.19-.98c1.89.36,3.65,1.2,5.28,2.51.91-2.02,2.01-1.32,2.26.63.13-.67.34-.62.62.08,1.24-.45,2.63-.46,4.18-.04.45-1.62.58-3.33.4-5.12l1.33-.97,1.3.02Z"/>
        <path class="cls-143" d="M260.39,182.08l-9.29,17.41c-.49-.9-.83-1.92-.56-3s1.02-1.99,1.51-3l8.81-18.07c3.11-6.37,6.08-12.95,11.33-19.17-2.81,9.32-7.41,17.58-11.8,25.82Z"/>
        <path class="cls-170" d="M263.19,195.81c-.29,1.12-.64,2.6-.77,3.74-3.29-.41-9.28,4.54-10.45,3.19.88-1.55,1.66-3.84,3.72-4.49.69-.22,2.86,1.03,3.09-.12.52-2.65,1.35-4.81,4.41-4.69.14,1.08-.02,1.73,0,2.37Z"/>
        <g>
          <path class="cls-156" d="M250.5,165.75c1.01-.99,1.01-.59.9.75.86.33,1.46,1.13,1.8,2.4,3.56,3.49,3.98.4,7.66,6.53.3.22.57.46.75.75.5.83-7.32,15.36-8.44,17.31-.09.16-.55.12-1.12,0l-1.09.04c-1.56-4.3-3.83-8.07-6.82-11.31-3.81-1.61-4.73-3.37-2.74-5.29-2.22-1.29-.64-7.92,2.43-7.43-.16-1.47.64-2.56,1.97-1.5.17.65.8,1.23,1.31,1.22.56,0,1.58-.27,1.4-1.05-.29-1.26.4-1.83.53-2.49.46.46.95.48,1.45.07Z"/>
          <path class="cls-105" d="M266.77,191.97c-2.79-.93-6.76-6.25-6.2-9.2,3.22-2.24,6.68-4.86,10.94-5.72,5.03-1.01,9.95,1.86,13.08,5.58-5.44,4.96-11.53,7.57-17.81,9.34Z"/>
          <path class="cls-176" d="M260.57,182.76c2.24,2.99,4.63,5.79,6.2,9.2-1.97.55-2.97,1.47-3.58,3.84-1.54-1.27-2.57-.3-3.08,2.91-3.78.8-5.12,1.73-8.14,4.02-.19.12-.95.51-1.11.15-.56-1.26.31-2.43.24-3.4-.12-2.27,7.22-17.21,8.17-17.44.35-.09.73-.05,1.12.03.1.2.05.51.18.68Z"/>
          <path class="cls-224" d="M246.93,190.63c.65,2.87.78,6.24-.67,8.81.02,1.69-.79,4.19-2.48,4.42-1.79,1.98-4.82,1.16-5.36-1.41-.89-1.27-1.48-4.63.16-5.4l-1.38-1.02c-.21-1.9,1.46-10.12,2.13-12.09.07-.21.47-.3.96-.36,2.27-1.81,6.23,5.25,6.63,7.05Z"/>
          <path class="cls-166" d="M245.91,204.67c-.75-.06-1.4-.69-2.13-.8.44-1.67,1.65-2.95,2.48-4.42,1.49,1.51-.69,3.65-.35,5.23Z"/>
        </g>
        <g>
          <path class="cls-249" d="M236.15,169.39c.6,2.22-.21,4.88.13,7.49-2.57.32-4.51-.1-6.06-1.36-.86-7.42-1.58-14.75-2.16-21.97,1.85-.96,3.73-1.78,5.02-4.21,1.44,7.21,1.34,13.66,3.06,20.06Z"/>
          <path class="cls-214" d="M243,169.5c.24-.65.52-.64.83,0-1.46,1.71-2.2,5.47-2.43,7.43-.4.31-.61,1.26-1.12,1.37-.74.15-1.13-.7-1.29-1.17-1.07-.22-1.22-1.57-.45-4.06-.71-.85-1.13-2.57-1.09-3.66.24-6.81-1.72-13.36-.62-20.75,1.94,4.38,1.38,8.57,1.81,12.58.8.64.85,2.28.83,3.35,0,.16-.58-2.66.37-2.86.68-4.45-.56-8.86.88-13.93,2.39,2.7-.02,21.52,2.28,21.7Z"/>
          <path class="cls-61" d="M245.81,168c-.42.72-1.52.98-1.97,1.5h-.83c1.74-7.09,4.15-14.04,6.61-21.22.27-.79.99-1.02,1.54-.66.24.15.37.53.19,1.14l-5.54,19.24Z"/>
          <path class="cls-225" d="M227.18,153.6c1.35,6.92,2.49,13.97,3.4,21.14l-.97.7c-.8.02-1.51-.51-2.26-.63-1.28-.34-1.29-.64.02-.94-1.02-.4-1.39-1.57-1.11-3.51-.04.7-.19.46-.44-.73-1.99-.68-1.6-1.69.48-1.73l-1.44-.69c.12-3.49,0-6.91-.38-10.26.02-1.85.47-2.38,1.38-3.88.03.48.9.59,1.32.52Z"/>
          <path class="cls-1" d="M228.07,153.55l3.05,20.3c.07.47.63,1.02.57,1.28-.13.6-1.07.38-1.46.39-.21,0-.41-.08-.62-.08.24-6.57-2.6-15.45-2.43-21.83.28-.04.6-.31.89-.06Z"/>
          <path class="cls-129" d="M253.2,168.9c-.54-.06-1.07.29-1.34-.02-.65-.77-.39-1.68-.46-2.38.54-5.37,1.47-11.06,3.01-16.24.47.09,1.08.12,1.25.46s.26.96.17,1.51l-2.63,16.66Z"/>
          <path class="cls-84" d="M253.5,150c-.02,5.14-.81,11.12-3,15.75-.21.76.43,2.54-1.02,2.75-.85-.15-.35-2.17-.43-2.82l2.87-14.27c.12-.59.12-1.15.49-1.38.26-.16.78-.06,1.09-.03Z"/>
          <path class="cls-83" d="M251.4,166.5c-.07-.35-.61-.6-.9-.75,1.4-5.15,2.05-10.5,3-15.75.31.03.61.2.92.26-.71,5.45-1.55,10.98-3.01,16.24Z"/>
          <path class="cls-24" d="M239.84,161.73c-.36,2.4,1.01,5-.3,7.83l-.9-8.31c.41.13.81.29,1.2.48Z"/>
          <path class="cls-242" d="M236.8,183l1.78-.81c.69.27,1.59.43,1.71,1.39l-1.71,13.47c-.23.97-.99,1.53-2.27,1.69,1.48,3.2-1.69,3.88-3.02,1.25-.62-1.21-2.61-16.24-2.79-18.65l1.32-1.3c2.18.18,4.4.64,4.98,2.97Z"/>
          <path class="cls-30" d="M231.82,180.03l3.19,21.31c1.92-.52.95-1.84,1.3-2.6,1.85-1.69,2.15,2.58.62,3.38-1.1,2.47-5.54.38-6.05-1.86-2.39-.65-3.63-6.48-1.48-7.75-2.33-1-2.98-7.51-.69-8.7-.09-1.19.05-2.95.11-4.07.95-.73,2.26.23,3,.29Z"/>
          <path class="cls-31" d="M238.58,182.19c-.09,2.08-.55,4.07-1.22,6.15-.82-2.06-.16-3.73-.56-5.34-.13-.59-.08-1.1.55-1.5.79-.5.84.54,1.23.69Z"/>
          <path class="cls-149" d="M239,177.13c-.5.33-2.56.23-2.1-.93.54-1.34,1.19-2.19,1.65-3.12.99,1.18.26,2.63.45,4.06Z"/>
          <path class="cls-142" d="M227.37,173.86l-1.93-.18c-.13-1.61.04-2.84.38-4.05.26-.07.65-.2,1,.08.36,1.62.58,2.87.56,4.16Z"/>
          <path class="cls-241" d="M238.58,197.05c.09,1.8-.07,3.6-.16,5.4-.43-.17-1.03-.31-1.49-.33-.05-1.09.59-2.85-.62-3.38.22-.48-.24-1.5.46-1.93.41-.26,1.32.2,1.81.24Z"/>
        </g>
      </g>
      <g>
        <path class="cls-239" d="M251.1,199.49l.94.72c-.62,1.08-.64,1.92-.07,2.53,1.17-1.47,8.7-4.86,9.19-4.65.65.27,1.04.8,1.26,1.46l-1.15,9.93c7.84,5.08,3.09,12.74,4.69,15.1,1.24,1.83,1.97,3.31,1.67,5.64-.86,6.75-2.46,13.09-3.64,19.45,1.76,2.19-1.87,5.29-3.02,2.28l-1.36-.93,3.79-21.44c-1.74-4.14-2.42-8.59-2.04-13.35l-4.9,27.77c-.49,3.03-1.76,5.63-3.64,8.02s-7.59,7.53-10.5,6.04c-3.04,1-3.32-3.72-.21-3.18,1.34-1.87,1.42-2.83.24-2.86-2.64-1.02-1.98-6.69.48-7.61l-.95-.39c2.19-15.24,4.33-30.59,6.43-46.05l1.41-1.45c.23-.66.5-.65.81,0,.88.39,1.06,1.39.56,3Z"/>
        <path class="cls-108" d="M166.43,188.38c.08-.61.29-.56.6.06,2.1,1.11,1.39,5.15.91,7.33-1.02,4.6-2.07,6-6.05,8.57-5.55,6-6.57,11.99,1.17,16.62l-.33,1.69,4.68,1.64c3.14-.64,5.05-.19,5.73,1.37-.87,1.73-1.69,3.51-2.49,5.34l-1.79.79c-.29.56-.62,1.19-1.19,1.41-1.17.46-11.21-3.42-12.96-4.54-.2.02-.42-.12-.62-.12-1.66-.98-2.28-2.72-1.85-5.24l2.23-36.96c.19-.71.59-2.01,1.01-1.97,2.54.24,8.91,2.54,10.97,4.01Z"/>
        <path class="cls-46" d="M165.8,161.29l5.81.77c1.09,1.94.68,2.76-1.52,3.07l-1.06,1.31c-4.97-1.62-8.67,1.49-9.85,6.18l-1.62.69c.58,2.18.83,4.4.76,6.65.5.95-.05,1.5-1.65,1.64l.83,1.47,8.93,2.51c.38,1.1.38,2.04,0,2.82-3.12-1.57-6.75-1.76-10.41-3.05l-1.59,26.21c-.36,5.93-1.16,11.5-.35,17,.18,1.63-2.42,4.93-3.95,4.57l3.51-58.29c.09-1.55.47-3.46.96-4.51,2.22-4.73,6.15-9.7,11.2-9.03Z"/>
        <path class="cls-67" d="M249.74,196.5c.05,2.65-.01,5.35-.5,8.35l-6.39,39.54c-.16,2.23-2.2,2.01-2.68-.07-.44-.11-.78-.2-.77-.25,1.46-11.14,3.3-22.48,5.2-33.55.03-.17.3-.3.64-.41-.4-1.44-.63-2.8-.71-4.06l1.37-1.38-.98-1.06c.72-1.32,1.16-2.71,1.33-4.17-.9-.97-1.03-2.35-.39-4.15-.48-2.25-.12-3.81,1.06-4.66,2.9.39,2.76,3.39,2.81,5.87Z"/>
        <path class="cls-159" d="M242.85,244.39c-.41,2.53-.75,5.11-.48,7.61,1.47.25,1.39,1.2-.24,2.86.07.17-1.58,1.8.21,3.18-2.31,1.98-1.78,5.19-2.28,8.03-1.21.73-2.13,2.39-3.86,2.34-2.47-.93-1.1-5.44-.01-7.28l-.88-1.37c1.1-1.08,1.41-1.89.93-2.41-.36-1.39-.06-2.84.92-4.36.07-.92.32-1.2.7-.58.16-2.57.71-5.14,1.42-7.62.07-.23.44-.37.9-.49l2.68.07Z"/>
        <path class="cls-252" d="M242.12,254.86c-.34-.85.33-1.99.24-2.86l8.63-5.15c-1.83,4.09-5.64,5.98-8.87,8.02Z"/>
        <path class="cls-136" d="M209.18,199.61c-.19,2.49-.11,5.08-1.33,7.73-.88,1.89.15,5.27,2.08,5.73l1.43.67c-.26,3.48-2.92,28.91-3.98,29.98-.39.39-1.27.08-1.89-.15l-1.68.56c-7.86-2.02-15.74-4.21-23.63-6.58l-2.5-2.05c-.85-.16-1.99-1.12-3-.84-1.58-1.06-4-2.35-5.81-2.86.79-2.63,1.31-5.45,4.28-6.13-.55-2.09.24-4.35,2.36-6.78,1.24-3.29,1.86-6.71,1.87-10.27l1.09-.11,1.01-1.3,12.43,3.05-.08-3.85c-1.16-1.99-1.6-3.75-1.33-5.28-1.11-1.46-2.26-5.86-.53-6.96.86-.54,17.5,4.51,19.25,5.44Z"/>
        <path class="cls-192" d="M163.34,182.78c1.28-1.62,3.46-1.08,3.86.94l-.18,4.72c-.21.07-.41.06-.6-.06-.01-.45,0-1.33-.7-1.54l-9.39-2.77c-.82-.24-.33-2.31.32-2.48,2.18-1.5,5.22-1.22,6.68,1.19Z"/>
        <path class="cls-232" d="M170.09,165.13c-.58,1.31-2.89,18.58-2.89,18.59-1.34-.05-2.64-.38-3.86-.94-1.6-.77-3.19-1.76-2.68-3.75-2.16-.58-2.95-3.62-3.1-5.72.32-3.04,1.93-5.56,4.29-7.4,2.51-1.96,5.37-1.41,8.24-.77Z"/>
        <path class="cls-38" d="M220.74,201.54c.31-.52.81-1.3,1.25-1.21,2.85.61,22.87,5.83,23.41,6.93l-.16,2.83-5.07,34.21c-.37,2.51-2.15,5.16-1.75,8.3-.17.83-.94.48-1.28.38l-1.37-.92,6.74-41.66-19.44-5.23-1.96-1.89c-1.19,1.85-2.27.83-2.91-.8.53-1.44-.38-4.12.74-5.32,1.27.03,1.62.85,1.05,2.45l.73,1.91Z"/>
        <path class="cls-245" d="M230.88,200.26c1.96.32,3.94,1.77,6.05,1.86.6-1.97,1.35-1.74,1.49.33,1.73.68,3.53,1.11,5.36,1.41.98-1.98,2.3-1.22,2.13.8.45,2.11-.4,3.68-.66,5.44-.07-.22.2-1.65-.46-1.83l-24.05-6.72c-3.77-6.64,7.39-4.74,10.15-1.28Z"/>
        <path class="cls-145" d="M176.94,185.24c-.71,3.33-4.33,2.65-3.79-.8l1.12-5.26c1.19-2.27,2.07-4.66,2.64-7.18l1.57-.25c.38-.27.76-.49,1.15-.5.99-.03-1.34,11.95-1.73,13.63-.04.18-.45.28-.96.36Z"/>
        <path class="cls-81" d="M176.94,185.24c1.22-.92,1.68-.08,1.67,1.32,1.17-1.71,1.98-1.12,2.01.77.55.88.71,2.58-.06,3.29-2.71-.35-5.19-1.76-7.96-1.64.05-1.6.24-3.03.56-4.54.01.81.56,1.3,1.27,1.35.89.06,1.75-.15,2.52-.55Z"/>
        <path class="cls-240" d="M187.07,170.12l1.36,1.34c-1.2,4.8-1.36,9.3-.75,13.79l-1.76,8.29c-.96.51-2.05.07-2.75-.69l1.59-21.62c.09-1.21,1.18-1.73,1.44-2.38,1.82-1.1,2.51-.07.87,1.27Z"/>
        <path class="cls-43" d="M191.12,170.9c.37,4.98-2.41,9.57-3.43,14.35.77-1.42-1.81-2.32-1.93-3.36-.46-4.02,1-7.96,1.31-11.77,1.14-2.02,3.03-1.06,4.05.78Z"/>
        <path class="cls-94" d="M189.8,192.74c.74-.37,1.58-.77,2.4-.6,2.85.59,13.67,3.34,15.54,4.42.76.44,1.21,1.2,1.51,2.02-.1.31-.05.7-.07,1.03l-18.51-4.58c-.22,2.27.19,4.26-.21,6.1-1.84-1.69-3.97-3.2-3.29-6.27.14-.63,1.03-1.51.97-2.12.49-1.75,1.14-1.8,1.66,0Z"/>
        <path class="cls-238" d="M195.79,190.32l1.21-1.22,12.36,3.38.62,1.72c-.14.48,0,1.05-.08,1.54l-1.34,1.08c-5.73-1.97-11.56-3.61-17.47-4.91l-1.29.82c-.46-.2-1.17.15-1.66,0-.33-1.79,1.3-3.13,1.6-4.6,1.46,1.52,3.98,1.61,6.04,2.18Z"/>
        <path class="cls-177" d="M191.12,170.9c-1.23-.68-2.66-.72-4.05-.78.04-.45-.37-1.3-.87-1.27.57-1.43,2.01-1.53,3.27-.82.95.54,1.57,1.79,1.65,2.87Z"/>
        <path class="cls-128" d="M181.5,170.25l-2.89,16.31c-.67-.31-1.41-.53-1.67-1.32-.48-1.09,3.32-14.87,1.54-13.49.55-1.29,1.65-2.25,2.14-3.57.89.34.72,1.35.88,2.07Z"/>
        <path class="cls-44" d="M209.9,195.75c-.16.96-.35,1.91-.65,2.83-6.42-2.17-13.24-3.12-19.45-5.84.04-.53-.26-1.35-.02-1.85.82-1.71,17.79,4.05,20.12,4.86Z"/>
        <path class="cls-90" d="M229.4,192.51l1.48,7.75c-2.9-.48-5.78-1.08-9.06-2-1,.27-1.01,2.49-1.09,3.28-2.11-.59-1.87-2.13-1.78-4.36.35-.7.28-2.34.79-3.05,2.17-.39,3.76-1.3,4.09-3.49,1.64,1.2,3.78,1.01,5.57,1.86Z"/>
        <path class="cls-16" d="M237.14,253l-27.08-7.73c-.06-.25-.08-.51-.07-.77.95.22,1.64-.71,1.84-1.88,1.28-7.67,3.72-14.7,5.42-22.22l3.86-17.09c7.54,1.26,14.73,3.89,23.1,6l-7.07,43.68Z"/>
      </g>
      <g>
        <path class="cls-135" d="M203.29,92.99c5.37,6.51,10.01,13.39,13.93,20.65l-.24,1.63c-13.96,12.11-23.96,5.15-22.68,13.83l-.52,5.23c-2.24,8.38-4.57,16.59-7,24.6-.14,1.52-.83,2.57-2.06,3.13l1.34,1c3.14,1.02,2.68,4.76-.84,3.47-1.56-.6-3.24-.97-5.05-1.13l-.26-1.89c.58-.47.09-.93-1.47-1.41-1.36-.6-1.31-1.48.07-2,1.54-.01,2.79-.65,3.75-1.91-1.2-1.86.24-7.29,2.33-8.12.33-2.94,1.04-5.46,2.15-7.56,1.18-5.88,2.97-11.57,5.35-17.06-1.16-.55-1.96-1.35-2.41-2.4-1.61,1.69-2.94.48-2.23-1.58.32-6.09,1.1-12.58,4.65-18.84,1.42-2.51,6.47-9.27,8.97-9.98.75-.22,1.52.03,2.21.34Z"/>
        <path class="cls-26" d="M227.07,91.71l.35,1.68c-3.35-.18-6.76-.53-10.22-1.05-4.18.36-8.34.54-12.45.54-.07,2-.75,1.97-1.46.12-8.99,5.5-14.18,16.05-14.13,26.94,0,.73-.26,1.31-.54,1.51s-.83.07-1.15.03c-1.81,2.07-4.05-.86-5.16-2.63-1.61-2.57-1.63-4.23-.89-7.14-.38-.19-.72-.4-.94-.7-.28-.4,1.94-7.17,3.18-7.44.5-.48.93-1.45,1.31-2.06,8.09-12.63,23.03-21.79,37.75-14.57,2.44,1.2,3.22,2.98,4.34,4.79Z"/>
        <path class="cls-165" d="M204.75,92.87l4.11.21c5.47,3.24,10.76,6.78,15.85,10.62l.76,2.27c-1.96,4.12-5.23,6.47-8.49,9.29-3.89-7.15-9.21-13.5-14.18-20.39-.55-.76.1-1.49.49-1.88l1.46-.12Z"/>
        <path class="cls-80" d="M227.07,91.71c2.87,4.62.58,9.65-1.6,14.26-6.94-4.32-13.1-10.18-20.71-13.1,6.63-2.73,13.97-2.54,21.18-.72.5.13,1.31.11,1.14-.45Z"/>
        <path class="cls-203" d="M195.63,164.98c1.14.99.64,1.52-.83.96-.54,1.03-.39,2.19.47,3.46l-.98,1.54c.58.56,1.1,1.22,1.2,2.04.16,1.27-3.08,11.85-3.88,13.79l-1.85,1.38,1.18,1.2c-1.17.96-2.09,2.1-2.79,3.41,1.77,1.36,1.2,2.49-.97,2.12-1.91,1.09-2.45.51-1.24-1.32-2.31-.46-.6-8.15,1.76-8.29-.62-3.11-.14-6.33,1.43-9.66.02-2.28.69-3.84,2-4.69-1.48-1.68-2.81-2.09-4.92-2.05-.94,7.45-1.42,15.12-1.45,23.01l-1.58.99c1.62.96.28,2.81-1.22,2.45-1.19-.29-1.14-6.68-.7-8.02-.41-.3-.79-.63-1.03-1.03-.86-1.47,1.18-12.15,2.09-14.44-.67-2.69-.41-6.06,2.9-5.29.6-.64,1.63-.88,1.98-1.77-1.09-.02-2.07-.15-2.54-.93-.3-.49.06-1.22.06-1.77.19-.57.5-1.42.92-1.41,1.74.04,10.02,1.57,10.57,2.76.27.57-.08,1.17-.58,1.59Z"/>
        <path class="cls-54" d="M186.75,142.5c.29-2.12.16-4.26.62-6.77l2.32-12.69c1.51.26,3.09.35,4.64,1.3-3.59,6.79-4.7,12.78-7.58,18.16Z"/>
        <path class="cls-95" d="M179.92,163.5c1.75,1.5,3.45.04,4.87,1.46.37.36.49.98.44,1.57-1.2,1.28-2.75,3.4-2.9,5.29-.57.28-.84-.24-.82-1.56-.93.37-1.22-.32-.88-2.07-1.43,2.17-4.3.96-3.54-1.7.42-1.07.06-2.38.82-3.63.69.34,1.58.28,2.02.66Z"/>
        <path class="cls-264" d="M182.32,171.81c-.42,5.15-1.26,10.3-1.06,15.47l-.64.04c-.75.05-1.36-.47-2.01-.77-.33-.18-.52-.45-.67-.79-.3-.71,1.9-14.7,2.49-15.2.26-.22.65-.29,1.07-.31.11.51.84.95.82,1.56Z"/>
        <g>
          <path class="cls-184" d="M183.18,192.85c1.21-1.33,2.06-.71,2.75.69.27.56.67,1.06,1.24,1.32,1.71,1.49,2.7,4.02,3.29,6.27,2.82,2.6,3.77,6.93,2.58,10.96l-14.6-3.58c-1.41-.35-2.09-1.77-2.33-2.76-.33-1.37.74-3.12.96-4.18,1.64-2.64,2.39-5.41,2.23-8.3l1.29-1.11c-.11-.45-.06-1.07-.04-1.54.05-1.1.16-2.19.06-3.29.09-.67.31-.67.64-.04.08,2.16.47,4.17.21,6.96,1.08-.19,1.22-.98,1.71-1.4Z"/>
          <path class="cls-231" d="M180.59,192.15c.91,3.63-.2,7.53-3.52,9.42.75-3.68-.57-11.3,3.52-9.42Z"/>
          <path class="cls-243" d="M191.18,207.71c-.17.36-.32.63-.41.61-1.49-.35-11.2-3.16-11.57-3.64-.42-.54-.55-1.73.04-2.23,2.64.04,11.64,1.61,11.93,5.26Z"/>
          <path class="cls-39" d="M191.25,209.25c-2.54,1.85-5.63-.69-8.68-1.06-1.87-.43-3.94-.62-3.89-2.55.4-.43.78-.75,1.07-.68,3.73.82,8.73,2.12,11.5,4.29Z"/>
          <path class="cls-27" d="M191.18,207.71c.07.85.07,1.22.07,1.54-4.05-1.55-8.27-3.01-12.56-3.6-.2-1.35-.63-3.22.56-3.2-.23,1.37.72,1.95,2.2,2.38l9.73,2.88Z"/>
        </g>
      </g>
      <g>
        <path class="cls-256" d="M203.85,166.62c3.02,2.97,3.5-.39,7.4.99.67.24,1.31.18,1.63-.25.24-.33.32-.85.36-1.32.66.42,1.46.26,2.02-.24,1.4-.52,2.12.29,2.14,2.42l1.74.64c.43-1.39,1.19-2.13,2.28-2.22l.71-.13c1.38-1.51,3.69-.61,4.16,1.41l-.48,1.73c.42,1.34.94,2.76,1.56,4.24l-.02.94c-2.5-.4-5.03-.82-7.47-1.53-1.2,1.79-2.34,1.38-2.29-.74l-3.79.65c-1.28,0-17.99-3.85-18.76-4.43-1.15-.86-1.73-2.44-.25-2.83.34-.26.53-.67.83-.96s.7-.43.95-.75c2.49.4,4.79,2.34,7.27,2.39Z"/>
        <g>
          <path class="cls-114" d="M230.19,137.23c-4.95,7.19-3.23,14.03-4.33,15.85.98,1.13.25,3.51-1.38,3.88.94,2.81.84,8.73-2.35,9.54-.09.68-.33.71-.71.13-2.64,1.74-6.97-.23-5.47-3.89-1.99-4.41-.89-11.23,2.22-14.94.77-3.5,5.62-11.33,5.8-11.97-2.17-1.53-2.83-2.99-1.96-4.39l.87-.17c2.59-.55,6.89,3.56,7.31,5.98Z"/>
          <path class="cls-53" d="M230.19,137.23c-2.12-3.22-4.07,5.73-6.2,3.04-.24-.3-.3-.91.26-1.46l3.12-3.1c-1.44-1.8-2.91-3.26-4.49-4.46.36-.78,1.08-1.21,1.69-1.18.74.04,8.05,3.62,5.62,7.16Z"/>
          <path class="cls-236" d="M218.17,147.79c-1.08,4.92-1.7,9.95-2.22,14.94.1,1.59-.13,2.61-.69,3.06.47,2.54-1.72,2.74-2.02.24-1.77-1.97-3.09-4.49-3.68-7.27l8.01-12.5c.33.45.5.99.6,1.53Z"/>
          <path class="cls-49" d="M205.46,161.29c-1.16,1.31-1.27,3.78-1.62,5.33-1,2.07-7.38-.02-7.27-2.39l.77-3.07c1.03-.68,1.65-1.77,2.26-2.82,1.81,1.23,3.87,2.05,5.86,2.95Z"/>
          <g>
            <path class="cls-97" d="M223.96,135.82c1.06.46.77,1.56-.85,3.32-.4,2.57-2.44,7.76-4.95,8.65-.88.19-1.08-.32-.6-1.53-1.04-.18-.6-1.48.12-1.82-3.52,5.33-6.78,10.75-9.78,16.27l-2.44.58c-1.96,1.65-6.16-.33-5.86-2.95-1.5-1.63-.25-4.79,2.03-4.69.56-2.88,1.58-5.8,3.07-8.74l1.68-.85c-.63-2.13.31-4.63,2.7-3.99l4.71-9.52c3.03-1.31,8.28,2.79,10.16,5.28Z"/>
            <path class="cls-169" d="M222,131.43c.87,1.46,2.43,2.66,1.96,4.39-2.51-.74-4.9-2.03-7.14-3.85-.85-1.04-1.94-1.48-3.02-1.43,1.79-3.62,6.5,1.23,8.2.89Z"/>
            <path class="cls-228" d="M217.56,146.26c-1.03,4.64-3.23,8.87-6.61,12.71l2.74,5.27-.46,1.79c4.48,3.77-10.18,4.19-9.39.59-2.22-1.38-1.13-5.79,1.62-5.33,4.59-5.19,7.47-11.61,12.15-17.56.28.82.16,1.69-.05,2.53Z"/>
            <circle class="cls-88" cx="204.58" cy="155.26" r="1.09"/>
            <circle class="cls-7" cx="209.57" cy="146.42" r="1.21"/>
          </g>
          <g>
            <path class="cls-132" d="M198.63,127.46c1.05-.54,1.92-.88,2.98-.38s6.11,14.99,4.78,16.97c-.49,3.62-2.5,6.79-4.75,9.59-.58.12-1.48.2-1.64-.18-1.59-3.9-5.84-15.68-6.32-19.37l.62-5c1.49-.34,2.94-1.01,4.34-1.62Z"/>
            <path class="cls-148" d="M209.09,140.06c-.69,1.4-1.9,2.66-2.7,3.99-1.97-2.53-4.83-19.25-7.76-16.58,1.49-.65,2.83-2.1,4.86-1.8,1.43,1.88,4.24,16.16,5.6,14.4Z"/>
            <circle class="cls-62" cx="201.34" cy="142.67" r="1.22"/>
          </g>
        </g>
        <g>
          <path class="cls-140" d="M207.86,248.31c2.27.59,1.54,6.35-.72,6.65,2.16.55,1.11,2.76-.33,3.6-2.48,1.67-.88,5.31-2.04,7.69-.72,3.54,1.31,6.5,6.08,8.88l1.43,2.29c-.03.97,1.23,2.04.83,3.15.96,2.25-5.81,5.93-7.55,4.35-.25.65-.52.64-.81-.02-6.87-.62-12.01-6.35-12.36-13.31-.05-1.07-.01-1.71,1.11-2.4.36-.64,1.29-.89,2.79-.76l1.82-.67c4.01-1.42,5.26-6.5,5.18-10.52-.02-1.17,1.17-2.67-.05-3.91-.3-2.31-.25-7.14,2.28-7.87,2.29-2.3,3.19.15,2.34,2.85Z"/>
          <path class="cls-213" d="M212.29,277.42c-3.67-5.02-10.45-5.13-7.51-11.17-1.45,5.82,7.64,6.48,7.51,11.17Z"/>
          <path class="cls-201" d="M221.42,166.62c-.32.93-.2,2.4-1.28,3.33-.89.77-2.66.09-3.62-.56-.9-.61-.56-2.43-1.26-3.6-.65-1.09.6-2.19.69-3.06-.02.6-.19,2,.78,2.33,1.75.6,3.48.45,4.69,1.56Z"/>
          <path class="cls-102" d="M218.18,183.95h.58s.81.28.81.28c0,0-1.66,9.44-4.99,28.32l-1.06.32c.35.59.02.99-.62.9-.64,2.12-2.93,1.46-2.98-.7-.68,1.13-.99,1.17-1.95.6-3.05-1.83-1.59-7.07-.65-9.81-.2-2.4.42-3.82,1.85-4.25-.66-.4-.63-.74.07-1.03-1.69-1.36-1.47-2.35.65-2.83-1.53-.82-1.74-1.09.08-1.54l-1.19-1.36c.04-2.41,1.21-10.53,4.11-10.01.99-1.93,4.97-.9,5.28,1.12Z"/>
          <path class="cls-125" d="M219.74,194.14c1.79,1.12,1.4,2.84-.79,3.05l-.23,2.96c1.36,1.67,1.19,2.46-.51,2.36l1.16,1.25c-.13,1.37-1.74,8.62-2.13,9.13-1.61,2.07-1.97,2.03-3.71-.01l5.24-28.92c.22-1.19,1.81-2.35,1.15-3.96.49-.55,1.42-.87,1.7-.36.95,1.73.51,13.51-1.87,14.51Z"/>
          <path class="cls-222" d="M225.64,178.75c.51.09.92.2.95.37.33,2-.45,8.88-1.12,10.75l-1.64.79c2.85,1.99-1.94,6.15-4.09,3.49l.77-11.13c.09-1.25.34-2.62-.59-3.01-.29-.71.28-1.69.21-2.8,1.99.29,3.77.82,5.52,1.55Z"/>
          <path class="cls-5" d="M198.6,171.9l1.31,1.11-2.55,13.07c.17,2.09-.36,3.51-1.57,4.25-.76.14-5.28.06-5.73-.09-.47-.16-.41-1.35-.32-2.09,1.18-5.83,3.79-11.28,4.53-17.21.75-2.25,4.44-1.32,4.32.96Z"/>
          <path class="cls-266" d="M194.8,165.94c-.21.34.02,1.26.74,1.43l22.05,5.18c-1.16.93-3.52,1.34-3.72,2.86-.09.64-.46,1-.99,1.31-.6.35-12.2-2.65-13.56-3.11l-.72-1.7c-1.44-.33-2.83-.88-4.32-.96-.71-1.51-1.06-3.15-1.44-4.89.94-.21,1.43-.12,1.96-.11Z"/>
          <path class="cls-133" d="M193.5,269.19c.59,4.36,2.2,9.13,5.14,12.84l6.11,2.87c-.39,2.06-1.34,1.9-2.39.1l-2.5.69c-4.5-1.63-9.01-3.26-13.51-4.89l-.49-1.77-.74-.76c.51-.04,1.21.05,1.69-.32.36-.28.53-1.15.5-1.91-.17-4.05,2.5-7.15,6.19-6.84Z"/>
          <path class="cls-121" d="M212.91,213.78c.69,2.94.48,6.13-.64,9.59l-1.52,6.23,1.39.86c-.75,4.95-1.46,9.63-2.13,14.04.65.09.65.36.07.77-1.25.12-2.07,1.81-2.21,3.04.11-1.49-1.04-2.37-2.34-2.85.17-.58-.17-1.29-.04-1.89,1.12-.74,1.17-2.12,1.34-3.63l3.11-26.87,2.98.7Z"/>
          <path class="cls-22" d="M213.88,175.4l-.97,7.43c-2.07,3.45-1.77,7.53-2.93,11.37l-14.19-3.88c-.35-1.72-.11-3.57.28-5.56l2.53-12.87,15.27,3.51Z"/>
          <path class="cls-254" d="M221.12,203.31c.56.19,1.39.59,1.32.97-2.53,12.81-5.79,26.05-9.19,38.93-.52,1.95-1.55,2.45-3.24,1.28-.48-.02-.98-.23-1.21-.58-.25-.38-.07-.77.01-1.33l1.94-12.99,2.91-13.93-.74-1.9c.08-.48-.13-.97.62-.9,3.65,1.76,2.55-4.57,4.69-10.37,1.13-.6,2.04.66,2.91.8Z"/>
          <g>
            <path class="cls-100" d="M219.89,173.28c-.83,3.5-1.44,7.09-1.7,10.68-1.8-.01-3.53-.66-5.28-1.12-2.27-.73-1.33-7.1.97-7.43-2.86-2.42,1.61-2.88,3.72-2.86.81.19,1.51.51,2.29.74Z"/>
            <path class="cls-25" d="M215.32,180.7c-1.55-1.15-.76-5.17.73-5.67,1.98.49,1.82,4.7-.73,5.67Z"/>
          </g>
          <path class="cls-41" d="M210.74,229.6c.78-5.24,1.25-10.56,2.16-15.82l2.14.31c-1.14,5.39-2.05,10.79-4.3,15.51Z"/>
        </g>
      </g>
    </g>
  </g>
  <g>
    <path class="cls-172" d="M36.04,449.25c1.5.39,2.29,1.51,3.04,2.75,3,4.96,4.32,20.43,3.33,26.26l-1.6,1.73H0v-59.25c.82-.42,1.74-.87,2.66-.7,9.63,1.79,29.6,17.45,33.48,26.46.37.85.12,1.85-.11,2.74Z"/>
    <path class="cls-190" d="M55.5,445.35c-3.84,2.27-7.39,4.81-11.43,7.69,3.44,9.05,3.54,17.92,3.78,26.95h-7.05c.65-10.2.52-21.51-4.76-30.75,3.43-.8,5.83,5.03,7.62.99.17-.48.42-.91.81-1.24,1.6-1.36,5.27-4.09,7.08-2.96,1.25-.45,3.03-1.61,3.95-.69Z"/>
    <path class="cls-111" d="M38.02,437.07l13.53,8.96c-2.45.88-5.69,5.54-7.89,4.2l-7.66-13.09c-.16-2.41,1.56-2.46,2.03-.07Z"/>
    <g>
      <path class="cls-255" d="M93.75,480h-19.5l-.3-.86c7.22-4.25,13.13-9.56,17.73-15.93.4-1.85.85-3.5,1.33-4.96,1.96,6.63.15,14.44.75,21.75Z"/>
      <g>
        <path class="cls-20" d="M90.75,456.75c.66-.04,1.33,1.12,1.52,1.76,2.32,7.71-14.6,18.14-20.27,21.49h-24.16l-1.55-2.04c.09-8.6-1.25-17.01-3.45-25.33,4.08-3.02,8.3-5.44,12.66-7.27,4.38-2.59,9.63-2.93,14.48-.94,4.71,1.93,18.81,8.97,20.77,12.34Z"/>
        <path class="cls-122" d="M93,458.25c1.95,9.01-13.72,16.78-18.75,21.75h-2.25c.1-.11.2-.3.26-.67,5.89-4.41,23.64-13.75,18.49-22.58.22-.28.47-.53.75-.75.54.61.61,1.91,1.5,2.25Z"/>
        <path class="cls-161" d="M64.06,460.14c-3.08.21-7.37-1.61-8.85-4.2.47-2.14,1.93-5.11,1.48-8.19,4.88,3.81,9.65,5,7.37,12.4Z"/>
        <path class="cls-183" d="M79.35,472.48c-1.55.55-4.06,2.6-5.45,2.98-.5-1.77.09-3.22.51-4.54,1.87-2.53,8-1.31,4.94,1.55Z"/>
        <path class="cls-107" d="M79.35,472.48c.04-.53.07-1.56-.81-1.77-1.55-.37-2.89.05-4.13.22.38-2.26,2.15-2.43,3.28-2.29,1.33.17,3.08.19,3.87,1.52.55.92-1.38,2.03-2.21,2.32Z"/>
      </g>
    </g>
  </g>
</svg>