<?xml version="1.0" encoding="UTF-8"?>
<svg id="_图层_1" data-name="图层 1" xmlns="http://www.w3.org/2000/svg" xmlns:xlink="http://www.w3.org/1999/xlink" viewBox="0 0 360 480">
  <defs>
    <style>
      .cls-1 {
        fill: #e2e0d4;
      }

      .cls-2 {
        fill: #948472;
      }

      .cls-3 {
        fill: #52433a;
      }

      .cls-4 {
        fill: #a8a399;
      }

      .cls-5 {
        fill: #2d2c2c;
      }

      .cls-6 {
        fill: #313131;
      }

      .cls-7 {
        fill: #8d5f48;
      }

      .cls-8 {
        fill: #b2ada1;
      }

      .cls-9 {
        fill: #b8b4ab;
      }

      .cls-10 {
        fill: #56534c;
      }

      .cls-11 {
        fill: #dbb35e;
      }

      .cls-12 {
        fill: #191816;
      }

      .cls-13 {
        fill: #fae18d;
      }

      .cls-14 {
        fill: #a29c93;
      }

      .cls-15 {
        fill: #c9c6bd;
      }

      .cls-16 {
        fill: #2e211a;
      }

      .cls-17 {
        fill: #1e1714;
      }

      .cls-18 {
        fill: #151514;
      }

      .cls-19 {
        fill: #b9866b;
      }

      .cls-20 {
        fill: #c6c3b9;
      }

      .cls-21 {
        fill: #f3f3e9;
      }

      .cls-22 {
        fill: #d9a983;
      }

      .cls-23 {
        fill: #d19c7e;
      }

      .cls-24 {
        fill: #a56b50;
      }

      .cls-25 {
        fill: #dfddd2;
      }

      .cls-26 {
        fill: #b7b3aa;
      }

      .cls-27 {
        fill: #f3c9a1;
      }

      .cls-28 {
        fill: #aca394;
      }

      .cls-29 {
        fill: #e3e2d7;
      }

      .cls-30 {
        fill: #cfcdc2;
      }

      .cls-31 {
        fill: #e7e5da;
      }

      .cls-32 {
        fill: #f5f5eb;
      }

      .cls-33 {
        fill: #8e877d;
      }

      .cls-34 {
        fill: #ebeae0;
      }

      .cls-35 {
        fill: #322e2d;
      }

      .cls-36 {
        fill: #fcddb8;
      }

      .cls-37 {
        fill: #c4c4c4;
      }

      .cls-38 {
        fill: #f4d378;
      }

      .cls-39 {
        fill: #c0bdb3;
      }

      .cls-40 {
        fill: #926b36;
      }

      .cls-41 {
        fill: #d1cfc4;
      }

      .cls-42 {
        fill: #bebbb1;
      }

      .cls-43 {
        fill: #ca9376;
      }

      .cls-44 {
        fill: #6c4936;
      }

      .cls-45 {
        fill: #dbd8ce;
      }

      .cls-46 {
        fill: #aa785e;
      }

      .cls-47 {
        fill: #222221;
      }

      .cls-48 {
        fill: #ac7a36;
      }

      .cls-49 {
        fill: url(#_未命名的渐变_3);
      }

      .cls-50 {
        fill: #8d867b;
      }

      .cls-51 {
        fill: #333;
      }

      .cls-52 {
        fill: #fdfdfc;
      }

      .cls-53 {
        fill: #201c19;
      }

      .cls-54 {
        fill: #141312;
      }

      .cls-55 {
        fill: #f3cba5;
      }

      .cls-56 {
        fill: #191919;
      }

      .cls-57 {
        fill: #cf9c7c;
      }

      .cls-58 {
        fill: #f1d27b;
      }

      .cls-59 {
        fill: #e4e4d8;
      }

      .cls-60 {
        fill: #dbd9ce;
      }

      .cls-61 {
        fill: #ebe9de;
      }

      .cls-62 {
        fill: #f6f6ea;
      }

      .cls-63 {
        fill: #ae7d38;
      }

      .cls-64 {
        fill: #bd9147;
      }

      .cls-65 {
        fill: #c4c0b5;
      }

      .cls-66 {
        fill: #c89577;
      }

      .cls-67 {
        fill: #b78065;
      }

      .cls-68 {
        fill: #e5e5d9;
      }

      .cls-69 {
        fill: #fefefe;
      }

      .cls-70 {
        fill: #c89e51;
      }

      .cls-71 {
        fill: #f4f4e9;
      }

      .cls-72 {
        fill: #a6a198;
      }

      .cls-73 {
        fill: #4a4840;
      }

      .cls-74 {
        fill: #ce9776;
      }

      .cls-75 {
        fill: #c4c1b8;
      }

      .cls-76 {
        fill: #8c867d;
      }

      .cls-77 {
        fill: #393737;
      }

      .cls-78 {
        fill: #c4c1b6;
      }

      .cls-79 {
        fill: #d1a757;
      }

      .cls-80 {
        fill: url(#_未命名的渐变_2);
      }
    </style>
    <linearGradient id="_未命名的渐变_2" data-name="未命名的渐变 2" x1="-452.45" y1="886.52" x2="-430.78" y2="981.07" gradientTransform="translate(585 -585) scale(.75)" gradientUnits="userSpaceOnUse">
      <stop offset="0" stop-color="#aba79c"/>
      <stop offset="1" stop-color="#c2bfb4"/>
    </linearGradient>
    <linearGradient id="_未命名的渐变_3" data-name="未命名的渐变 3" x1="-650.2" y1="936.43" x2="-603.02" y2="1008.34" gradientTransform="translate(585 -585) scale(.75)" gradientUnits="userSpaceOnUse">
      <stop offset="0" stop-color="#f9d3ae"/>
      <stop offset=".27" stop-color="#fddbb5"/>
      <stop offset=".34" stop-color="#a9a59b"/>
      <stop offset="1" stop-color="#b4b0a5"/>
    </linearGradient>
  </defs>
  <rect class="cls-69" width="360" height="480"/>
  <g>
    <g>
      <path class="cls-37" d="M225.84,443.14l.98.3-1.53,15.57c-.4,10.38,15.79,12.01,19.99,3.39.69-1.88,1.73-2.76,3.1-2.65.66-2.7.34-4.48-.95-5.32l-1.32-8.21,1.48-1.35,35.84,8.21c-.26,3.2-.71,5.85-1.53,8.89l-36.04,8.85-64.46,4.8-98.44-12.98-2-8.66,21.78-6.14,1.69.68c-.2,1.9,5.55,10.81,6.13,11.08.69.32,13.33.48,15.15.37,2.41-.16,4.9-.57,6.77-2.21l1.66.45c.92-2.23,0-4.56-2.77-7.01-2.23-1.65-3.23-3.32-2.99-5-.66-.14-.65-.37-.02-.67.91-.48,1.84-.93,2.8-1.28s1.89-.68,2.85-.79c9.68-1.09,19.4-2.04,29.11-2.81,20.63-1.64,38.73-1.08,59.04.75.62.06,1.23.33,1.85.62s1.24.69,1.83,1.11Z"/>
      <path class="cls-69" d="M222.76,391.57c3.46,14.91,9.21,24.82,2.46,40.61-.23,3.51.87,7.62.63,10.95-13.86-.76-27.74-2.61-42.02-2.18-18.75.56-37.11,2.8-55.46,4.59-.66-2.97-2.59-6.62-2.35-9.75,2.69-12.56.66-18.84,7.56-30.09l5.9-9.63,65.49-4.54,1.15-1.51c1.82-.75,14.4-.79,16.52-.31.49.11.42,1.14.12,1.85Z"/>
      <g>
        <g>
          <path class="cls-47" d="M133.58,405.7l.47,2.15c-3.72,8.24-5.8,17.12-6.24,26.66l-1.79,1.29-.4,1.8-13.2,5.58-.08,6.45c-1.8,1.22-2.32,1.42-3.59-.56-2-3.1-4.98-14.8-6.06-19.18-1.3-2.99-1.45-5.8-.45-8.43,3.47-3.34,5.23-6.76,6.14-11.7l1.88-.82c2.42-4.81,3.34-10.05,5.23-15.1.38-.45.96-1.05,1.39-.88,2.53.98,14.11,8.87,16.61,10.9l.09,1.86Z"/>
          <path class="cls-18" d="M102.24,421.44c1.92,9.74,5.29,19.11,8.42,28.65.88-2.71.06-4.88.2-7.89l15.17-6.41,1.48.81c.43,2.63,1.14,5.2,2.11,7.71l-1.24,1.23c.05.21-.01.45.02.67l-.2,1.72-10.2,4.37,14.79.89c2.43.77,2.16,3.02,1.37,5.04-4.91,5.59-15.86,2.34-24.2,2.64-4.21-5.93-5.72-6.14-7.2-13-1.05-4.85-2.24-9.71-4.17-14.56l-3.64,1.53c-1.19-3.32-4.46-7.25-4.39-11.14,1.44-5.54,6.55-9.72,10.97-12.58,1.19,1.01,1.63,2.61,1.31,4.79.82,2.48.63,4.33-.59,5.55Z"/>
          <path class="cls-54" d="M139.48,396.07c.45.37,1.09.93.94,1.34-.49,1.34-2.58,4.45-3.52,5.74-.74,2.02-1.84,2.87-3.32,2.55l-18.09-11.88c.33-.89-.29-2.2.16-3.02.45.08.81-.55.83-.94l1.7-.89c6.22,4.47,12.83,6.36,19.82,5.68l1.49,1.41Z"/>
          <path class="cls-77" d="M110.26,408.93c-1.27,2.52-1.92,12.33-8.02,12.52-.69-3.47-1.39-6.71-.72-10.33,2.6-1.68,5.56-1.81,8.74-2.19Z"/>
          <path class="cls-6" d="M128.39,446.2c2.89,2.37,9.09,8.22,5.76,12.01.03-1.08.23-2.12-.03-3.59-7.74.14-14.98-.63-22.45-1.26l16.72-7.16Z"/>
        </g>
        <g>
          <path class="cls-56" d="M246.59,388.34l.24,1.72-3.5,27.68c-.84,6.63,2.8,19.47,3.55,25.51.37,1.38.67,3.1-.97,3.2l-16.49-3.54c-.76.27-2.11,14.01-2.08,15.89.06,3.29,7.68,4.95,10.34,4.41l8.54-8.96c.48-.56,1.22-.93,1.9-.61.75.36.42,5.1.26,6.1-1.39,3.6-4.63,7.61-8.61,9.4-2.78.75-7.3-.31-10.13-.87-1.86-.37-5.41-3.57-5.28-5.41l1.46-19.73-1.46-1.13c-1.36-6.7-.2-12.04,1.95-18.47.71-10-.83-19.98-4.62-29.93l1.06-2.03c-1.34-1.67-.29-2.42,1.57-2.84,1.99-.45,9.53-1.11,11.68-1.06l1.82,1.32c1.34-2.39,6.93-2.53,8.77-.64Z"/>
          <path class="cls-51" d="M246.88,443.25c.09.48.77,1.02.72,1.62-.29,3.23,2.66,10.04.79,14.88l-.35-5.23-9.63,10.27c-6.31-.74-8.94.82-12.49-5.69.08-6.24,1.42-11.86,2.27-18l18.17,3.95c.5.09.47-1.54.53-1.81Z"/>
        </g>
      </g>
    </g>
    <g>
      <path class="cls-53" d="M114.96,125.31c1.48-1.53,2.4-.91,1.85,1.19-1.19,2.52-2.47,5.33-4.67,7.07-.59-2.43-1.21-5.07-1.9-7.46.02-.4-.13-.83.17-1.66,1.68.39,3.06.85,4.55.86Z"/>
      <g>
        <path class="cls-66" d="M139.5,130.59l-.97.19c-2.09-2.04-4.46-3.36-7.11-3.95-3.6-1.8-8.3-1.64-12.14-2.52-1.47.26-2.91.59-4.32,1-.54,1.43-2.11,1.69-4.72.79l-3.5-12.21-.11-1.35c.96-.9.89,1.63,2.18,1.29,7.84,3.34,16.94,3.79,23.7,8.74l13.78,10.08c-3.62.66-4.67-1.89-6.78-2.06Z"/>
        <path class="cls-55" d="M158.78,123.5c.17.59,1.29.95,1.29,1.66,0,.49-.23,1.34-.73,1.57-.87.4-1.43-.51-1.9-.67.12-.3.2-.53.17-.54-2.5-1.13-7.79-3.41-10.26-4.03l.25,1.52,10.57,11.29c-.45,1.37-2.19.21-2.96-.05-.79-.7-2.56-1.59-5.31-2.67-4.66-4.43-9.58-8.54-14.75-12.35l3.57-8.09,20.06,12.37Z"/>
        <path class="cls-19" d="M155.21,134.25c-1.51-.51-4.4-.8-6.04-1.46l-14.02-13.56c7.99,3.62,12.42,9.64,19.63,14.09.99-.04,1.67.82.43.94Z"/>
        <path class="cls-24" d="M139.5,130.59c.72,3.94-7-3.22-8.08-3.76,1.02-2.01,7.78,2.1,8.08,3.76Z"/>
        <path class="cls-7" d="M119.28,124.31c-.68.88-1.59,1.53-2.47,2.19-.42-.66-1.36-.59-1.85-1.19.47-.8.98-1.76,1.84-2.13,1.1-.47,1.94.47,2.48,1.13Z"/>
        <path class="cls-67" d="M157.44,126.07c-3.36-.8-6.57-2.04-9.84-3.06-2.47-.77-4.82-3.98-6.64-5.95l18.09,8.49c-.72.81-1.24.36-1.61.51Z"/>
      </g>
      <g>
        <path class="cls-21" d="M178.69,13.54l3.74,5.27c1.54,1.89,3.48,1.86,5.84-.09,3.09,1.89,6.27,3.63,9.04,5.91,1.99,2.14,2.22,3.68.69,4.62.01,1.25-2.33.04-2.2-.01.53-.23,2.73,1.34,2.95,2.26.64-1.32,1.24-.99,1.06.5,2.56,2.28,4.33,6.18,4.05,9.62,1.45,0,1.44.57.03,1.05l-2.42-.07-8.92-8.09-.58-2.29-2.02.2c-2.49-2.99-5.6-5.46-9.33-7.39l.22-1.75c-.56-1.52-2.59-3.88-3.11-1.44l-1.26,1.41c-13.62-4.33-21.38-.32-32.07,8.21-3.94,3.15-8.38,6.91-10.75,11.3-.17,3.02-1.18,4.98-3.03,5.9-.11,6.55-.09,13.13.06,19.76-.1,1.82-.34,3.09-2.37,2.74l-2.14.37c-4.04-2.58-7.55-5.61-10.5-9.12-.53-1.51.56-2.47,1.41-3.96,6.77-11.97,13.33-23.54,21.03-34.92l17.73-7.34c5.36-2.22,11.47-2.01,17-3.31,2.68-.63,3.97-.33,5.87.68Z"/>
        <path class="cls-21" d="M218.09,49.74c-1.06,2.71-3.36,8.36-6.48,7.11-1.79-.46-2.82-2.36-3.09-5.72l-4.99-6.53.36-1.94-.03-1.05c.35-3.37-1.53-7.38-4.05-9.62-.34-.06-.75-.33-1.06-.5-1.23-1.03-1.48-1.78-.75-2.25-.43-3.71-2.69-3.99-.69-4.62,1.46,1.21,4.37,1.46,5.74,3.43l15.04,21.68Z"/>
        <path class="cls-78" d="M128.31,71.14c1.58-1.61,3.3.33,2.89,2.26-2.18,4.32-4.13,9.16-7.06,12.89l-8.47-23.89c4.66,2.15,8.3,5.98,12.64,8.74Z"/>
        <path class="cls-65" d="M217.59,60.06c-1.28,1.52-3.34,2.32-5.18,2.87-2.17-.36-2.53-5-.8-6.09,2.11-1.37,4.37-6.51,6.48-7.11.3,3.45-.14,6.89-.5,10.32Z"/>
        <path class="cls-21" d="M188.27,18.72c.09,1.29-.56,2.34-1.57,2.71-4.56,1.67-6.44-3.01-8.73-7.34-.12-.23.64-.53.72-.55,3.17,1.69,6.49,3.29,9.58,5.18Z"/>
        <path class="cls-25" d="M130.51,50.25c1.89,1.42,3.18,3.69,3.86,6.82,1.69,2.32,2.37,4.54,2.06,6.64,1.45-.12,1.45.46,0,.87-1.9,2.76-3.7,5.79-5.22,8.81-1.23-.36-1.92-1.64-2.89-2.26,2.49-3.01-1.05-16.3,2.31-22.49.95-.18.92.36-.11,1.6Z"/>
        <path class="cls-73" d="M203.86,41.62c-.78-3.4-1.99-6.79-4.05-9.62,3.09.55,5.93,9.59,4.05,9.62Z"/>
        <path class="cls-69" d="M180.83,23.27c-.91-.1-2.23-1.4-3.11-1.44-.36-.59-.57-1.26-.69-1.94-.11-.61.65-1.61,1.35-1.69.67.92,4.88,5.17,2.45,5.08Z"/>
        <path class="cls-10" d="M198,29.25c.09.74.85,1.43.75,2.25-2.23-1.2-4.23-2.96-7.05-1.93.55-3.16,4.95-.21,6.3-.32Z"/>
        <g>
          <path class="cls-36" d="M230.18,57.66c.06,1.59-.17,3.14-.21,4.72l-1.22,3.64c-7.07,8.78-13.51,18.01-19.33,27.67.72.7.96,2.03-.12,2.43-4.16,1.55-2.98-1.35-1.45-3.88l-.73-1.47,5.7-13.09c-.86-.82-1.7-1.21-2.49-1.17l-3.62,7.82c-2.97,2.5-4.56.8-3.57-2.65-.85-.6-.56-1.83.87-3.67l-.71-.78c-3.9,4.87-7.68,9.88-11.33,15.05.58,1.99-.24,2.17-1.59.61-.61-.41-1.44-.98-1.37-1.59.23-2.19,3.56-8.27,5.82-8.72-.34-.22-.6-.44-.58-.63.09-1.18,6.27-12,6.99-12.3.61-.25,1.2-.32,1.84-.1-.41-1.71.62-2.44,3.07-2.18-.35-2.28,2.51-4.1,4.49-3.04-1.06-1.85.12-2.48,1.76-1.4-.18-1.92,3.58-3.85,5.18-2.87,1.69-.18,3.01-1.28,4.37-2.23,1.77-3.06,7.42-4.09,8.22-.17Z"/>
          <path class="cls-23" d="M229.61,72.75c.66-3.06-5.86,5.22-5.99,5.4-.63.9-2.83,1-2.68,2.69l-1.13.15c-.78,2.75-1.96,5.3-3.53,7.67l-1.77-.1c-.78,4.12-2.48,5.83-5.09,5.13,3.03-9.57,13.69-23.82,20.55-31.31-.07,3.47.3,6.96-.36,10.37Z"/>
          <path class="cls-74" d="M207.85,92.25c-2.01,1.44-1.67,5.2-7.35,5.93l1.91-14.11c-1.58-.89-.98-2.44.73-2.38.13.65-.08,1.69.47,2.13.39.32,1.61.32,1.91-.34l4.17-9.19c2.03.8,3.48,1.6,5.07,3.09-2.08,3.13-5.54,13.89-6.91,14.87Z"/>
          <path class="cls-43" d="M204.02,78.01c-1.71,3.9-4.19,7.34-7.43,10.32-.97,1.89-3,2.66-4.61,3.95,3.04-7.17,8.28-13.11,12.96-19.92.1,1.98.13,3.96-.92,5.65Z"/>
          <path class="cls-44" d="M203.15,81.68c-.39.83-.6,1.42-.73,2.38-1.54,1.25-4.56,2.47-5.24,4.57l-.58-.31c1.93-3.76,4.65-7.14,7.43-10.32-.65,1.06-.35,2.59-.87,3.67Z"/>
          <path class="cls-40" d="M206.16,67.37c-1.05.64-1.83,1.78-3.07,2.18-.42-1.07-.87-2.14-1.18-3.25l4.24,1.07Z"/>
        </g>
        <g>
          <path class="cls-38" d="M142.52,66.74l2.67.84c9.17,6.62,17.66,14.12,25.45,22.49,2.83.6,5.14,1.84,6.92,3.74,3.05-1.37,7.98,2.66,4.85,5.16.78.22,1.65.51,2.13,1.21,1.93,2.8,3.8,12.56,3.05,16.09,1.69.21,1.68.88-.02,2.01-.87,2.06-2.21,1.56-2.44-.63-16.05-8.68-31.15-20.18-45.6-31.23-.82-.28-1.41-1.15-1.45-2.35l-.66-18.47c1.06-2.26,4.77-1.35,5.09,1.16Z"/>
          <path class="cls-79" d="M185.13,117.63c-6.85,1.26-15-1.33-20.86-5.16-2.38.49-4.7-.58-6.95-3.2-5.96-6.96-11.66-14.14-17.1-21.53-.12-.42-.7-.81-.69-1.33.32.21,1.2-.13,1.8.29l39.83,27.63c1.59,1.1,3.25,1.86,3.97,3.31Z"/>
          <path class="cls-28" d="M164.28,112.47c1.97.99,3.82,2.15,5.54,3.48l-.37,1.76c-4-1.56-8.91-3.2-11.9-6.74l-10.68-12.62c3.36,3.97-8.63-12.86-6.65-10.62.17.21.7.22,1.01.6l15.85,19.36c1.88,2.29,5.31,2.88,7.19,4.78Z"/>
          <path class="cls-63" d="M142.52,66.74c-1.33-1.04-3.58-.61-5.09-1.16-.29-.38-.63-.72-1.01-1v-.87c-1.57-2.3,3.26-6.57,5.32-5.17,2.4.28,2.96,7.27.78,8.19Z"/>
          <path class="cls-13" d="M177.72,21.83c.96-2.04,2.86-.13,3.11,1.44,1.49,1.21,3.33,2.71,5.43,3.51,2.75,1.06,3.76,4.08,5.71,5.43.66.84,1.01,1.86,1.03,3.06,1.96,3.4,1.83,5.13-.39,5.2-.77.14-1.55.24-2.32.24s-1.49-.02-2.15-.24c-9.79-3.3-19.79-6.82-29.08-11.1l-26.91,21.49-1.63-.61c-.12-.5.18-1.09.11-1.6,1.34-2.47.82-6.6,2.97-8.92,3.61-3.9,7.43-8.12,12.08-10.91s9.68-7.39,14.96-8.6c5.58-1.29,11.78,1.39,17.1,1.62Z"/>
          <path class="cls-58" d="M203.88,42.66c9.26,11.43,4.88,6.35,7.72,14.19.7,1.93.63,4.08.8,6.09-.37.6-1.25.95-1.76,1.4-.69-.21-1.36-.44-1.99-.76-2.91-1.52-15.02-17.72-15.79-20.99-.16-.68-.22-1.39-.26-2.11,1.78-1.39-2.98-5.07-.65-8.26,4.36,3.02,7.79,7.14,11.92,10.45Z"/>
          <path class="cls-12" d="M167.92,39.02l2.39-.35c4.18,2.43,8.53,4.51,13.04,6.23,2.62,1.89,3.76,3.97,3.42,6.23.24,1.64-.57,1.95-2,1.24l-8.34-5.19c-1.84.48-2.63-.44-2.4-2.24l-1.43,1.19c-3.36.01-19.94,4.11-20.67,4.96-.49.57,1.83,14.39,2.4,14.89.67-.12,1.19.31,1.53,1.31,1.86-1.48,3.57-.55,3.88,1.71,3.64-1.04,10.69-.39,12.79,2.85l1.61.32,4.36,18.85c4.39-3.33,8.77-6.63,13.15-9.9-1-9.06-2.51-17.91-4.54-26.57-.09-1.29.76-1.63,2-1.21,3.02-.75,7.75,4.48,7.33,7.43l1.11,2.37c-.95,6.55-1.86,13.03-2.74,19.44-.85,3.17-4.72,7.15-4.45,10.31,1.05,1.58-6.06,7.26-6.56,7.14-.62-.14-1.07-.57-1.43-1.08-.54-1.19-.27-2.84-1.95-3.5l-10.7-4.2c-8.76-8.87-17.68-17.01-27.24-24.51l-.78-8.19-.24-2.52c4.54-6.55,9.83-12.41,15.88-17.56l1.8.35c1.83-2.11,6.61-1.57,8.74.2Z"/>
          <path class="cls-70" d="M192.61,40.47c5.74,8.15,11.44,16.38,18.04,23.86-1.38,1.21-2.94,2.09-4.49,3.04-2.12.96-3,1.12-4.24-1.07-2.07,1.75-5.45-3.07-5.45-5.53-2.43-2.47-4.57-5.27-7.33-7.43-1.91,1.18-2.79-.36-2.35-2.2-1.65-1.32-2.88-4.61-5.1-5.46-5.12-1.63-9.34-4.1-13.75-6.65-2.84-1.36-5.49-3.32-7.95-5.88,1,2.99.74,4.88-.79,5.68l-8.61,8.25c-3.59,3.44-6.51,7.43-8.83,11.48-1.65,1.63-4.16,2.98-5.32,5.17-2.82-3.91-4.82-8.76-5.91-13.46l24.98-19.92c1.58-1.26,2.96-1.65,5.02-1.04,11.09,3.26,21.52,7.48,32.1,11.19Z"/>
          <path class="cls-64" d="M207.85,92.25c.2.85-.64,2.07-.7,2.8,1.14.92,1.7-.91,2.26-1.35,1.83-1.41,3.66-3.28,5.09-5.13,1.53,1.56,1.83,3.91.9,7.04-.43,3.14-1.58,10.72-5.46,9.54-4.63,4.48-13.57,11.84-19.68,13.58-.89.25-1.85-.12-2.69-.46-.04-.63.22-1.39.02-2.01,1.54-8.19,3.84-16.27,6.9-24.24l2.68-3.38c.31-1.91,3.21-5.83,5.24-4.57l1.4.85-1.29,11.19c1.51-1.02,2.72-2.46,3.63-4.3l1.71.44Z"/>
          <path class="cls-11" d="M197.17,88.64l-8.61,26.45c-.2.61-.74.94-.97,1.16-1.88-5.74-2.69-11.8-5.19-17.3,2.31-.53,2.87-2.67,7.99-6.06.45-.3,1.15-.26,1.59-.61,1.3-2.28,2.84-3.6,4.61-3.95.44-.51.62-.39.58.31Z"/>
          <path class="cls-35" d="M201.91,66.3c2.25,1.01,2.64,2.09,1.18,3.25l-8.25,13.03c-.36.27-.66.08-.81-.13-.21-.31-.61-.9-.53-1.47l2.96-20.22,5.45,5.53Z"/>
          <path class="cls-5" d="M186.78,51.13c1.03.17,1.63,1.64,2.35,2.2-1.35,1.04.22,2.89.52,4.5,1.48,7.98,2.33,15.69,3.32,23.72-5.15,4.27-9.62,8.11-15.42,11.93l-5.01-21.63c-.16-.67.08-.87.71-.6l.78-1.81c4.22-1.65,8.47-3.11,12.73-4.39l.33-.95c-1.33-1.72-3.04-3.31-5.12-4.77l.37-1.69c-2.32,1.41-4.83-4.02-3.73-5.89-1.56-1.69-2.28-3.21-2.16-4.56,3.44-2.46,8.52,5.24,10.34,3.95Z"/>
          <path class="cls-5" d="M174.04,44.95c-.84,4.26-4.61,8.86-7.54,12.44-1.88,2.28-3.48,3.98-5.79,5.62-1.05,2.56-2.66,3.98-4.83,4.28-.64-.23-1.65.53-2.25.07-.44-.35-.94-.94-1.06-1.75l-2.26-15.35c6.69-2.18,13.33-3.96,20.23-5.76,1.28-.33,2.53.31,3.5.46Z"/>
          <path class="cls-48" d="M167.92,39.02c-2.7.13-5.96.27-8.74-.2.02-3.05-1.36-5.79-.51-9.54,2.87,3.74,6.97,5.97,9.25,9.74Z"/>
          <g>
            <path class="cls-57" d="M173.25,71.25c-.21.23-.45.43-.71.6l-12.79-2.85c-1.34-1.62-.34-2.16,3.01-1.6-.67-1.5-1.13-2.91.76-3.57-2.75-1.38,2.06-6.72,4.48-6.06l1.61.23c.48,1,4.03,11.07,4.11,11.74.07.59-.07,1.07-.47,1.51Z"/>
            <path class="cls-46" d="M176.44,47.19l2.16,4.56c-1.23.75-2.4.22-3.51-1.61l-4.65,6.6-2.43,1.03c-1.25,1.97-4.17,3.39-4.48,6.06l-.52.86c-1.82.11-1.9,1.01-.24,2.71-1.07.42-2.47.59-3.01,1.6-1.37-.31-2.57-1.25-3.88-1.71,6.41-7.16,12.9-14.28,18.17-22.34,1.13.17,1.94,1.25,2.4,2.24Z"/>
            <path class="cls-27" d="M178.6,51.75c1.51,1.64,2.15,4.32,3.73,5.89,1.42,1.69.33,2.88-3.28,3.56l-.54,1.79.35.96c2.63-.75,5.83-.99,7.89,1.11-3.53,3.27-8.88,4.75-13.5,6.2-.54,1.96-5.3-13.27-5.24-13.48,2.14-3.37,4.25-6.73,6.93-10.01l3.67,4Z"/>
            <path class="cls-22" d="M186.75,65.05l-2.85-1.47c-2.17.16-3.97-.03-5.4-.6-.48-.73-2.37-2.1-.96-2.8,1.92-.95,4.19-.74,4.78-2.55.86.86,9.55,7.91,4.42,7.41Z"/>
            <path class="cls-17" d="M163.52,63.83c-.16,1.36,1.05,2.87-.76,3.57-1.05.29-2.33.09-2.6-1.3-.14-.75-.1-1.99,1.08-2.58.58-.29,1.54-.01,2.28.31Z"/>
            <path class="cls-16" d="M186.75,65.05c-3.15-1.09-6.25-.64-9.89.51-.16-.95.58-2.16,1.64-2.58,2.78-1.09,7.2-.93,8.24,2.07Z"/>
          </g>
        </g>
      </g>
      <g>
        <path class="cls-61" d="M242.12,273.7l1.54.72-.08,6.33c2.6,1.17.89,6.39-.28,8.6l-46.46,38.38-3.31.78c.37.46.8,1.27.52,1.5-24.77,20.06-50.84,40.22-76.02,59.65l-1.56.21c1.96.96,1.03,2.19-.83.94,1.23-2.22-2.82-3.67-2.7-5.47.3-4.47.85-9.48,2.3-13.71,4.32-12.59,12.57-22.98,17.62-34.82l.94-5.86c7.86-21.73,15.53-43.52,23.01-65.38l-1.39-3.28c-1.25-2.46-1.11-4.14.42-5.05l.2-2.65c-4.18-8.22,5.85-6.83,3.27.58l2.64,5.03c3.9-2.76,8.16-4.93,12.78-6.51l24.47-15.01c8.69-5.6,12.74-4.71,12.16,2.66,2.13,4.51,2.97,8.7,3.24,13.68,3.87.1,5.25,1.47,4.16,4.13-3.07,1.36-2.45,2.75-.68,5.26.97,1.38,3.43,4.6,4.58,3.61,3.02-5.21,9.2-5.71,8.51,1.56l3.23,1.12c4.2-.67,6.78.32,7.72,2.98Z"/>
        <path class="cls-45" d="M228.6,97.5l3.05,1.89c9.28,17.54,17.77,35.48,25.46,53.82l.18,3.53c2.25,27.81,6.16,55.33,11.02,83.24l8.8,50.55,2.42,28.8c1.16,13.75,8.99,25.66,13.28,39.3-3.99,4.51-7.41,10.51-12.52,13.78-10.08,6.45-21.25,10.36-31.96,15.5-.89.43-.87,1.74-1.5,2.14-2.09.18-2.14-.88-.24-1.72l-1.48-.56c.65-22.06,1.3-44.14,1.96-66.25l1.6-3.42c-.58-.18-1.45-.47-1.47-.93-.17-3.65,0-18.4.76-21.14.33-1.19,1.01-2.47,1.63-3.56-.58-.08-1.4-.23-1.5-.67-.42-1.92-.53-9.27,1.57-9.86l-1.47-.93c.36-11.95.78-24.05,3.05-35.77l-1.5-.5c-.03-9.31-.05-18.61-.08-27.93l1.5-.89c-1.37-.65-1.96-2.24-1.78-4.75l-6.48-29.08.9-2.85-1.62-.35c-2.86-14.67-5.89-29.07-9.06-43.2l-1.72-1.04-2.79-11.23c-1.56-3.4-2.49-6.76-2.77-10.06-.57,0-1.3-.05-1.54-.51-.65-1.25-3.47-9.18-4.06-10.99-.16-.49-.09-.96.16-1.42-.45-2.74,6.5-4.67,8.19-2.95Z"/>
        <path class="cls-30" d="M137.2,189.09l1.58.11c5.6,20.47,11.21,40.97,16.84,61.53l-.64.72c.98,2.01,1.27,3.95.87,5.8.17,2.77,1.26,5.24,2.4,8.43-8.66,23.76-15.55,48.07-25.38,71.13l-2.64-50.96-1.63-19.2-1.86-56.55c-1.75-1.75-2.21-18.44-1.66-19.25.37-.55.82-.95,1.49-1.11-.44-4.41.72-5.78,3.48-4.1,2.29,1.46,4.67,2.61,7.16,3.45Z"/>
        <path class="cls-80" d="M254.89,92.75c.45-.56.71-.48.79.23l3.22.06,15.64,7.11,2.06,2.51-19.3,54.07c-10.24-18.74-16.53-41.5-28.69-59.24-.55.19-1.4.43-1.63.08-.63-.93-5.49-10.54-5.51-11.16s.45-1.14.88-1.6c-.48-2.03,4.65-4.43,6.3-3.76.16-.68.43-.7.82-.09,8.89,1.96,18.2,6.26,25.43,11.78Z"/>
        <path class="cls-61" d="M137.42,65.58l1.53.82c.32,6.74.51,13.41.58,20,1.08.33,1.31.77.69,1.33.8.84,8.93,11.19,7.83,11.34-.48.07-.91-.33-1.18-.72l12.04,21.18c1.15,1.69,1.11,3.02-.13,3.98-.3.39-.56.69-.66.64-2.28-1.01-18.68-10.2-19.25-11.15-.34-.57-.3-1.23-.15-1.85l-22.44-4.66,7.85-20.19c.36-3.4,2.99-9.16,4.99-12.09l2.07-.8c-.9-3.36,1.83-8,5.22-8.81.84-.18,1.18.15,1.01,1Z"/>
        <path class="cls-1" d="M257.3,58.51c.1.56.23,1.55-.02,1.95-.84,1.35-7.32,7.1-9.01,5.78l-.09,2c-.53.81-14.21,11.82-15.11,12.18-1.52.6-2.9,1-3.47-.81-2.32-.78-2.23-5.89.02-6.86-2.27-2.49-1.18-7.46.36-10.37-2.13-.94-1.9-3.9.21-4.72-2.15-.99-1.87-3.06-.04-4.37,1.11.3.89,1.54.98,3.35l25.87-9.98c.69,4.28,2.9,9.63.3,11.85Z"/>
        <path class="cls-32" d="M276.78,86.15l-.18,1.64c-5.92,1.92-11.85,3.83-17.77,5.74l-3.16-.54c-.23-.13-.54-.13-.79-.23l-1.35-1.18c-1.41-8.05-3.52-15.94-6.36-23.67l1.08-1.66,9.03-7.73c1.26,1.97.76,5.62,2.34,7.42l14.03,15.91c1.31,1.48,2.86,2.49,3.12,4.32Z"/>
        <path class="cls-31" d="M276.78,86.15c.77,5.34,1.5,11.77-.19,16.52-7.04-3.04-14.28-5.87-20.92-9.69l21.11-6.83Z"/>
        <path class="cls-2" d="M230.14,53.29c.39,1.45-.02,2.93.04,4.37-2.82-1.14-5.64-1.63-8.22.17,1.15-2.17,2.67-4.2,4.38-6.27,1.7.61,2.63,1.41,3.81,1.73Z"/>
        <path class="cls-42" d="M248.67,318.11c-.71,2.93-1.79,4.19-3.23,3.77-2.31-2.4-5.48-3.82-9.52-4.28-6.47,11.86-11.83,24.26-16.1,37.23-1.31,1.46-2.3,3.14-2.96,5.04l.54,1.74-10.56,29.15-1.87.76-.41,1.53c-21.35,1.48-42.7,2.96-64.06,4.44l-1.01-1.43c-14.62,1.01-11.8-1.33-23.01-6.2.07-1.06.75-1.64,1.83-2.49l75.23-58.88c2.86-.6,5.72-1.21,8.57-1.81,2.78-4.01,6.49-6.83,11.13-8.47,4.76-7.89,12.97-9.03,15.3,1.31,1.32-1.25,2.29-2.78,2.9-4.57l7.16-18.64c1.73-2.09,4.65-2.53,7.22-2.11,1.39-2.15,2.64-2.73,3.75-1.73l-.92,25.64Z"/>
        <path class="cls-26" d="M249.66,281.95l-.07,10.53c-1.45.61-1.6,2.59-3.5,3.17-2.27-.23-5.77-.16-6.69,2.3l-5.04,13.57c-.95,2.55-3.18,9.43-6.01,9.59-2.42.13-.32-5.42-5.58-7.44-1.73-.67-5.3.74-6.08,2.53-1.99,4.57-6.08,4.38-9.25,6.37-2.09,1.31-2.05,8.56-13.91,5.93l48.8-40.27c1.14-2.43.9-5.26,1.25-7.5.13-.7.39-.75.79-.16,1.06-2.34,4.66-.92,5.29,1.37Z"/>
        <path class="cls-20" d="M251.17,215.94l.08,29.31c-1.41,11.62-3.16,23.2-5.25,34.73l-1.63.6c-.26-.01-.53.15-.79.16-.55-.18-1.14-.74-1.19-1.68l-.27-5.36-.25-58.24c2.46-.55,5.12-.9,7.97-1.04l1.33,1.51Z"/>
        <path class="cls-62" d="M169.45,117.71c1.52-1.61,4.1.45,3.18,2.38l3.85,2.01c10.5,10.22,21.1,20.01,31.81,29.36l2.35-6.54,1.62-.92c2.96-10.47,6.92-20.61,11.87-30.42l1.73-.21c3.17,3.46,6.52,17.81,7.28,22.33,3.34,14.14,6.29,28.77,8.85,43.91l-.9,2.77c2.42-.12,2.74,4.7.41,5.06l-29.1,43.96-14.71-15.95-47.14-53.09c-6.71-7.55-13.34-14.39-19.2-22.05,7.77,1,15.4,2.95,23.77,3.37l-9.45-9.74c1.09-.23,1.63.18,2.3.09.53-.07,1.07-.54,1.21-1.25,1.8-.95,3.81-.47,6.04,1.46l1.1-.61c-3.14-2.71-6.16-5.65-9.07-8.82l.36-1.81c.41-.3.84-.55,1.29-.64,1.31-.27,7.19,2.57,8.55,3.69.92.38,1.58.31,1.99-.23-.49-.93-.7-1.71-.64-2.33-.46-1.63-1.13-3.33-2.12-5.08-1.52-2.67-11.33-19.45-9.79-20.08l1.44.18c5.92,8.01,12.33,14.26,21.13,19.18Z"/>
        <path class="cls-15" d="M248.67,318.11l-2.07,70.23c-2.9.53-5.88.38-8.77.64-1.7-1.25-5.03-4.1-6.33-5.86-1.78-2.41-2.51-4.05-1.42-7.1-2.8-3.39-2.25-7.42-1.5-11.44-.2-1.76-2.52-4.58-3.82-6-2.63-2.87-4.52-1.46-6.08,1.47l-1.81-.18c.22-2.21,1.1-4.38,2.01-6.74l9.36-24.39c1.07-2.78,5.26-10.18,7.19-13.15,7.02,3.75,7.15-.22,10.96,5.56.93-1.46,1.05-2.91,2.3-3.05Z"/>
        <path class="cls-26" d="M251.17,215.94c-1.93-.08-3.9.12-6.08.67-1.38.03-2.55-.26-3.22-1.14l-.38-28.02c-.02-1.54-.04-3.56-.41-5.06-.3-1.62,1.39-2.69,2.74-3.13l6.94,31.15c.47,2.09.4,3.73.41,5.54Z"/>
        <path class="cls-14" d="M225.85,113.37l-13.6,30.63c-.57-.12-1.19-.33-1.4-.84s1.03-9.34,1.36-10.46l1.62-.85c-.53-.13-1.42-.45-1.38-.78.51-3.69,4.56-28.99,5.71-30l1.64-.6c.11-.66.32-.65.61-.02,1.87-.05,5.64,11.43,5.44,12.92Z"/>
        <path class="cls-4" d="M249.66,281.95c-1.83-.24-3.43-1.29-5.29-1.37l5.33-29.4c.39-2.17.18-4.48,1.54-5.92l-.48,6.19-1.1,30.52Z"/>
        <path class="cls-72" d="M243.81,179.25c.16,1.68-1.13,2.89-2.74,3.13-1.43-5.7-2.02-11.57-3.06-17.71l-4.89-28.96c.45-1.15,1.14-.37.92.65l9.76,42.9Z"/>
        <path class="cls-52" d="M220.94,80.84c2.22.26,2.94,2.37,1.4,3.98l6.26,12.68c-2.68,1.19-5.73,1.46-8.19,2.95l-.61.02c-.58-.08-1.45-.27-1.49-.67-.22-2.34-.39-13.09-.04-15.13.23-1.31.81-2.56,1.53-3.67-.05-1.45.52-1.51,1.13-.15Z"/>
        <path class="cls-34" d="M254.89,92.75c-8.62-3.57-17.16-7.5-25.43-11.78-1.2-.34-1.32-1.35.13-1.36,1.33.84,2.64-.43,3.87-1.42l14.8-11.95c2.08,7.34,6.82,19.16,6.63,26.51Z"/>
        <path class="cls-50" d="M228.64,81.06c-1.49,2.01-4.07,2.76-6.3,3.76-.62-1.26-1.03-2.62-1.4-3.98-2.25-1.92.63-4.31,2.68-2.69,1.85-1.69,5.75.36,5.02,2.91Z"/>
        <path class="cls-3" d="M229.61,72.75c-.43,2.21.2,4.64-.02,6.86l-.13,1.36-.82.09c-1.31-1.46-3.38-1.88-5.02-2.91-2.39-1.08,3.87-7.04,4.81-7.18,1.53-.22,1.56.2,1.18,1.78Z"/>
        <path class="cls-41" d="M237.82,388.98c-4.13.36-8.24,1.25-12.77,1.17-1.12-.02-1.97.73-2.3,1.42,1.06-1.48-16.45-.13-17.79-.04l9.87-27.51c.56-1.55,1.01-3.19,2.02-4.15,1.29-1.23,2.26-4.08,4.4-4.31,3.1-.34,5.68,2.67,6.55,5.22,5.74,2.96-1.94,8.56,4.07,15.04-3.44,6.89,5.21,7.29,5.95,13.16Z"/>
        <path class="cls-29" d="M196.65,126.45l2.9-.69c4.47.97,11.09,3.12,14.28,6.08l-1.58,12.15c-.11.86-.18,2.01-.59,3.04l-2.91,7.29-22.22-20.59c-4.92-4.56-9.75-8.79-13.91-13.65,1.29-1.4,3.18-1.55,5.68-.45l17.74,5.08.61,1.74Z"/>
        <path class="cls-33" d="M196.65,126.45l-17.92-5.15c-2.16-.62-4.19-.97-6.11-1.22l-3.18-2.38-5.17-5.24c6.84,2.11,13.86,3.63,20.86,5.16.81.18,1.59.59,2.44.63,8-3.25,14.86-8.83,22.38-13.11.49.31,1.17.89,1,1.22-2.16,4.28-9.64,16.87-12.56,20.13l-1.74-.04Z"/>
        <path class="cls-9" d="M219.8,100.47l-5.97,31.38c-5.83-1.46-11.44-3.74-17.18-5.39l13.3-21.31c3.67-2.09,4.46-12.68,4.56-16.58,1.84-2.4,2.86-5.57,5.3-7.57-.65,1.99.29,4.15.25,6.46l-.26,13.01Z"/>
        <g>
          <path class="cls-59" d="M131.35,140.31l3.4,1.9c25.71,29.71,51.6,58.52,77.67,86.44l27.32-41.29,1.75.07c.58,0,1.48.12,1.51.49.52,6.66.62,15.93.3,22.6.54,2.65.06,4.3-1.43,4.94l1.51,1.4c.08,18.64.16,37.28.24,55.92l-1.5.92c-5.88-3.33-5.08.4-11.6-2.81-1.82-.9-.29-3.13-1.14-4.66-1.01-1.83-4.35.49-5.1,2.05-.69,1.42-2.08,1.7-3.4,1.72-1.08.02-1.08-1.98-2.04-2.79-2.46-2.06-4.92-4.82-2.99-8.04.3-.5,1.51-.43,1.78-.76.31-.38.05-1.83-.79-1.71-6.63.92-2.14-5.17-5.72-11.82-3.01-5.61.51-5.99-2.42-8.49-1.03-.88-11.2,4.91-13.18,6.14l-19.54,12.18c-3.12,1.95-6.78,2.42-10.01,4.48-1.33.85-3.45,3.32-5.09,2.35-.99-1.98-1.67-4.15-2.94-5.96-.31-.45,1.53-4.04-.81-5.06-.47-.21-1.05.15-1.44.67-.92,1.22,3.16,2.71.17,6.06l-18.65-68.16c-.59.09-1.5.1-1.63-.3-4.62-15.31-8.01-31.4-11.07-47.05.04-.25-.02-.5,0-.75.03-.62-.36-1.97.75-2.18,2.41-.45,4.3,1.26,6.1,1.49Z"/>
          <path class="cls-39" d="M137.2,189.09c-4.37,2.04-5.79-2.18-10.36-2.98l-.28,3.63-.82-24.77-.68-14.91c-.13-2.94-.99-5.63-.57-8.32.07.09.25.22.63.39l12.06,46.95Z"/>
          <path class="cls-61" d="M240.04,254.68c-2.32.09-3.78.72-5.39,1.9.02-3.59,4.37-5.89,6.74-4.14.71.53-.68,2.32-1.34,2.24Z"/>
          <path class="cls-61" d="M224.54,260.07c-.04,1.17-1.61.96-2.13.68-.48-.26-1.64-1.12-.95-1.71.85-.69,3.12-.03,3.08,1.03Z"/>
        </g>
      </g>
      <g>
        <path class="cls-49" d="M116.28,106.47l.97-1.33c6.9,1.43,13.8,2.87,20.7,4.3l.77,1.69c1.95,1.47-1.18,8.31-3.57,8.09,5.03,3.56,9.69,7.61,14.18,11.85.38.36.13,1.13-.16,1.72.93.73.96,1.64.11,2.72,5.66,5.41,11.66,11.2-2.1,8.89-5.81-.32-11.09-1.68-15.82-4.08l-1.46,1.17c-2-1.29-3.79-1.45-5.38-.49l-.12,31.41c-5.34,8.47-11.59,16.22-18.73,23.26-.6.18-1.36.81-2.05.46l-1.25-1.4,9.31-47.14,1.73-2.67c-1.97-.74-1.54-1.7.51-1.63-1.3-2.58-2.3-5.43-3-8.54l1.23-1.19c.26-2.43,2.08-7.11,4.67-7.07-.81-1.76.68-2.71,2.47-2.19,1.35-1.9,6.44-.78,8.74-.16,2.33.13,3.47,1.03,3.4,2.68.78-.18,1.56.02,2.35.6,2.01,1.68,3.93,2.73,5.74,3.16l.48-1.23c-7.76-6.44-17.17-10.34-27.11-12.48-3.16-.43-5.24-1.88-6.25-4.35-.84-.54-1.22-1.58-.78-2.43.49-.96,6.24-4.52,10.44-3.64Z"/>
        <path class="cls-60" d="M111.13,141.56c1.4-1.79,2.59.05,2.77,1.73l-.51,1.63-1.38,3.07c-12.26,10.04-24.53,20.08-36.79,30.13l-1.65-.59-.73-.55-1.54-7.33,2.39-23.35,1.96-4.59c.18-1.77.3-3.57.13-5.35-1.06-3.36-.43-7.89,2.36-10.16l32.98,15.38Z"/>
        <path class="cls-75" d="M103.61,196.12c-10.41-5.39-20.64-11.59-30.03-18.6l39.82-32.6c-.41,1.31-.13,2.92-.48,4.7l-9.3,46.5Z"/>
        <path class="cls-76" d="M124.5,141.75c2.52,14.49,3.66,29.15,3.43,43.98-1.27.29-1.73,1.63-1.37,4.02l.17,20.35-12.49-17.2c-3.26.82-5.91,1.94-8.59,2.76,1.3-5.45,14.85-17.47,17.28-23.59l1.56-31.08c.66.18.64.44,0,.75Z"/>
        <path class="cls-68" d="M110.24,126.1c2.76,1.19,3.42,4.98,1.9,7.46.78,3.2,2.69,6.76,1.77,9.72-1.22.09-1.86-1.3-2.77-1.73-5.37-5.52-12.33-9.55-19.12-15.12l12.28-9.33c1.26-.96,2.44-1.68,2.45-3.22,2.06-.53,4.6,9.3,4.38,9.82-1.21.47-1.13,1.31-.88,2.39Z"/>
        <path class="cls-71" d="M72.84,176.97l-8.64-20.05c3.97-5.5,7.44-10.55,11.46-15.23l-2.31,23.32c-.42,4.19-1.21,8.14-.5,11.97Z"/>
        <path class="cls-8" d="M78.15,126.18c-.53,3.44-1.4,6.82-2.36,10.16l-6.56-10c1.44-1.42,2.51-2.96,3.94-3.74,2.16.67,3.33,2.81,4.98,3.58Z"/>
      </g>
    </g>
  </g>
</svg>