<?xml version="1.0" encoding="UTF-8"?>
<svg id="_图层_1" data-name="图层 1" xmlns="http://www.w3.org/2000/svg" viewBox="0 0 360 480">
  <defs>
    <style>
      .cls-1 {
        fill: #77493b;
      }

      .cls-2 {
        fill: #f8e7d4;
      }

      .cls-3 {
        fill: #f5e0cc;
      }

      .cls-4 {
        fill: #b43b34;
      }

      .cls-5 {
        fill: #2a1511;
      }

      .cls-6 {
        fill: #c74a45;
      }

      .cls-7 {
        fill: #fcd2b9;
      }

      .cls-8 {
        fill: #683c2f;
      }

      .cls-9 {
        fill: #f6c8b0;
      }

      .cls-10 {
        fill: #ecbda6;
      }

      .cls-11 {
        fill: #d5d3d2;
      }

      .cls-12 {
        fill: #ededeb;
      }

      .cls-13 {
        fill: #7c1d1a;
      }

      .cls-14 {
        fill: #f9cdb4;
      }

      .cls-15 {
        fill: #fefefe;
      }

      .cls-16 {
        fill: #f6f6f3;
      }

      .cls-17 {
        fill: #562f27;
      }

      .cls-18 {
        fill: #c48a8c;
      }
    </style>
  </defs>
  <path class="cls-15" d="M108.75.05c1.26.61,1.91,1.96,1.96,4.05l7.63,26.26c1.35,1.9,1.68,3.5,1,4.81.51-.28,1.36-.6,1.56-.29,4.11,6.44,8.86,15.06,12.25,21.91,1.37,1.57,1.52,2.87.47,3.92l.64,1.52-13.59,14.48c-2.65,10.27-5.15,20.57-7.52,30.91-.62,6.02-.35,12.03.81,18.04-.01,1.32-.42,2.42-1.24,3.28,1.54,1.37,2.22,3.53,2.06,6.47,2.61-8.12,5.11-16.28,7.51-24.48-.51-.3-1.24-.84-1.1-1.24,3.21-8.41,7.76-18.93,11.83-26.93.63-2.68,1.76-4.02,3.4-4,.22-1.03,1-1.84,2.34-2.42l17.77-16.66,1.72-.35.53-2.11c5.9-5.27,11.69-10.61,17.38-16l1.56-.47.84-1.61c5.01-1.79,9.98-3.73,14.93-5.84l-6.13-13.36-15.46-18.25.58-1.64h111.75c2.16.49,1.31,1.95-.15,3.15l-23.2,16.29-15.51,26.39h-1.75c-1.44,1.63-3.53,1.18-6.29-1.33-7.21-7.33-16.43-11-26.52-12.6l-.4,58.64c-.03,1.48-1.09,2.17-2.48,2.22l-36.07-7.31-1.62-1.86-.21,2.21c-14.59,13.22-29.1,26.38-43.52,39.45l10.68,1.26.88,1.61c1.89-1.22,3.21,1.75,1.47,3.05l1.93.61c1.36,7.52,5.01,10.11,10.93,14.26,5.6-1.16,11.29-1.77,17.08-1.83.82-2.14,4.27-2.44,5.94-.97.23-.68.48-.65.76.03l1.12.35c1.19,4.85,1.56,9.95,1.13,15.32l.81,2.29c-1.77,4.31-3.8,8.5-6.1,12.56l-2.16.98c-3.02-1.06-3.12-4.76-2.91-7.63-1.31.16-2.28-.58-2.9-2.23-5.86-2.18-11.99-3.9-18.38-5.15-2.16,2.83-4.44,5.69-6.85,8.56l-1.9.33c.11,1.45-.55,1.79-1.66.85l-1.52.84-24.35-14.41-1.69.71c.43,1.78.46,4.55.22,6.48-.55,4.34-2.86,17.91-4.35,21.44-.04,1.42-1,2.15-2.12,2.91l.65.76c-10.24,12.79-20.36,25.98-30.35,39.55l.91,17.91-1.43,1.63,1.54,1.41c-.11,3.54.11,7.06.65,10.55l-1.12,1.72c2.27.51,1.88,2.57-.21,2.94l-.32,1.59c-6.72,5-13.73,9.49-21.04,13.47l-.83,1.78s-3.98,1.59-11.93,4.76l-29.75,24.09c-.78,2.96-6.45,21.07-7.54,21.42-.66.21-1.27.04-1.83-.33V.05h108.75Z"/>
  <path class="cls-15" d="M341.25.05h18.75v316.65l-1.5.7c-8.58-7.21-17.17-14.42-25.76-21.63l.28-1.73-.72-.91c-.33.55-.59.52-.76-.1-5.28-2.31-10.33-5.22-15.14-8.74l.03-1.75-1.32-1.56-8.57-58.22,6.55-36.72c-1.43-8.29-2.58-16.61-3.44-24.95l2.74-34.61-8.35-22.65.35-2.82,25.21-31.98L339.63.73l1.62-.69Z"/>
  <g>
    <g>
      <path class="cls-6" d="M73.43,273.57c1.98-.12,2.44,3.38,2.63,5.1.43,3.82,1.27,15.22.52,18.34-2.53,10.54-6.81,23.85-13.15,32.67l-1.92.53c-1.01,1.9-1.91,1.33-2.96-.3l-11.17-22.56,9.37,30.8-.42,3.73c-.03,1.02-.09,2.03-.27,3.03s-.34,1.96-.75,2.81c-9.09,19.04-19.63,37.27-30.28,55.46-.48.82-1.16,1.52-1.86,2.23s-1.49,1.36-2.29,1.98l-1.11.57-18.03,30.78H0s0-107.98,0-107.98c.95-.51,1.23-1.69,1.64-2.87,2.24-6.48,4.82-12.25,6.48-18.94l30.15-24.6c3.74-2.38,9.43-4.21,13.61-5.3,6.25-3.47,14.59-7.07,21.55-5.49Z"/>
      <path class="cls-6" d="M4.4,461.19l1.84-.02c7.72,4.54,16.34,9.65,23.19,15.65.38.33.61.85.84,1.4s.37,1.17.48,1.78H0v-20.25c1.63-1.72,4.35-1.08,4.4,1.44Z"/>
      <path class="cls-13" d="M20.88,407.39l-.35,3.72c-3.97,8.29-7.78,16.61-11.44,24.97l-1.55,1.24c-.52,1.35-1.57,2.23-1.73,4.47l-1.42,19.41c-1.22-.77-3.08-.84-4.4-1.44v-21l12.94-22.33,7.35-9.75c.5.15.46.52.59.71Z"/>
      <path class="cls-17" d="M117.57,480h-11.08c2.54-8.2,6.1-16.05,9.26-24.02l1.83,24.02Z"/>
      <path class="cls-17" d="M73.25,264c.55,3.14-.1,6.46.18,9.57-7.24,1.34-14.36,3.62-21.55,5.49.6-.91,1.52-1.65,2.61-2.43l15.4-10.91c1.16-.82,2.15-1.62,3.35-1.72Z"/>
      <path class="cls-13" d="M61.51,330.21l-5.18,11.66-15.8-51.68,19.16,38.55c.29,1.07,1.08,1.53,1.82,1.47Z"/>
      <g>
        <path class="cls-10" d="M214.47,266.37c1.29-1.41,1.93-.7,1.93,2.13.55.19,1.34.5,1.34.95,0,3.06-1.76,9.49-3.93,11.68l.89,1.44c.16,2.5-25.19,36.54-29.15,40.59-1.65,1.69-3.74,3.06-5.81,4.05-.44,1.83-1.66,3.49-3.64,4.99l-.05,1.56c-2.38,2.36-4.52,4.93-6.42,7.72l-1.82-.07-1.05,3.52c-4.4,4.42-8.1,9.33-11.1,14.74l-23.01,56.77c-.38,1.86-1.18,3.25-2.41,4.16l-.31,3.08c-3.15,6.85-5.87,13.89-8.16,21.09l-1.89.76c.07,1.9-1.21,9.32-2.36,10.03-.55.34-1.12.52-1.78.41-1.03,6.97-3.74,14.83-6.77,21.25-.54,1.15-1.51,2-2.49,2.78H42.12l-5.82-1.59c-1.97-.83-6.16-2.79-5.65-4.95l-.77-1.39c38.66-42.44,76.52-85.51,113.56-129.23,1.85-2.11,3.77-3.62,5.77-4.53l-.65-1.52c10.42-11.59,20.84-23.18,31.26-34.77l1.71.34v-2.23c10.03-11.86,20.33-23.45,30.88-34.78l2.06,1.03Z"/>
        <path class="cls-18" d="M30.65,473.45l11.46,6.55h-11.37c-7.92-7.29-17.22-13.05-26.35-18.81l-1.43-.97,1.4-19c.25-2.78,1.31-4.08,3.18-3.91l2.14,2.11,5.6,24.86,14.4,6.94.97,2.23Z"/>
        <path class="cls-7" d="M149.21,338.31l-30.11,35.81-44.33,50.11-44.11,49.23c-5.17-2.95-11.14-4.87-16.53-8.33-2.91-9.53-4.04-19.2-6.58-27.81,3.87-10.13,7.91-20.47,13.33-29.93,12.33-21.5,25.37-42.85,35.45-65.51.04-3.86,1.17-7.63,3.39-11.31l1.8-.35c2.08-4.68,5.92-8.92,7.54-14.3,1.95-6.45,4.53-12.65,6.06-19.23,1.14-4.9-1.06-10.29-.48-15.21.36-3.06-.98-5.41-1.21-7.91-2.48-1.12-2.07-7.95-.18-9.57-.16-.92.46-2.08.21-2.94,2.49-3.97,9.42-1.73,10.98,2.44-.35,4.44.5,8.22,2.57,11.31.26,1.58,1.24,2.56,2.95,2.95,1.49,2.64,3.67,4.83,6.54,6.55-.18,1.51-.88,2.91-2.07,4.2.43,3,1.62,5.29,3.57,6.86,2.89-.16,3.53,1.81,1.92,5.9l.95,1.53c4.7,1.21,4.67,5.95,4.5,10.1-5.23,2.17-7.21,6-1.84,9.26.76,3.37,1.66,6.24,4.17,8.76,1.15-5.09,8.88-1.85,11.47.45,6.64,5.89-.97,6.93-6.13,5.35,1.45.92,4.12,1.51,8.02,1.77,1.71,2.87,3.86,5.01,6.45,6.42,2.35,4.69,7.98,1.3,10.71-1.57,1.94.14,2.02,0,.17-.15,1.39-1.69,3.21-2.98,5.44-3.86.91-2.52,4.94-4.71,5.39-1.02Z"/>
        <path class="cls-3" d="M156.77,197.26c1.64-.17,2.65-.14,3.08,1.66l1.66.73c1.71,5.49,3.87,10.82,6.47,15.97,1.82.33,2.58,1.17,2.29,2.52,2.79,1.9.25,7.77-3.53,7.39l-36.21-18.34-15.36,10.91-1.76-.59-24.02,17.18c-3.31-1.5.36-5.18,2.94-5.1l3.88-6.3c9.26-9.56,17.56-19.85,24.89-30.87l2.72-1.77-.13-2.13c2.24-3.83,4.76-7.41,7.57-10.73-.84-1.61-.34-3.41,1.58-3.75-.06-1.71,1.76-4.41,3.57-4.48.51-.37,1.06-.68,1.66-.85,3.52-2.83,7.43,1.64,4.65,6.15l-5.78,15.56c-.08,2.15.9,2.88,2.95,2.19l1.94.77c2.46,5.14,5.88,7.12,10.27,5.93,2.42-3.42,3.97-4.1,4.67-2.05Z"/>
        <path class="cls-7" d="M203.27,126.86c.06,5.63-1.26,11.27-3.94,16.93-8.77,23.9-17.44,47.69-26.01,71.38l-1.45.73c1.09,1.85.44,2.53-1.6,2.23-.77-.82-2.72-.54-3.49-1.65-2.11-4.27-6.43-13.66-6.93-17.57l-.09-2.82c3.22-6.44,6.18-13.01,8.87-19.7l2.38-1.55c2.57-5.31,5.69-10.11,7.45-15.84-.36-1.1-.39-2.47-.09-3.6.84-3.18,4.03-9.74,7.04-10.69l3.42-6.88c2.03-4.17,5.94-8.36,7.7-12.57,1.15-1.62,5.97.06,6.74,1.61Z"/>
        <path class="cls-7" d="M132.83,174.05c-.13,1.39-.38,2.91-1.58,3.75-3.14,3.55-7,6.5-11.58,8.85-2.46,2.43-4.95,4.21-7.44,5.35-1.24,1.9-3.1,3.49-5.58,4.78l-10.25,26.4-4.07,6.41c-.35.38-.21,1.42-1.09,1.79-1.53.65-2.03,1.96-1.84,3.3-5.68,4.06-10.65,9.56-17.01,12.7l-.84-20,26.52-35.53,4.54-4.32c2.11-2.52,7.22-6.16,10.3-7.5l1.73.79c1.89-2.88,15.32-10.29,17.41-9.75s2.53,1.82.79,2.98Z"/>
        <path class="cls-7" d="M168.1,167.22l.25,3.58c-3.29,8.72-6.58,17.44-9.87,26.17l-1.71.29c-1.76-.51-1.72,1.57-2.89,2.63-3.06,2.8-9.61,1.13-11.21-2.73-2.35-5.69-5.07-1.25-6.38-3.78-.42-.81-1.14-2.42-.73-3.6,2.31-6.57,5.07-12.63,6.95-19.36-1.56-.92-3.06-1.29-4.45-1.71,1.93-3.82,5.49-6.56,8.37-10.19,6.01.96,11.59,2.51,17.35,3.98,2.88.73,3.28,2.77,4.31,4.71Z"/>
        <path class="cls-18" d="M171.01,174.84c-3.82,7.92-6.52,16.52-11.17,24.07-1.26,0-2.95-.19-3.08-1.66l11.33-30.04c1.28,2.4,2.15,4.94,2.91,7.63Z"/>
        <path class="cls-9" d="M170.26,218.14c.12-.85,1.21-1.52,1.6-2.23.1-.57.31-1.43.73-1.46,1.49-.11,14.89.41,15.41.99.45.5.37,1.32.27,2.02.62,1.92.11,4.23-1.55,6.94,1.53.9,1.06,2.61-1.41,5.13-3.95,3.75-3.76,4.55-.58,8.95,2.1,2.9,4.5,5.53,7.28,7.81,7.71,5.61,15.15,11.53,22.32,17.76l.14,2.33c-1.57-.17-2.7,1.38-3.89,2.74l-29.05,33.24-1.99-5.67c-1.4,1.18-3.01,2.73-4.36,1.59-5.37-4.48-7.94,3.64-12.34,3.12-1.9-.23-2.79-2.37-4.7-2.92-2.28,1.49-4.82,1.16-7.52,1.65-1.37.24-.07,2.74-.27,3.6-1.41,6.24.4,7.39-.98,8.09-3.25,1.64-4.87-2.87-14.81-1.71-2.31.27-3.66-1.07-4.39-2.56-.86-1.78.28-2.83,1.16-4.59.57-1.14-1.83-1.95-1.96-2.67,2.1-6.5,5.62-.42,12.49-5.44,2.1-1.53,4.31-2.49,5.31-5.13-3.65-.69-3.88-3.46-4.84-6.05-.66-1.79-1.94-3.23-.49-5.23-2.8.12-5.52-1.14-5.97-3.56-.12-.66.89-1.48.55-1.96-1.18-1.66-5.5-.87-7.07-1.8-1.3-.77-2.14-1.66-3.38-1.51-.97.12-2.17,1.38-3.11,1.61-1.57-.77-4.42-1.15-5.48-2.11-2.08-1.87,1.58-4.36,1.48-5.84-.23-3.25-2.38-6.85-.42-10.01s4.4-17.45,5.32-21.88c.66-3.17,3.43-7.41-.23-9.88-1.7-1.15-8.51.93-9.93-1.66-.39-.71-.2-1.58-.19-2.31l17.15-12.18,37.48,19.18c1.64-1.97,1.94-4.26,2.23-6.37Z"/>
        <path class="cls-7" d="M208.36,197.23c1.38.04,2.88.5,4.51,1.39,2.91,5.17-2.8.79.9,9.98.55.66,1.11,1.42,1.13,2.31.05,2.48-4,14.76-5.22,17.8l-1.92,1.64c1.21,1.28,1.32,3.06.33,5.33.39-1.79,1.3-2.6,2.71-2.41,2.74,1.55,4.02,4.95,5.93,7.33,2.42,8.56.06,11.66.73,21.28.15,2.13-.64,4.54-1.06,6.61l-1.93-2.13c-10.02-11.06-27.24-18.02-33-30.61l-1.34-2.92c1.72-1.07,6.4-7.02,6.58-8.44,4.08-9.23,9.51-18.81,15.21-27.18,2.54-3.73,5.75-3.8,6.43.02Z"/>
        <g>
          <path class="cls-14" d="M181.53,302.35l-32.32,35.95c-.89-.27-2.07-.65-2.7-.21-.85.58-1,1.97-1.77,2.4l-5.15,2.88c1.74-.97-3.77,6.42-10.61,5.21-1.24-.22-1.65-2.33-2.84-2.75-3.23-1.13-4.18-4.25-5.91-6.13-2.12-1.09-8.06,1.04-9.17-2.85s9.21.56,9.22-1.36c-.75-2.74-2.93-3.53-5.07-4.48l-4.24-1.87c-1.57.99-1.51,2.59-3.22,4.09-8.49-9.14-2.34-9.16-7.71-12.01-1.68-.89-1.1-4.11-.49-5.84s2.61-2.26,4.75-3.15l-1.23-7.01c-2.33-.25-3.72-1.44-4.36-2.93-.86-1.99-.19-3.19,1.4-5.17-4.01.03-4.92-1.63-5.77-4.37-.44-1.44-1.93-3.07-1.26-4.81.38-.98,1.41-1.87,2.38-3.23-9.86-4.47-2.58-6.07-9.53-6.34,1.13-2.88-2.12-4.32-2.31-6.58l-.73-8.95c-8.07-4.57-3.19-1.5-9.42-1.74-1.28-4.42-.88-9.11-1.08-13.68l.82-2.13c4.85-3.26,9.47-6.83,13.87-10.71l2.32.15c1.75-2.93,21.01-18.19,22.42-17.88.57.12,1.1.4,1.6.7.8.54,1.58,1.22,2.34,2.02,6.42-.99,10.13.68,11.12,4.98-1.74,10.49-4.29,20.73-7.65,30.72.42,3.12.7,6.21.86,9.27-4.61,4.42,1.62,5.99,5.06,3.76,1.82-.29,3.56.26,5.21,1.64,5.69-.07,8.01,1.55,6.97,4.88,1.19,1.47,2.98,2.49,5.37,3.06-.02,4.05,1.5,9.39,5.42,11.24-.6,6.39-9.57,10.18-15.56,9.43-1.69.33-1.59,1.64.28,3.94-1.99,3.22-1.76,5.27.69,6.15,5-.51,9.9.18,14.71,2.04.05-3.93.41-7.72,1.06-11.36.7-.81,8.94-1.93,10.34-1.79,1.96,2.33,3.79,2.9,5.47,1.72,3.42-2.97,7.05-5.6,11.13-1.99,4.27-3.8,7.07,1.15,5.3,5.14Z"/>
          <path class="cls-9" d="M137.33,279.38c-.66,3.41-5.1,5.04-5.41,3.71-.53-2.26,1.68-3.14,3.63-5.39.5-.57,1.93.91,1.78,1.69Z"/>
        </g>
        <path class="cls-10" d="M213.62,99.08l1.13,1.3-4.31,12.13c.73.89,1.72,1.57,2.95,2.05,2.45.58,4.08,1.62,4.89,3.13,2.94-2.53,5.5-5.53,7.69-8.98l1.82.63c-.11,2.43-1.17,5.21-1.63,7.54l-7.41,20.74-2.2,1.18-.83,5.46-13.01,38.34-1.71.36,1.1,1.31c-3.8,10.21-7.81,20.55-12.01,31.01l-1.82,2.18c-1.79-1.75-3.78-.88-6.03-1l-10.37-.54c-.34-2.77,1.19-4.73,2.11-7.22l20.17-54.96c3.38-9.2,6.5-17.88,9.13-26.87-.54-.23-1.34-.65-1.26-1.05,1.61-8.08,5.04-18.37,9.53-25.21.61-.31,1.27-1.41,2.08-1.52Z"/>
        <path class="cls-9" d="M227.82,103.75c-2.06,4.05-4.36,8.01-6.91,11.87-.7.9-1.48,1.79-2.63,2.07-3.44-.36-6.7-2.3-9.77-4.24l5.11-14.37c.91-.99,1.94-2.36,4.03-2.25,4.27.22,9.07,2.83,10.17,6.91Z"/>
        <path class="cls-14" d="M211.54,100.6c-.33,3.61-2.59,6.8-3.68,10.55l-4.59,15.71c-2.43.47-4.55-.63-6.74-1.61,3.21-7.72,6.77-15.42,12.09-22.47.9-1.19,1.83-1.62,2.93-2.18Z"/>
        <path class="cls-18" d="M227.82,103.75c.43,1.62.04,3.92-.03,5.59-3.58,1.48-3.92,8.92-9.51,8.35.19-1.36,8.11-14.7,9.54-13.94Z"/>
        <path class="cls-18" d="M123.81,190.66c-6.61,12.49-21.6,28.26-31.49,38.94l13.17-34c2.14-1.14,4.62-3.4,6.73-3.6,1.96-1.16,2.91-1.66,5.32-1.35,3.16-1.5,5.25-1.5,6.26,0Z"/>
        <path class="cls-10" d="M123.81,190.66c-5.03.59-4.86,2.24-9.6,1.21-.26.6-.32,1.15-.59,1.32-.38.23-.81.18-1.06-.23-.14-.23-.23-.6-.33-.96,3.31-5.85,13.22-10.58,19.02-14.2-1.88,4.56-4.06,9.25-7.44,12.86Z"/>
        <path class="cls-18" d="M209.28,231.04c.76.45.98,1.68,1.52,2.24l-5.01,11.27c-.56-4.91,1-9.51,1.97-14.19.42.37,1.07.41,1.52.68Z"/>
      </g>
    </g>
    <g>
      <path class="cls-1" d="M291.77,240.78l1.7,2.5,3.12,26.11,12.21,6.95.2,1.84c1.43,1.59.18,2.9-3.75,3.93l-.77.75c-2.58-1.28-4.93-3.3-7.05-6.04.46,8.61,1.47,17.17,3.01,25.68l-1.2,2.64,2.2,6.36c5.56,52.72,11.49,105.58,22.51,157.54.06,1,.09,1.95.09,2.95-.02,2.23-.32,7.11-2.24,8h-58.99c-.59-.07-1.47-.29-1.49-.71-.58-11.42.03-24.8,2.03-36-1.95-.35-1.79-.96.03-1.65l-.51-5.39,13.75-205.9,1.56-.82,1.69-.97c5.2,2.42,9.16,6.49,11.9,12.22Z"/>
      <path class="cls-2" d="M248.85,402.8l1.64.11c4.18,11.15,8.35,22.31,12.52,33.5l.37,5.23c.19.5-.05,1.15-.03,1.65-2.28,12.21-5.2,24.29-8.74,36.24l-1.68.47h-48.22l-1.21-1.12,17.57-54.25c-.07-1.74.49-2.81,1.68-3.23l-.23-2.5,10.55-41.91,1.67-.5c1.59-2.33,2.64-.78,3.54,1.31,1.43,3.29,1.22,10.9-1.44,13.68,1.94,2.05,2.61,4.81,2.01,8.26,2.52,1.72,4.07,3.88,4.63,6.47,1.83,1.04,2.63.29,2.39-2.25.73-1.85,1.39-2.8,2.98-1.15Z"/>
      <path class="cls-6" d="M313.47,328.54c.57-.14,1.45-.29,1.63.07,1.65,3.26,3.47,8.63,4.6,12.25,5.08,16.26,8.36,33.21,11.41,49.93l-1.28,1.45,1.27,2.49c2.11,12.01,4.1,24.07,5.99,36.17l-.65,5.41,1.62.63,4.71,30.18-.79,11.92-1.57.95h-18.6c-.33-3.62,1.32-7.29.58-11.29l-10.64-57.27-7.69-62.06-4.8-44.23,2.31.68c3.73,7.38,7.91,14.42,12.54,21.11l-.62,1.6Z"/>
      <path class="cls-8" d="M185.76,355.38c.47,10.89-5.14,21.64-10.22,30.98,1.03,1.01.74,1.61-.7,1.37.2,1.16,0,2.48-.64,3.98l5.87,70.36c-.34,5.53-.96,11.04-1.86,16.51l-1.56,1.43h-34.86l-1.64-2.02c.13-2.48-.31-4.45-1.33-5.9l-6.13,4c-2.77,2.21-5.45,2.97-8.02,2.25-2.33-.02-2.92-5.74-.78-6.5l.59-2c3.97-2.19,7.64-5.04,10.22-8.81l2.03-.42c8.17-23.2,16.7-46.27,25.61-69.22.02-1.86,7.19-8.73,7.97-8.56.67.15,1.12.62,1.42,1.22,3.85-7.9,7.02-16.14,9.52-24.73l1.1-1.45c-1.79-1.68-.71-4.07,1.52-4.64,2.05-1.86,3.83.25,1.9,2.14Z"/>
      <path class="cls-3" d="M193.46,382.51c.95.25,1.07,1.49.66,2.25,1.5.07,1.49.82.1,1.5,1.04,0,.98,1.38.64,2.25,2.04.01,2.24,1.33.46,2.33.53.91,1.02,1.82,1.42,2.78s.77,1.89.9,2.86c3.97,28.03,3.88,56.6,1.86,83.52h-18.69l-1.45-.94,1.06-18.42-6.15-71.36.57-1.56c.24-.43.35-1,.7-1.37l11.01-20.33,2.28-.76c.77.23,1.63.53,2.09,1.23,1.07,1.63,3.25,11.39,3.53,13.85l-.99,2.17Z"/>
      <path class="cls-4" d="M360,384.83v95.17h-8.98l-1.59-.47c-2.63-17.46-5.27-34.96-7.92-52.48l.55-6.4-1.18-1.27,8.64-28.35c.06-2.24.76-3.79,2.1-4.63.97-2.72,6.74-4.54,8.37-1.57Z"/>
      <path class="cls-3" d="M222.75,421.4c-.02,1.07.22,2.22-.24,3.64l-17.79,54.96h-4.46c.74-23.74.83-47.48.29-71.2l-1.93-14.32.94-3.1-1.83-1.65c-.73-6.27-2.06-12.41-3.97-18.4-.34-1.78.38-2.52,1.99-1.65.76.51,1.5,1.04,2.16,1.65s1.29,1.21,1.72,1.93c8.61,14.55,15.94,30.08,22.87,45.42l.27,2.71Z"/>
      <path class="cls-6" d="M331.54,293.03c.22-.02.56,0,.76.1l.72.91,26.98,22.66v68.14c-1.52.01-3.12-.2-4.85.35-1.16.88-2.35,1.27-3.52,1.22-2.33.24-2.26-6.54-.03-7.03l-1.48-.74,1.26-34.7-7.47-14.74c-3.85-5.45-7.19-11.12-10.03-16.99-5.18-2.54-10.08-8.19-12.16-13.6-3.05-4.89,5.96-8.42,9.82-5.57Z"/>
      <path class="cls-13" d="M351.02,480h-10.62l.87-12.8-4.84-30.89c.4-5.47,1.66-11.77,5.64-15.66l8.95,59.35Z"/>
      <path class="cls-10" d="M180.81,480h-4.16c.12-6.37,2.41-12.69,1.83-19.54l-5.78-68.76c-.15-1.84,1.19-3.11,2.14-3.98.35.35,1,.89,1.08,1.83l6,71.1-1.11,19.36Z"/>
      <path class="cls-8" d="M199.54,391.38c1.39,7.07,2.47,14.09,2.75,21.9.85,23.74-.55,43.78-2.05,66.72h-.75l.09-33.03c.05-19.15-1.48-37.63-4.27-56.13.96-2,3.75-1.55,4.22.54Z"/>
      <path class="cls-10" d="M262.81,480h-9.89l8.97-33.59c.35-1.31.66-2.4,1.45-3.12l-.54,36.71Z"/>
      <path class="cls-13" d="M123.89,471.84l.78,6.5c2.01.39,1.87,1.03-.04,1.66h-7.06c-.59-.03-1.46-.14-1.55-.56-1.35-6.83-1.4-16.62-.28-23.46l4.13-10.44,1.56.28s1.24,8.15,3.73,24.46l-1.28,1.57Z"/>
      <path class="cls-18" d="M141.79,480h-17.16c-.06-.54.1-1.12.04-1.66,5.71-2.14,10.69-5.6,15.88-9.32.7,3.86,1.03,7.43,1.25,10.98Z"/>
      <path class="cls-4" d="M316.43,282.55c.16.1,16.22,10.04,15.11,10.48-3.91.32-9.44.63-9.82,5.57l-2.99-.85c-2.7-2.13-12.82-11.61-13.33-13.92-.12-.55-.15-1.13-.14-1.71-.03-3.09,2.94-1.51,3.75-3.93l7.43,4.36Z"/>
      <path class="cls-4" d="M333.02,294.04c-.3-.25-.53-.58-.72-.91.34.16,1,.44.72.91Z"/>
      <path class="cls-17" d="M277.87,226.55c2.18-.23,2.35,2.27.31,2.97l-13.74,205.77c-.17,2.58-.31,4.47-1.06,6.34l-14.54-38.84c-1.98-.58-2.82-2.53-2.52-5.86-.06-17.92-.61-35.79-1.65-53.6l1.25-1.32v-72.42s29.08-42.69,29.08-42.69c.81-1.27,1.66-1.37,2.87-.35Z"/>
      <path class="cls-17" d="M305.25,282.12c4.98,5.96,11.02,10.97,16.47,16.48,4.28,4.32,8.25,8.98,12.16,13.6,2.2,3.48,2.31,5.68.32,6.59-.08.67-.26.61-.52-.07l-.68-.81-2.64-.59c-4.66-5.27-9.7-10.05-15.14-14.34l4.6,10.37-.94,1.59.45.89c.64.14.63.36.03.66.23.29.41.58.43.88.27,3.59.26,7.09-2.12,10.03-1.07,1.31-2.89,2.68-4.2,1.13l-1.36-1.65c-5.39-6.55-7.91-15.06-12.86-21.74-1.11-10.22-3.66-20.34-3.39-31.37,3.95,2.23,6.75,7.33,9.4,8.33Z"/>
      <path class="cls-8" d="M291.77,240.78c-6.9-2.63-2.23-7.22-13.59-11.26l-.31-2.97c-2.63-.67-.87-5.23,1.34-5.93.86-2.58,6.29-15.43,8.49-15.26.39.03.77.16,1.15.31,1.62,11.65,2.18,23.39,2.92,35.11Z"/>
      <path class="cls-5" d="M279.21,220.62c0,2.06-1.54,3.96-1.34,5.93-1.64.51-2.24,2.23-3.32,3.8l-27.23,39.61-.12,67.5c0,1.75-.02,3.93-1.29,4.55-1.42.28-2.25-.57-2.51-2.56l-.3-4.94-1.63-.26-10.64-38.61,2.54-28.02c-.27-1.16-.06-2.12.64-2.87-1.56-1.05-1.93-3.25-1.11-6.6-.03-2.27.07-3.75,1.82-5.33,24.66-23.15,33.22-24.29,45.89-57.67.69-.06,1.49.11,1.67.72.32,1.09-.86,18.25-1.26,20.08-.35,1.6-.97,3.24-1.83,4.66Z"/>
      <path class="cls-6" d="M234.74,252.83l-.72,11.93-.85,2.77c-2.72,2.88-14.93,13.77-17.78,13.81-.53,0-1.06-.09-1.59-.21l2.59-12.63c-1.2-1.98-1.34-5.81,1.06-6.61,1.07-1.96,3.06-3.35,5.99-4.15,2.06-1.67,4.07-2.34,6.05-2.01,1.48-1.14,4.03-1.75,5.25-2.89Z"/>
      <path class="cls-17" d="M288.85,205.67c-3.15,2.38-6.91,13.68-9.64,14.95l1.6-22.82c.07-1.04.06-1.9-.18-2.63l5.97-15.72c2.12,8.6,1.07,17.69,2.25,26.22Z"/>
      <path class="cls-13" d="M243.11,334.51c.55,5.17.04,10.38-1.52,15.63l-1.68.78c-1.08,2.19-2.46,1.03-3.44-.82-4.64-11.4-9.01-22.93-13.09-34.6l-29.95,33.52c-1.16,1.67-2.4,2.08-3.73,1.23-.71.1-1.71.22-2.04-.26-2.61-3.87-7.13-16.23-8.7-21.13l.76-1.65c-.22-2.3,1.82-2.57,3.37-3.82,6.08-4.92,26.04-34.29,30.7-42.26,7.42-4.37,13.73-10.64,20.22-16.37.59.63.98,1.64.86,2.93l-2.56,27.77,10.8,39.05Z"/>
      <path class="cls-17" d="M170.6,369.75l1.56.73c.41,1.3,1.03,12.38.51,13.01-.22.27-.57.43-.96.57-1.7-.05-2.56,1.82-3.85,2.72-3.15,2.19-4.08,4.84-5.38,8.29l-22.86,60.96c-.74,1.97-1.32,3.9-2.91,4.59l-1.51-.81c.39-12.34-1.66-24.5-5.66-36.39l.68-2.81c-.23-1.66.42-3.24,1.17-5.11l22.18-54.86c3.08-7.62,9.28-13.29,14.21-19.22.35-.07.69-.11,1-.04,1.02.23,2.37,18.12,2.54,20.55.83,3.12.58,5.73-.73,7.83Z"/>
      <path class="cls-18" d="M130.23,420.61c3.04,9.87,6.2,20.18,6.36,30.83l.14,9.18c-2.81,4.9-7.8,8.69-12.84,11.23l-4.01-26.31c1.89-4.76,7.01-21.56,10.36-24.92Z"/>
      <path class="cls-18" d="M176.09,332.2l1.69.15c3.41,6.32,5.93,12.89,7.57,19.7l-1.5,1.18c-.15,1.61-1.23,3.1-1.52,4.64-1.73,2.89-7.43,11.63-10.03,12.74-.51.22-1.21-.39-1.71-.86l-2.81-28.34c.65-.78,6.76-9.57,8.3-9.21Z"/>
      <path class="cls-17" d="M189.71,350.26c.34-.04.68-.05.99.04.92.25,5.65,16.03,6.07,17.97l-1.04,1.42c-.7-.06-.65.7-.54,1.31,2.58,6.8,3.04,13.74,4.35,20.39-1.42-.04-2.82-.35-4.22-.54-.11-.74-.53-1.57-.46-2.33.21-.98,0-1.73-.64-2.25-.02-.5-.12-1-.1-1.5.18-.86-.04-1.61-.66-2.25-1.55-5.7-2.32-11.8-4.63-17.25-2.57-2.31-3.6-5.61-3.07-9.88-.39-.95-.65-2.1-1.9-2.14.45-4.77-5.71-15.99-7.77-21.03-.49-2.58,1.38-4.06,3.64-4.99,2.95,4.47,6.87,19.56,9.97,23.05Z"/>
      <path class="cls-3" d="M245.92,342.02c.5,2.12.92,4.91.97,7.48l.84,43.5c.07,3.51.01,6.85,1.12,9.8-2.06.18-1.69,3.29-1.72,5.44-1.04.86-2.57-.45-3.59-.55-2.11-.21-1.41-2.57-2.49-3.88-1.22-1.47-2.93-2.13-3.56-3.49-.87-1.89.4-3.64-.09-5.51-.32-1.24-1.91-1.98-2.03-3.02-.16-1.45,1-2.13,1.66-3.33,1.42-2.59-.46-11.3-.33-11.12-.35-.49-1.21-.72-1.97-.86l5.18-25.56,3.2-16.41,2.81,7.5Z"/>
      <path class="cls-8" d="M319.36,316.51c.14-.37.3-.71.56-.93,1.37-1.13,5.86,8.37,6.26,10.17,4.73,21.23,8.29,42.68,10.19,63.69l-1.37,1.18c-.13,4.97-2.16,3.79-5.19,1.64-1.92-12.09-8.12-42.06-12.38-53.26l-3.97-10.44c8.79-4.37,2.13-10.28,5.89-12.04Z"/>
      <path class="cls-17" d="M351.6,379.36l.03,7.03c0,1.43-.14,3.36-.66,5.05l-8.9,29.21c-1.6,5.25-3.53,10.61-5.64,15.66-2.29-14.65-5.09-29.3-6.61-44.06,1.01-1.26,2.41-.3,4.11.78.49-.86.49-1.81,1.08-2.42l1.59.69,1.31,11.78,3.18-11.84c.51-4.94,1.83-9.36,3.96-13.26.79-2.19,6.46-.91,6.55,1.39Z"/>
      <path class="cls-10" d="M171.72,384.06l-1.12-14.31c.71-.15,1.37-.64,2-1.38l7.94-9.31c.56-.66,1.21-.98,1.8-1.19-1.83,9.75-5.25,19.22-9.59,28.5-1.04-.71-.65-1.7-1.03-2.31Z"/>
      <path class="cls-10" d="M188.83,365.26c-4.65,6.92-7.53,15.12-13.29,21.09.03-.7.08-1.53.5-2.46,4.29-9.39,7.27-18.88,9.72-28.52,1.31,3.2,2.42,6.49,3.07,9.88Z"/>
      <path class="cls-8" d="M194.86,388.51c-.81-.43-.61-1.46-.64-2.25.81-.17,1.75-.06,1.58,1.1-.06.42-.6.82-.94,1.15Z"/>
      <path class="cls-8" d="M194.12,384.76c-.81-.43-.64-1.46-.66-2.25.63.05,1.7.14,1.61,1.08-.05.5-.48.91-.95,1.16Z"/>
      <path class="cls-8" d="M351.6,379.36l-6.55-1.39-1.34-1.38c2.24-13.03,2.14-25.87-.3-38.52-2.92-6.07-6.24-11.93-9.94-17.59l.73-1.69c.64-2.23-.65-4.35-.32-6.59,7.84,9.25,13.82,19.77,18.93,31.39l-1.21,35.78Z"/>
      <path class="cls-6" d="M333,317.92l.68.81.52.07,8.79,14.58c6.02,9.98,3.45,33.64,2.05,44.6s-4.33,21.41-7.85,32.45l-2.19-19.81-1.07-9.29-.41-4.19c-1.68-17.28-4.92-34.02-8.78-50.96-.02-.08-4.51-10.61-5.4-9.67.04-.2-.11-.47-.03-.66l-.45-.89-7.4-16.68c8.76,5.73,15,12.9,21.52,19.64Z"/>
      <path class="cls-8" d="M333.68,318.72c-.32-.18-.56-.46-.68-.81.24.25.48.51.68.81Z"/>
      <path class="cls-8" d="M319.33,315.85c-.81.34-.52-.47-.45-.89.67-.22.6.52.45.89Z"/>
      <g>
        <path class="cls-11" d="M341.25.05l-10.24,69.73-25.87,32.72,8.79,23.58-2.67,32.24c-.77,9.33,2.72,18.27,3.32,27.79l-6.55,36.65,8.51,56.2c.22,1.46.04,2.59-.1,3.59-1.45,1.96-7.97-2.08-7.43-4.36l-14.1-8.03c-.11-9.9-2.52-19.72-3.13-29.38l-1.79-4.6-2.03-25.68.9-4.84-1.73-1.83c-.22-6.22-.62-12.36-1.19-18.41l-3.51,9.24-1.79.49c-.77,7.96-4.53,15.1-8.5,21.86-7.33,12.49-23.29,26.13-34.66,35.31l-2.73.5c-.53,2.56-2.86,4.19-5.25,2.89-.62.4-1.47.81-1.96.43-.77-.6-5.18-13.34-5.85-15.58l.38-1.55.7-2.21c4.7-2.24,9.28-4.67,13.75-7.28l1.16.08c1.92-10.92,3.54-21.93,4.86-33.02l.91-1.88,41.54-20.69c.78-.87,1.59-1.56,2.44-2.08-1.07-3.64-1.2-7.6-.4-11.89.22-6.55.45-13.09.7-19.64.02-.49.37-.98.81-1.46-1.39-1.99-1.47-3.5-.26-4.54.02-7.85.6-17.44,1.3-26.04-3.12-7.82-5.72-15.68-7.81-23.6l.75-.8c-1.31-.61-1.28-1.73.1-3.37l18.65-21.68c3.34-4.1,10.38-15.65,11.85-20.55l3.95-26.78,1.64-.86,1.02-2.2c5.51-3.33,11.19-6.16,17.06-8.49h4.5Z"/>
        <path class="cls-12" d="M297,.05c.82-.13,1.5.11,1.53.82.12,2.55-6.94,11.41-9.67,13.08-2.21,2.7-2.41,3.59,1.5,3.68l9.77.51c1.1.13,1.26,1.01.87,2.09l.48,2.29c-5.91,16.68-19.97,33.41-31.5,47.04-.69.82-1.56,1.49-2.45,2.16s-1.86,1.26-2.85,1.82c-.84,1.5-1.88,1.21-3.07.12-6.26-8.59-12.46-17.28-18.58-26.06l.6-1.73,16.21-27.44c7.71-5.9,15.32-11.07,23.32-16.42.8-.53,1.06-1.3,1.06-1.97h12.75Z"/>
        <path class="cls-18" d="M315.75.05l1.49,1.06c-11.09,26.68-22.61,53.19-34.55,79.51l-5.88,9.5c.58.35.49.56-.21.66-.45.49-1.02.83-1.7.77-.89-.08-9.83-12.49-10.91-14.13l.11-1.66c-1.55-1.35-1.42-1.82.59-2.2,9.04-10.6,17.55-21.76,26.01-33.21,4.63-6.26,6.77-13.77,10.31-20.09l-.05-2.95,8.64-15.53,2.4-1.71h3.75Z"/>
        <path class="cls-10" d="M319.5.05c2.07,2.39,1.64,8.51-.82,10.69l-4.13,27.97c-.37,2.5-10.14,19.09-12.97,22.19-5.79,6.36-11.22,12.62-16.56,19.34-1.01,1.28-2.6,2.14-2.53,3.75-.18,2.25-3.07,7.42-5.68,6.12l16.43-36.86,22.1-50.62c.44-1.01.43-1.84.4-2.58h3.75Z"/>
        <path class="cls-10" d="M128.25.05l1.56.28c1.43,9.53,2.86,19.07,4.29,28.61l-1.35,1.1c-2.22,3.79-5.67,5.25-10.07,4.53-1.27.81-2.38,1-3.33.59-.76-1.37-1.84-2.33-2.42-4.34l-7.25-24.92c-.61-2.11-1.15-3.95-.92-5.86h19.5Z"/>
        <path class="cls-11" d="M172.5.05l16.16,19.13,5.77,12.84c.22.49,1.11,1.04,1.21,1.39s-.95,1.11-1.32,1.21c-7.1,1.91-10.91,5.66-16.59,6.13l-1.38-1.64c-2.47-9.71-4.92-19.46-7.34-29.27l.31-4.03c-2-1.07-3.78-3.81-2.08-5.76h5.25Z"/>
        <path class="cls-18" d="M135,.05c2.04.96,4.67,7.65,2.51,9.14l1.83,1.41c1.07,2.76,4.99,15.42,4.81,17.48-.07.8-.68,1.44-1.25,2,.64,1.16.99,2.45,1.03,3.85-1.23,9.72-2.46,19.45-3.68,29.17l-1.6.69c-1.49,1.22-1.97-.46-2.34-2.28-.88-4.42-4.89-27.74-4.3-29.76.17-.59.45-1.15.75-1.71L128.25.05h6.75Z"/>
        <path class="cls-16" d="M312,.05c-2.99,7.1-7.29,13.58-10.99,20.19-.8-1.75-11.3-.02-15.45-2.16.22-4.79,4.25-6.82,7.17-9.51-1.36,1.26,5.93-9.33,4.27-8.52h15Z"/>
        <path class="cls-16" d="M167.25.05c1.15,1.83,1.44,3.82,2.08,5.76l-1.5.97c-8.92.32-17.85,1.18-26.79,2.59-1.46.78-2.64.72-3.54-.19-.57-3.07-2.4-5.95-2.51-9.14h32.25Z"/>
        <path class="cls-15" d="M336.75.05c-2.9,2.92-13.92,8.58-18.07,10.69.5-3.39.27-7.27.82-10.69h17.25Z"/>
        <path class="cls-16" d="M243.65,45.87l6.64,9.17,10.59,15.51c1.04,1.53,2.2,2.68,3.81,2.99-.14.75-.35,1.48-.59,2.2l-.45,2.6c-6.66,5.81-12.92,12-18.77,18.58l-2.48.83.02,2.91c-4.97,10.88-10.38,21.52-16.21,31.93-1.44,1.3-2.22.61-3.36-.65-.63-.7,2.28-13.48,3.32-15.05l-1.25-1.31c.67-2.22,1.63-4.3,2.88-6.24-2.44-.8-1.2-3.92.03-5.59l-1.66-.24c-1.52-3.48-7.85-6.96-10.89-4.01l-1.65-.41c-.7,1.34-1.39,1.84-2.08,1.52-4.74,7.21-9.41,14.78-12.66,22.93l-2.35,1.72c.41.54.84,1.17.78,1.88-.05.62-5.6,9.12-6.55,10.24l-1.94.46-1.64-.17c-5.96-17.4-11.93-34.82-17.89-52.24l.97-1.79,38.67,7.84.42-61.84c7.48,2.08,13.85,3.68,20.01,6.63,3.59,1.72,9.82,9.51,14.28,9.62Z"/>
        <path class="cls-12" d="M169.33,5.81c3.72,11.34,5.82,23.24,8.41,34.93.27,1.26-1.75,2.93-2.8,3.72-6.21,4.65-10.34,11.15-16.67,14.87-.57.42-1.35.69-1.84.26-1.13-1-11.56-22.7-12.53-25.41l-.99-4.1c-.7-7.1-4.07-13.88-5.38-20.89,2.27-1.39,4.92-1.64,7.79-1.95l19.68-2.14c1.7-.19,3.19.06,4.35.72Z"/>
        <path class="cls-11" d="M188.83,137.83c2.19.87-1.16,7.41-3.42,6.88-1.3,2.06-7.92.88-8.32-1.59-1.1-.41-1.9-1.36-2.4-2.88-2.29-15.98-13.19-23.9-28.93-23.23l-5.83,10.89-1.83.27-15.85-1.88c6.23-4.9,11.93-9.96,17.9-15.37l30.11-27.3,18.57,54.2Z"/>
        <path class="cls-1" d="M137.42,69.1c1.81,2.05,1.37,8.17-1,9.66l-14.13,32.16c-1.6,6.99-4.25,13.28-7.93,18.87l-1.64-.86c-.27-6.44-2.23-13.32-1.27-20.15,1.58-11.25,5.7-21.62,7.89-32.69l14.27-15.38c3.48-.54,4.82,5.39,3.81,8.39Z"/>
        <path class="cls-5" d="M177.09,143.12c-.14.67-.44.74-.88.22-.24.02-.53-.1-.76-.03l-1.81-.14c-4.62-4.62-10.58-5.37-17.88-2.25-1.53.09-2.93-.19-4.22-.86l-1.7-.23c-1.16-2.44-1.95-4.82-2.37-7.12-3.23.5-5.87,0-7.91-1.47l-1.47-3.05,6.66-12.9c5.47,1.29,11.13.27,16.35,2.56,3.71,1.63,8.41,5.9,10.65,9.43,3.12,4.9,3.63,10.79,5.34,15.85Z"/>
        <path class="cls-11" d="M158.26,59.33c-.2.79-.61,1.6-1.4,2.34l-17.14,15.83c-1.03.95-2.14,1.36-3.3,1.26.22-3.04.35-6.58,1-9.66.3-1.67.35-3.32.16-4.96l1.05-.35,4.26-33.71c.62.27,1.11.89,1.52,1.73l11.46,23.73c.72,1.5,1.3,2.91,2.39,3.78Z"/>
        <path class="cls-12" d="M136.41,169.58c-.61,1.87-1.52,4.03-3.57,4.48-.08-.33-.01-.86-.21-1.15-.35-.52-1.26-.51-1.96-.13-5.43,2.99-10.78,5.5-16.03,8.05-4.79-6.42-5.18-15.39-5.51-23.27-.01-.29-.03-.62-.27-.83.14-.7-.17-1.78.7-2.35.54-.36,1.65.27,2.46.75l24.39,14.46Z"/>
        <path class="cls-9" d="M132.75,30.04c1.63,10.84,4.36,21.57,5.17,32.92.04.51.62.76.72.82-.22,1.75-.52,3.74-1.21,5.31.73-3.46-2.32-5.74-3.81-8.39l-14.27-25.54c3.02-4.09,6.26-.68,9.11-2.62,1.12-1.61,2.66-2.34,4.29-2.51Z"/>
        <path class="cls-17" d="M114.63,180.82c-4.08,1.98-7.53,5.57-12.03,6.72l6.25-30.82c.41-.29.65.18.73.71,1.26,8.11,3.03,15.78,5.05,23.39Z"/>
        <path class="cls-17" d="M151.54,140.05c5.65,1.33,11.36,2.22,17.14,2.68l.82,1.54c-5.45,1.89-11.23,1.85-17.33,3.22-13.8-9.57-7.8-6.29-12.61-16.27,2.75-.27,5.6-.16,8.68.36l3.29,8.47Z"/>
        <path class="cls-1" d="M175.44,143.3c-1.94.6-3.91,1.04-5.94.97-3.08-.11-16.82-1.27-17.96-4.22,9.67-.89,16.49-6.73,23.91,3.25Z"/>
        <path class="cls-8" d="M112.72,128.92c.76-.16,1.83-1.04,2.22-2.11,2.07-5.75,5.08-10.72,7.35-15.89-1.76,11.2-3.41,20.71-9.08,31.29.29-4.89-.31-8.96-.49-13.28Z"/>
        <path class="cls-16" d="M185.41,144.71c-2.26,4.55-5.45,9.43-6.95,14.3-2.18-1.08-1.08-11.78-2.25-15.67.29-.02.6-.27.88-.22l8.32,1.59Z"/>
        <path class="cls-16" d="M258.12,156.43l1.67-.34c8.43,3.81,16.57,8.36,24.41,13.63,1.46.41,2.53,1.15,3.2,2.22-.29,1.82.28,2.41-1.96,3.53l-41.32,20.45-4.57,33.6c-.33.48-1.44.05-1.89.1-1.13.64-1.68.37-1.3-.92-1.13.23-2.13-.33-2.98-1.66l-17.57-14.96-2.05-3.46c-1.76,0-2.67-1.32-2.73-3.99.34-2.16.95-4.16,1.84-5.99-.39-.4-.85-.91-.75-1.41.37-1.88,8.43-6.92,10.55-8.17l1.07-1.25,15.77,4.68c-4.43-5.33-8.92-10.57-13.48-15.73l-.26-1.44c-1.55-6.12,1.04-13.92,3.23-19.81l1.37-1.09,1.74-1.13,11.53,3.63c4.19.75,8.41.25,12.64-1.48l1.83,1Z"/>
        <path class="cls-12" d="M276.6,90.76l1.63.28c3.35,12.53,6.7,25.07,10.05,37.64.47,2.16.46,4.07-.02,5.74.37,1.37,1.21,2.66,1.06,4.56-.89,11.19-.21,22.23-1.91,32.96-1.91.47-3.51-.68-5.33-1.73-8.15-4.7-15.64-10.14-23.96-13.78-.83-.89-.74-1.44-.39-2.36,1-2.66,5.41-7.35,7.66-9.33-1.71-1.65.8-3.67,2.62-3.58l2.77-1.56,14.32-1.1c-14.33-13.25-28.68-26.26-43.05-39.03l.34-1.71c5.81-8.29,14.8-14.8,21.7-22.01.54.24,1.1.63,1.6,1.31l9.3,12.5c.49.66,1.07,1.02,1.6,1.22Z"/>
        <path class="cls-17" d="M282.49,83.99l8.54,24.25-1.63,25.26c-.05.78-.73,1.06-1.13.91l-11.66-43.65.21-.66c2.47-1.5,2.88-5.11,5.68-6.12Z"/>
        <path class="cls-10" d="M222.06,239.02c1.24.6,1.46,2.07,1.97,3.52l3.88,11.09c.36,1.02.7,1.95,1.57,2.09-3.52,2.72-7.87,4.7-12.04,6.16l-1.58-1.3c.56-6.2.47-12.34-.29-18.41l1.14-1.57c-.35-2.75,3.9-3.72,5.33-1.58Z"/>
        <path class="cls-5" d="M237.67,229.61c-4.67,3.97-10.52,6.07-15.6,9.41-1.58.45-3.89.37-5.33,1.58-1.69.28-3.15-.99-4.37-3.81-1.41-1.13-1.93-2.31-1.56-3.53-2.05.76-2.7-.65-1.52-2.24l.96-1.44,18.42,1.22c2.05-.42,3.94-1.3,5.68-2.65l2.03.52c.49.23.93.53,1.3.92Z"/>
        <path class="cls-11" d="M268.01,141.15l-1.63.07-5.21-10.79c-.38-.3-7.39-.2-8.61-.06-3.25.37-4.84.95-7.71,2.74-9.61,5.98-12.01,10.15-14.53,20.64.67.12.67.35.06.67-2.11,6.79-3.15,13.93-4.6,20.9,1.88,2.3-.04,8.87-2.39,10.48-1.26.86-2.03-.85-1.36-2.01l-1.53-1.1c-1.75-12.89-3.36-25.8-4.83-38.74l.89-5.13c3.42-7.07,5.39-15.25,9.61-21.92l-1.91,15.89c7.7-10.87,11.31-23.94,18.14-35.03l29.04,26.09c5.8,5.21,11.33,9.82,16.92,15.75-7.23.99-13.75,1.48-20.33,1.57Z"/>
        <path class="cls-11" d="M236.36,228.69c-2.39,1.35-5.27,3.84-8.39,3.62l-18.7-1.28c-1.25,1.65-1.51,1.39-1.52-.68,1.53-7.39,4.94-14.31,6.01-21.75,7.02,5.22,13.45,11.2,20.33,17.06,1.1.93,1.96,1.87,2.27,3.03Z"/>
        <path class="cls-17" d="M265.39,144.74c-1.5,4.44-5.2,7.55-7.27,11.69-15.7,4.96-12.14,1.51-27.74-2.03.06-.2-.1-.46-.06-.67l1.93-6.43,1.68.61c4.13.59,8.27,1.41,12.41,2.47,2.96-.16,5.58.19,7.87,1.06l.3-1.79,6.99-5c1.87-1.46,3.16-1.43,3.88.08Z"/>
        <path class="cls-15" d="M222.67,189.04c-.67-.11-.66-.34-.04-.67-.66-.17-.64-.41.01-.71-.19-.75-.11-1.73.74-1.87.34-3.58,1.66-6.99,2.39-10.48,1.11-.22,1.52.79,2.27,1.63l10.27,11.53c1.75,1.97,3.29,4.06,4.9,6.66l-20.55-6.1Z"/>
        <path class="cls-5" d="M222.67,189.04c-2.08,2.69-4.69,5.09-7.72,7.17-1.05.72-1.4,1.79-2.08,2.42-.59.54-1.88,1.06-2.56,1.13-1.15.11-1.48-1.9-1.95-2.52-.59-.39-1.05-.92-1.14-1.64-.26-2.03,11.8-7.42,13.83-8.13l1.59.91.04.67Z"/>
        <path class="cls-5" d="M268.01,141.15c-.01,1.6-2.1,2.37-2.62,3.58-4.54.85-5.58,4.3-11.17,6.71-1.61-.18-3.15-.99-4.64-2.42l-3.27-1.11c-4.16.04-8.28.04-12.37,0-2.07.82-2.58,5.98-3.62,5.82.87-3.77.23-9.46,2.99-12.86,3.51-4.33,9.06-8.43,14.1-10.87,4.38-2.11,10.03-.52,14.44-1.6l6.15,12.75Z"/>
        <path class="cls-18" d="M221.14,183.91c1.16,1.16,1.67,2.41,1.51,3.75v.71s-10.69,5.03-10.69,5.03c-1.88.89-3.48,1.83-3.6,3.83l-3.69-1.73c-5.88,10.04-11.66,19.63-17.95,28.89.3-2.32.77-4.71,1.55-6.94,2.93-8.37,5.88-16.72,9.2-25.32l3.54-9.17,1.15-1.45c5.99.28,11.98.57,17.97.85l1.01,1.55Z"/>
        <path class="cls-15" d="M222.03,183.78c-.2.69-.5.74-.89.13l-20.13-.95,13.65-40.24,1.9-3.92,4.44,36.9c.35,2.9,1.07,5.49,1.03,8.08Z"/>
        <path class="cls-16" d="M223.39,185.78c-.06.62.16,1.86-.74,1.87-.77-1.13-1.18-2.44-1.51-3.75.29.01.6-.13.89-.13-.01.94.32,1.87,1.36,2.01Z"/>
        <path class="cls-8" d="M254.22,151.45c-4.73,2.04-17.12-.89-20.28-3.53,5.57-2.21,16.1-3.57,20.28,3.53Z"/>
      </g>
      <g>
        <path class="cls-4" d="M239.92,350.92c.56.18,1.39.54,1.34.96-.56,4.81-3.21,19.83-4.82,23.83l-1.69.77-10.71,42.5c-.27,1.05-1.06,1.76-1.28,2.42-8.94-17.28-16.94-35.23-27.02-51.71-.42-.68-6.34-17.58-6.02-19.43,2.59-1.74,4.4-4.35,6.69-6.9l27.52-30.77,11.61,31.67c.67,1.82,1.76,3.31,2.3,5.21.49,1.03,1.22,1.58,2.09,1.45Z"/>
        <path class="cls-10" d="M210.77,387.32c-3.11-.68-4.18-3.2-3.82-5.91.29-2.15,2.08-4.69,5.05-4.52,3.2.19,4.96,2.91,4.6,5.89-.3,2.46-2.45,5.27-5.84,4.53Z"/>
      </g>
    </g>
  </g>
</svg>