<?xml version="1.0" encoding="UTF-8"?>
<svg id="_图层_1" data-name="图层 1" xmlns="http://www.w3.org/2000/svg" xmlns:xlink="http://www.w3.org/1999/xlink" viewBox="0 0 360 480">
  <defs>
    <style>
      .cls-1 {
        fill: #242128;
      }

      .cls-2 {
        fill: #7a3d2e;
      }

      .cls-3 {
        fill: #814433;
      }

      .cls-4 {
        fill: #a87055;
      }

      .cls-5 {
        fill: #746865;
      }

      .cls-6 {
        fill: #874835;
      }

      .cls-7 {
        fill: #cb8f73;
      }

      .cls-8 {
        fill: #eeebe0;
      }

      .cls-9 {
        fill: #d09c7e;
      }

      .cls-10 {
        fill: #1f1a19;
      }

      .cls-11 {
        fill: #292424;
      }

      .cls-12 {
        fill: #e6e3db;
      }

      .cls-13 {
        fill: #9f9b97;
      }

      .cls-14 {
        fill: #bc8265;
      }

      .cls-15 {
        fill: #88511c;
      }

      .cls-16 {
        fill: #bf896d;
      }

      .cls-17 {
        fill: #bcbab4;
      }

      .cls-18 {
        fill: #eabc9d;
      }

      .cls-19 {
        fill: #c6866c;
      }

      .cls-20 {
        fill: #92513c;
      }

      .cls-21 {
        fill: #a16625;
      }

      .cls-22 {
        fill: #f6ce6e;
      }

      .cls-23 {
        fill: #8b4834;
      }

      .cls-24 {
        fill: #f8ceac;
      }

      .cls-25 {
        fill: #a6a4af;
      }

      .cls-26 {
        fill: #332927;
      }

      .cls-27 {
        fill: #803b2a;
      }

      .cls-28 {
        fill: #ddad50;
      }

      .cls-29 {
        fill: #8e8e9c;
      }

      .cls-30 {
        fill: #f9ccaa;
      }

      .cls-31 {
        fill: #fddf85;
      }

      .cls-32 {
        fill: #dad6cf;
      }

      .cls-33 {
        fill: #c2876a;
      }

      .cls-34 {
        fill: #bd836d;
      }

      .cls-35 {
        fill: #facea9;
      }

      .cls-36 {
        fill: #ca9072;
      }

      .cls-37 {
        fill: #f4c3a3;
      }

      .cls-38 {
        fill: #6e3c15;
      }

      .cls-39 {
        fill: #2d2931;
      }

      .cls-40 {
        fill: #c9c5be;
      }

      .cls-41 {
        fill: #e6b493;
      }

      .cls-42 {
        fill: #f7f6f2;
      }

      .cls-43 {
        fill: #f3f1e5;
      }

      .cls-44 {
        fill: #ac7058;
      }

      .cls-45 {
        fill: #bab7b2;
      }

      .cls-46 {
        fill: #928e8a;
      }

      .cls-47 {
        fill: #f7f4e9;
      }

      .cls-48 {
        fill: #918c87;
      }

      .cls-49 {
        fill: #bfbbb3;
      }

      .cls-50 {
        fill: #dad8cf;
      }

      .cls-51 {
        fill: #fbd1ad;
      }

      .cls-52 {
        fill: #b3795e;
      }

      .cls-53 {
        fill: #98938f;
      }

      .cls-54 {
        fill: #743626;
      }

      .cls-55 {
        fill: #a86b52;
      }

      .cls-56 {
        fill: #b27b63;
      }

      .cls-57 {
        fill: #ba8335;
      }

      .cls-58 {
        fill: #fdfdf8;
      }

      .cls-59 {
        fill: #908b89;
      }

      .cls-60 {
        fill: #c9907b;
      }

      .cls-61 {
        fill: #b2aea9;
      }

      .cls-62 {
        fill: #a09b96;
      }

      .cls-63 {
        fill: #bb8063;
      }

      .cls-64 {
        fill: #b0785d;
      }

      .cls-65 {
        fill: url(#_未命名的渐变_3);
      }

      .cls-66 {
        fill: #ebb490;
      }

      .cls-67 {
        fill: #c58e3d;
      }

      .cls-68 {
        fill: #d8a249;
      }

      .cls-69 {
        fill: #b4b2ae;
      }

      .cls-70 {
        fill: #d0cdc8;
      }

      .cls-71 {
        fill: #d0ccc6;
      }

      .cls-72 {
        fill: #d6a081;
      }

      .cls-73 {
        fill: #b9b6b2;
      }

      .cls-74 {
        fill: #dfdcd4;
      }

      .cls-75 {
        fill: #1c191a;
      }

      .cls-76 {
        fill: #a4a09c;
      }

      .cls-77 {
        fill: #e1ded6;
      }

      .cls-78 {
        fill: #faf8ec;
      }

      .cls-79 {
        fill: #995840;
      }

      .cls-80 {
        fill: #f6cba6;
      }

      .cls-81 {
        fill: #afaba5;
      }

      .cls-82 {
        fill: #b57a5f;
      }

      .cls-83 {
        fill: #fbd777;
      }

      .cls-84 {
        fill: #d6d3cc;
      }

      .cls-85 {
        fill: #a5674e;
      }

      .cls-86 {
        fill: #c2bfb9;
      }

      .cls-87 {
        fill: #827c77;
      }

      .cls-88 {
        fill: #fcfbf3;
      }

      .cls-89 {
        fill: #a19d99;
      }

      .cls-90 {
        fill: #fcdb79;
      }

      .cls-91 {
        fill: #b57b61;
      }

      .cls-92 {
        fill: #63281a;
      }

      .cls-93 {
        fill: #fefefe;
      }

      .cls-94 {
        fill: #363134;
      }

      .cls-95 {
        fill: #847f7d;
      }

      .cls-96 {
        fill: #3e221c;
      }

      .cls-97 {
        fill: #f6f4e7;
      }

      .cls-98 {
        fill: #8f8a87;
      }

      .cls-99 {
        fill: #e1b090;
      }

      .cls-100 {
        fill: #2e2a2a;
      }

      .cls-101 {
        fill: #f0eee1;
      }

      .cls-102 {
        fill: #d2a185;
      }

      .cls-103 {
        fill: #eceade;
      }

      .cls-104 {
        fill: #b27c31;
      }

      .cls-105 {
        fill: #934c39;
      }

      .cls-106 {
        fill: #b97e64;
      }

      .cls-107 {
        fill: #a8684f;
      }

      .cls-108 {
        fill: #b4aea6;
      }

      .cls-109 {
        fill: #9f9b96;
      }

      .cls-110 {
        fill: #adaba7;
      }

      .cls-111 {
        fill: #b98067;
      }

      .cls-112 {
        fill: #9d5944;
      }

      .cls-113 {
        fill: #b9b6b0;
      }

      .cls-114 {
        fill: #e0b054;
      }

      .cls-115 {
        fill: #211f20;
      }
    </style>
    <linearGradient id="_未命名的渐变_3" data-name="未命名的渐变 3" x1="-417.18" y1="963.19" x2="-342.99" y2="993.11" gradientTransform="translate(585 -585) scale(.75)" gradientUnits="userSpaceOnUse">
      <stop offset="0" stop-color="#d8d5cb"/>
      <stop offset="1" stop-color="#cecbc6"/>
    </linearGradient>
  </defs>
  <path class="cls-93" d="M111.58,480H0V0h360v480h-21.79l-1.73-.55c-3.7-14.58-6.68-29.37-8.93-44.35,0,0-3.58-3.12-10.74-9.36l-.37-2.15-1.02-1.3c1.81-5.59,3.85-11.09,6.12-16.51-5.79-7.39-9.01-16.07-4.74-25.17l10.91-14.16-4.85-22.02.86-3.11c-1.47-.63-1.52-1.9-.16-3.79l23.91-39.74,3.47-2.87-.73-1.63c1.76-2.09,3.29-4.32,4.59-6.7l-5.81-54.12-29.24,34.73-1.72-.28-2.08,1.34c-41.96-1.03-83.97-2.16-126.03-3.37l-5.43-1.65-1.02,1.67c-4.8,1.69-9.71,2.97-14.73,3.84.04.58.05,1.44-.35,1.6-2.07.8-8.73,2.36-9.89.41-4.05-4.71-6.14-12.54-5.31-18.69,1.09-2.57,6.49-4.75,8.87-3.13l2.32-2.15c9.43-1.31,17.6-5.96,25.97-10.73l3.99-.58c1.61-1.56,5.94-2.99,7.3-.77l1.44-1.51,9.11-.38,1.68,1.19c2.1-1.5,3.75-3.53,4.95-6.09l10.79-12.08,2.28-.61,2.44-1.8,11.39-2.66c-.99-5.74-.88-11.25.34-16.52-.91-1.05-.82-2.4.26-4.06l3.14-3.53c-.52-1.26-.06-1.53.96-.63,1.15-1.63,1.67-1.3,1.7.68,1.24-.31,2.59.06,4.04,1.11l12.51,9.25,10.59,2.81c2.96.42,4.58,1.62,4.85,3.6l.39,1.61-23.22,18.33c13.45-2.9,26.88-5.74,40.3-8.52l2.91.27c.45-2.5,7.16-3.46,9.02-2.16-.01-1.61,1.44-2.3,4.35-2.08-1.46-3-2.43-6.04-2.92-9.12-1.96.05-1.9-.69-.22-1.69-1-.4-1.56-.66-1.43-1.74l2.71-59.94-26.74-43.91c-.59-1.31-.75-2.54-.48-3.68-1.44.75-4.92,1.13-6.27.2-1.81-4.79-4.08-5.95-8.59-8.03-19.29-8.89-40.96-14.32-61.85-19.49,8.76,8.74,17.74,17.48,26.93,26.23.93,1.56.57,2.45-1.25,2.51l.1,3.73-20.11,49.34-1.73.27c.72,2.62-.71,7.68-3.83,5.89-3.72-6.12-7.49-12.33-11.31-18.64l.1-1.39h-1.81c-5.28-2.76-10.31-5.85-15.08-9.26l-.4-1.49.93-1.66c11.81-2.34,17.05-13.35,13.64-24.58,1.1-.3.81-.75-.86-1.34-7.56-16.81-25.21-19.52-40.02-11.34-13.06,7.22-12.38,13.22-2.88,24.71.14-.67.39-.69.75-.08,1.73.95,1.18,2.16-.59,2.87-1.41.57-25.46-7.75-29-9.01l-1.33-1.36c-3.4,2.07-7.4,3.06-12.01,2.98-10.46,3.78-20.31,9.47-29.55,17.06l-4.07,1.17.51,1.58-7.89,18.96c-2.42,8.21-5.01,16.35-7.75,24.4,1.6.69,2.66,2.06,3.2,4.12,4.54,14.39,8.87,26.39,21.98,34.33l-.24,1.91c.2,2.03-.65,4.19-2.54,6.48-2.55,5.36-3.64,11.12-3.27,17.28l-1.7,1.8-.45,2.15c-22.95,7.43-45.96,14.84-69.03,22.21-.57.09-1.17-.24-1.79-1l.44,2.15c-2.21,9.48-3.55,19.17-4.02,29.06l6.74,3.08c12.06,8.75,24.1,17.5,36.1,26.25l-.15,1.75,1.99-.37c4.35,2.91,7.73,6.49,10.14,10.74l3.84,13.92,25.81,15.55v1.75c.43-.42,1.07-1.02,1.51-.83,1.31.55,13.48,7.89,14.06,8.55l1.05,2.39c2.19-.34,2.28,2.12.24,2.81.21,2.44.12,4.89-.26,7.33l-10.28,41.62c5.71,19.39,11,38.95,15.87,58.69l-1.23,1.24Z"/>
  <g>
    <g>
      <path class="cls-65" d="M314.72,200.1c-1.32,1.73-2.28,1.5-2.63-.65-9.38-8.15-18.66-16.34-27.87-24.58l-26.2,9.8c-2.88.03-3.69-2.08-2.44-6.32,1-2.17,1.57-4.34,1.7-6.53-1.96-1.51,1.11-8.45,3.54-8.32-.37-.78-.47-1.69-.31-2.74,8.26-16.96,16.72-33.78,25.39-50.48l.56-18.2c.13-1.54.94-2,2.31-1.25l28.64,47.29-2.7,61.99Z"/>
      <path class="cls-43" d="M288.78,90.83c-.41.17-.81.66-.83,1.42l-.42,17.31c-.05,1.92-1.43,3.07-2.24,4.7l-24.47,49.25c-.37.56-1.11,1.07-1.5.72-.95-.86-6.2-17.49-6.81-20.04l1.1-1.49c-2.17.84-3.64-5.2-1.61-6.19-2-3.25-3.94-7.48-3.84-11.25l-1.41-1.23c-3.01-9.41-6.07-18.85-9.19-28.32l.19-3.45c.03-.26.59-1.23.09-1.66-7.38-6.39-13.98-13.28-20.83-20.3-2.88-2.96-6.25-5.08-8.48-9.23,19.66,4.99,38.72,9.32,56.93,16.83l9.04,3.73c10.46,4.32,7.41,7.71,8.74,8.18,2.35.84,4.4-.86,5.54,1.03Z"/>
      <path class="cls-12" d="M253.61,142.69l6.32,19.77c.18.58.59.88.89,1.04l-3.54,8.32c.19,2.03-.77,4.34-1.58,6.22-1.07,2.5-3.12,6.94-5.29,7.98-.12.3-.69.48-.96.63-6.96,7.31-15.62,13.93-24.37,19.11-1.74.8-2.49-.25-3.22-1.9-4.67-14.67-8.62-29.4-11.85-44.21-2.55-2.31-1.73-9.15,2.16-8.18,1.95-1.29,2.79-3.35,3.83-5.89l1.81-.06c-.13,1.53,1.09,1.55,3.66.08,5.09-4.05,14.22-7.63,16.06,1.46.78.05,1.54-.01,2.27-.18-1.45-4.44.59-5.26,6.14-2.46,2.72-1.45,5.27-2.03,7.65-1.74Z"/>
      <path class="cls-74" d="M248.16,125.25c-.19,3.67,1.91,8.14,3.84,11.25l1.61,6.19c-.77,1.65-3.14,1.24-4.59,2.17-2.8,1.79-4.9,1.22-7.65-1.14-1.39.7-.01,2.29-.02,3.32,0,1.77-2.67,1.52-3.91,1.46-2.38-.11-1.58-5.2-4.71-5.88-.44-.1-8.32,2.34-7.93,1.92-1.42,1.52-2.34,2.72-4.66,3.05-.71.1-1.04,1.49-1.56,1.49-.46,0-1.65,0-1.7-.54-.15-1.4-.08-2.37-.86-2.97l21.74-53.33c4.58,10.52,7.11,21.95,10.41,33Z"/>
      <path class="cls-32" d="M213.88,234c-4.02.97-8.16.64-12.23.7-.57-.13-1.41-.39-1.42-.82-.14-6.51,1.73-15.4,3.79-21.57l5.22-50.31.83-.29c4.67,20.05,8.18,40.43,10.54,61.12-.87,4.02-3.3,8.91-6.74,11.17Z"/>
      <path class="cls-76" d="M312.09,199.45c.88.21,1.77.38,2.63.65-.02.54.34,1.17.22,1.69.99,3.25.81,8.84-1.43,11.2-2.85,1.44-6,1.36-9.02,2.16l-3.85-.48c-5.44-3.12-10.88-6.24-16.33-9.36l-.2-1.85c-4.75-2.72-10.56-3.15-16.12-5.08l-15.88-11.69c-1.64-2.2.49-2.27,2.64-2.25l54.31,12.75,3.03,2.25Z"/>
      <path class="cls-49" d="M312.09,199.45l-57.77-13.57c-.99-.23-2.34.06-2.2.82-.46-.34-1.25-.27-1.7-.68,1.21-5.13,4.83-9.41,6.87-14.2,1.92.31-1.26,8.35-.62,11.76l28.31-10.58,24.27,22.44c1.34,1.24,2.47,2.56,2.84,4.02Z"/>
      <path class="cls-13" d="M249.46,186.65c-1.34,2.26-1.92,5.4-3.4,7.59l-.97,4.12c-3.45,5.11-6.91,10.23-10.36,15.34l-2.83,1.51c-4.16,6.16-10.56,10.97-14.8,17.57-.82,1.28-2.31,1-3.21,1.21,1.88-3.31,3.61-6.63,5.34-10.62l-8.56-57.53c-.25-1.67-.01-3.23-1.41-3.85l.09-2.38c.18-.65.41-.62.68.03,3.86,11.3,10.45,33.82,13.71,45.26,9.66-4.95,16.79-13.38,25.73-18.26Z"/>
      <path class="cls-50" d="M304.49,215.15c-15.99,4.28-32.04,7.47-49.23,11.1l28.85-22.78,20.38,11.68Z"/>
      <path class="cls-84" d="M231.9,215.21l14.16-20.97,1.25,17.72c-5.43,1.16-10.36,2.83-15.42,3.25Z"/>
      <path class="cls-108" d="M201.66,234.7c-2.26.03-4.84,1.59-7.3.77l7.94-20.58c.44-1.15.75-2.21,1.73-2.58l-2.37,22.39Z"/>
      <path class="cls-73" d="M313.51,212.99c-.39-3.76.6-7.54,1.43-11.2,2.13,2.69,3.54,6.16,4.85,9.7-1.89,1.78-4.56.63-6.28,1.5Z"/>
      <path class="cls-12" d="M252,136.5c-.84,2.15-6.58-11.8-3.84-11.25,1.13,3.79,2.86,7.44,3.84,11.25Z"/>
      <g>
        <path class="cls-42" d="M178.67,118.04c-4.87-1.74-14.25-5.68-19.02-7.88-2.34-1.08-2.27-3.75-4.4-3.73l-.75.08-5.35-7.9c-6.47-10.03,6.87-16.71,14.78-19.73.1-.5.24-.92.53-1.09.32-.19,6.23-.48,7.43-.49,2.68-.03,4.7.24,7.32.69,1.64.28,5.2.93,6.35,1.34.74.26,5.69,4.78,6.72,5.92,6.33,6.97,9.92,17.13,4.31,25.86-3.77,5.86-11.2,9.71-17.92,6.95Z"/>
        <path class="cls-11" d="M183.69,120.69c-1.23-.87-3.68-2.17-5.02-2.65,5.86.32,11.93-1.68,15.5-6.15,9.29-11.63.14-26.95-9.72-31.43-11.29-5.14-24.69-1.77-33.21,6.91-7.41,7.55,3.35,15.26,3.25,19.14-2.79-2.79-5.45-5.92-7.59-9.58-5.04-8.58,10.32-16.43,16.99-18.69-.03-1.84-1.61-3.02-1.33-4.93,2.21.17,2.28,2.59,3.58,3.55,1.63,1.21,3.82-.16,5.63-.33,4.55-.42,8.71,1.19,12.88,2.08,1.54-2.24,2.41-4.77,5.17-5.07-.28,2.56-2.16,3.67-3.01,6.04,4.99,3.05,8.6,7.45,11.27,12.63,3.45.35,6.4-1.21,9.73.17-2.66,2.24-5.84.91-8.39,2.6,1.77,6.32,1.63,12.58-2.36,18.17-2.7,3.78-7.99,6.68-13.38,7.56Z"/>
        <circle class="cls-100" cx="173.14" cy="97.53" r="2.4"/>
      </g>
    </g>
    <g>
      <path class="cls-71" d="M316.45,423.58c4.14,3.14,9.18,6.62,12.4,10.81,1.79,5.32,5.36,32.06,6.47,35.84l2.88,9.77h-70.75l-1.93-.72c-8.02-19.23-16.04-38.46-24.06-57.69l1.03-1.42,2.41-.5,18.65,7.95,16.96-29.91,1.75-.04c.41-.43,1.12-1.02,1.46-.78,9.51,6.64,21.21,15.19,29.93,22.7,2.24,1.1,3.17,2.43,2.79,4Z"/>
      <path class="cls-101" d="M242.5,420.17l24.96,59.83h-88.69l-1.31-1.02c5.9-25.19,11.63-50.53,17.19-76.02l1.85-2.41,2.42-.9c13.9,3.43,27.19,10.17,39.99,17,.7.37,1.3.94,1.91,1.54s1.16,1.28,1.68,1.98Z"/>
      <path class="cls-40" d="M196.5,400.56c-.81,6.62-2.49,12.99-4.08,19.93l-13.66,59.51h-37.2c-.55-.22-1.32-.71-1.19-1.05,11.64-29.78,24.31-60.32,36.68-89.72l1.39-.75,1.44-.79,12.85,9.79c2,.58,3.26,1.61,3.78,3.07Z"/>
      <path class="cls-47" d="M178.44,388.48c.32,1.08-.16,1.86-.71,3.2l-36.16,88.32h-9c-2.27-1.6-1.29-7.94-.56-10.69,3.79-9.85,8.51-19.22,14.14-28.09l-.74-1.49c7.79-18.43,15.23-37.09,22.33-55.98.33-1.13,1.25-1.07,2.3-.46,3.12-.7,8.02,1.78,8.4,5.18Z"/>
      <path class="cls-77" d="M113.88,443.16l1.3.79c.15,10.26.88,20.5,2.19,30.71l-1.12,3c2.16.22,1.89,1.97-.17,2.34h-4.51l-9.82-37.93-6.29-22.03,12.01-48.93,1.75.18c2.15,23.48,3.85,46.98,5.12,70.5l-.47,1.36Z"/>
      <path class="cls-53" d="M132.57,480h-16.48l.17-2.34.73-3.25c9.15-11.15,18.29-22.3,27.44-33.45l1.72.26-12.37,27.65c-1.58,3.54-.56,7.71-1.21,11.12Z"/>
      <path class="cls-17" d="M350.95,294.91l-26.08,43.37c-.66,1.09-1.03,2.14-1.14,3.04-.7,3.11-2.21,6.05-4.53,8.83-7.05,14.18-17.21,26.77-29.6,36.82l-2.93.75c.08.87-.54,1.59-1.42,1.76l-51.81,8.62-1.14-1.33c-.78.23-1.73-.02-1.65-.61.19-1.41,7.45-10.52,9.01-12.11l1.85-.12c-.74-1.31-.29-1.7.94-.87l.03-2.5c12.11-15.71,24.22-31.41,36.33-47.11l1.74.2,1.01-2.27c22.76-12.71,45.49-25.29,68.18-37.74l1.21,1.29Z"/>
      <path class="cls-8" d="M318.04,266.91l.76,1.46c-11.8,15.46-23.74,30.79-35.83,45.98-.86.92-1.69.63-2.51-.87l-1.23,1.1c-11.47-4.95-22.95-9.91-34.44-14.87l-.22-1.73-1.49.97c-3.13-1.39-6.07-3.03-8.81-4.92l-2.24.31-5.98-3.68c-2.83-.92-4.73-2.38-5.68-4.36-10.74-5.75-21.3-11.93-31.48-18.62-.85-.56-1.6-1.28-2.33-2.02s-1.42-1.59-2.07-2.45l133.54,3.68Z"/>
      <path class="cls-70" d="M350.95,294.91c-2.71.36-4.74,2.27-7.44,3.77l-62.96,34.95c-.65-.22-.64-.47,0-.74-.6-.28-1.26-.88-1.41-1.53.67-5.49.84-10.98.52-16.47l.8-1.4c1.06.23,1.76-.25,2.55-1.28l35.02-45.3,32.05-38.43,6.16,58.36c-1.28,3.4-3.79,5.56-5.3,8.06Z"/>
      <path class="cls-97" d="M134.97,356.25l2.07-.19c6.89,8.45,13.41,15.29,23.42,19.98l.65,1.79c-10.54,16.04-21.4,31.88-32.57,47.53l-1.73-.09.28,2.17c-3.79,5.24-7.58,10.49-11.37,15.73h-1.85c-.29-.31-.95-.8-1.01-1.65l-4.16-61.96c-.2-3.04.07-6.16-1.23-8.43l-.24-2.81c-2.95-5.77-3.15-14.97-.64-20.95.2-.55.64-1.34.99-1.24,6.76,2.02,18.51,5.85,24.59,8.88,1.25,1.44,2.18,1.86,2.81,1.25Z"/>
      <path class="cls-81" d="M323.73,341.31l5.56,25.49-11.82,15.39c-2.23,17.2-.84,10.54,5.49,23.48l-6.51,17.91-34.18-25.92c-.55-.24-1.24-.77-1.08-1.13,1.36-2.91,3.3-6.65,5.47-8.81,6.88-6.76,14.58-13.09,20.64-20.9,6.37-8.22,9.72-18.14,16.42-25.5Z"/>
      <path class="cls-61" d="M184.5,263.23c12.11,7.43,24.26,14.9,35.88,23.09-4.29-1.61-8.33-3.09-12.65-5.67-5.73-3.43-12.77-3.97-18.81-6.97-3.17-1.58-6.09-5.84-9.7-5.6l-10.46.68c5.33-1.28,10.28-4.91,15.75-5.51Z"/>
      <path class="cls-109" d="M232.3,396.76l54.38-9.04c2.39-1.68-4.34,9.84-4.4,9.95l-18.22,32.14c-7.1-4.27-14.82-6.21-21.55-9.63-9.96-5.06-19.93-10.27-30.57-14.82-5.16-2.21-10.37-3.4-15.43-4.79-1.4-.39-3.57-1.02-4.91-2.04l-13.16-10.04c-2.59-1.98-5.53-3.64-8.4-5.18-.65.2-.76-.02-.38-.63-1.56-2.11.25-2.28,2.34-2.39l55.63,15.64c2.2-.36,3.75-.08,4.67.84Z"/>
      <path class="cls-45" d="M169.66,382.67c.17.12.23.46.38.63-.67.19-.84.83-1.18,1.71l-21.13,54.22-1.58,2-29.89,36.44c-.05.75-3.7-32.67-2.38-34.5l12.94-17.9,1.49.4c4.05-5.41,8.58-10.39,13.61-14.95,1.35-4.78,3.84-8.23,7.49-10.37,3.02-2.55,3.9-3.72,3.88-7.56,3.18-3.64,5.24-6.54,5.88-11.59,1.43-5.65,9.66-2.74,10.49,1.49Z"/>
      <path class="cls-98" d="M244.58,298l1.1,1.68c-.82,1.45-1.16,2.86-1,4.24l35.15,27.19.73,1.78v.74s-38.11,49.42-38.11,49.42c-.38.17-.73.28-.98.17-1.85-.78-14.19-32.9-15.59-36.81-.42-1.17-.27-2.45-.11-3.65-.25-.53-.58-1.33-.26-1.62,2.47-2.2,7.46-5.33,10.74-5.19l-.55-3.23c2.27-9.07,4.2-18.01,5.77-26.83-1.83-2.94-5.51-8.53-7.18-11.84,3.78-.14,6.96,2.51,10.3,3.95Z"/>
      <path class="cls-69" d="M134.82,352.86c1.32-.53,3.2-.64,4.64-.52,3.02.27,17.83,3.35,20.3,4.46l.75,1.7,1.16,2c-.37,3.9-1.18,7.45-2.43,10.63,1.88-.25,3.8.5,5.75,2.25l5.64,2.78c2.11-2.42,3.91-5.17,5.39-8.24l1.92-.65c-.84-1.14-.39-1.49.87-.75,1.44-1.69,3.27-3.67,4.99-1.16,1.88,2.41-.78,8.66-3.12,10.34-.49.98-.1,1.19,1.18.62.49.13,7.49,5.4,8.14,6.01.43.41.57.91.63,1.49,3.69-4.37,7.26-8.84,10.71-13.41l1.82.16c1.12-1.22,3.01-1.09,5.68.39,3.99,1.22,31.84,10.26,32.52,11.86.14.33.16.71.15,1.11-3.03,5.15-11.14,12.55-9.21,12.84-1.51.25-2.77,1.25-5,.62l-55.54-15.63c-1.05-.3-1.82.44-2.1.92-2.26-1.19-4.7-3.32-7.64-3.27-1.9.03-1.85,8.45-4.78,10.93-2.35,1.98-3.27,3.11-2.73,6.64-1.22,1.43-3.64,4.53-5.33,5.33-3.82,1.8-3.63,4.42-5.07,7.64-1.61,3.6-6.07,6.01-8.59,9.13l-5.99,7.4c-.63.78-1.38.77-2.2.56-.7-.18-.57-1.09-.5-1.78l33.19-47.77-10.19-6.07c-6.08-3.62-9.41-10.78-14.85-15.17-1.99.44-4.04-1.39-2.74-3.55.74-1.9,1.61-1.58,2.59.16Z"/>
      <path class="cls-95" d="M242.45,383.05c-.25.32-.74.52-.94.87l-38.35-13.36c-.43-.43-1.05-1.05-.88-1.49.82-2.02,6.86-12.77,8.1-14.17l1.84-.19c-1.62-1.54.31-4.27,2.34-4.56,2.21-3.42,7.11-7.79,11.2-7.4,4.8,9.47,8.06,19.66,12.28,29.74l4.41,10.55Z"/>
      <path class="cls-89" d="M280.47,313.49c2.07.65.12,17.04.1,19.4-.15-.1-.4-.16-.94-.04l-36.75-28.43c-.1-2.66,1.36-4.34,1.7-6.41l35.89,15.49Z"/>
      <path class="cls-58" d="M129.73,285.67c-.37,8.32-1.82,16.59-4.35,24.79l-1.71.72c.81,3.22.67,6.63-.43,10.23-.01,4.32-.89,8.19-2.62,11.59,1.85-.44,2.07-.02,1.03,1.61,1.1.54,2.26,1.37,2.99,2.37,1.76,2.44,6.34,10.31,7.46,12.99.36.87.29,1.82.13,2.73.86,1.12,1.61,2.64,2.74,3.55-.04.23.17.67.02,1-.25.52-.94.03-1.54-.19l-26.86-9.7c.05-2.42-.28-4.48.31-7.24,2.2-10.17,5.42-19.68,8.55-29.63,2.11-6.72,1.09-13.74,1.59-20.34l-.91-1.46c2.21-3.8,4.34-7.69,6.38-11.66l1.82-.2c-1.57-1.71,1.85-5.61,3.85-4.58,3.01,2.33,3.46,10.25,1.55,13.42Z"/>
      <g>
        <path class="cls-78" d="M81.84,237.62c2.88,2.1,4.15,8.04,3.09,11.38.65,2.02.21,2.41-1.7,1.51l-4.65,6.86c-1.93,2.31-5.93,6.95-8.72,6.73-.39.95-.81,1.88-1.32,2.76s-1.02,1.71-1.69,2.39c-7.41,7.52-15.03,14.97-22.64,22.29-.69.67-1.52,1.2-2.37,1.72s-1.78.97-2.71,1.4c.27.89-.31.9-1.75.02l-1.93-1.54-25.81-36.33c-.32-.74-.3-1.56.08-2.47l67.71-21.74c1.51-.48,2.8-.48,3.56-1.62,1.78.62,2.93,5.95.85,6.65Z"/>
        <path class="cls-113" d="M114.74,293.94l.89.47c-7.34,21.25-15.1,42.41-23.31,63.48l-1.72.32-27.34-16.47-4.37-16.75c-3.14-2.42-6.93-6.08-10.06-8.36-.52-1.08-.39-1.72.68-1.86-1.04-2.36-.72-3.75.96-4.15l1.92.05c2.42,2.08,5.56,6.39,7.44,9.1,1.36,1.97,3.24,5.29,3.77,7.36l1.6-.66,3.45,3.45,24.83-24.15c4.76-4.72,9.85-8.86,15.27-12.43,1.73-1.97,5.65-2.5,5.99.6Z"/>
        <path class="cls-59" d="M106.59,347.36c-.13,7.02.06,14.29.64,20.95l-16.63-10.11,24.14-64.27c-2.03-1.47.04-4.03,2.3-3.79l1.41,1.6c.13,5.32-.12,10.62-.75,15.9-3.61,11.28-6.79,22.66-9.55,34.14.4,2.87-.12,4.73-1.56,5.58Z"/>
        <path class="cls-103" d="M37.38,294.66c-.32.52-.83,1.29-1.27,1.18-9.97-2.4-20.6-6.21-29.96-10.3-.35-.26-1.45-.49-1.37-1.35l1.68-17.37c.43-4.46.82-9.07,3.26-12.5l26.46,37.15c.76,1.06.92,2.29,1.19,3.18Z"/>
        <path class="cls-110" d="M37.38,294.66l2.87.8c3.97,4.2,7.59,8.68,10.86,13.46l-.63,1.69c-.41,1.36.45,2.72.44,4.34,0,1.07-1.5,1.36-2.09,1.68l-42.69-31.08c1.61-.12,3.21.54,5.01,1.09l26.22,8.03Z"/>
        <path class="cls-86" d="M110.79,290.34c-14.64,13.25-29.83,25.72-45.55,37.41l-1.63-.63c-1.95-1.17-2.98-2.33-4.14-4.86-2.09-4.58-6.23-7.82-8.99-11.65-3.17-4.39-9.12-12.59-13.1-15.95l1.75-.02c3.42-1.81,7.05-3.13,10.9-3.98l1.73,1.08c18.82-2.82,37.76-5.42,56.82-7.8l3.57-11.23,1.75-.56,1.69.3c.88,1.86,3.88,10.45,3.43,11.83-.5,1.51-6.37,6.66-8.22,6.05Z"/>
        <path class="cls-48" d="M81.66,268.47l1.94.65c1.3,3.34,2.99,6.46,5.06,9.36l-.28,1.97c-10.55,6.9-24.12,9.84-36.63,11.3-4.17,1.07-8.32,2.85-12.63,2.89,9.9-10.5,20.63-20.28,30.73-30.55,3.2-1.46,9.39,2,11.8,4.38Z"/>
        <path class="cls-87" d="M81.66,268.47c-5.25-.82-6.39-2.44-11.8-4.38l13.37-13.59c-.34,3.07-3.9,5.56-3.57,9.1.25,2.64.96,6.61,2,8.87Z"/>
        <path class="cls-46" d="M110.79,290.34c1.63,1.38.95,2.38-2.04,2.99-4.9,4.2-9.35,8.77-14.22,13.5l-25.46,24.77c-2.83-.51-3.7-3.42-5.46-4.48l34.58-27.02c4.39-3.43,8.29-6.86,12.61-9.76Z"/>
        <path class="cls-62" d="M124.33,276.82l-7.29,13.32c-.66,1.21-1.77,2.38-2.3,3.79-1.97-.51-3.97-1.08-5.99-.6.97-.83,1.42-1.96,2.04-2.99,1.55-2.6,4.55-3.93,7.15-6.35l-4.04-11.84c-1.81.65-1.99.14-1.24-1.54-2.19-.3-2.11-3.11-.03-3.62-.12-1.84.15-3.12.83-3.86.33-.6.56-.55.71.14,3.88,3.45,8.46,8.76,10.17,13.54Z"/>
        <path class="cls-88" d="M113.9,272.16l-4.22,13.27-56.36,7.13c-.83.11-1.72-.29-1.57-.8,12.35-3.18,24.69-6.91,36.63-11.3,3.58-1.32,7.03-2.79,10.58-4.37,3.14-2.67,7.07-4.68,11.77-6.05l1.93.59c.6.32,1.02.89,1.24,1.54Z"/>
      </g>
    </g>
    <g>
      <g>
        <path class="cls-22" d="M155.25,106.42c1.09-1.51,2.79-.71,5.1,2.41l17.87,7.45.44,1.76c3.57.1,5.24.98,5.02,2.65,4.71,3.33,10.04,5.81,15.4,8.65,1.16.61,1.3,1.41,1.89,2.1.74,6.83.98,13.84.71,21.05.21,1.51-.54,1.95-2.25,1.32l-1.05,1.28c-34.68-9.51-69.55-18.2-105.39-22.18l-2.83-1.37-24.86,33.68-1.74-.18c1.75-13.83,6.71-27.02,12.58-40.02.85-1.88,1.12-3.82,2.55-4.91l1.63-.72,4.96,5.21c2.75,5.25,4.94,5.7,6.59,1.37l28.66-25.06,3.8-2.01c1.12-.26,2.25-.13,3.63.33l26.34,8.75c.46.15,1.04-1.59.95-1.57Z"/>
        <path class="cls-57" d="M90.17,131.55c1.25.15,2.35.67,3.35,1.42,5.58,4.19,11.72,10.16,16.6,15l.12,1.51c-.03,1.08-.11,2.23-.7,3.18-2.02,3.24-6.01,8.65-8.5,11.57-.72.84-1.76,1.3-2.77,1.67.24,1.3.13,1.56-.89.7l-.87,1.5-26.23.18,22.06,18.86.5,2.4c2.05-1.41,5.25,2.83,3.85,4.64.85,2.05-4.49,10.01-5.82,10.76-.74.42-1.51.59-2.36.47-3.89-4.33-10.44-7.18-13.49-12.4-5.16-8.83-7.69-18.81-11.45-27.96l23.51-31.52c1.08-1.44,1.26-2.5,3.09-1.99Z"/>
        <path class="cls-68" d="M209.25,162c.56,2.72.77,5.53.63,8.44-1.42,13.74-2.84,27.45-4.27,41.13l-1.59.74c-2.02,8.09-4.88,15.77-8.61,23.04l-1.07.12c-5.91,3.48-12.06,6.82-18.62,9.83-4.42,2.03-9.35,2.23-13.67,3.64.98-3.25,1.99-6.53,3.58-9.54,12.56-23.78,25.07-47.5,37.43-71.39,1.57-3.03,3.61-5.76,5.7-8.44.15-.65.33-.61.56.06.67.46,1,2.15-.09,2.38Z"/>
        <path class="cls-83" d="M208.78,159.56c-14.35,30.4-30.36,60.01-46.71,89.37-2.98.97-5.83,2.36-8.87,3.13-2.82-1.09-4.88-8.7-2.33-10.66l.07-1.84c3.44-2.81,5.08-6.87,4.9-12.16.41-1.97.83-3.66,3.11-3.3l-.71-1.51c4.7-7.11,8.91-14.51,12.64-22.2l1.65-.12c-1.3-3.86,2.23-8.48,5.7-10.33-.42-.4-1-.98-.83-1.41.6-1.52,4.6-7.18,6.43-6.23-.18-.87-.19-1.44.15-2.2.63-1.42,8.98-11.05,10.69-12.91,1.22-2.07,2.58-2.79,4.1-2.17-.15-3.26,6.43-7.31,9.54-6.68.9-1.55,1.82.72.47,1.21Z"/>
        <path class="cls-80" d="M105,196.55c-.28-2.42,5.87.55,6.59,1.13.21.17.2.6.14,1.1.68.34,1.25,1.12,1.29,1.86.11,2.02-1.87,8.05-4.37,5.64-2.02-.17-1.41.76,1.82,2.78l-.18,1.15c2.04,1.76-.11,7.39-2.48,7.79l-14.75-5.27c-1.4-.12-2.72.32-1.55,1.76,4.68.47,11.13,2.61,15.01,5.18,1.68,2.75.53,6.19-1.31,8.55l-15.17-3.63c-2.58,2.95-3.12,3.86-1.63,2.73l1.58.82c1.38-.91,2.11-.88,2.19.09,1.88,1.63,1.29,6.14-1.53,5.94-.16,2.52-7.04,5.3-8.8,3.45-.35-2.27-1.21-4.24-.85-6.65.65-4.42-.05-9.11,1.29-13.84,1.17-4.12,3.47-8.62,6.23-11.72,3.09-3.46,5.33-7.5,8.18-11.23,2.52-1.68,5.29-.89,8.31,2.37Z"/>
        <path class="cls-31" d="M124.33,98.92c-.49,1.04-1.34,1.86-2.42,2.8l-29.57,25.85c-.7,2.43-2.4,3.43-4.76,3.09.58-.96-8.12-10.61-8.88-10.54,8.41-6.38,17.53-12.5,27.16-17.72,5.54-3,12.8-2.19,18.47-3.49Z"/>
        <path class="cls-114" d="M212.18,151.47c-1.96,1.3-2.86,6.12-2.16,8.18l-.68-.03-.56-.06c.08-.18.21-.37.23-.6.04-.41-.63-.38-.71-.6-1.25.51-1.96-.13-2.13-1.45l-6.16-1.34-.58-1.74c.21-.02.76-.32.76-.87l-.08-20.14c0-.71.57-1.15.86-1.36,3.77,4.44,6.47,9.72,9.96,14.74,1.19,1.71,1.83,3.45,1.24,5.29Z"/>
        <path class="cls-67" d="M199.44,153.82c2.3.6,4.65,1.93,6.74,3.09-1.35,2.18-8.39,3.28-9.68.83-.07.32-.14.57-.24.58-17.44,2.19-33.67-1.25-49.98-7.08-9.98.27-19.97,1.09-29.97,2.47-.95.04-7.06-2.46-6.06-4.23-6.39-6.31-14.21-11.1-20.07-17.93-8.94-2.5,48.45,6.53,58.14,9.04l51.12,13.23Z"/>
        <path class="cls-10" d="M87.28,252.07c2.03-.63,2.29.3.47,1.43.98,2.83,1.07,6.04.27,9.62,2.73,3.97,6.02,7.36,9.88,10.15l.44,1.99c1.16-.99,1.55-.45.62.82-2.2,3.42-6.61,5.3-10.58,4.37-3.11-3.31-4.8-7.79-6.72-11.97-2.12-1.06-3.18-3.18-3.19-6.34-.55-3.95,1.03-7.83,4.76-11.63.53-.54,1.2-.93,1.7-1.51,1.41-.46,2.22,1.71,2.36,3.07Z"/>
        <path class="cls-41" d="M90.64,234.17c2.16-.1,2.25,1.07.25,1.96.97,1.06,1.09,2.42.35,4.09-1.15,2.16-2.32,4.41-3.52,6.77,1.74,3.32,1.59,5.01-.43,5.08-.81-1-1.48-2.12-2.36-3.07-.99-3.85-2.49-7.46-3.09-11.38l8.8-3.45Z"/>
        <path class="cls-75" d="M196.5,157.74c1.44.2,1.4.78-.04,1.15-.77.82-1.66,1.49-2.74,1.85-2.72.91-9.91,2.41-12.83,2.74-1.12.13-2.2-.16-3.23-.58l-.7,1.77-11.21,3.53c-1.89.54-3.32.58-3.7-1.55-9.27.84-18.26-3.98-24.7-10.41l4.87,13.32-.63,2.78c.04,1.82-.87,1.7-2.73-.35l-2.24-.23c-2.62-3.63-5.03-7.32-7.24-11.06l-2.52,10.09,10.06,5.66.49,2.09c2,3.31-4.61,4.32-3.91.71-2.69-.33-5.45-.89-8.28-1.68-.57,1.84-1.06,3.56-1.46,5.16l-.02,1.9c-5.28,2.26-10.41,4.55-15.38,6.87.81,2.54,2.28,3.79,4.42,3.77,1.37.33,1.75,1.27,1.16,2.81.7.17.65.39-.06.67.8,1.13.59,1.43-.64.67-1.28,1.54-1.39,1.34-1.52-.63l-6.72-2.23c-4.76-2.53-6.89-5.96-1.08-8.87l-5.81-17.49c-.34-1.57-.29-3,.16-4.28,3.4-5.82,7.6-11.28,11.97-16.42l6.2,2.77c9.93-.97,19.57-2.62,29.52-2.52,2.87.03,5.51,2.06,8.33,2.73l19.8,4.73,22.4.55Z"/>
        <path class="cls-21" d="M97.38,166.6c.33.09.59.2.62.35.53,2.58-2.37,19.06-3.47,21.81l-1.68.78-26.69-22.82,31.23-.13Z"/>
        <path class="cls-15" d="M105,196.55c-2.73-.9-5.46-1.91-8.31-2.37-1.28-1.41-2.4-3.4-3.85-4.64l4.54-22.94c.16-.34.72-.41.89-.7l7.5,22.59c-1.14,1.32-2.8,1.25-4.1,2.28.57,2.37,1.97,4.12,3.33,5.78Z"/>
        <path class="cls-66" d="M172.52,200.28c-2.56,5.44-10.01,19.57-13.57,23.82-1.59.99-2.39.61-2.2-1.29l-2.83-2.17c-3.28-6.27-6.57-12.55-9.86-18.84l.82-1.67c.07-.35.17-.68.34-.95.3-.46,9.4-4.11,9.97-1.91,5.41-.59,10.92-.14,16.53,1.33l.8,1.66Z"/>
        <path class="cls-94" d="M196.45,158.89c2.57-1.01,4.03,4.63,2.32,6.15-4.56,4.23-10.48,13.39-14.95,17.29-2.72-6.23-4.14-12.94-6.16-19.42,6.04-1.95,12.41-3.33,18.79-4.01Z"/>
        <path class="cls-92" d="M156.75,222.82c.82.28,1.77.44,2.2,1.29-3.95,4.72.55,11.99-8.08,17.3-.05-2.02-2.1-4.53-2.41-6.58-2.9-4.12-4.08-10.05-2.99-14.96-.2-.76-.17-1.76.38-1.89,2.1-.51,9.65,2.69,10.91,4.85Z"/>
        <path class="cls-38" d="M208.31,158.35c-3.01,2.25-6.76,4.11-9.54,6.68-.96-1.99-.98-4.33-2.32-6.15l.04-1.15c3.1.08,6.55-.94,9.68-.83.38.21,1.03-.05,1.53.26.34.21.47.81.6,1.18Z"/>
        <path class="cls-3" d="M117.75,213.08c.04-2.15,1.79-2.06,2.34-.02l1.71.28,1.2,11.72c.62.3.62.59-.02.86l-7.24,16.69c-.65,5.28-1.15,10.57-1.48,15.87l-1.01,1.01c-.8-.22-1.63-.53-2.13-1.21-.59-.81-6.19-16.96-6.61-18.84l.45-2.36c-1.76-.15-2.43-1.68-1.99-4.58-4.24-.5-7.84-1.93-10.81-4.28-.73-.16-1.44-.41-2.19-.09-.88-1.95.53-2.69,2.45-2.87,6.19,1.53,12.28,2.9,18.27,4.12-1.92-3.16-3.32-6.39-4.2-9.72l-15.01-5.18c-1.16-.84-.65-1.55.53-2s20.37,6.37,22.14,9.16c4.7,1.38,4.25-1.13-1.36-7.55l.66-1.78c.04-1.33,1.46-1.08,4.27.75Z"/>
        <path class="cls-63" d="M113.48,212.33c1.67,2.92,4.32,5.25,5.92,8.56.41,1.03-1.64,2.05-2.55,2.48-3.46,1.61-4.99-3.26-12.6-5.93-1.53-.54-13.97-5.45-12.75-2.95-.94-.33-2.1.51-3.02-.36l3.51-3.02,16,5.92c1.1-2.4,1.59-4.66,2.29-6.83,1.01-1.64,4.25.68,3.19,2.12Z"/>
        <path class="cls-72" d="M104.97,237.09c.62,2.37,0,3.4-2.33,4.32-.9.36-8.55-.14-8.17-2.22-1.36-.39-2.56-1.4-3.58-3.05.29-.49-.32-1.43-.25-1.96,1.29-1.76.75-4.01,1.53-5.94,3.8.84,7.71,1.88,11.64,3.15,1.24,1.79.3,4.19,1.16,5.71Z"/>
        <path class="cls-14" d="M89.98,228.14c-1.97,1.14-4,2.27-6.68,2.77,1.84-3.03,3.98-5.24,6.22-8l14.95,4.35c1.05-2.54,1.56-5.12,2.03-7.58,2.89,2.44,4.14,6.83,6.3,10.28-2.61,1.93-4.43.67-6.58-.08-4.34-1.53-8.85-2.22-13.31-3.07-1.58-.3-2.13.87-2.93,1.33Z"/>
        <path class="cls-7" d="M113.24,199.41c2.95.68,10.38,7.57,10.22,10.49-.1,1.71-1.73,4.89-3.37,3.16l-2.34.02c-3.19-1.25-6.01-3.21-8.73-5.27-.47-.36-.54-.91-.38-1.52,1.29,1.81,3.36-7.16,3.07-7.51.44.15,1.15.38,1.52.63Z"/>
        <path class="cls-85" d="M108.64,206.29c3.39,1.39,6.08,4.84,9.11,6.8-1.54.01-2.81-1.23-4.27-.75-.57-1-2.36-1.4-3.19-2.12-4.5-3.89-10.99-4.13-15.75-8.81,5.34.64,9.71,3.07,14.11,4.88Z"/>
        <path class="cls-28" d="M127.54,266.15c1.25,1.83.21,4.15.63,6.09l-3.85,4.58c-1.17.1-1.66-1.04-2.39-1.99l-6.88-8.99c-.65-.85-.88-1.74-.9-2.56,4.7-1.29,9.6-.19,13.38,2.87Z"/>
        <path class="cls-36" d="M94.47,239.18l.37,1.95,14.63,15.14-.02,2.56.47,1.66c-1.14,1.47-8.76,9.23-9.95,9.01-3.26-.59-12.06-11.68-12.22-16,0-.5-.15-1.04-.47-1.43,1.53-3-3.93-3.48,1.16-9.19,1.63-1.83,1.33-4.86,2.44-6.75.88-.18,1.96-.27,2.61.56.52.65.67,1.66.97,2.49Z"/>
        <path class="cls-64" d="M109.45,258.83c2.39-2.5,4.9,3.18,2.71,4.63-1.09,3.63-6.02,7.29-9.31,9.6-1.37.96-2.84,1.96-4.51,2.2-4.61-2.44-8.42-7.07-11.66-11.55-.68-3.31,1.02-7.07,1.07-10.21,1.56.85,2.06,2.77,3.15,4.4,2.62,3.91,5.92,7.3,9.21,10.41l9.34-9.48Z"/>
        <path class="cls-26" d="M112.63,267l.03,3.62c-4.14,2.71-9.28,3.48-13.7,5.46-.22-.22-.34-.67-.62-.82,4.23-4.33,9.17-7.92,13.82-11.81.82.6.98,1.78.47,3.55Z"/>
        <path class="cls-90" d="M125.15,241.37l2.39,24.79c-4.46-.98-8.92-2-13.38-2.87l-.71-.14c-.96-.63-.91-2.75.44-2.87.62-4.26,5.94-16.69,9.12-18.75.5-.32,1.05-.56,1.61-.77.41-.21.49.31.52.62Z"/>
        <path class="cls-79" d="M113.25,259.5c1.09-.92,1.48-.44.65.77-.2.86-.42,1.98-.44,2.87-.04,1.41-.19,2.63-.83,3.86.14-1.15-.66-2.42-.47-3.55.18-1.05.37-2.72-.47-3.24l-2.24-1.39c-3.98-5.93-9.71-10.55-14.73-16.09-1.08-1.11-3,.75-4.72-.05,1.64-.99,3.24-2.05,4.46-3.5l7.48.8c1.59.17,2.13-2.09,3.02-2.89,3.93,6.97,5.07,15.12,8.28,22.41Z"/>
        <path class="cls-82" d="M162.06,166.64l-18.64,7.41c-.5,2.37-1.53-1.68-1.83-1.72-2.26-6.87-5.47-13.46-7.23-20.72,13.69,11.94,10.13,9.92,27.69,15.03Z"/>
        <path class="cls-52" d="M138.87,171.98c.97.99,1.14,3.05,2.92,4.34-1.63,1.08-3.3.99-4.38,2.22-3.92-2.46-7.58-5.01-12.39-6.59l3.92-15.68c3.48,5.79,5.69,11.41,9.92,15.71Z"/>
        <path class="cls-115" d="M131.83,202.57c-4.27,1.5-6.64,5.45-8.06,9.62-.29.85-1.08,1.48-1.04,3.01l.27,9.86c-1.57-.1-1.79-9.93-2.92-12,.97-.43,1.71-1.35,1.98-2.12.37-1.1-.02-2.01-.81-2.86l-8.02-8.67c.25-.17.54-.37.64-.67.92-.58,2.05-.63,3.06-.29.56.19,3.21,1.77,3.38,2.41l1.95-.04c1.28,1.29,2.28,1.97,3,2.05-1.94-6.8,4.94-4.36,6.57-.3Z"/>
        <path class="cls-55" d="M144.86,185.38c1.15,4.42,1.68,8.99,1.59,13.71l-1.56,1.05,11.86,22.67-9.68-3.3c-.75-.25-1.45-.27-1.61.34-1.38-5.48-3.2-10.98-5.92-15.95l3.68-18.46c.13-.65.44-1.03,1.12-.99.38.03.28.66.52.9Z"/>
        <path class="cls-104" d="M124.63,240.75c-3.24,5.52-6.4,11.08-9,17.28-.43,1.03-1.23,1.67-1.74,2.25-.2-.25-.51-.47-.65-.77.08-5.1-.14-10.36.68-15.77.5-3.3,6.13-16.46,9.05-17.8.96,4.86,1.29,9.88,1.65,14.82Z"/>
        <g>
          <path class="cls-29" d="M132.8,201.79c-.33.16-.61.66-.97.79-4.47-.83-2.53-2.49-3.97-2.76-.76-.14-1.68.35-1.73.86-.06.57.39,1.31.69,1.99.62,1.36-1.39,1.77-2.21,1.93-1.14.22-1.49-1.61-2.28-2.2-.69-.52-1.95.2-2.56-.01-.76-.26-1.14-1.99-1.82-2.3-1.49-.66-3.29.24-4.07-1.35.06-.18.1-.49.06-.67-.21-1.04.31-1.71,1.53-2.02,2.29-.58,1.45,4.19,4.08,2.6,1.78-1.08-1.15-3.28.14-4.2.54-.39,1.38-.84,2.11-.74.64.09.94,1.2,1.32,1.94.85,1.64,2.7-.1,3.82.57.91.54.91,2.17,1.88,2.4.61.15,1.65-.52,2.4-.26,1.31.46,1.12,2.44,1.59,3.42Z"/>
          <rect class="cls-1" x="121.74" y="197.38" width="2.68" height="3.63" transform="translate(-74.81 74.02) rotate(-25.97)"/>
        </g>
        <g>
          <path class="cls-115" d="M177.66,162.89l2.13,1.88,4.52,14.79-.49,2.76-5.6,7.63c-2.93,3.23-19.31,8.48-22.62,7.03-.18-.08-.3-.28-.41-.51-.32.23-.64.42-.96.43-1.07.05-10.23-9.32-9.36-11.53l-1,.28-2.63,17.49-1.68.76c-1.74.55-5.54-.72-6.75-2.12-1.23.22-1.93-.45-2.09-2.01-1.56.42-4.07-.49-4.48-2.23-2.23.72-4.06.18-4.88-2.17.99,5.41-2.53,6.13-5.88,2.24l-1.53.46c-3.66-4.25-2.75,2.53-7.82-7.67l7.62-3.16c3.7-1.53,7.17-2.13,10.02-4.51-.7-3.48,7.24-4.38,9.74-3.48.49.58,1.21.66,1.84.72,1.22.13,1.49-.76,2.08-1.43-.6-1.72.16-2.27,1.72-2.66-1.05-1.6-1.14-2.9-.26-3.9l2.73.35h2.07s13.88-5.52,13.88-5.52l4.51-.18c1.37.58,3.1.39,4.69-.46,3.58-1.91,7.5-2.19,10.91-3.29Z"/>
          <path class="cls-106" d="M178.22,189.95c-2.25,3.06-4.04,6.81-5.7,10.33l-17.32-2.99c-.66-.23-.65-.5,0-.81,1.07.46,2.13.06,3.4-.34l19.63-6.18Z"/>
          <path class="cls-4" d="M133.5,179.25c-2.91,1.66-7.11,1.28-9.74,3.48-2.57,1.03.23-5.92.53-7.23,3.26.67,5.71,1.91,8.61,2.87.94-.15,1.88.66.6.89Z"/>
          <path class="cls-35" d="M155.19,196.47v.81s-4.96,1.65-4.96,1.65c-1.92.64-3.55,1.54-5.34,1.21.41-1.39-1.3-15.61-.03-14.77l10.33,11.1Z"/>
          <g>
            <path class="cls-25" d="M163.57,186.64c-1.34-1.04-2.69.55-4.22-.07-.31-.99-.6-2.81-1.67-2.62-1.46.26-2.69,1.01-3.26-.37-.44-1.05-1.2-2.27.19-2.88,1.07-.47,2.32-.85,2.92.79.22.6.64,1.26,1.12,1.53.44.25,1.36-.17,1.91-.76.35-.37-.03-1.19-.45-1.98-.87-1.66.5-2.13,1.66-2.52,1.68-.56,1.64,1.66,2.83,2.67.58.49,2.25-.52,2.91-.39,1.06.2,1.04,2.4,2.14,2.77s2.74-1.16,3.41-.05c.48.81,1.54,2.34.54,3.03s-2.97,1.45-3.52-.2c-.29-.89-.75-1.92-1.54-1.81-.64.09-2.17.61-1.71,1.59.44.91,1.15,1.97.58,2.78-.34.48-1.29.71-2.25,1.04-.65.22-1.33-.67-1.61-2.55Z"/>
            <rect class="cls-39" x="162.16" y="181.61" width="3.04" height="3.61" transform="translate(-60.64 82.85) rotate(-24.11)"/>
          </g>
        </g>
      </g>
      <g>
        <path class="cls-24" d="M220.38,286.32c4.82,1.81,9.75,4.94,13.9,7.73,2.37.25,7.97,9.62,7.8,10.96-.04.32-.3.6-.63.88.22.66.45,1.57.02,1.94-.8.67-13.55,4.21-15.5,4.56l-1.44-1.15c-2.73-2.38-4.73-5.57-5.99-9.58,1.91,4.48,2.8,8.89,2.66,13.24,2.43.11,2.33,4.18.73,5.33-.27.54-.71,1.35-1.16,1.29-5.13-.69-13.33-2.45-18.3-3.91l-.74-1.69-2.21-1.8-2.87-9.26,2.29,9.63-1.03,2.77-2.73,1.21c-5.48.14-16.2.26-21.19-.58-.97-.16-1.52-.41-2.3-.82-1.39-.73-9.42-27.41-9.53-29.97-.03-.76-.03-1.5.46-2.15l-1.1-.19c-.97-2.62-1.4-5.55-1.28-8.8-2.41.56-3.77-4.06-1.74-5.19l10.24-2.01c4.44-1.41,8.77-2,12.99-1.77,3.75,2.79,7.74,5.13,11.97,7.02,9.35,2.73,18.23,6.84,26.67,12.32Z"/>
        <path class="cls-18" d="M150.87,241.41c.1,3.7,1.39,7.08,2.33,10.66,1.65,6.26,3.26,12.54,5.31,18.69.57,1.71.88,3.6,1.74,5.19l.52,7.4-1.61.97c.98.79,1.18,2.39-.33,2.28-.37,1.27-.78,1.36-1.15.06l-2.36-2.71c-4.47-12.45-8.74-26.63-11.01-39.64-.09-.52.07-1.09.25-1.7s.46-1.19.78-1.76c-2.24.24-2.64-3.97-.57-4.63.63-1.91,1.96-2.45,3.69-1.38,2.36.09,4.56,4.98,2.41,6.58Z"/>
        <path class="cls-102" d="M221.94,320.22c.32.43.58.87.65,1.33.64,4.38-3.71,20.94-5.7,25.38-.56,1.26-1.35,2.24-2.33,3.22-.36,1.6-1.55,3.19-2.34,4.56l-1,1.1c-6.47-1.61-12.92-3.37-19.37-5.27l-.63-1.74c-.63-.18-.59-.4.06-.66l-.27-2.27c2.28-8.5,4.88-17.12,7.63-25.55.46-1.41,1.13-2.66,2.25-3.67-.54-1.1-.14-1.44.86-.75l20.19,4.32Z"/>
        <path class="cls-16" d="M197.93,317.25l-.02.91c-.13,8.32-3.84,17.19-7.14,24.98-.34.8-.86,1.52-1.41,2.23s-1.21,1.4-1.89,2.04c-5.13-2.61-9.33-8.06-10.52-13.69l-1.88-.1c-1.96-2.78-3.57-5.74-4.84-8.87-.29.24-.59.45-.93.53-1.19.3-5.08-6.56-5.73-8.13-.68-.13-.7-.38-.1-.75-.61,0-1.5-.1-1.54-.38-.89-6.36-2.41-19.34-2.05-25.31-.44-1.72-.03-2.84,1.23-3.36-.59-2.8-.09-3.61,1.51-2.41l10.09,31.37c8.69.51,17-.15,25.21.94Z"/>
        <path class="cls-9" d="M236.24,335.95c-2.41,1.04-9.99-.75-11.99-2.04-2.82-1.82-3.38-6.55-.62-8.41l.54-7.5c-1.64-.79-1.71-2.04-.12-2.95-2.16-.72-1.4-3.23.48-3.82l15.04-4.21c.87-.24,1.49-.62,1.88-1.14.28.46,1.22,1.15,1,2.33-1.84,9.53-3.26,18.94-6.21,27.74Z"/>
        <path class="cls-6" d="M224.05,315.05c0,.97.2,1.97.12,2.95l-.54,7.5c-.03,2.1-.33,4.14.05,6.67l12.56,3.78-10.48,6.81c-3.75,2.44-7.24,5.29-11.2,7.4,2.26-10.04,6.27-19.76,7.38-29.93.15-1.39-.26-4.04-.73-5.33-.76-2.83,3.1-2.66,2.84.16Z"/>
        <path class="cls-20" d="M201.75,315.91c-.07.43-.45.67-.86.75-.97,1.29-1.96,1.79-2.98,1.5-.03-.3.07-.62.02-.91-1.65-10.39-5.64-20.19-6.84-31.4,5.15,9.95,7.16,20.25,10.66,30.06Z"/>
        <path class="cls-112" d="M224.54,311.23c.37,1.14-.48,2.66-.48,3.82-.91-.34-2.13-1.16-2.84-.16-2.77-7.64-5.04-15.45-6.72-24.03,4,6.75,7.08,13.5,10.05,20.37Z"/>
        <path class="cls-107" d="M162.63,284.94c-.89.5-1.28,1.46-1.51,2.41-1.09-.31-1.74-1.32-1.96-3.03.4-2.79.21-5.73,1.09-8.38,1.49,2.73,1.46,6.15,2.38,9Z"/>
        <path class="cls-111" d="M157.68,286.65c.11.58.17,1.49-.21,1.63-3.66,1.35-19.76,6.68-22.59,6.77-.99.03-2.86-.6-3.68-1.1l-1.78-1.54.31-6.73c-.67-4.45-.59-9.01-1.55-13.42-2.39-.56-1.88-4.5-.63-6.09l-1.43-.74c-.85-.63-2.35-19.51-2.18-21.05.12-1.02.45-2.37,1.21-2.99l1.82-1.55c5.47.27,10.92.21,16.36-.17l2.01,1.19c1.92,15.63,7.97,30.61,12.34,45.81Z"/>
        <path class="cls-19" d="M144.77,236.21l.57,4.63c-6.61,1.27-13.45.25-20.19.53-.54.56-.71.36-.52-.62-2.58-3.66-3.13-10.62-1.65-14.82-.05-.27.03-.58.02-.86-.39-1.79-1.89-10.44-1.5-11.5.27-.74,1.44-1.73,2.27-1.37.38-.1.75-.23,1.07-.46.67-.48,14.9,1.23,15.96,2.03.93.71,4.8,18.45,5.19,21.07l-1.23,1.38Z"/>
        <path class="cls-107" d="M158.82,286.59c.31.5.59,1,.77,1.54.76,2.22-2.78,15.82-3.9,19.13l-2.05,2.39c-.7.94-1.4,1.54-2.42.84-6.6-4.93-12.98-9.93-19.15-15-2,.66-2.42-.08-.89-1.55.56-.08,1.36.23,2.2-.02l24.28-7.27c.36-.11.78.02,1.15-.06Z"/>
        <path class="cls-30" d="M139.55,203.91c.88.27,1.86.59,2.39,1.36,2.13,3.07,5.01,11.18,3.53,14.59,1.24,4.92,2.25,9.96,2.99,14.96-1.06.84-2.32,1.42-3.69,1.38l-4.74-21.4-16-1.99c-.27-.03-.28-.49-.25-.62-1.76-2.56.94-6.35,3.51-7.79.46-1.88,1.97-2.49,4.54-1.83-.64-1.3-.19-1.68.97-.79,1.62-.77,5.74.29,6.75,2.12Z"/>
        <path class="cls-27" d="M161.12,287.35l2.35,29.06c-1.63,1.57-4.13,2.11-7.49,1.63-2.99.61-4.98.15-5.99-1.4l-2.27-.2c-.95-2.8,3.59-6,5.92-6.78,1.57-7.73,4.05-15.28,5.18-23.06l.33-2.28c1.16-.13,1.87,1.92,1.96,3.03Z"/>
        <path class="cls-44" d="M187.47,347.41c.51.27,1.12.64,1.15,1.16.06.97-3.01,8.78-4.99,8.45,1.91,2.52-2.16,8.05-4.83,9.49-.32.14-.52.62-.87.75l-1.65.79-9.82-2.94c-1.88,2.14-3.75,4.37-5.61,6.68l-1.63-.67c-.41-.38-.93-.89-.69-1.84.96-3.73,1.26-7.34,1.96-10.79-1.82-.95-1.21-3.63-.69-5.4,1.4-4.77,6.05-9.94,10.22-12.59.95-2.44,3.86-6.25,6.92-6.79,3.33,4.68,6.88,9.26,10.52,13.69Z"/>
        <path class="cls-91" d="M212.22,354.71l-9.06,15.85c-5.34,6.26-4.23,7.9-12.53,13.25-1.16-.3-1.66-1.04-1.17-2.12,1.84-3.55,3.64-7.01,5.4-10.37l-3.82-1.35-8.54,7.51c-1.26-.05-2.4-.72-1.81-1.79.49-3.46,2.23-6.95,3.12-10.34-.39-1.11-.05-2.39,1.03-3.83.37-2.58,1.44-4.24,3.21-4.99-1.98-1.4.8-7.9,3.18-7.73l21,5.91Z"/>
        <path class="cls-56" d="M149.22,340.47c.01-.61.04-1.51.47-1.67,5.16-1.85,17.73-5.89,19.62.81,1.08.03.84.44-.1.98-.76,1.12-1.99,2.44-3.16,3.11-3.51,1.99-22.49,8.02-26.75,8.76l-4.48.4c-.87.04-1.74.03-2.59-.16-4.22-5.52-7.21-11.99-10.58-18.08-1.06-1.51-.01-1.78,1.65-1.5l17.28,9.23,7.39-3.06,1.25,1.19Z"/>
        <path class="cls-2" d="M170.03,340.51l-7.54,10.07c-1.61,2.15-1.5,5.51-1.99,7.92l-25.69-5.64c.04-.33.36-.67.92-.85l24.65-7.78c3.22-1.02,6.11-2.25,8.83-3.64.18-.67.45-.69.82-.07Z"/>
        <path class="cls-34" d="M177.94,367.26c-1.5,3.73-3.99,6.85-6.41,10.94-4.6-2.06-8.9-3.96-12.29-7.07,2.91-1.85,3.73-5.38,6.59-7.85,4.11,1.63,8.64,1.81,12.12,3.98Z"/>
        <path class="cls-60" d="M190.62,383.81c.3,1.86-14.02-8.4-9.95-8.12,0,.72.4,1.11,1.05.53l8.94-7.95c2.28.55,4.26,1.46,6.6,2.41l-4.93,8.48c-.91,1.57-1.75,3.01-1.71,4.65Z"/>
        <path class="cls-5" d="M188.04,356.53c-1.21,2.95-1.5,6.99-4.24,8.82-1.49.34-3.49.48-4.99,1.16l4.83-9.49c1.23-1.99,2.84-2.37,4.4-.5Z"/>
        <path class="cls-51" d="M150,316.63l13.47-.23.1.75c.28.66.56,1.41.33,2.07-.88,2.53-14.08,6.53-17.09,7.16l-2.12-.94c.09.58.14,1.49-.25,1.62-4.04,1.4-18.77,5.96-22.23,6.15-.55.03-1.07.04-1.59-.22.34-7.27,1.36-14.69,3.05-21.82,5.52,1.26,11.07,2.77,16.65,4.53,3.22.47,6.45.77,9.68.92Z"/>
        <path class="cls-99" d="M144.69,325.45c1.64-.58,2.08-.38,2.81,1.02.69,1.33,2.53,10.78,2.76,12.65l-1.04,1.35c-2.78.7-5.55,3.11-8.92,3.3l-18.29-9.64c-.18.16-.32.39-.36.48-.29-.52-1.07-.88-1.03-1.61.23-.96,1.13-1.25,2.23-1.55l21.84-6Z"/>
        <path class="cls-33" d="M131.19,293.94c.18.69.54,1,.89,1.55,1.43.71,2.78,1.88,4.07,3.52l11.58,17.42c.7-.18,1.56.29,2.27.2-3.19.05-6.97,1.44-10.47.43l-13.83-4c-1.17-.34-2.04-.88-2.03-1.87l6.06-25.52c.41,2.73.76,5.57,1.46,8.28Z"/>
        <path class="cls-54" d="M200.89,316.66c-2.4,10.68-6.01,21.13-9.61,31.48-.4,2.21-3.78,1.41-3.81-.72,3.84-9.61,7.45-19.35,10.44-29.26.2-.65,1.26-1.07,1.66-1.83.2-.39.93-.11,1.33.33Z"/>
        <path class="cls-96" d="M191.29,348.14c-.07.2.02.47-.06.66l-3.18,7.73c-1.45.31-2.92.48-4.4.5l3.84-9.61,3.81.72Z"/>
        <path class="cls-37" d="M170.23,324.75c2.42,3.78,4.4,13.52-.91,14.86-1.84-.5-3.77-2.41-5.98-2.7l-14.11,3.57c-1.24-1.59-2.87-17.57-4.54-15.02,4.46-1.23,8.81-3.28,13.68-4.27,2.56-.52,3.9-2.18,5.2-4.03,3.69.81,4.2,5.74,6.66,7.6Z"/>
        <path class="cls-105" d="M176.95,333.72c1.55.59-6.2,5.99-6.92,6.79l-.82.07.1-.98c3.39-1.26.84-11.93.91-14.86,3.06,2.31,4.43,5.75,6.72,8.97Z"/>
        <path class="cls-112" d="M223.64,325.5c.04-2.49-.91-5.39.54-7.5-.19,2.49.86,5.35-.54,7.5Z"/>
        <path class="cls-23" d="M153.65,309.65c-.96,2.81-4.3,4.41-5.92,6.78-1.61.41-2.35-.42-3.28-1.85l-12.36-19.09c-.19-.76.37-.83.91-.36,6.65,4.54,12.81,9.13,19.03,14.11.55.44,1.23.34,1.62.42Z"/>
      </g>
    </g>
  </g>
</svg>